%TF.GenerationSoftware,KiCad,Pcbnew,9.0.6*%
%TF.CreationDate,2025-12-26T01:47:03+08:00*%
%TF.ProjectId,hnr26-controller,686e7232-362d-4636-9f6e-74726f6c6c65,v0.0.6*%
%TF.SameCoordinates,Original*%
%TF.FileFunction,Copper,L1,Top*%
%TF.FilePolarity,Positive*%
%FSLAX46Y46*%
G04 Gerber Fmt 4.6, Leading zero omitted, Abs format (unit mm)*
G04 Created by KiCad (PCBNEW 9.0.6) date 2025-12-26 01:47:03*
%MOMM*%
%LPD*%
G01*
G04 APERTURE LIST*
G04 Aperture macros list*
%AMRoundRect*
0 Rectangle with rounded corners*
0 $1 Rounding radius*
0 $2 $3 $4 $5 $6 $7 $8 $9 X,Y pos of 4 corners*
0 Add a 4 corners polygon primitive as box body*
4,1,4,$2,$3,$4,$5,$6,$7,$8,$9,$2,$3,0*
0 Add four circle primitives for the rounded corners*
1,1,$1+$1,$2,$3*
1,1,$1+$1,$4,$5*
1,1,$1+$1,$6,$7*
1,1,$1+$1,$8,$9*
0 Add four rect primitives between the rounded corners*
20,1,$1+$1,$2,$3,$4,$5,0*
20,1,$1+$1,$4,$5,$6,$7,0*
20,1,$1+$1,$6,$7,$8,$9,0*
20,1,$1+$1,$8,$9,$2,$3,0*%
G04 Aperture macros list end*
%TA.AperFunction,EtchedComponent*%
%ADD10C,0.000000*%
%TD*%
%TA.AperFunction,ComponentPad*%
%ADD11C,1.600000*%
%TD*%
%TA.AperFunction,ComponentPad*%
%ADD12C,2.000000*%
%TD*%
%TA.AperFunction,ComponentPad*%
%ADD13C,1.300000*%
%TD*%
%TA.AperFunction,SMDPad,CuDef*%
%ADD14RoundRect,0.500000X-0.500000X1.000000X-0.500000X-1.000000X0.500000X-1.000000X0.500000X1.000000X0*%
%TD*%
%TA.AperFunction,ComponentPad*%
%ADD15C,1.700000*%
%TD*%
%TA.AperFunction,HeatsinkPad*%
%ADD16RoundRect,0.250000X-1.500000X1.500000X-1.500000X-1.500000X1.500000X-1.500000X1.500000X1.500000X0*%
%TD*%
%TA.AperFunction,ComponentPad*%
%ADD17RoundRect,0.250000X-0.400000X0.900000X-0.400000X-0.900000X0.400000X-0.900000X0.400000X0.900000X0*%
%TD*%
%TA.AperFunction,ComponentPad*%
%ADD18C,0.800000*%
%TD*%
%TA.AperFunction,ComponentPad*%
%ADD19C,6.400000*%
%TD*%
%TA.AperFunction,WasherPad*%
%ADD20C,3.000000*%
%TD*%
%TA.AperFunction,ComponentPad*%
%ADD21R,1.700000X1.700000*%
%TD*%
%TA.AperFunction,ComponentPad*%
%ADD22O,1.700000X1.700000*%
%TD*%
%TA.AperFunction,SMDPad,CuDef*%
%ADD23RoundRect,0.250000X-0.450000X0.350000X-0.450000X-0.350000X0.450000X-0.350000X0.450000X0.350000X0*%
%TD*%
%TA.AperFunction,WasherPad*%
%ADD24C,5.250000*%
%TD*%
%TA.AperFunction,ComponentPad*%
%ADD25C,1.000000*%
%TD*%
%TA.AperFunction,ViaPad*%
%ADD26C,2.000000*%
%TD*%
%TA.AperFunction,ViaPad*%
%ADD27C,1.000000*%
%TD*%
%TA.AperFunction,Conductor*%
%ADD28C,1.000000*%
%TD*%
G04 APERTURE END LIST*
D10*
%TA.AperFunction,EtchedComponent*%
%TO.C,REF\u002A\u002A*%
G36*
X10716152Y24109945D02*
G01*
X10884630Y23645833D01*
X10897344Y23645833D01*
X10887212Y23732853D01*
X10875887Y23825437D01*
X10849663Y24027295D01*
X10842957Y24080938D01*
X10837146Y24133786D01*
X10832229Y24185840D01*
X10828206Y24237099D01*
X10825077Y24287563D01*
X10822841Y24337233D01*
X10821500Y24386108D01*
X10821053Y24434188D01*
X10821053Y25031811D01*
X11342384Y25031811D01*
X11342384Y22965560D01*
X10789265Y22965560D01*
X10442770Y23890605D01*
X10274291Y24351538D01*
X10261579Y24351538D01*
X10271711Y24261735D01*
X10283036Y24167165D01*
X10295552Y24067826D01*
X10309258Y23963718D01*
X10315964Y23911565D01*
X10321776Y23860008D01*
X10326693Y23809047D01*
X10330717Y23758683D01*
X10333847Y23708914D01*
X10336083Y23659741D01*
X10337424Y23611164D01*
X10337872Y23563183D01*
X10337872Y22965560D01*
X9816537Y22965560D01*
X9816537Y25031811D01*
X10369657Y25031811D01*
X10716152Y24109945D01*
G37*
%TD.AperFunction*%
%TA.AperFunction,EtchedComponent*%
G36*
X12262986Y23703053D02*
G01*
X12263283Y23681098D01*
X12264174Y23659740D01*
X12265661Y23638979D01*
X12267744Y23618813D01*
X12270424Y23599244D01*
X12273703Y23580270D01*
X12277581Y23561892D01*
X12282059Y23544110D01*
X12284955Y23535865D01*
X12288075Y23527819D01*
X12291419Y23519971D01*
X12294985Y23512322D01*
X12298775Y23504872D01*
X12302788Y23497620D01*
X12307024Y23490567D01*
X12311483Y23483713D01*
X12316164Y23477057D01*
X12321069Y23470600D01*
X12326196Y23464342D01*
X12331546Y23458282D01*
X12337119Y23452421D01*
X12342914Y23446759D01*
X12348932Y23441295D01*
X12355172Y23436030D01*
X12361670Y23431410D01*
X12368439Y23427089D01*
X12375482Y23423066D01*
X12382796Y23419341D01*
X12390384Y23415913D01*
X12398244Y23412784D01*
X12406377Y23409953D01*
X12414783Y23407420D01*
X12423461Y23405185D01*
X12432413Y23403248D01*
X12441638Y23401609D01*
X12451136Y23400268D01*
X12460907Y23399225D01*
X12470952Y23398480D01*
X12481270Y23398033D01*
X12491862Y23397884D01*
X12502843Y23398033D01*
X12513526Y23398480D01*
X12523910Y23399225D01*
X12533996Y23400268D01*
X12543784Y23401609D01*
X12553273Y23403248D01*
X12562463Y23405185D01*
X12571355Y23407420D01*
X12579948Y23409953D01*
X12588243Y23412785D01*
X12596238Y23415914D01*
X12603935Y23419341D01*
X12611333Y23423066D01*
X12618432Y23427089D01*
X12625231Y23431410D01*
X12631732Y23436030D01*
X12637982Y23441295D01*
X12644008Y23446759D01*
X12649810Y23452421D01*
X12655388Y23458282D01*
X12660743Y23464342D01*
X12665873Y23470600D01*
X12670780Y23477057D01*
X12675462Y23483713D01*
X12679920Y23490567D01*
X12684154Y23497620D01*
X12688164Y23504872D01*
X12691950Y23512322D01*
X12695511Y23519971D01*
X12698847Y23527819D01*
X12701959Y23535865D01*
X12704846Y23544110D01*
X12707544Y23552927D01*
X12710067Y23561893D01*
X12712415Y23571007D01*
X12714589Y23580270D01*
X12716589Y23589683D01*
X12718414Y23599244D01*
X12721543Y23618813D01*
X12723975Y23638979D01*
X12725711Y23659740D01*
X12726752Y23681098D01*
X12727099Y23703053D01*
X12727099Y25031811D01*
X13254788Y25031811D01*
X13254788Y23766630D01*
X13254094Y23718748D01*
X13252012Y23672059D01*
X13248539Y23626562D01*
X13243676Y23582257D01*
X13237420Y23539144D01*
X13229771Y23497223D01*
X13220727Y23456494D01*
X13210288Y23416957D01*
X13204931Y23398045D01*
X13199175Y23379456D01*
X13193021Y23361190D01*
X13186469Y23343247D01*
X13179518Y23325626D01*
X13172169Y23308329D01*
X13164421Y23291354D01*
X13156276Y23274702D01*
X13147732Y23258373D01*
X13138790Y23242367D01*
X13129449Y23226684D01*
X13119711Y23211324D01*
X13109575Y23196287D01*
X13099040Y23181572D01*
X13088107Y23167181D01*
X13076776Y23153112D01*
X13065045Y23139788D01*
X13052891Y23126836D01*
X13040315Y23114257D01*
X13027315Y23102051D01*
X13013894Y23090217D01*
X13000049Y23078756D01*
X12985783Y23067668D01*
X12971093Y23056952D01*
X12955981Y23046608D01*
X12940446Y23036637D01*
X12924489Y23027039D01*
X12908109Y23017813D01*
X12891307Y23008959D01*
X12874082Y23000478D01*
X12856434Y22992369D01*
X12838364Y22984633D01*
X12820247Y22977704D01*
X12801658Y22971222D01*
X12782598Y22965188D01*
X12763067Y22959600D01*
X12743063Y22954459D01*
X12722588Y22949765D01*
X12701641Y22945518D01*
X12680222Y22941719D01*
X12658330Y22938366D01*
X12635967Y22935460D01*
X12613132Y22933002D01*
X12589824Y22930990D01*
X12566044Y22929426D01*
X12541791Y22928308D01*
X12517066Y22927638D01*
X12491868Y22927414D01*
X12491867Y22927414D01*
X12441911Y22928308D01*
X12393738Y22930990D01*
X12347350Y22935460D01*
X12324825Y22938366D01*
X12302746Y22941719D01*
X12281114Y22945518D01*
X12259928Y22949765D01*
X12239189Y22954459D01*
X12218896Y22959599D01*
X12199050Y22965187D01*
X12179651Y22971222D01*
X12160699Y22977704D01*
X12142194Y22984633D01*
X12124120Y22992369D01*
X12106442Y23000478D01*
X12089160Y23008959D01*
X12072274Y23017813D01*
X12055785Y23027039D01*
X12039692Y23036637D01*
X12023995Y23046608D01*
X12008696Y23056952D01*
X11993793Y23067668D01*
X11979287Y23078757D01*
X11965179Y23090218D01*
X11951468Y23102051D01*
X11938155Y23114258D01*
X11925239Y23126836D01*
X11912721Y23139788D01*
X11900601Y23153112D01*
X11889255Y23167181D01*
X11878255Y23181572D01*
X11867602Y23196287D01*
X11857297Y23211324D01*
X11847338Y23226684D01*
X11837727Y23242368D01*
X11828464Y23258374D01*
X11819547Y23274702D01*
X11810978Y23291354D01*
X11802757Y23308329D01*
X11794883Y23325626D01*
X11787357Y23343247D01*
X11780179Y23361190D01*
X11773349Y23379456D01*
X11766866Y23398045D01*
X11760732Y23416957D01*
X11750305Y23456494D01*
X11741267Y23497223D01*
X11733618Y23539144D01*
X11727358Y23582257D01*
X11722488Y23626562D01*
X11719009Y23672059D01*
X11716921Y23718748D01*
X11716225Y23766630D01*
X11716225Y25031811D01*
X12262986Y25031811D01*
X12262986Y23703053D01*
G37*
%TD.AperFunction*%
%TA.AperFunction,EtchedComponent*%
G36*
X5989497Y22306321D02*
G01*
X6021177Y22302764D01*
X6051575Y22296990D01*
X6080782Y22289127D01*
X6108887Y22279304D01*
X6135982Y22267649D01*
X6162157Y22254289D01*
X6187503Y22239355D01*
X6212110Y22222972D01*
X6236069Y22205271D01*
X6282407Y22166424D01*
X6327240Y22123841D01*
X6371294Y22078548D01*
X6459964Y21983935D01*
X6506030Y21936669D01*
X6554218Y21890798D01*
X6605251Y21847348D01*
X6632061Y21826852D01*
X6659855Y21807347D01*
X6688722Y21788960D01*
X6718755Y21771819D01*
X6750042Y21756054D01*
X6782675Y21741792D01*
X6833570Y21721934D01*
X6877383Y21706123D01*
X6916255Y21693176D01*
X6952325Y21681913D01*
X7024622Y21659703D01*
X7065128Y21646393D01*
X7111391Y21630035D01*
X7126931Y21624584D01*
X7142197Y21619638D01*
X7171704Y21610808D01*
X7199511Y21602647D01*
X7212650Y21598535D01*
X7225214Y21594253D01*
X7237150Y21589687D01*
X7248409Y21584725D01*
X7253769Y21582060D01*
X7258941Y21579254D01*
X7263918Y21576293D01*
X7268695Y21573162D01*
X7273264Y21569848D01*
X7277620Y21566337D01*
X7281757Y21562613D01*
X7285667Y21558664D01*
X7289346Y21554476D01*
X7292786Y21550033D01*
X7295981Y21545323D01*
X7298924Y21540330D01*
X7304279Y21529444D01*
X7308881Y21517798D01*
X7312750Y21505503D01*
X7315908Y21492669D01*
X7318374Y21479407D01*
X7320170Y21465828D01*
X7321315Y21452043D01*
X7321832Y21438161D01*
X7321739Y21424295D01*
X7321058Y21410554D01*
X7319810Y21397049D01*
X7318014Y21383891D01*
X7315692Y21371191D01*
X7312865Y21359059D01*
X7309552Y21347606D01*
X7305774Y21336943D01*
X7303623Y21327501D01*
X7302458Y21322721D01*
X7301223Y21317892D01*
X7299907Y21313009D01*
X7298502Y21308067D01*
X7297000Y21303058D01*
X7295391Y21297976D01*
X7288779Y21282761D01*
X7278616Y21266620D01*
X7248164Y21231866D01*
X7205090Y21194329D01*
X7150446Y21154624D01*
X7085287Y21113366D01*
X7010667Y21071169D01*
X6927639Y21028647D01*
X6837258Y20986416D01*
X6740576Y20945089D01*
X6638649Y20905282D01*
X6532528Y20867610D01*
X6423270Y20832686D01*
X6311926Y20801126D01*
X6199552Y20773543D01*
X6087200Y20750554D01*
X5975925Y20732771D01*
X5938888Y20727715D01*
X5902056Y20723333D01*
X5883738Y20721438D01*
X5865498Y20719763D01*
X5847343Y20718325D01*
X5829282Y20717142D01*
X5787663Y20714934D01*
X5749644Y20713396D01*
X5714008Y20712506D01*
X5679534Y20712242D01*
X5645061Y20712487D01*
X5609424Y20713379D01*
X5571406Y20714928D01*
X5529787Y20717142D01*
X5511726Y20718326D01*
X5493571Y20719767D01*
X5475330Y20721445D01*
X5457013Y20723344D01*
X5420181Y20727728D01*
X5383144Y20732771D01*
X5271869Y20750553D01*
X5159517Y20773542D01*
X5047142Y20801125D01*
X4935799Y20832685D01*
X4826540Y20867608D01*
X4720420Y20905281D01*
X4618492Y20945088D01*
X4521810Y20986415D01*
X4431429Y21028646D01*
X4348401Y21071168D01*
X4273781Y21113365D01*
X4208622Y21154624D01*
X4153978Y21194329D01*
X4130929Y21213407D01*
X4110904Y21231866D01*
X4094034Y21249629D01*
X4080452Y21266620D01*
X4070289Y21282761D01*
X4063677Y21297976D01*
X4062068Y21303058D01*
X4060566Y21308068D01*
X4059162Y21313012D01*
X4057847Y21317895D01*
X4056612Y21322724D01*
X4055448Y21327504D01*
X4053294Y21336943D01*
X4049517Y21347606D01*
X4046204Y21359058D01*
X4043376Y21371190D01*
X4041054Y21383890D01*
X4039259Y21397048D01*
X4038010Y21410553D01*
X4037329Y21424294D01*
X4037236Y21438161D01*
X4037753Y21452043D01*
X4038898Y21465829D01*
X4040694Y21479408D01*
X4043160Y21492670D01*
X4046318Y21505504D01*
X4050187Y21517799D01*
X4054789Y21529445D01*
X4060144Y21540330D01*
X4063088Y21545323D01*
X4066283Y21550033D01*
X4069722Y21554476D01*
X4073401Y21558665D01*
X4077311Y21562614D01*
X4081448Y21566337D01*
X4090373Y21573163D01*
X4100127Y21579256D01*
X4110659Y21584727D01*
X4121918Y21589689D01*
X4133854Y21594256D01*
X4146417Y21598538D01*
X4159556Y21602650D01*
X4187363Y21610812D01*
X4216870Y21619640D01*
X4232136Y21624586D01*
X4247676Y21630036D01*
X4293940Y21646394D01*
X4334445Y21659704D01*
X4406742Y21681913D01*
X4442813Y21693176D01*
X4481685Y21706122D01*
X4525498Y21721933D01*
X4576392Y21741792D01*
X4609025Y21756054D01*
X4640313Y21771819D01*
X4670345Y21788960D01*
X4699213Y21807347D01*
X4727006Y21826852D01*
X4753817Y21847348D01*
X4779734Y21868706D01*
X4804850Y21890798D01*
X4853037Y21936669D01*
X4899103Y21983935D01*
X4987774Y22078547D01*
X5031827Y22123841D01*
X5076661Y22166424D01*
X5099596Y22186378D01*
X5122998Y22205271D01*
X5146957Y22222972D01*
X5171565Y22239354D01*
X5196910Y22254289D01*
X5223085Y22267648D01*
X5250180Y22279304D01*
X5278286Y22289127D01*
X5307492Y22296990D01*
X5337890Y22302764D01*
X5369571Y22306320D01*
X5402624Y22307532D01*
X5679534Y22307422D01*
X5956443Y22307532D01*
X5989497Y22306321D01*
G37*
%TD.AperFunction*%
%TA.AperFunction,EtchedComponent*%
G36*
X14465505Y25069684D02*
G01*
X14488547Y25068865D01*
X14511590Y25067499D01*
X14534634Y25065587D01*
X14557678Y25063128D01*
X14580724Y25060123D01*
X14603771Y25056572D01*
X14626818Y25052474D01*
X14649866Y25047830D01*
X14672914Y25042640D01*
X14695963Y25036903D01*
X14719012Y25030620D01*
X14742062Y25023790D01*
X14765112Y25016414D01*
X14788162Y25008491D01*
X14811212Y25000022D01*
X14834503Y24991392D01*
X14857497Y24982191D01*
X14880192Y24972418D01*
X14902590Y24962075D01*
X14924691Y24951160D01*
X14946493Y24939673D01*
X14967999Y24927616D01*
X14989206Y24914988D01*
X15010116Y24901788D01*
X15030729Y24888017D01*
X15051045Y24873675D01*
X15071064Y24858762D01*
X15090785Y24843277D01*
X15110210Y24827222D01*
X15129338Y24810595D01*
X15148169Y24793397D01*
X14874788Y24450082D01*
X14847111Y24467813D01*
X14819736Y24484452D01*
X14792663Y24499999D01*
X14765892Y24514453D01*
X14739421Y24527814D01*
X14713250Y24540083D01*
X14687378Y24551258D01*
X14661805Y24561341D01*
X14648898Y24565961D01*
X14635619Y24570282D01*
X14621968Y24574305D01*
X14607946Y24578030D01*
X14593553Y24581457D01*
X14578788Y24584587D01*
X14563651Y24587418D01*
X14548142Y24589951D01*
X14532261Y24592186D01*
X14516008Y24594123D01*
X14499383Y24595762D01*
X14482387Y24597103D01*
X14465017Y24598146D01*
X14447276Y24598891D01*
X14429162Y24599338D01*
X14410676Y24599487D01*
X14399671Y24599351D01*
X14388915Y24598941D01*
X14378408Y24598258D01*
X14368150Y24597302D01*
X14358141Y24596072D01*
X14348381Y24594570D01*
X14338870Y24592794D01*
X14329607Y24590745D01*
X14320594Y24588423D01*
X14311828Y24585828D01*
X14303311Y24582959D01*
X14295042Y24579818D01*
X14287022Y24576403D01*
X14279250Y24572715D01*
X14271725Y24568754D01*
X14264449Y24564520D01*
X14260928Y24562493D01*
X14257520Y24560385D01*
X14254223Y24558196D01*
X14251037Y24555927D01*
X14247964Y24553577D01*
X14245002Y24551146D01*
X14242152Y24548635D01*
X14239414Y24546042D01*
X14236788Y24543369D01*
X14234273Y24540616D01*
X14231870Y24537782D01*
X14229579Y24534867D01*
X14227400Y24531871D01*
X14225332Y24528794D01*
X14223377Y24525637D01*
X14221533Y24522399D01*
X14219800Y24519081D01*
X14218180Y24515682D01*
X14216671Y24512202D01*
X14215275Y24508641D01*
X14213989Y24505000D01*
X14212816Y24501278D01*
X14211754Y24497475D01*
X14210805Y24493591D01*
X14209966Y24489627D01*
X14209240Y24485582D01*
X14208625Y24481457D01*
X14208123Y24477251D01*
X14207731Y24472964D01*
X14207452Y24468596D01*
X14207229Y24459618D01*
X14207378Y24453720D01*
X14207824Y24447946D01*
X14208569Y24442296D01*
X14209612Y24436770D01*
X14210953Y24431369D01*
X14212592Y24426092D01*
X14214528Y24420939D01*
X14216763Y24415910D01*
X14219297Y24411005D01*
X14222128Y24406224D01*
X14225257Y24401568D01*
X14228685Y24397036D01*
X14232411Y24392627D01*
X14236435Y24388343D01*
X14240758Y24384183D01*
X14245378Y24380147D01*
X14250283Y24376186D01*
X14255460Y24372249D01*
X14260909Y24368338D01*
X14266631Y24364451D01*
X14272627Y24360589D01*
X14278895Y24356752D01*
X14285437Y24352940D01*
X14292252Y24349153D01*
X14299341Y24345391D01*
X14306704Y24341653D01*
X14314340Y24337940D01*
X14322251Y24334253D01*
X14330436Y24330590D01*
X14338896Y24326951D01*
X14347630Y24323338D01*
X14356639Y24319749D01*
X14436886Y24288756D01*
X14531475Y24252993D01*
X14769889Y24154449D01*
X14804156Y24141287D01*
X14837035Y24127230D01*
X14852954Y24119867D01*
X14868525Y24112280D01*
X14883749Y24104470D01*
X14898626Y24096436D01*
X14913155Y24088178D01*
X14927337Y24079698D01*
X14941171Y24070993D01*
X14954657Y24062065D01*
X14967795Y24052913D01*
X14980586Y24043538D01*
X14993028Y24033939D01*
X15005123Y24024117D01*
X15017249Y24014456D01*
X15029003Y24004547D01*
X15040386Y23994390D01*
X15051397Y23983984D01*
X15062037Y23973330D01*
X15072305Y23962428D01*
X15082202Y23951277D01*
X15091726Y23939878D01*
X15100879Y23928231D01*
X15109660Y23916335D01*
X15118069Y23904191D01*
X15126106Y23891798D01*
X15133770Y23879157D01*
X15141062Y23866268D01*
X15147982Y23853130D01*
X15154530Y23839743D01*
X15160682Y23826096D01*
X15166439Y23812176D01*
X15171800Y23797983D01*
X15176765Y23783517D01*
X15181334Y23768777D01*
X15185506Y23753765D01*
X15189282Y23738479D01*
X15192661Y23722920D01*
X15195643Y23707088D01*
X15198228Y23690983D01*
X15200416Y23674604D01*
X15202206Y23657953D01*
X15203599Y23641028D01*
X15204594Y23623830D01*
X15205191Y23606359D01*
X15205390Y23588615D01*
X15205017Y23566847D01*
X15203900Y23545252D01*
X15202037Y23523832D01*
X15199430Y23502586D01*
X15196077Y23481514D01*
X15191979Y23460615D01*
X15187136Y23439891D01*
X15181549Y23419340D01*
X15175216Y23398963D01*
X15168139Y23378760D01*
X15160316Y23358731D01*
X15151749Y23338876D01*
X15142436Y23319194D01*
X15132379Y23299687D01*
X15121577Y23280353D01*
X15110030Y23261193D01*
X15097761Y23242741D01*
X15084796Y23224736D01*
X15071135Y23207178D01*
X15056778Y23190067D01*
X15041726Y23173403D01*
X15025979Y23157185D01*
X15009536Y23141415D01*
X14992398Y23126092D01*
X14974565Y23111216D01*
X14956038Y23096786D01*
X14936816Y23082804D01*
X14916899Y23069269D01*
X14896288Y23056181D01*
X14874983Y23043541D01*
X14852984Y23031347D01*
X14830291Y23019600D01*
X14806918Y23008438D01*
X14782901Y22997995D01*
X14758238Y22988272D01*
X14732931Y22979270D01*
X14706978Y22970987D01*
X14680380Y22963425D01*
X14653137Y22956583D01*
X14625248Y22950461D01*
X14596714Y22945059D01*
X14567535Y22940378D01*
X14537709Y22936417D01*
X14507238Y22933176D01*
X14476121Y22930655D01*
X14444358Y22928854D01*
X14411950Y22927774D01*
X14378896Y22927415D01*
X14353425Y22927699D01*
X14327879Y22928556D01*
X14302259Y22929984D01*
X14276565Y22931984D01*
X14250796Y22934554D01*
X14224953Y22937696D01*
X14199037Y22941409D01*
X14173046Y22945693D01*
X14120843Y22955975D01*
X14068345Y22968541D01*
X14015553Y22983392D01*
X13962468Y23000528D01*
X13936379Y23009965D01*
X13910562Y23019998D01*
X13885018Y23030627D01*
X13859747Y23041852D01*
X13834748Y23053674D01*
X13810023Y23066091D01*
X13785571Y23079105D01*
X13761392Y23092714D01*
X13737488Y23106920D01*
X13713856Y23121722D01*
X13690499Y23137119D01*
X13667416Y23153113D01*
X13644607Y23169703D01*
X13622073Y23186888D01*
X13599813Y23204670D01*
X13577828Y23223047D01*
X13889355Y23598151D01*
X13918998Y23576395D01*
X13949143Y23555633D01*
X13979789Y23535865D01*
X14010934Y23517090D01*
X14042577Y23499308D01*
X14074717Y23482520D01*
X14107354Y23466726D01*
X14140485Y23451924D01*
X14157577Y23445381D01*
X14174695Y23439259D01*
X14191839Y23433560D01*
X14209008Y23428282D01*
X14226203Y23423427D01*
X14243424Y23418994D01*
X14260670Y23414983D01*
X14277943Y23411394D01*
X14295240Y23408228D01*
X14312564Y23405483D01*
X14329913Y23403161D01*
X14347288Y23401261D01*
X14364689Y23399783D01*
X14382115Y23398728D01*
X14399567Y23398094D01*
X14417045Y23397883D01*
X14432256Y23398020D01*
X14446895Y23398430D01*
X14460963Y23399113D01*
X14474460Y23400069D01*
X14487385Y23401298D01*
X14499739Y23402801D01*
X14511522Y23404577D01*
X14522734Y23406626D01*
X14533375Y23408948D01*
X14543445Y23411543D01*
X14552944Y23414411D01*
X14561873Y23417553D01*
X14570231Y23420967D01*
X14578018Y23424655D01*
X14585234Y23428616D01*
X14591881Y23432850D01*
X14598422Y23437283D01*
X14604542Y23441840D01*
X14610240Y23446521D01*
X14615516Y23451326D01*
X14620371Y23456256D01*
X14624804Y23461310D01*
X14628815Y23466488D01*
X14632404Y23471790D01*
X14635572Y23477216D01*
X14636997Y23479976D01*
X14638317Y23482767D01*
X14639531Y23485589D01*
X14640640Y23488442D01*
X14641643Y23491326D01*
X14642541Y23494241D01*
X14643333Y23497187D01*
X14644019Y23500164D01*
X14644600Y23503172D01*
X14645076Y23506211D01*
X14645445Y23509282D01*
X14645709Y23512383D01*
X14645921Y23518679D01*
X14645784Y23526130D01*
X14645374Y23533382D01*
X14644690Y23540435D01*
X14643733Y23547290D01*
X14642503Y23553946D01*
X14641000Y23560403D01*
X14639223Y23566661D01*
X14637173Y23572721D01*
X14634850Y23578582D01*
X14632255Y23584244D01*
X14629386Y23589707D01*
X14626244Y23594972D01*
X14622830Y23600038D01*
X14619143Y23604906D01*
X14615183Y23609574D01*
X14610950Y23614044D01*
X14606449Y23618390D01*
X14601701Y23622686D01*
X14596706Y23626933D01*
X14591464Y23631130D01*
X14585974Y23635277D01*
X14580238Y23639375D01*
X14574253Y23643423D01*
X14568021Y23647422D01*
X14561541Y23651370D01*
X14554813Y23655270D01*
X14547837Y23659119D01*
X14540613Y23662919D01*
X14533140Y23666669D01*
X14525418Y23670369D01*
X14517447Y23674020D01*
X14509228Y23677621D01*
X14474060Y23692522D01*
X14435319Y23708615D01*
X14393002Y23725900D01*
X14347107Y23744377D01*
X14089619Y23852458D01*
X14060457Y23864081D01*
X14031793Y23876697D01*
X14003628Y23890306D01*
X13975961Y23904909D01*
X13948793Y23920505D01*
X13922123Y23937095D01*
X13895951Y23954678D01*
X13870278Y23973255D01*
X13858107Y23983313D01*
X13846233Y23993620D01*
X13834657Y24004175D01*
X13823379Y24014978D01*
X13812400Y24026030D01*
X13801718Y24037330D01*
X13791336Y24048878D01*
X13781251Y24060675D01*
X13771466Y24072719D01*
X13761979Y24085012D01*
X13752790Y24097554D01*
X13743901Y24110344D01*
X13735311Y24123382D01*
X13727020Y24136668D01*
X13719028Y24150203D01*
X13711335Y24163985D01*
X13704406Y24178427D01*
X13697923Y24193141D01*
X13691888Y24208129D01*
X13686300Y24223390D01*
X13681159Y24238925D01*
X13676465Y24254732D01*
X13672218Y24270813D01*
X13668419Y24287166D01*
X13665066Y24303793D01*
X13662161Y24320693D01*
X13659702Y24337867D01*
X13657691Y24355313D01*
X13656126Y24373033D01*
X13655009Y24391025D01*
X13654338Y24409291D01*
X13654115Y24427830D01*
X13654499Y24449945D01*
X13655654Y24471787D01*
X13657578Y24493356D01*
X13660271Y24514651D01*
X13663734Y24535674D01*
X13667968Y24556423D01*
X13672971Y24576900D01*
X13678744Y24597103D01*
X13685287Y24617033D01*
X13692600Y24636690D01*
X13700683Y24656073D01*
X13709537Y24675184D01*
X13719161Y24694021D01*
X13729555Y24712585D01*
X13740720Y24730876D01*
X13752655Y24748894D01*
X13765277Y24766936D01*
X13778521Y24784507D01*
X13792386Y24801606D01*
X13806874Y24818233D01*
X13821982Y24834388D01*
X13837713Y24850071D01*
X13854066Y24865283D01*
X13871040Y24880022D01*
X13888636Y24894289D01*
X13906853Y24908085D01*
X13925692Y24921409D01*
X13945154Y24934260D01*
X13965236Y24946640D01*
X13985941Y24958549D01*
X14007267Y24969985D01*
X14029215Y24980949D01*
X14051687Y24991728D01*
X14074606Y25001811D01*
X14097972Y25011199D01*
X14121786Y25019891D01*
X14146046Y25027888D01*
X14170755Y25035190D01*
X14195911Y25041796D01*
X14221514Y25047706D01*
X14247565Y25052922D01*
X14274064Y25057441D01*
X14301011Y25061266D01*
X14328405Y25064395D01*
X14356248Y25066828D01*
X14384539Y25068567D01*
X14413278Y25069610D01*
X14442465Y25069957D01*
X14465505Y25069684D01*
G37*
%TD.AperFunction*%
%TD*%
D11*
%TO.P,R1,1*%
%TO.N,VCC*%
X83820000Y13970000D03*
%TO.P,R1,2*%
%TO.N,Net-(U1-GPIO2{slash}A0{slash}D0)*%
X83820000Y3810000D03*
%TD*%
D12*
%TO.P,SW2,1,1*%
%TO.N,/BTN.D*%
X55170000Y8600000D03*
X61670000Y8600000D03*
%TO.P,SW2,2,2*%
%TO.N,GND*%
X55170000Y4100000D03*
X61670000Y4100000D03*
%TD*%
D13*
%TO.P,U1,*%
%TO.N,*%
X92440000Y30480000D03*
X89860000Y30480000D03*
X87320000Y30480000D03*
X92440000Y27940000D03*
X89860000Y27940000D03*
X87320000Y27940000D03*
D14*
%TO.P,U1,1,GPIO2/A0/D0*%
%TO.N,Net-(U1-GPIO2{slash}A0{slash}D0)*%
X91440000Y37710000D03*
D15*
X91440000Y36830000D03*
D14*
%TO.P,U1,2,GPIO3/A1/D1*%
%TO.N,unconnected-(U1-GPIO3{slash}A1{slash}D1-Pad2)*%
X88900000Y37710000D03*
D15*
%TO.N,unconnected-(U1-GPIO3{slash}A1{slash}D1-Pad2)_1*%
X88900000Y36830000D03*
D14*
%TO.P,U1,3,GPIO4/A2/D2*%
%TO.N,unconnected-(U1-GPIO4{slash}A2{slash}D2-Pad3)*%
X86360000Y37710000D03*
D15*
%TO.N,unconnected-(U1-GPIO4{slash}A2{slash}D2-Pad3)_1*%
X86360000Y36830000D03*
D14*
%TO.P,U1,4,GPIO5/A3/D3*%
%TO.N,unconnected-(U1-GPIO5{slash}A3{slash}D3-Pad4)_1*%
X83820000Y37710000D03*
D15*
%TO.N,unconnected-(U1-GPIO5{slash}A3{slash}D3-Pad4)*%
X83820000Y36830000D03*
D14*
%TO.P,U1,5,GPIO6/D4/SDA*%
%TO.N,/I2C.SDA*%
X81280000Y37710000D03*
D15*
X81280000Y36830000D03*
D14*
%TO.P,U1,6,GPIO7/D5/SCL*%
%TO.N,/I2C.SCL*%
X78740000Y37710000D03*
D15*
X78740000Y36830000D03*
D14*
%TO.P,U1,7,GPIO21/D6/TX*%
%TO.N,unconnected-(U1-GPIO21{slash}D6{slash}TX-Pad7)_1*%
X76200000Y37710000D03*
D15*
%TO.N,unconnected-(U1-GPIO21{slash}D6{slash}TX-Pad7)*%
X76200000Y36830000D03*
%TO.P,U1,8,GPIO20/D7/RX*%
%TO.N,/BTN.U*%
X76200000Y21590000D03*
D14*
X76200000Y20710000D03*
D15*
%TO.P,U1,9,GPIO8/D8/SCK*%
%TO.N,/BTN.E*%
X78740000Y21590000D03*
D14*
X78740000Y20710000D03*
D15*
%TO.P,U1,10,GPIO9/D9/MISO*%
%TO.N,/BTN.D*%
X81280000Y21590000D03*
D14*
X81280000Y20710000D03*
D15*
%TO.P,U1,11,GPIO10/D10/MOSI*%
%TO.N,unconnected-(U1-GPIO10{slash}D10{slash}MOSI-Pad11)_1*%
X83820000Y21590000D03*
D14*
%TO.N,unconnected-(U1-GPIO10{slash}D10{slash}MOSI-Pad11)*%
X83820000Y20710000D03*
D15*
%TO.P,U1,12,3V3*%
%TO.N,VCC*%
X86360000Y21590000D03*
D14*
X86360000Y20710000D03*
D15*
%TO.P,U1,13,GND*%
%TO.N,GND*%
X88900000Y21590000D03*
D14*
X88900000Y20710000D03*
D15*
%TO.P,U1,14,VBUS*%
%TO.N,unconnected-(U1-VBUS-Pad14)*%
X91440000Y21590000D03*
D14*
%TO.N,unconnected-(U1-VBUS-Pad14)_1*%
X91440000Y20710000D03*
D16*
%TO.P,U1,15,GND*%
%TO.N,GND*%
X83220000Y27110000D03*
D17*
%TO.P,U1,16,BAT*%
%TO.N,unconnected-(U1-BAT-Pad16)*%
X84220000Y33710000D03*
%TO.P,U1,17,GND*%
%TO.N,GND*%
X86120000Y33710000D03*
%TD*%
D11*
%TO.P,R2,1*%
%TO.N,VCC*%
X78740000Y3810000D03*
%TO.P,R2,2*%
%TO.N,/BTN.E*%
X78740000Y13970000D03*
%TD*%
D18*
%TO.P,H1,1,1*%
%TO.N,unconnected-(H1-Pad1)_5*%
X86500000Y12700000D03*
%TO.N,unconnected-(H1-Pad1)_4*%
X87202944Y14397056D03*
%TO.N,unconnected-(H1-Pad1)_8*%
X87202944Y11002944D03*
%TO.N,unconnected-(H1-Pad1)_6*%
X88900000Y15100000D03*
D19*
%TO.N,unconnected-(H1-Pad1)_3*%
X88900000Y12700000D03*
D18*
%TO.N,unconnected-(H1-Pad1)_7*%
X88900000Y10300000D03*
%TO.N,unconnected-(H1-Pad1)_2*%
X90597056Y14397056D03*
%TO.N,unconnected-(H1-Pad1)_1*%
X90597056Y11002944D03*
%TO.N,unconnected-(H1-Pad1)*%
X91300000Y12700000D03*
%TD*%
D12*
%TO.P,SW3,1,1*%
%TO.N,/BTN.E*%
X65330000Y8600000D03*
X71830000Y8600000D03*
%TO.P,SW3,2,2*%
%TO.N,GND*%
X65330000Y4100000D03*
X71830000Y4100000D03*
%TD*%
D20*
%TO.P,U3,*%
%TO.N,*%
X45500000Y38870000D03*
X45500000Y15070000D03*
X68800000Y38870000D03*
X68800000Y15070000D03*
D21*
%TO.P,U3,1,GND*%
%TO.N,GND*%
X53340000Y39370000D03*
D22*
%TO.P,U3,2,VCC*%
%TO.N,VCC*%
X55880000Y39370000D03*
%TO.P,U3,3,SCL*%
%TO.N,/I2C.SCL*%
X58420000Y39370000D03*
%TO.P,U3,4,SDA*%
%TO.N,/I2C.SDA*%
X60960000Y39370000D03*
%TD*%
D23*
%TO.P,R3,1*%
%TO.N,VCC*%
X29210000Y26400000D03*
%TO.P,R3,2*%
%TO.N,/I2C.SDA*%
X29210000Y24400000D03*
%TD*%
D12*
%TO.P,SW1,1,1*%
%TO.N,/BTN.U*%
X45010000Y8600000D03*
X51510000Y8600000D03*
%TO.P,SW1,2,2*%
%TO.N,GND*%
X45010000Y4100000D03*
X51510000Y4100000D03*
%TD*%
D23*
%TO.P,R4,1*%
%TO.N,VCC*%
X25400000Y26400000D03*
%TO.P,R4,2*%
%TO.N,/I2C.SCL*%
X25400000Y24400000D03*
%TD*%
D24*
%TO.P,U2,*%
%TO.N,*%
X35590000Y33190000D03*
X7790000Y7990000D03*
D21*
%TO.P,U2,1,RSTO*%
%TO.N,unconnected-(U2-RSTO-Pad1)*%
X10160000Y34290000D03*
D15*
%TO.P,U2,2,IRQ*%
%TO.N,unconnected-(U2-IRQ-Pad2)*%
X12700000Y34290000D03*
%TO.P,U2,3,GND*%
%TO.N,GND*%
X15240000Y34290000D03*
%TO.P,U2,4,VCC*%
%TO.N,VCC*%
X17780000Y34290000D03*
%TO.P,U2,5,SS*%
%TO.N,unconnected-(U2-SS-Pad5)*%
X20320000Y34290000D03*
%TO.P,U2,6,MOSI*%
%TO.N,unconnected-(U2-MOSI-Pad6)*%
X22860000Y34290000D03*
%TO.P,U2,7,MISO*%
%TO.N,unconnected-(U2-MISO-Pad7)*%
X25400000Y34290000D03*
%TO.P,U2,8,SCK*%
%TO.N,unconnected-(U2-SCK-Pad8)*%
X27940000Y34290000D03*
%TO.P,U2,9,GND*%
%TO.N,GND*%
X36640000Y24400000D03*
%TO.P,U2,10,VCC*%
%TO.N,VCC*%
X36640000Y21860000D03*
%TO.P,U2,11,SDA/TXD*%
%TO.N,/I2C.SDA*%
X36640000Y19320000D03*
%TO.P,U2,12,SCL/RXD*%
%TO.N,/I2C.SCL*%
X36640000Y16780000D03*
D25*
%TO.P,U2,13,AUX1*%
%TO.N,unconnected-(U2-AUX1-Pad13)*%
X25090000Y10090000D03*
%TO.P,U2,14,AUX2*%
%TO.N,unconnected-(U2-AUX2-Pad14)*%
X23820000Y10090000D03*
%TO.P,U2,15,DBGRXD*%
%TO.N,unconnected-(U2-DBGRXD-Pad15)*%
X22550000Y10090000D03*
%TO.P,U2,16,DBGTXD*%
%TO.N,unconnected-(U2-DBGTXD-Pad16)*%
X21280000Y10090000D03*
%TO.P,U2,17,INT0*%
%TO.N,unconnected-(U2-INT0-Pad17)*%
X20010000Y10090000D03*
%TO.P,U2,18,INT1*%
%TO.N,unconnected-(U2-INT1-Pad18)*%
X18740000Y10090000D03*
%TO.P,U2,19,SIGCLK*%
%TO.N,unconnected-(U2-SIGCLK-Pad19)*%
X17470000Y10090000D03*
%TO.P,U2,20,SIGOUT*%
%TO.N,unconnected-(U2-SIGOUT-Pad20)*%
X16200000Y10090000D03*
%TO.P,U2,21,SIGIN*%
%TO.N,unconnected-(U2-SIGIN-Pad21)*%
X14930000Y10090000D03*
%TO.P,U2,22,RSTPDN*%
%TO.N,unconnected-(U2-RSTPDN-Pad22)*%
X13660000Y10090000D03*
%TD*%
D26*
%TO.N,VCC*%
X50800000Y15240000D03*
D27*
%TO.N,GND*%
X39370000Y13970000D03*
X60960000Y21590000D03*
X64770000Y16510000D03*
X25400000Y17780000D03*
X62230000Y29210000D03*
X7620000Y17780000D03*
X20320000Y5080000D03*
X54610000Y30480000D03*
X72390000Y38100000D03*
X81280000Y16510000D03*
%TD*%
D28*
%TO.N,VCC*%
X55880000Y34290000D02*
X55880000Y39370000D01*
X36640000Y21860000D02*
X43450000Y21860000D01*
X43450000Y21860000D02*
X55880000Y34290000D01*
X83820000Y13970000D02*
X83820000Y8890000D01*
X86360000Y21590000D02*
X83820000Y24130000D01*
X32100000Y26400000D02*
X29210000Y26400000D01*
X86360000Y17998424D02*
X83820000Y15458424D01*
X59690000Y24130000D02*
X50800000Y15240000D01*
X83820000Y24130000D02*
X59690000Y24130000D01*
X83820000Y8890000D02*
X78740000Y3810000D01*
X29210000Y26400000D02*
X25400000Y26400000D01*
X25400000Y26400000D02*
X17780000Y34020000D01*
X83820000Y13970000D02*
X83820000Y15458424D01*
X17780000Y34020000D02*
X17780000Y34290000D01*
X86360000Y20710000D02*
X86360000Y17998424D01*
X36640000Y21860000D02*
X32100000Y26400000D01*
%TO.N,/BTN.E*%
X71830000Y8600000D02*
X73370000Y8600000D01*
X65330000Y8600000D02*
X71830000Y8600000D01*
X73370000Y8600000D02*
X78740000Y13970000D01*
%TO.N,GND*%
X88900000Y17780000D02*
X88900000Y20710000D01*
X88900000Y24130000D02*
X87630000Y25400000D01*
X84930000Y25400000D02*
X83220000Y27110000D01*
X88900000Y21590000D02*
X88900000Y24130000D01*
X87630000Y25400000D02*
X84930000Y25400000D01*
%TO.N,/BTN.U*%
X51510000Y8600000D02*
X61960000Y19050000D01*
X74540000Y19050000D02*
X76200000Y20710000D01*
X45010000Y8600000D02*
X51510000Y8600000D01*
X61960000Y19050000D02*
X74540000Y19050000D01*
%TO.N,/I2C.SCL*%
X36640000Y16780000D02*
X43450000Y16780000D01*
X33020000Y16780000D02*
X25400000Y24400000D01*
X76200000Y34290000D02*
X78740000Y36830000D01*
X58420000Y39370000D02*
X63500000Y34290000D01*
X63500000Y34290000D02*
X76200000Y34290000D01*
X43450000Y16780000D02*
X57150000Y30480000D01*
X57150000Y30480000D02*
X57150000Y38100000D01*
X57150000Y38100000D02*
X58420000Y39370000D01*
X36640000Y16780000D02*
X33020000Y16780000D01*
%TO.N,/BTN.D*%
X81280000Y19210000D02*
X81280000Y20710000D01*
X55170000Y8600000D02*
X61670000Y8600000D01*
X73500000Y11430000D02*
X81280000Y19210000D01*
X64500000Y11430000D02*
X73500000Y11430000D01*
X61670000Y8600000D02*
X64500000Y11430000D01*
%TO.N,/I2C.SDA*%
X34290000Y19320000D02*
X29210000Y24400000D01*
X36640000Y19320000D02*
X34290000Y19320000D01*
%TD*%
%TA.AperFunction,Conductor*%
%TO.N,GND*%
G36*
X77524865Y18998116D02*
G01*
X77548357Y18983019D01*
X77686593Y18870302D01*
X77866951Y18776091D01*
X78062582Y18720114D01*
X78181963Y18709500D01*
X79065217Y18709501D01*
X79132256Y18689817D01*
X79178011Y18637013D01*
X79187955Y18567854D01*
X79158930Y18504298D01*
X79152898Y18497820D01*
X73121899Y12466819D01*
X73060576Y12433334D01*
X73034218Y12430500D01*
X64401456Y12430500D01*
X64208171Y12392054D01*
X64208167Y12392052D01*
X64208165Y12392052D01*
X64208164Y12392051D01*
X64132745Y12360812D01*
X64132743Y12360811D01*
X64026089Y12316634D01*
X64026079Y12316629D01*
X63862218Y12207140D01*
X63862214Y12207137D01*
X61791899Y10136819D01*
X61730576Y10103334D01*
X61704218Y10100500D01*
X61551903Y10100500D01*
X61318631Y10063554D01*
X61094003Y9990567D01*
X60883566Y9883343D01*
X60774550Y9804138D01*
X60692490Y9744517D01*
X60692488Y9744515D01*
X60692487Y9744515D01*
X60584792Y9636819D01*
X60523469Y9603334D01*
X60497111Y9600500D01*
X56342889Y9600500D01*
X56275850Y9620185D01*
X56255208Y9636819D01*
X56147512Y9744515D01*
X56147510Y9744517D01*
X55956433Y9883343D01*
X55745996Y9990567D01*
X55521368Y10063554D01*
X55288097Y10100500D01*
X55288092Y10100500D01*
X55051908Y10100500D01*
X55051903Y10100500D01*
X54818630Y10063553D01*
X54818627Y10063553D01*
X54672652Y10016122D01*
X54602811Y10014127D01*
X54542978Y10050207D01*
X54512150Y10112908D01*
X54520115Y10182323D01*
X54546650Y10221731D01*
X59526048Y15201128D01*
X66799500Y15201128D01*
X66799500Y14938873D01*
X66817064Y14805473D01*
X66833730Y14678884D01*
X66901602Y14425582D01*
X66901605Y14425572D01*
X67001953Y14183310D01*
X67001958Y14183300D01*
X67133075Y13956197D01*
X67292718Y13748149D01*
X67292726Y13748140D01*
X67478140Y13562726D01*
X67478148Y13562719D01*
X67686196Y13403076D01*
X67913299Y13271959D01*
X67913309Y13271954D01*
X68155571Y13171606D01*
X68155581Y13171602D01*
X68408884Y13103730D01*
X68668880Y13069500D01*
X68668887Y13069500D01*
X68931113Y13069500D01*
X68931120Y13069500D01*
X69191116Y13103730D01*
X69444419Y13171602D01*
X69686697Y13271957D01*
X69913803Y13403076D01*
X70121851Y13562718D01*
X70121855Y13562723D01*
X70121860Y13562726D01*
X70307274Y13748140D01*
X70307277Y13748145D01*
X70307282Y13748149D01*
X70466924Y13956197D01*
X70598043Y14183303D01*
X70698398Y14425581D01*
X70766270Y14678884D01*
X70800500Y14938880D01*
X70800500Y15201120D01*
X70766270Y15461116D01*
X70698398Y15714419D01*
X70683555Y15750253D01*
X70598046Y15956691D01*
X70598041Y15956701D01*
X70466924Y16183804D01*
X70344424Y16343446D01*
X70307282Y16391851D01*
X70307281Y16391852D01*
X70307274Y16391860D01*
X70121860Y16577274D01*
X70121851Y16577282D01*
X69913803Y16736925D01*
X69686700Y16868042D01*
X69686690Y16868047D01*
X69444428Y16968395D01*
X69444421Y16968397D01*
X69444419Y16968398D01*
X69191116Y17036270D01*
X69133339Y17043877D01*
X68931127Y17070500D01*
X68931120Y17070500D01*
X68668880Y17070500D01*
X68668872Y17070500D01*
X68437772Y17040074D01*
X68408884Y17036270D01*
X68155581Y16968398D01*
X68155571Y16968395D01*
X67913309Y16868047D01*
X67913299Y16868042D01*
X67686196Y16736925D01*
X67478148Y16577282D01*
X67292718Y16391852D01*
X67133075Y16183804D01*
X67001958Y15956701D01*
X67001953Y15956691D01*
X66901605Y15714429D01*
X66901602Y15714419D01*
X66833730Y15461115D01*
X66799500Y15201128D01*
X59526048Y15201128D01*
X62338102Y18013181D01*
X62399425Y18046666D01*
X62425783Y18049500D01*
X74638542Y18049500D01*
X74669566Y18055672D01*
X74735188Y18068725D01*
X74831836Y18087949D01*
X74885165Y18110039D01*
X75013914Y18163368D01*
X75177782Y18272861D01*
X75317139Y18412218D01*
X75317139Y18412220D01*
X75327347Y18422427D01*
X75327348Y18422430D01*
X75578104Y18673185D01*
X75639423Y18706667D01*
X75665771Y18709501D01*
X76758036Y18709501D01*
X76877418Y18720114D01*
X77073049Y18776091D01*
X77253407Y18870302D01*
X77391640Y18983017D01*
X77456035Y19010125D01*
X77524865Y18998116D01*
G37*
%TD.AperFunction*%
%TA.AperFunction,Conductor*%
G36*
X56068834Y32961401D02*
G01*
X56124767Y32919529D01*
X56149184Y32854065D01*
X56149500Y32845219D01*
X56149500Y30945782D01*
X56129815Y30878743D01*
X56113181Y30858101D01*
X43071899Y17816819D01*
X43010576Y17783334D01*
X42984218Y17780500D01*
X37600200Y17780500D01*
X37533161Y17800185D01*
X37520634Y17809494D01*
X37347820Y17935049D01*
X37347115Y17935409D01*
X37339054Y17939515D01*
X37288259Y17987488D01*
X37271463Y18055308D01*
X37293999Y18121444D01*
X37339054Y18160485D01*
X37347816Y18164949D01*
X37369789Y18180914D01*
X37519786Y18289891D01*
X37519788Y18289894D01*
X37519792Y18289896D01*
X37670104Y18440208D01*
X37670106Y18440212D01*
X37670109Y18440214D01*
X37795048Y18612180D01*
X37795047Y18612180D01*
X37795051Y18612184D01*
X37891557Y18801588D01*
X37957246Y19003757D01*
X37990500Y19213713D01*
X37990500Y19426287D01*
X37957246Y19636243D01*
X37891557Y19838412D01*
X37795051Y20027816D01*
X37795049Y20027819D01*
X37795048Y20027821D01*
X37670109Y20199787D01*
X37519786Y20350110D01*
X37347820Y20475049D01*
X37347115Y20475409D01*
X37339054Y20479515D01*
X37288259Y20527488D01*
X37271463Y20595308D01*
X37293999Y20661444D01*
X37339054Y20700485D01*
X37347816Y20704949D01*
X37378928Y20727553D01*
X37523734Y20832759D01*
X37524364Y20831892D01*
X37583419Y20858359D01*
X37600200Y20859500D01*
X43548543Y20859500D01*
X43583251Y20866405D01*
X43670483Y20883756D01*
X43741836Y20897949D01*
X43795165Y20920039D01*
X43923914Y20973368D01*
X44087782Y21082861D01*
X44227139Y21222218D01*
X44227139Y21222220D01*
X44237347Y21232427D01*
X44237348Y21232430D01*
X55937821Y32932902D01*
X55999142Y32966385D01*
X56068834Y32961401D01*
G37*
%TD.AperFunction*%
%TA.AperFunction,Conductor*%
G36*
X91003032Y41499352D02*
G01*
X91336929Y41482948D01*
X91349037Y41481755D01*
X91452146Y41466461D01*
X91676699Y41433151D01*
X91688617Y41430781D01*
X92009951Y41350291D01*
X92021588Y41346760D01*
X92092806Y41321278D01*
X92333467Y41235168D01*
X92344688Y41230521D01*
X92644163Y41088880D01*
X92654871Y41083156D01*
X92938988Y40912863D01*
X92949103Y40906105D01*
X93134779Y40768398D01*
X93215170Y40708776D01*
X93224576Y40701056D01*
X93470013Y40478605D01*
X93478604Y40470014D01*
X93562659Y40377274D01*
X93701055Y40224577D01*
X93708775Y40215171D01*
X93906102Y39949107D01*
X93912862Y39938989D01*
X94049813Y39710499D01*
X94083148Y39654884D01*
X94088883Y39644156D01*
X94194376Y39421109D01*
X94230514Y39344703D01*
X94235170Y39333460D01*
X94346759Y39021589D01*
X94350292Y39009945D01*
X94430777Y38688631D01*
X94433151Y38676695D01*
X94481754Y38349038D01*
X94482947Y38336929D01*
X94499351Y38003034D01*
X94499500Y37996949D01*
X94499500Y4003052D01*
X94499351Y3996967D01*
X94482947Y3663072D01*
X94481754Y3650963D01*
X94433151Y3323306D01*
X94430777Y3311370D01*
X94350292Y2990056D01*
X94346759Y2978412D01*
X94235170Y2666541D01*
X94230514Y2655298D01*
X94088885Y2355849D01*
X94083148Y2345117D01*
X93912862Y2061012D01*
X93906102Y2050894D01*
X93708775Y1784830D01*
X93701055Y1775424D01*
X93478611Y1529994D01*
X93470006Y1521389D01*
X93224576Y1298945D01*
X93215170Y1291225D01*
X92949106Y1093898D01*
X92938988Y1087138D01*
X92654883Y916852D01*
X92644151Y911115D01*
X92344702Y769486D01*
X92333459Y764830D01*
X92021588Y653241D01*
X92009944Y649708D01*
X91688630Y569223D01*
X91676694Y566849D01*
X91349037Y518246D01*
X91336928Y517053D01*
X91021989Y501581D01*
X91003031Y500649D01*
X90996949Y500500D01*
X4003051Y500500D01*
X3996968Y500649D01*
X3976900Y501635D01*
X3663071Y517053D01*
X3650962Y518246D01*
X3323305Y566849D01*
X3311369Y569223D01*
X2990055Y649708D01*
X2978411Y653241D01*
X2666540Y764830D01*
X2655301Y769485D01*
X2355844Y911117D01*
X2345121Y916850D01*
X2061011Y1087138D01*
X2050893Y1093898D01*
X1784829Y1291225D01*
X1775423Y1298945D01*
X1736475Y1334245D01*
X1529986Y1521396D01*
X1521395Y1529987D01*
X1298944Y1775424D01*
X1291224Y1784830D01*
X1093897Y2050894D01*
X1087137Y2061012D01*
X916844Y2345129D01*
X911120Y2355837D01*
X769479Y2655312D01*
X764838Y2666515D01*
X658833Y2962781D01*
X653240Y2978412D01*
X649707Y2990056D01*
X615057Y3128387D01*
X569219Y3311383D01*
X566848Y3323306D01*
X518245Y3650963D01*
X517052Y3663073D01*
X500649Y3996968D01*
X500500Y4003052D01*
X500500Y4218053D01*
X43510000Y4218053D01*
X43510000Y3981948D01*
X43546934Y3748753D01*
X43619897Y3524198D01*
X43727087Y3313826D01*
X43787338Y3230896D01*
X43787340Y3230895D01*
X44486212Y3929767D01*
X44497482Y3887708D01*
X44569890Y3762292D01*
X44672292Y3659890D01*
X44797708Y3587482D01*
X44839765Y3576213D01*
X44140893Y2877342D01*
X44223828Y2817086D01*
X44434197Y2709898D01*
X44658752Y2636935D01*
X44658751Y2636935D01*
X44891948Y2600000D01*
X45128052Y2600000D01*
X45361247Y2636935D01*
X45585802Y2709898D01*
X45796163Y2817082D01*
X45796169Y2817086D01*
X45879104Y2877342D01*
X45879105Y2877342D01*
X45180233Y3576213D01*
X45222292Y3587482D01*
X45347708Y3659890D01*
X45450110Y3762292D01*
X45522518Y3887708D01*
X45533787Y3929766D01*
X46232658Y3230895D01*
X46232658Y3230896D01*
X46292914Y3313831D01*
X46292918Y3313837D01*
X46400102Y3524198D01*
X46473065Y3748753D01*
X46510000Y3981948D01*
X46510000Y4218053D01*
X50010000Y4218053D01*
X50010000Y3981948D01*
X50046934Y3748753D01*
X50119897Y3524198D01*
X50227087Y3313826D01*
X50287338Y3230896D01*
X50287340Y3230895D01*
X50986212Y3929767D01*
X50997482Y3887708D01*
X51069890Y3762292D01*
X51172292Y3659890D01*
X51297708Y3587482D01*
X51339765Y3576213D01*
X50640893Y2877342D01*
X50723828Y2817086D01*
X50934197Y2709898D01*
X51158752Y2636935D01*
X51158751Y2636935D01*
X51391948Y2600000D01*
X51628052Y2600000D01*
X51861247Y2636935D01*
X52085802Y2709898D01*
X52296163Y2817082D01*
X52296169Y2817086D01*
X52379104Y2877342D01*
X52379105Y2877342D01*
X51680233Y3576213D01*
X51722292Y3587482D01*
X51847708Y3659890D01*
X51950110Y3762292D01*
X52022518Y3887708D01*
X52033787Y3929767D01*
X52732658Y3230895D01*
X52732658Y3230896D01*
X52792914Y3313831D01*
X52792918Y3313837D01*
X52900102Y3524198D01*
X52973065Y3748753D01*
X53010000Y3981948D01*
X53010000Y4218053D01*
X53670000Y4218053D01*
X53670000Y3981948D01*
X53706934Y3748753D01*
X53779897Y3524198D01*
X53887087Y3313826D01*
X53947338Y3230896D01*
X53947340Y3230895D01*
X54646212Y3929767D01*
X54657482Y3887708D01*
X54729890Y3762292D01*
X54832292Y3659890D01*
X54957708Y3587482D01*
X54999765Y3576213D01*
X54300893Y2877342D01*
X54383828Y2817086D01*
X54594197Y2709898D01*
X54818752Y2636935D01*
X54818751Y2636935D01*
X55051948Y2600000D01*
X55288052Y2600000D01*
X55521247Y2636935D01*
X55745802Y2709898D01*
X55956163Y2817082D01*
X55956169Y2817086D01*
X56039104Y2877342D01*
X56039105Y2877342D01*
X55340233Y3576213D01*
X55382292Y3587482D01*
X55507708Y3659890D01*
X55610110Y3762292D01*
X55682518Y3887708D01*
X55693787Y3929766D01*
X56392658Y3230895D01*
X56392658Y3230896D01*
X56452914Y3313831D01*
X56452918Y3313837D01*
X56560102Y3524198D01*
X56633065Y3748753D01*
X56670000Y3981948D01*
X56670000Y4218053D01*
X60170000Y4218053D01*
X60170000Y3981948D01*
X60206934Y3748753D01*
X60279897Y3524198D01*
X60387087Y3313826D01*
X60447338Y3230896D01*
X60447340Y3230895D01*
X61146212Y3929767D01*
X61157482Y3887708D01*
X61229890Y3762292D01*
X61332292Y3659890D01*
X61457708Y3587482D01*
X61499765Y3576213D01*
X60800893Y2877342D01*
X60883828Y2817086D01*
X61094197Y2709898D01*
X61318752Y2636935D01*
X61318751Y2636935D01*
X61551948Y2600000D01*
X61788052Y2600000D01*
X62021247Y2636935D01*
X62245802Y2709898D01*
X62456163Y2817082D01*
X62456169Y2817086D01*
X62539104Y2877342D01*
X62539105Y2877342D01*
X61840233Y3576213D01*
X61882292Y3587482D01*
X62007708Y3659890D01*
X62110110Y3762292D01*
X62182518Y3887708D01*
X62193787Y3929767D01*
X62892658Y3230895D01*
X62892658Y3230896D01*
X62952914Y3313831D01*
X62952918Y3313837D01*
X63060102Y3524198D01*
X63133065Y3748753D01*
X63170000Y3981948D01*
X63170000Y4218053D01*
X63830000Y4218053D01*
X63830000Y3981948D01*
X63866934Y3748753D01*
X63939897Y3524198D01*
X64047087Y3313826D01*
X64107338Y3230896D01*
X64107340Y3230895D01*
X64806212Y3929767D01*
X64817482Y3887708D01*
X64889890Y3762292D01*
X64992292Y3659890D01*
X65117708Y3587482D01*
X65159765Y3576213D01*
X64460893Y2877342D01*
X64543828Y2817086D01*
X64754197Y2709898D01*
X64978752Y2636935D01*
X64978751Y2636935D01*
X65211948Y2600000D01*
X65448052Y2600000D01*
X65681247Y2636935D01*
X65905802Y2709898D01*
X66116163Y2817082D01*
X66116169Y2817086D01*
X66199104Y2877342D01*
X66199105Y2877342D01*
X65500233Y3576213D01*
X65542292Y3587482D01*
X65667708Y3659890D01*
X65770110Y3762292D01*
X65842518Y3887708D01*
X65853787Y3929767D01*
X66552658Y3230895D01*
X66552658Y3230896D01*
X66612914Y3313831D01*
X66612918Y3313837D01*
X66720102Y3524198D01*
X66793065Y3748753D01*
X66830000Y3981948D01*
X66830000Y4218053D01*
X70330000Y4218053D01*
X70330000Y3981948D01*
X70366934Y3748753D01*
X70439897Y3524198D01*
X70547087Y3313826D01*
X70607338Y3230896D01*
X70607340Y3230895D01*
X71306212Y3929767D01*
X71317482Y3887708D01*
X71389890Y3762292D01*
X71492292Y3659890D01*
X71617708Y3587482D01*
X71659765Y3576213D01*
X70960893Y2877342D01*
X71043828Y2817086D01*
X71254197Y2709898D01*
X71478752Y2636935D01*
X71478751Y2636935D01*
X71711948Y2600000D01*
X71948052Y2600000D01*
X72181247Y2636935D01*
X72405802Y2709898D01*
X72616163Y2817082D01*
X72616169Y2817086D01*
X72699104Y2877342D01*
X72699105Y2877342D01*
X72000233Y3576213D01*
X72042292Y3587482D01*
X72167708Y3659890D01*
X72270110Y3762292D01*
X72342518Y3887708D01*
X72353787Y3929766D01*
X73052658Y3230895D01*
X73052658Y3230896D01*
X73112914Y3313831D01*
X73112918Y3313837D01*
X73220102Y3524198D01*
X73293065Y3748753D01*
X73330000Y3981948D01*
X73330000Y4218053D01*
X73293065Y4451248D01*
X73220102Y4675803D01*
X73112914Y4886172D01*
X73052658Y4969106D01*
X73052658Y4969107D01*
X72353787Y4270235D01*
X72342518Y4312292D01*
X72270110Y4437708D01*
X72167708Y4540110D01*
X72042292Y4612518D01*
X72000234Y4623788D01*
X72699105Y5322660D01*
X72699104Y5322662D01*
X72616174Y5382913D01*
X72405802Y5490103D01*
X72181247Y5563066D01*
X72181248Y5563066D01*
X71948052Y5600000D01*
X71711948Y5600000D01*
X71478752Y5563066D01*
X71254197Y5490103D01*
X71043830Y5382916D01*
X70960894Y5322660D01*
X71659766Y4623788D01*
X71617708Y4612518D01*
X71492292Y4540110D01*
X71389890Y4437708D01*
X71317482Y4312292D01*
X71306212Y4270234D01*
X70607340Y4969106D01*
X70547084Y4886170D01*
X70439897Y4675803D01*
X70366934Y4451248D01*
X70330000Y4218053D01*
X66830000Y4218053D01*
X66793065Y4451248D01*
X66720102Y4675803D01*
X66612914Y4886172D01*
X66552658Y4969106D01*
X66552658Y4969107D01*
X65853787Y4270235D01*
X65842518Y4312292D01*
X65770110Y4437708D01*
X65667708Y4540110D01*
X65542292Y4612518D01*
X65500234Y4623788D01*
X66199105Y5322660D01*
X66199104Y5322661D01*
X66116174Y5382913D01*
X65905802Y5490103D01*
X65681247Y5563066D01*
X65681248Y5563066D01*
X65448052Y5600000D01*
X65211948Y5600000D01*
X64978752Y5563066D01*
X64754197Y5490103D01*
X64543830Y5382916D01*
X64460894Y5322660D01*
X65159766Y4623788D01*
X65117708Y4612518D01*
X64992292Y4540110D01*
X64889890Y4437708D01*
X64817482Y4312292D01*
X64806212Y4270234D01*
X64107340Y4969106D01*
X64047084Y4886170D01*
X63939897Y4675803D01*
X63866934Y4451248D01*
X63830000Y4218053D01*
X63170000Y4218053D01*
X63133065Y4451248D01*
X63060102Y4675803D01*
X62952914Y4886172D01*
X62892658Y4969106D01*
X62892658Y4969107D01*
X62193787Y4270235D01*
X62182518Y4312292D01*
X62110110Y4437708D01*
X62007708Y4540110D01*
X61882292Y4612518D01*
X61840234Y4623788D01*
X62539105Y5322660D01*
X62539104Y5322661D01*
X62456174Y5382913D01*
X62245802Y5490103D01*
X62021247Y5563066D01*
X62021248Y5563066D01*
X61788052Y5600000D01*
X61551948Y5600000D01*
X61318752Y5563066D01*
X61094197Y5490103D01*
X60883830Y5382916D01*
X60800894Y5322660D01*
X61499766Y4623788D01*
X61457708Y4612518D01*
X61332292Y4540110D01*
X61229890Y4437708D01*
X61157482Y4312292D01*
X61146212Y4270234D01*
X60447340Y4969106D01*
X60387084Y4886170D01*
X60279897Y4675803D01*
X60206934Y4451248D01*
X60170000Y4218053D01*
X56670000Y4218053D01*
X56633065Y4451248D01*
X56560102Y4675803D01*
X56452914Y4886172D01*
X56392658Y4969106D01*
X56392658Y4969107D01*
X55693787Y4270235D01*
X55682518Y4312292D01*
X55610110Y4437708D01*
X55507708Y4540110D01*
X55382292Y4612518D01*
X55340234Y4623788D01*
X56039105Y5322660D01*
X56039104Y5322661D01*
X55956174Y5382913D01*
X55745802Y5490103D01*
X55521247Y5563066D01*
X55521248Y5563066D01*
X55288052Y5600000D01*
X55051948Y5600000D01*
X54818752Y5563066D01*
X54594197Y5490103D01*
X54383830Y5382916D01*
X54300894Y5322660D01*
X54999766Y4623788D01*
X54957708Y4612518D01*
X54832292Y4540110D01*
X54729890Y4437708D01*
X54657482Y4312292D01*
X54646212Y4270235D01*
X53947340Y4969106D01*
X53887084Y4886170D01*
X53779897Y4675803D01*
X53706934Y4451248D01*
X53670000Y4218053D01*
X53010000Y4218053D01*
X52973065Y4451248D01*
X52900102Y4675803D01*
X52792914Y4886172D01*
X52732658Y4969106D01*
X52732658Y4969107D01*
X52033787Y4270235D01*
X52022518Y4312292D01*
X51950110Y4437708D01*
X51847708Y4540110D01*
X51722292Y4612518D01*
X51680234Y4623788D01*
X52379105Y5322660D01*
X52379104Y5322661D01*
X52296174Y5382913D01*
X52085802Y5490103D01*
X51861247Y5563066D01*
X51861248Y5563066D01*
X51628052Y5600000D01*
X51391948Y5600000D01*
X51158752Y5563066D01*
X50934197Y5490103D01*
X50723830Y5382916D01*
X50640894Y5322660D01*
X51339766Y4623788D01*
X51297708Y4612518D01*
X51172292Y4540110D01*
X51069890Y4437708D01*
X50997482Y4312292D01*
X50986212Y4270234D01*
X50287340Y4969106D01*
X50227084Y4886170D01*
X50119897Y4675803D01*
X50046934Y4451248D01*
X50010000Y4218053D01*
X46510000Y4218053D01*
X46473065Y4451248D01*
X46400102Y4675803D01*
X46292914Y4886172D01*
X46232658Y4969106D01*
X46232658Y4969107D01*
X45533787Y4270235D01*
X45522518Y4312292D01*
X45450110Y4437708D01*
X45347708Y4540110D01*
X45222292Y4612518D01*
X45180234Y4623788D01*
X45879105Y5322660D01*
X45879104Y5322661D01*
X45796174Y5382913D01*
X45585802Y5490103D01*
X45361247Y5563066D01*
X45361248Y5563066D01*
X45128052Y5600000D01*
X44891948Y5600000D01*
X44658752Y5563066D01*
X44434197Y5490103D01*
X44223830Y5382916D01*
X44140894Y5322660D01*
X44839766Y4623788D01*
X44797708Y4612518D01*
X44672292Y4540110D01*
X44569890Y4437708D01*
X44497482Y4312292D01*
X44486212Y4270234D01*
X43787340Y4969106D01*
X43727084Y4886170D01*
X43619897Y4675803D01*
X43546934Y4451248D01*
X43510000Y4218053D01*
X500500Y4218053D01*
X500500Y8165529D01*
X4664500Y8165529D01*
X4664500Y7814472D01*
X4703803Y7465647D01*
X4703805Y7465631D01*
X4781919Y7123388D01*
X4781923Y7123376D01*
X4897861Y6792045D01*
X4897867Y6792031D01*
X5050177Y6475757D01*
X5050179Y6475754D01*
X5236948Y6178513D01*
X5455823Y5904052D01*
X5704052Y5655823D01*
X5978513Y5436948D01*
X6275754Y5250179D01*
X6592038Y5097864D01*
X6592044Y5097862D01*
X6923375Y4981924D01*
X6923387Y4981920D01*
X7265634Y4903805D01*
X7614472Y4864501D01*
X7614473Y4864500D01*
X7614476Y4864500D01*
X7965527Y4864500D01*
X7965527Y4864501D01*
X8314366Y4903805D01*
X8656613Y4981920D01*
X8987962Y5097864D01*
X9304246Y5250179D01*
X9454417Y5344538D01*
X9511484Y5380395D01*
X9530484Y5392335D01*
X9601487Y5436948D01*
X9875948Y5655823D01*
X10124177Y5904052D01*
X10343052Y6178513D01*
X10529821Y6475754D01*
X10682136Y6792038D01*
X10798080Y7123387D01*
X10876195Y7465634D01*
X10915500Y7814476D01*
X10915500Y8165524D01*
X10876195Y8514366D01*
X10829695Y8718098D01*
X43509500Y8718098D01*
X43509500Y8481903D01*
X43546446Y8248632D01*
X43619433Y8024004D01*
X43721921Y7822861D01*
X43726657Y7813567D01*
X43865483Y7622490D01*
X44032490Y7455483D01*
X44223567Y7316657D01*
X44322991Y7265998D01*
X44434003Y7209434D01*
X44434005Y7209434D01*
X44434008Y7209432D01*
X44554412Y7170311D01*
X44658631Y7136447D01*
X44891903Y7099500D01*
X44891908Y7099500D01*
X45128097Y7099500D01*
X45361368Y7136447D01*
X45585992Y7209432D01*
X45796433Y7316657D01*
X45987510Y7455483D01*
X46095208Y7563181D01*
X46156531Y7596666D01*
X46182889Y7599500D01*
X50337111Y7599500D01*
X50404150Y7579815D01*
X50424792Y7563181D01*
X50532490Y7455483D01*
X50723567Y7316657D01*
X50822991Y7265998D01*
X50934003Y7209434D01*
X50934005Y7209434D01*
X50934008Y7209432D01*
X51054412Y7170311D01*
X51158631Y7136447D01*
X51391903Y7099500D01*
X51391908Y7099500D01*
X51628097Y7099500D01*
X51861368Y7136447D01*
X52085992Y7209432D01*
X52296433Y7316657D01*
X52487510Y7455483D01*
X52654517Y7622490D01*
X52793343Y7813567D01*
X52900568Y8024008D01*
X52973553Y8248632D01*
X52974121Y8252220D01*
X53010500Y8481903D01*
X53010500Y8634218D01*
X53030185Y8701257D01*
X53046819Y8721899D01*
X53276293Y8951373D01*
X53548268Y9223349D01*
X53609589Y9256832D01*
X53679280Y9251848D01*
X53735214Y9209977D01*
X53759631Y9144512D01*
X53753878Y9097348D01*
X53706447Y8951373D01*
X53706447Y8951370D01*
X53669500Y8718098D01*
X53669500Y8481903D01*
X53706446Y8248632D01*
X53779433Y8024004D01*
X53881921Y7822861D01*
X53886657Y7813567D01*
X54025483Y7622490D01*
X54192490Y7455483D01*
X54383567Y7316657D01*
X54482991Y7265998D01*
X54594003Y7209434D01*
X54594005Y7209434D01*
X54594008Y7209432D01*
X54714412Y7170311D01*
X54818631Y7136447D01*
X55051903Y7099500D01*
X55051908Y7099500D01*
X55288097Y7099500D01*
X55521368Y7136447D01*
X55745992Y7209432D01*
X55956433Y7316657D01*
X56147510Y7455483D01*
X56255208Y7563181D01*
X56316531Y7596666D01*
X56342889Y7599500D01*
X60497111Y7599500D01*
X60564150Y7579815D01*
X60584792Y7563181D01*
X60692490Y7455483D01*
X60883567Y7316657D01*
X60982991Y7265998D01*
X61094003Y7209434D01*
X61094005Y7209434D01*
X61094008Y7209432D01*
X61214412Y7170311D01*
X61318631Y7136447D01*
X61551903Y7099500D01*
X61551908Y7099500D01*
X61788097Y7099500D01*
X62021368Y7136447D01*
X62245992Y7209432D01*
X62456433Y7316657D01*
X62647510Y7455483D01*
X62814517Y7622490D01*
X62953343Y7813567D01*
X63060568Y8024008D01*
X63133553Y8248632D01*
X63134121Y8252220D01*
X63170500Y8481903D01*
X63170500Y8634218D01*
X63190185Y8701257D01*
X63206819Y8721899D01*
X63436293Y8951373D01*
X63708268Y9223349D01*
X63769589Y9256832D01*
X63839280Y9251848D01*
X63895214Y9209977D01*
X63919631Y9144512D01*
X63913878Y9097348D01*
X63866447Y8951373D01*
X63866447Y8951370D01*
X63829500Y8718098D01*
X63829500Y8481903D01*
X63866446Y8248632D01*
X63939433Y8024004D01*
X64041921Y7822861D01*
X64046657Y7813567D01*
X64185483Y7622490D01*
X64352490Y7455483D01*
X64543567Y7316657D01*
X64642991Y7265998D01*
X64754003Y7209434D01*
X64754005Y7209434D01*
X64754008Y7209432D01*
X64874412Y7170311D01*
X64978631Y7136447D01*
X65211903Y7099500D01*
X65211908Y7099500D01*
X65448097Y7099500D01*
X65681368Y7136447D01*
X65905992Y7209432D01*
X66116433Y7316657D01*
X66307510Y7455483D01*
X66415208Y7563181D01*
X66476531Y7596666D01*
X66502889Y7599500D01*
X70657111Y7599500D01*
X70724150Y7579815D01*
X70744792Y7563181D01*
X70852490Y7455483D01*
X71043567Y7316657D01*
X71142991Y7265998D01*
X71254003Y7209434D01*
X71254005Y7209434D01*
X71254008Y7209432D01*
X71374412Y7170311D01*
X71478631Y7136447D01*
X71711903Y7099500D01*
X71711908Y7099500D01*
X71948097Y7099500D01*
X72181368Y7136447D01*
X72405992Y7209432D01*
X72616433Y7316657D01*
X72807510Y7455483D01*
X72915208Y7563181D01*
X72976531Y7596666D01*
X73002889Y7599500D01*
X73468543Y7599500D01*
X73514019Y7608547D01*
X73584118Y7622490D01*
X73661836Y7637949D01*
X73715165Y7660039D01*
X73843914Y7713368D01*
X74007782Y7822861D01*
X74147139Y7962218D01*
X74147140Y7962221D01*
X74154206Y7969286D01*
X74154209Y7969290D01*
X78828203Y12643285D01*
X78889524Y12676768D01*
X78896473Y12678073D01*
X79044534Y12701523D01*
X79239219Y12764780D01*
X79421610Y12857713D01*
X79514590Y12925268D01*
X79587213Y12978029D01*
X79587215Y12978032D01*
X79587219Y12978034D01*
X79731966Y13122781D01*
X79731968Y13122785D01*
X79731971Y13122787D01*
X79819768Y13243631D01*
X79852287Y13288390D01*
X79945220Y13470781D01*
X80008477Y13665466D01*
X80040500Y13867648D01*
X80040500Y14072352D01*
X80008477Y14274534D01*
X79945220Y14469219D01*
X79945218Y14469222D01*
X79945218Y14469224D01*
X79876178Y14604721D01*
X79852287Y14651610D01*
X79843279Y14664008D01*
X79731971Y14817214D01*
X79587213Y14961972D01*
X79421613Y15082285D01*
X79421612Y15082286D01*
X79421610Y15082287D01*
X79364653Y15111309D01*
X79239223Y15175219D01*
X79044536Y15238477D01*
X79007671Y15244316D01*
X78944537Y15274246D01*
X78907607Y15333558D01*
X78908605Y15403421D01*
X78939388Y15454468D01*
X82057140Y18572219D01*
X82166632Y18736086D01*
X82174294Y18754585D01*
X82218132Y18808987D01*
X82231435Y18817037D01*
X82333407Y18870302D01*
X82471640Y18983017D01*
X82536035Y19010125D01*
X82604865Y18998116D01*
X82628357Y18983019D01*
X82766593Y18870302D01*
X82946951Y18776091D01*
X83142582Y18720114D01*
X83261963Y18709500D01*
X84378036Y18709501D01*
X84497418Y18720114D01*
X84693049Y18776091D01*
X84873407Y18870302D01*
X85011640Y18983017D01*
X85040469Y18995153D01*
X85068497Y19009035D01*
X85072407Y19008598D01*
X85076035Y19010125D01*
X85106854Y19004748D01*
X85137935Y19001274D01*
X85142514Y18998527D01*
X85144865Y18998116D01*
X85168210Y18983138D01*
X85306593Y18870302D01*
X85307820Y18869661D01*
X85313712Y18864872D01*
X85330138Y18841001D01*
X85348869Y18818884D01*
X85350429Y18811512D01*
X85353318Y18807313D01*
X85353667Y18796208D01*
X85359500Y18768649D01*
X85359500Y18464207D01*
X85339815Y18397168D01*
X85323181Y18376526D01*
X83182220Y16235565D01*
X83182218Y16235563D01*
X83135041Y16188386D01*
X83042859Y16096205D01*
X82933371Y15932344D01*
X82933364Y15932331D01*
X82899470Y15850500D01*
X82869589Y15778359D01*
X82864090Y15765084D01*
X82859746Y15754599D01*
X82857948Y15750257D01*
X82857947Y15750253D01*
X82819500Y15556970D01*
X82819500Y14845763D01*
X82799815Y14778724D01*
X82795818Y14772878D01*
X82707715Y14651614D01*
X82614781Y14469224D01*
X82551522Y14274535D01*
X82519500Y14072352D01*
X82519500Y13867649D01*
X82551522Y13665466D01*
X82614781Y13470777D01*
X82649277Y13403076D01*
X82707713Y13288390D01*
X82795819Y13167123D01*
X82819298Y13101319D01*
X82819500Y13094239D01*
X82819500Y9355783D01*
X82799815Y9288744D01*
X82783181Y9268102D01*
X78651797Y5136719D01*
X78590474Y5103234D01*
X78583515Y5101927D01*
X78435468Y5078478D01*
X78240778Y5015219D01*
X78058386Y4922285D01*
X77892786Y4801972D01*
X77748028Y4657214D01*
X77627715Y4491614D01*
X77534781Y4309224D01*
X77471522Y4114535D01*
X77439500Y3912352D01*
X77439500Y3707649D01*
X77471522Y3505466D01*
X77534781Y3310777D01*
X77627715Y3128387D01*
X77748028Y2962787D01*
X77892786Y2818029D01*
X78041619Y2709898D01*
X78058390Y2697713D01*
X78174607Y2638497D01*
X78240776Y2604782D01*
X78240778Y2604782D01*
X78240781Y2604780D01*
X78345137Y2570873D01*
X78435465Y2541523D01*
X78536557Y2525512D01*
X78637648Y2509500D01*
X78637649Y2509500D01*
X78842351Y2509500D01*
X78842352Y2509500D01*
X79044534Y2541523D01*
X79239219Y2604780D01*
X79421610Y2697713D01*
X79514590Y2765268D01*
X79587213Y2818029D01*
X79587215Y2818032D01*
X79587219Y2818034D01*
X79731966Y2962781D01*
X79731968Y2962785D01*
X79731971Y2962787D01*
X79784732Y3035410D01*
X79852287Y3128390D01*
X79945220Y3310781D01*
X80008477Y3505466D01*
X80031925Y3653517D01*
X80061854Y3716650D01*
X80066699Y3721781D01*
X80257270Y3912352D01*
X82519500Y3912352D01*
X82519500Y3707649D01*
X82551522Y3505466D01*
X82614781Y3310777D01*
X82707715Y3128387D01*
X82828028Y2962787D01*
X82972786Y2818029D01*
X83121619Y2709898D01*
X83138390Y2697713D01*
X83254607Y2638497D01*
X83320776Y2604782D01*
X83320778Y2604782D01*
X83320781Y2604780D01*
X83425137Y2570873D01*
X83515465Y2541523D01*
X83616557Y2525512D01*
X83717648Y2509500D01*
X83717649Y2509500D01*
X83922351Y2509500D01*
X83922352Y2509500D01*
X84124534Y2541523D01*
X84319219Y2604780D01*
X84501610Y2697713D01*
X84594590Y2765268D01*
X84667213Y2818029D01*
X84667215Y2818032D01*
X84667219Y2818034D01*
X84811966Y2962781D01*
X84811968Y2962785D01*
X84811971Y2962787D01*
X84864732Y3035410D01*
X84932287Y3128390D01*
X85025220Y3310781D01*
X85088477Y3505466D01*
X85120500Y3707648D01*
X85120500Y3912352D01*
X85088477Y4114534D01*
X85025220Y4309219D01*
X85025218Y4309222D01*
X85025218Y4309224D01*
X84952852Y4451248D01*
X84932287Y4491610D01*
X84897050Y4540110D01*
X84811971Y4657214D01*
X84667213Y4801972D01*
X84501613Y4922285D01*
X84501612Y4922286D01*
X84501610Y4922287D01*
X84409721Y4969107D01*
X84319223Y5015219D01*
X84124534Y5078478D01*
X83936690Y5108229D01*
X83922352Y5110500D01*
X83717648Y5110500D01*
X83703310Y5108229D01*
X83515465Y5078478D01*
X83320776Y5015219D01*
X83138386Y4922285D01*
X82972786Y4801972D01*
X82828028Y4657214D01*
X82707715Y4491614D01*
X82614781Y4309224D01*
X82551522Y4114535D01*
X82519500Y3912352D01*
X80257270Y3912352D01*
X84457778Y8112859D01*
X84457782Y8112861D01*
X84597139Y8252218D01*
X84706632Y8416086D01*
X84782051Y8598165D01*
X84805906Y8718092D01*
X84820500Y8791457D01*
X84820500Y13094239D01*
X84840185Y13161278D01*
X84844165Y13167101D01*
X84932287Y13288390D01*
X85025220Y13470781D01*
X85033261Y13495530D01*
X85072695Y13553203D01*
X85137053Y13580402D01*
X85205900Y13568490D01*
X85257377Y13521247D01*
X85275141Y13453673D01*
X85272809Y13433021D01*
X85235136Y13243623D01*
X85199500Y12881791D01*
X85199500Y12518210D01*
X85235137Y12156370D01*
X85306064Y11799788D01*
X85306067Y11799777D01*
X85411614Y11451835D01*
X85550754Y11115922D01*
X85550756Y11115917D01*
X85722140Y10795280D01*
X85722151Y10795262D01*
X85924140Y10492965D01*
X85924150Y10492951D01*
X86154807Y10211894D01*
X86411893Y9954808D01*
X86411898Y9954804D01*
X86411899Y9954803D01*
X86692956Y9724146D01*
X86995268Y9522147D01*
X86995277Y9522142D01*
X86995279Y9522141D01*
X87315916Y9350757D01*
X87315918Y9350757D01*
X87315924Y9350753D01*
X87651836Y9211614D01*
X87999767Y9106070D01*
X87999773Y9106069D01*
X87999776Y9106068D01*
X87999787Y9106065D01*
X88356369Y9035138D01*
X88718206Y8999500D01*
X88718209Y8999500D01*
X89081791Y8999500D01*
X89081794Y8999500D01*
X89443631Y9035138D01*
X89513045Y9048946D01*
X89800212Y9106065D01*
X89800223Y9106068D01*
X89800223Y9106069D01*
X89800233Y9106070D01*
X90148164Y9211614D01*
X90484076Y9350753D01*
X90804732Y9522147D01*
X91107044Y9724146D01*
X91388101Y9954803D01*
X91645197Y10211899D01*
X91875854Y10492956D01*
X92077853Y10795268D01*
X92249247Y11115924D01*
X92388386Y11451836D01*
X92493930Y11799767D01*
X92493932Y11799777D01*
X92493935Y11799788D01*
X92564862Y12156370D01*
X92569862Y12207139D01*
X92600500Y12518206D01*
X92600500Y12881794D01*
X92564862Y13243631D01*
X92533147Y13403076D01*
X92493935Y13600213D01*
X92493932Y13600224D01*
X92493931Y13600227D01*
X92493930Y13600233D01*
X92388386Y13948164D01*
X92249247Y14284076D01*
X92150283Y14469224D01*
X92077859Y14604721D01*
X92077858Y14604723D01*
X92077853Y14604732D01*
X91875854Y14907044D01*
X91645197Y15188101D01*
X91645196Y15188102D01*
X91645192Y15188107D01*
X91388106Y15445193D01*
X91107049Y15675850D01*
X91107048Y15675851D01*
X91107044Y15675854D01*
X90804732Y15877853D01*
X90804727Y15877856D01*
X90804720Y15877860D01*
X90484083Y16049244D01*
X90484078Y16049246D01*
X90148165Y16188386D01*
X89800223Y16293933D01*
X89800212Y16293936D01*
X89443630Y16364863D01*
X89169517Y16391860D01*
X89081794Y16400500D01*
X88718206Y16400500D01*
X88635679Y16392372D01*
X88356369Y16364863D01*
X87999787Y16293936D01*
X87999776Y16293933D01*
X87651834Y16188386D01*
X87315921Y16049246D01*
X87315916Y16049244D01*
X86995279Y15877860D01*
X86995261Y15877849D01*
X86692964Y15675860D01*
X86692950Y15675850D01*
X86411893Y15445193D01*
X86154807Y15188107D01*
X85924150Y14907050D01*
X85924140Y14907036D01*
X85722151Y14604739D01*
X85722140Y14604721D01*
X85550756Y14284084D01*
X85550754Y14284079D01*
X85411615Y13948169D01*
X85352070Y13751873D01*
X85313772Y13693435D01*
X85249960Y13664978D01*
X85180893Y13675539D01*
X85128499Y13721763D01*
X85109414Y13788976D01*
X85110935Y13807261D01*
X85120500Y13867648D01*
X85120500Y14072352D01*
X85088477Y14274534D01*
X85025220Y14469219D01*
X85025218Y14469222D01*
X85025218Y14469224D01*
X84956178Y14604721D01*
X84932287Y14651610D01*
X84919654Y14668997D01*
X84844182Y14772878D01*
X84837029Y14792923D01*
X84825523Y14810828D01*
X84822068Y14834855D01*
X84820702Y14838684D01*
X84820500Y14845763D01*
X84820500Y14992642D01*
X84840185Y15059681D01*
X84856819Y15080323D01*
X85994007Y16217510D01*
X87137139Y17360642D01*
X87246631Y17524509D01*
X87246632Y17524510D01*
X87302667Y17659792D01*
X87322051Y17706588D01*
X87360500Y17899883D01*
X87360500Y18096964D01*
X87360500Y18768649D01*
X87361070Y18770592D01*
X87360561Y18772553D01*
X87370874Y18803980D01*
X87380185Y18835688D01*
X87381914Y18837622D01*
X87382347Y18838939D01*
X87388388Y18844861D01*
X87406288Y18864872D01*
X87412179Y18869661D01*
X87413407Y18870302D01*
X87552184Y18983461D01*
X87584366Y18996950D01*
X87616431Y19010448D01*
X87616528Y19010431D01*
X87616622Y19010470D01*
X87651131Y19004394D01*
X87685261Y18998439D01*
X87685378Y18998364D01*
X87685433Y18998354D01*
X87685524Y18998270D01*
X87708757Y18983339D01*
X87846870Y18870722D01*
X88027138Y18776558D01*
X88222671Y18720610D01*
X88222674Y18720609D01*
X88341999Y18710001D01*
X88342002Y18710000D01*
X89457998Y18710000D01*
X89458000Y18710001D01*
X89577325Y18720609D01*
X89577328Y18720610D01*
X89772861Y18776558D01*
X89953130Y18870722D01*
X90091241Y18983338D01*
X90155637Y19010448D01*
X90224467Y18998439D01*
X90247964Y18983339D01*
X90386593Y18870302D01*
X90566951Y18776091D01*
X90762582Y18720114D01*
X90881963Y18709500D01*
X91998036Y18709501D01*
X92117418Y18720114D01*
X92313049Y18776091D01*
X92493407Y18870302D01*
X92651109Y18998891D01*
X92779698Y19156593D01*
X92873909Y19336951D01*
X92929886Y19532582D01*
X92940500Y19651963D01*
X92940499Y21768036D01*
X92929886Y21887418D01*
X92884141Y22047291D01*
X92873910Y22083046D01*
X92873909Y22083047D01*
X92873909Y22083049D01*
X92779698Y22263407D01*
X92660532Y22409553D01*
X92651109Y22421110D01*
X92520449Y22527648D01*
X92493407Y22549698D01*
X92313049Y22643909D01*
X92313046Y22643910D01*
X92313044Y22643911D01*
X92291176Y22650168D01*
X92252405Y22669064D01*
X92147816Y22745051D01*
X92147814Y22745052D01*
X91958414Y22841556D01*
X91958413Y22841557D01*
X91958412Y22841557D01*
X91756243Y22907246D01*
X91756241Y22907247D01*
X91756240Y22907247D01*
X91594957Y22932792D01*
X91546287Y22940500D01*
X91333713Y22940500D01*
X91285042Y22932792D01*
X91123760Y22907247D01*
X90921585Y22841556D01*
X90732181Y22745050D01*
X90627595Y22669065D01*
X90588828Y22650170D01*
X90566956Y22643911D01*
X90566951Y22643909D01*
X90386587Y22549695D01*
X90247963Y22436662D01*
X90183567Y22409553D01*
X90114737Y22421563D01*
X90091242Y22436662D01*
X89953129Y22549279D01*
X89772866Y22643441D01*
X89772857Y22643444D01*
X89750947Y22649714D01*
X89712179Y22668610D01*
X89607557Y22744621D01*
X89418215Y22841097D01*
X89216124Y22906759D01*
X89150000Y22917232D01*
X89150000Y22023012D01*
X89092993Y22055925D01*
X88965826Y22090000D01*
X88834174Y22090000D01*
X88707007Y22055925D01*
X88650000Y22023012D01*
X88650000Y22917232D01*
X88649999Y22917232D01*
X88583875Y22906759D01*
X88381784Y22841097D01*
X88192447Y22744624D01*
X88192445Y22744623D01*
X88087817Y22668608D01*
X88049049Y22649713D01*
X88027144Y22643445D01*
X88027133Y22643441D01*
X87846870Y22549279D01*
X87708757Y22436662D01*
X87644361Y22409553D01*
X87575531Y22421562D01*
X87552035Y22436662D01*
X87499861Y22479204D01*
X87413407Y22549698D01*
X87233049Y22643909D01*
X87233046Y22643910D01*
X87233044Y22643911D01*
X87211176Y22650168D01*
X87172405Y22669064D01*
X87067816Y22745051D01*
X87067814Y22745052D01*
X86878414Y22841556D01*
X86878413Y22841557D01*
X86878412Y22841557D01*
X86676243Y22907246D01*
X86676241Y22907247D01*
X86676240Y22907247D01*
X86509544Y22933649D01*
X86466287Y22940500D01*
X86466286Y22940500D01*
X86461475Y22941262D01*
X86461641Y22942316D01*
X86401150Y22965379D01*
X86388497Y22976424D01*
X85564266Y23800655D01*
X84714005Y24650915D01*
X84680521Y24712237D01*
X84685505Y24781929D01*
X84727377Y24837862D01*
X84789086Y24861953D01*
X84872696Y24870494D01*
X85039119Y24925642D01*
X85039124Y24925644D01*
X85188345Y25017685D01*
X85312315Y25141655D01*
X85404356Y25290876D01*
X85404358Y25290881D01*
X85459505Y25457303D01*
X85459506Y25457310D01*
X85469999Y25560014D01*
X85470000Y25560027D01*
X85470000Y26860000D01*
X80970001Y26860000D01*
X80970001Y25560014D01*
X80980494Y25457303D01*
X81034772Y25293504D01*
X81037174Y25223676D01*
X81001442Y25163634D01*
X80938922Y25132441D01*
X80917066Y25130500D01*
X59794675Y25130500D01*
X59794655Y25130501D01*
X59788541Y25130501D01*
X59591460Y25130501D01*
X59591457Y25130501D01*
X59398172Y25092054D01*
X59398164Y25092052D01*
X59216088Y25016634D01*
X59216079Y25016629D01*
X59052219Y24907141D01*
X59052215Y24907138D01*
X50921899Y16776819D01*
X50860576Y16743334D01*
X50834218Y16740500D01*
X50681903Y16740500D01*
X50448631Y16703554D01*
X50224003Y16630567D01*
X50013566Y16523343D01*
X49904550Y16444138D01*
X49822490Y16384517D01*
X49822488Y16384515D01*
X49822487Y16384515D01*
X49655485Y16217513D01*
X49655485Y16217512D01*
X49655483Y16217510D01*
X49600781Y16142219D01*
X49516657Y16026434D01*
X49409433Y15815997D01*
X49336446Y15591369D01*
X49299500Y15358098D01*
X49299500Y15121903D01*
X49336446Y14888632D01*
X49409433Y14664004D01*
X49508679Y14469224D01*
X49516657Y14453567D01*
X49655483Y14262490D01*
X49822490Y14095483D01*
X50013567Y13956657D01*
X50112991Y13905998D01*
X50224003Y13849434D01*
X50224005Y13849434D01*
X50224008Y13849432D01*
X50344412Y13810311D01*
X50448631Y13776447D01*
X50681903Y13739500D01*
X50681908Y13739500D01*
X50918097Y13739500D01*
X51151368Y13776447D01*
X51189928Y13788976D01*
X51375992Y13849432D01*
X51586433Y13956657D01*
X51777510Y14095483D01*
X51944517Y14262490D01*
X52083343Y14453567D01*
X52190568Y14664008D01*
X52263553Y14888632D01*
X52266470Y14907050D01*
X52300500Y15121903D01*
X52300500Y15274218D01*
X52320185Y15341257D01*
X52336819Y15361899D01*
X60068102Y23093181D01*
X60129425Y23126666D01*
X60155783Y23129500D01*
X75784881Y23129500D01*
X75851920Y23109815D01*
X75897675Y23057011D01*
X75907619Y22987853D01*
X75878594Y22924297D01*
X75823200Y22887570D01*
X75681588Y22841557D01*
X75681585Y22841556D01*
X75492181Y22745050D01*
X75387595Y22669065D01*
X75348828Y22650170D01*
X75326956Y22643911D01*
X75326951Y22643909D01*
X75146593Y22549698D01*
X75146591Y22549697D01*
X75146590Y22549696D01*
X74988890Y22421110D01*
X74861086Y22264369D01*
X74860302Y22263407D01*
X74818688Y22183740D01*
X74766089Y22083046D01*
X74724692Y21938365D01*
X74710295Y21888048D01*
X74710114Y21887417D01*
X74710113Y21887414D01*
X74699500Y21768034D01*
X74699500Y20675784D01*
X74679815Y20608745D01*
X74663181Y20588103D01*
X74509506Y20434427D01*
X74274867Y20199787D01*
X74161899Y20086819D01*
X74100576Y20053334D01*
X74074218Y20050500D01*
X61861455Y20050500D01*
X61764812Y20031276D01*
X61668167Y20012053D01*
X61668161Y20012051D01*
X61614834Y19989963D01*
X61614834Y19989962D01*
X61571918Y19972186D01*
X61486084Y19936632D01*
X61486083Y19936632D01*
X61363045Y19854421D01*
X61363046Y19854420D01*
X61322218Y19827141D01*
X61322215Y19827138D01*
X51631899Y10136819D01*
X51570576Y10103334D01*
X51544218Y10100500D01*
X51391903Y10100500D01*
X51158631Y10063554D01*
X50934003Y9990567D01*
X50723566Y9883343D01*
X50614550Y9804138D01*
X50532490Y9744517D01*
X50532488Y9744515D01*
X50532487Y9744515D01*
X50424792Y9636819D01*
X50363469Y9603334D01*
X50337111Y9600500D01*
X46182889Y9600500D01*
X46115850Y9620185D01*
X46095208Y9636819D01*
X45987512Y9744515D01*
X45987510Y9744517D01*
X45796433Y9883343D01*
X45585996Y9990567D01*
X45361368Y10063554D01*
X45128097Y10100500D01*
X45128092Y10100500D01*
X44891908Y10100500D01*
X44891903Y10100500D01*
X44658631Y10063554D01*
X44434003Y9990567D01*
X44223566Y9883343D01*
X44114550Y9804138D01*
X44032490Y9744517D01*
X44032488Y9744515D01*
X44032487Y9744515D01*
X43865485Y9577513D01*
X43865485Y9577512D01*
X43865483Y9577510D01*
X43825263Y9522152D01*
X43726657Y9386434D01*
X43619433Y9175997D01*
X43546446Y8951369D01*
X43509500Y8718098D01*
X10829695Y8718098D01*
X10798080Y8856613D01*
X10764923Y8951369D01*
X10682138Y9187956D01*
X10682136Y9187962D01*
X10529821Y9504246D01*
X10343052Y9801487D01*
X10191556Y9991457D01*
X12659499Y9991457D01*
X12697947Y9798171D01*
X12697950Y9798161D01*
X12773364Y9616093D01*
X12773371Y9616080D01*
X12882860Y9452219D01*
X12882863Y9452215D01*
X13022214Y9312864D01*
X13022218Y9312861D01*
X13186079Y9203372D01*
X13186092Y9203365D01*
X13328178Y9144512D01*
X13368165Y9127949D01*
X13368169Y9127949D01*
X13368170Y9127948D01*
X13561456Y9089500D01*
X13561459Y9089500D01*
X13758543Y9089500D01*
X13888582Y9115368D01*
X13951835Y9127949D01*
X14133914Y9203368D01*
X14226109Y9264971D01*
X14292786Y9285849D01*
X14360166Y9267365D01*
X14363891Y9264971D01*
X14443744Y9211615D01*
X14456086Y9203368D01*
X14456088Y9203367D01*
X14456092Y9203365D01*
X14598178Y9144512D01*
X14638165Y9127949D01*
X14638169Y9127949D01*
X14638170Y9127948D01*
X14831456Y9089500D01*
X14831459Y9089500D01*
X15028543Y9089500D01*
X15158582Y9115368D01*
X15221835Y9127949D01*
X15403914Y9203368D01*
X15496109Y9264971D01*
X15562786Y9285849D01*
X15630166Y9267365D01*
X15633891Y9264971D01*
X15713744Y9211615D01*
X15726086Y9203368D01*
X15726088Y9203367D01*
X15726092Y9203365D01*
X15868178Y9144512D01*
X15908165Y9127949D01*
X15908169Y9127949D01*
X15908170Y9127948D01*
X16101456Y9089500D01*
X16101459Y9089500D01*
X16298543Y9089500D01*
X16428582Y9115368D01*
X16491835Y9127949D01*
X16673914Y9203368D01*
X16766109Y9264971D01*
X16832786Y9285849D01*
X16900166Y9267365D01*
X16903891Y9264971D01*
X16983744Y9211615D01*
X16996086Y9203368D01*
X16996088Y9203367D01*
X16996092Y9203365D01*
X17138178Y9144512D01*
X17178165Y9127949D01*
X17178169Y9127949D01*
X17178170Y9127948D01*
X17371456Y9089500D01*
X17371459Y9089500D01*
X17568543Y9089500D01*
X17698582Y9115368D01*
X17761835Y9127949D01*
X17943914Y9203368D01*
X18036109Y9264971D01*
X18102786Y9285849D01*
X18170166Y9267365D01*
X18173891Y9264971D01*
X18253744Y9211615D01*
X18266086Y9203368D01*
X18266088Y9203367D01*
X18266092Y9203365D01*
X18408178Y9144512D01*
X18448165Y9127949D01*
X18448169Y9127949D01*
X18448170Y9127948D01*
X18641456Y9089500D01*
X18641459Y9089500D01*
X18838543Y9089500D01*
X18968582Y9115368D01*
X19031835Y9127949D01*
X19213914Y9203368D01*
X19306109Y9264971D01*
X19372786Y9285849D01*
X19440166Y9267365D01*
X19443891Y9264971D01*
X19523744Y9211615D01*
X19536086Y9203368D01*
X19536088Y9203367D01*
X19536092Y9203365D01*
X19678178Y9144512D01*
X19718165Y9127949D01*
X19718169Y9127949D01*
X19718170Y9127948D01*
X19911456Y9089500D01*
X19911459Y9089500D01*
X20108543Y9089500D01*
X20238582Y9115368D01*
X20301835Y9127949D01*
X20483914Y9203368D01*
X20576109Y9264971D01*
X20642786Y9285849D01*
X20710166Y9267365D01*
X20713891Y9264971D01*
X20793744Y9211615D01*
X20806086Y9203368D01*
X20806088Y9203367D01*
X20806092Y9203365D01*
X20948178Y9144512D01*
X20988165Y9127949D01*
X20988169Y9127949D01*
X20988170Y9127948D01*
X21181456Y9089500D01*
X21181459Y9089500D01*
X21378543Y9089500D01*
X21508582Y9115368D01*
X21571835Y9127949D01*
X21753914Y9203368D01*
X21846109Y9264971D01*
X21912786Y9285849D01*
X21980166Y9267365D01*
X21983891Y9264971D01*
X22063744Y9211615D01*
X22076086Y9203368D01*
X22076088Y9203367D01*
X22076092Y9203365D01*
X22218178Y9144512D01*
X22258165Y9127949D01*
X22258169Y9127949D01*
X22258170Y9127948D01*
X22451456Y9089500D01*
X22451459Y9089500D01*
X22648543Y9089500D01*
X22778582Y9115368D01*
X22841835Y9127949D01*
X23023914Y9203368D01*
X23116109Y9264971D01*
X23182786Y9285849D01*
X23250166Y9267365D01*
X23253891Y9264971D01*
X23333744Y9211615D01*
X23346086Y9203368D01*
X23346088Y9203367D01*
X23346092Y9203365D01*
X23488178Y9144512D01*
X23528165Y9127949D01*
X23528169Y9127949D01*
X23528170Y9127948D01*
X23721456Y9089500D01*
X23721459Y9089500D01*
X23918543Y9089500D01*
X24048582Y9115368D01*
X24111835Y9127949D01*
X24293914Y9203368D01*
X24386109Y9264971D01*
X24452786Y9285849D01*
X24520166Y9267365D01*
X24523891Y9264971D01*
X24603744Y9211615D01*
X24616086Y9203368D01*
X24616088Y9203367D01*
X24616092Y9203365D01*
X24758178Y9144512D01*
X24798165Y9127949D01*
X24798169Y9127949D01*
X24798170Y9127948D01*
X24991456Y9089500D01*
X24991459Y9089500D01*
X25188543Y9089500D01*
X25318582Y9115368D01*
X25381835Y9127949D01*
X25563914Y9203368D01*
X25727782Y9312861D01*
X25867139Y9452218D01*
X25976632Y9616086D01*
X26052051Y9798165D01*
X26090500Y9991459D01*
X26090500Y10188541D01*
X26090500Y10188544D01*
X26052052Y10381830D01*
X26052051Y10381831D01*
X26052051Y10381835D01*
X26047351Y10393181D01*
X25976635Y10563908D01*
X25976628Y10563921D01*
X25867139Y10727782D01*
X25867136Y10727786D01*
X25727785Y10867137D01*
X25727781Y10867140D01*
X25563920Y10976629D01*
X25563907Y10976636D01*
X25381839Y11052050D01*
X25381829Y11052053D01*
X25188543Y11090500D01*
X25188541Y11090500D01*
X24991459Y11090500D01*
X24991457Y11090500D01*
X24798170Y11052053D01*
X24798160Y11052050D01*
X24616089Y10976634D01*
X24523890Y10915029D01*
X24457213Y10894152D01*
X24389833Y10912637D01*
X24386110Y10915029D01*
X24359740Y10932648D01*
X24293914Y10976632D01*
X24293911Y10976634D01*
X24293910Y10976634D01*
X24111839Y11052050D01*
X24111829Y11052053D01*
X23918543Y11090500D01*
X23918541Y11090500D01*
X23721459Y11090500D01*
X23721457Y11090500D01*
X23528170Y11052053D01*
X23528160Y11052050D01*
X23346089Y10976634D01*
X23253890Y10915029D01*
X23187213Y10894152D01*
X23119833Y10912637D01*
X23116110Y10915029D01*
X23089740Y10932648D01*
X23023914Y10976632D01*
X23023911Y10976634D01*
X23023910Y10976634D01*
X22841839Y11052050D01*
X22841829Y11052053D01*
X22648543Y11090500D01*
X22648541Y11090500D01*
X22451459Y11090500D01*
X22451457Y11090500D01*
X22258170Y11052053D01*
X22258160Y11052050D01*
X22076089Y10976634D01*
X21983890Y10915029D01*
X21917213Y10894152D01*
X21849833Y10912637D01*
X21846110Y10915029D01*
X21819740Y10932648D01*
X21753914Y10976632D01*
X21753911Y10976634D01*
X21753910Y10976634D01*
X21571839Y11052050D01*
X21571829Y11052053D01*
X21378543Y11090500D01*
X21378541Y11090500D01*
X21181459Y11090500D01*
X21181457Y11090500D01*
X20988170Y11052053D01*
X20988160Y11052050D01*
X20806089Y10976634D01*
X20713890Y10915029D01*
X20647213Y10894152D01*
X20579833Y10912637D01*
X20576110Y10915029D01*
X20549740Y10932648D01*
X20483914Y10976632D01*
X20483911Y10976634D01*
X20483910Y10976634D01*
X20301839Y11052050D01*
X20301829Y11052053D01*
X20108543Y11090500D01*
X20108541Y11090500D01*
X19911459Y11090500D01*
X19911457Y11090500D01*
X19718170Y11052053D01*
X19718160Y11052050D01*
X19536089Y10976634D01*
X19443890Y10915029D01*
X19377213Y10894152D01*
X19309833Y10912637D01*
X19306110Y10915029D01*
X19279740Y10932648D01*
X19213914Y10976632D01*
X19213911Y10976634D01*
X19213910Y10976634D01*
X19031839Y11052050D01*
X19031829Y11052053D01*
X18838543Y11090500D01*
X18838541Y11090500D01*
X18641459Y11090500D01*
X18641457Y11090500D01*
X18448170Y11052053D01*
X18448160Y11052050D01*
X18266089Y10976634D01*
X18173890Y10915029D01*
X18107213Y10894152D01*
X18039833Y10912637D01*
X18036110Y10915029D01*
X18009740Y10932648D01*
X17943914Y10976632D01*
X17943911Y10976634D01*
X17943910Y10976634D01*
X17761839Y11052050D01*
X17761829Y11052053D01*
X17568543Y11090500D01*
X17568541Y11090500D01*
X17371459Y11090500D01*
X17371457Y11090500D01*
X17178170Y11052053D01*
X17178160Y11052050D01*
X16996089Y10976634D01*
X16903890Y10915029D01*
X16837213Y10894152D01*
X16769833Y10912637D01*
X16766110Y10915029D01*
X16739740Y10932648D01*
X16673914Y10976632D01*
X16673911Y10976634D01*
X16673910Y10976634D01*
X16491839Y11052050D01*
X16491829Y11052053D01*
X16298543Y11090500D01*
X16298541Y11090500D01*
X16101459Y11090500D01*
X16101457Y11090500D01*
X15908170Y11052053D01*
X15908160Y11052050D01*
X15726089Y10976634D01*
X15633890Y10915029D01*
X15567213Y10894152D01*
X15499833Y10912637D01*
X15496110Y10915029D01*
X15469740Y10932648D01*
X15403914Y10976632D01*
X15403911Y10976634D01*
X15403910Y10976634D01*
X15221839Y11052050D01*
X15221829Y11052053D01*
X15028543Y11090500D01*
X15028541Y11090500D01*
X14831459Y11090500D01*
X14831457Y11090500D01*
X14638170Y11052053D01*
X14638160Y11052050D01*
X14456089Y10976634D01*
X14363890Y10915029D01*
X14297213Y10894152D01*
X14229833Y10912637D01*
X14226110Y10915029D01*
X14199740Y10932648D01*
X14133914Y10976632D01*
X14133911Y10976634D01*
X14133910Y10976634D01*
X13951839Y11052050D01*
X13951829Y11052053D01*
X13758543Y11090500D01*
X13758541Y11090500D01*
X13561459Y11090500D01*
X13561457Y11090500D01*
X13368170Y11052053D01*
X13368160Y11052050D01*
X13186092Y10976636D01*
X13186079Y10976629D01*
X13022218Y10867140D01*
X13022214Y10867137D01*
X12882863Y10727786D01*
X12882860Y10727782D01*
X12773371Y10563921D01*
X12773364Y10563908D01*
X12697950Y10381840D01*
X12697947Y10381830D01*
X12659500Y10188544D01*
X12659500Y10188541D01*
X12659500Y9991459D01*
X12659500Y9991457D01*
X12659499Y9991457D01*
X10191556Y9991457D01*
X10124177Y10075948D01*
X9875948Y10324177D01*
X9834775Y10357011D01*
X9768561Y10409815D01*
X9601487Y10543052D01*
X9304246Y10729821D01*
X9304243Y10729823D01*
X8987969Y10882133D01*
X8987955Y10882139D01*
X8656624Y10998077D01*
X8656612Y10998081D01*
X8314369Y11076195D01*
X8314353Y11076197D01*
X7965528Y11115500D01*
X7965524Y11115500D01*
X7614476Y11115500D01*
X7614471Y11115500D01*
X7265646Y11076197D01*
X7265630Y11076195D01*
X6923387Y10998081D01*
X6923375Y10998077D01*
X6592044Y10882139D01*
X6592030Y10882133D01*
X6275756Y10729823D01*
X5978514Y10543053D01*
X5704052Y10324178D01*
X5455822Y10075948D01*
X5236947Y9801486D01*
X5050177Y9504244D01*
X4897867Y9187970D01*
X4897861Y9187956D01*
X4781923Y8856625D01*
X4781919Y8856613D01*
X4703805Y8514370D01*
X4703803Y8514354D01*
X4664500Y8165529D01*
X500500Y8165529D01*
X500500Y21434745D01*
X3531747Y21434745D01*
X3531840Y21420913D01*
X3532448Y21399268D01*
X3533128Y21385549D01*
X3534658Y21363993D01*
X3535906Y21350502D01*
X3538400Y21328698D01*
X3540193Y21315562D01*
X3543792Y21293002D01*
X3543796Y21292980D01*
X3543797Y21292974D01*
X3546119Y21280274D01*
X3546122Y21280261D01*
X3546124Y21280250D01*
X3551068Y21256455D01*
X3553900Y21244308D01*
X3560621Y21218561D01*
X3563931Y21207120D01*
X3565114Y21203439D01*
X3567186Y21196255D01*
X3568109Y21192646D01*
X3569737Y21186446D01*
X3571052Y21181563D01*
X3572890Y21174920D01*
X3574294Y21169976D01*
X3574356Y21169762D01*
X3576369Y21162865D01*
X3577870Y21157857D01*
X3580134Y21150512D01*
X3581754Y21145395D01*
X3600071Y21096479D01*
X3606673Y21081288D01*
X3642524Y21013413D01*
X3642527Y21013408D01*
X3652677Y20997288D01*
X3652683Y20997279D01*
X3685594Y20950997D01*
X3699185Y20933995D01*
X3727495Y20901521D01*
X3744357Y20883766D01*
X3744364Y20883759D01*
X3744367Y20883756D01*
X3768290Y20860186D01*
X3788315Y20841727D01*
X3801857Y20829896D01*
X3808632Y20823977D01*
X3831662Y20804915D01*
X3856831Y20785385D01*
X3911470Y20745684D01*
X3911494Y20745668D01*
X3938192Y20727543D01*
X4003351Y20686284D01*
X4024955Y20673347D01*
X4099575Y20631150D01*
X4117975Y20621241D01*
X4201003Y20578719D01*
X4201015Y20578713D01*
X4201027Y20578707D01*
X4217444Y20570671D01*
X4307815Y20528445D01*
X4309955Y20527488D01*
X4323123Y20521599D01*
X4419805Y20480272D01*
X4434600Y20474223D01*
X4536528Y20434416D01*
X4551306Y20428909D01*
X4657426Y20391236D01*
X4672635Y20386107D01*
X4781894Y20351184D01*
X4790869Y20348479D01*
X4797939Y20346347D01*
X4819679Y20340185D01*
X4909290Y20314785D01*
X4926641Y20310197D01*
X4926662Y20310192D01*
X4926669Y20310190D01*
X4969179Y20299756D01*
X5039016Y20282614D01*
X5039025Y20282612D01*
X5058159Y20278308D01*
X5058178Y20278304D01*
X5058183Y20278303D01*
X5170535Y20255314D01*
X5192101Y20251386D01*
X5303376Y20233604D01*
X5314944Y20231893D01*
X5351981Y20226850D01*
X5360435Y20225771D01*
X5397267Y20221387D01*
X5404148Y20220622D01*
X5404974Y20220529D01*
X5414067Y20219588D01*
X5423202Y20218640D01*
X5429024Y20218070D01*
X5439555Y20217102D01*
X5447173Y20216400D01*
X5447243Y20216394D01*
X5447265Y20216392D01*
X5453574Y20215852D01*
X5471729Y20214411D01*
X5472820Y20214332D01*
X5478556Y20213916D01*
X5478622Y20213912D01*
X5478659Y20213909D01*
X5496720Y20212725D01*
X5502934Y20212356D01*
X5544553Y20210142D01*
X5550827Y20209847D01*
X5588845Y20208298D01*
X5596775Y20208037D01*
X5596802Y20208037D01*
X5596812Y20208036D01*
X5600446Y20207946D01*
X5632412Y20207145D01*
X5641468Y20207000D01*
X5675941Y20206755D01*
X5683357Y20206757D01*
X5683453Y20206757D01*
X5695483Y20206850D01*
X5717879Y20207021D01*
X5726629Y20207164D01*
X5726703Y20207166D01*
X5726712Y20207166D01*
X5731048Y20207275D01*
X5762265Y20208054D01*
X5770077Y20208309D01*
X5808096Y20209847D01*
X5814443Y20210144D01*
X5856062Y20212352D01*
X5862322Y20212723D01*
X5880383Y20213906D01*
X5887257Y20214403D01*
X5905412Y20215841D01*
X5911724Y20216381D01*
X5929964Y20218056D01*
X5935754Y20218621D01*
X5954072Y20220516D01*
X5961776Y20221373D01*
X5998608Y20225755D01*
X5998649Y20225761D01*
X5998689Y20225765D01*
X6007183Y20226850D01*
X6007187Y20226851D01*
X6007261Y20226860D01*
X6044298Y20231916D01*
X6055697Y20233605D01*
X6166972Y20251388D01*
X6188534Y20255315D01*
X6300886Y20278304D01*
X6320054Y20282616D01*
X6432428Y20310199D01*
X6449777Y20314785D01*
X6522778Y20335477D01*
X6561111Y20346342D01*
X6566973Y20348109D01*
X6577180Y20351186D01*
X6686438Y20386110D01*
X6701637Y20391236D01*
X6807758Y20428908D01*
X6822542Y20434417D01*
X6924469Y20474224D01*
X6939263Y20480273D01*
X7035945Y20521600D01*
X7051248Y20528444D01*
X7087400Y20545337D01*
X7141623Y20570672D01*
X7158040Y20578708D01*
X7158065Y20578720D01*
X7241093Y20621242D01*
X7259493Y20631151D01*
X7334113Y20673348D01*
X7355712Y20686282D01*
X7420871Y20727540D01*
X7447590Y20745679D01*
X7502234Y20785384D01*
X7537198Y20813233D01*
X7580272Y20850770D01*
X7628362Y20898730D01*
X7658814Y20933484D01*
X7706385Y20997280D01*
X7716548Y21013421D01*
X7752394Y21081287D01*
X7759006Y21096502D01*
X7777314Y21145396D01*
X7778923Y21150478D01*
X7781200Y21157866D01*
X7782702Y21162875D01*
X7784734Y21169832D01*
X7786139Y21174774D01*
X7787992Y21181467D01*
X7789308Y21186350D01*
X7790961Y21192643D01*
X7790963Y21192655D01*
X7790983Y21192727D01*
X7791337Y21194116D01*
X7791885Y21196255D01*
X7793962Y21203465D01*
X7795144Y21207139D01*
X7798457Y21218592D01*
X7805176Y21244341D01*
X7808003Y21256473D01*
X7812949Y21280275D01*
X7815271Y21292975D01*
X7818870Y21315527D01*
X7820666Y21328685D01*
X7823165Y21350534D01*
X7824413Y21364039D01*
X7825938Y21385532D01*
X7826619Y21399273D01*
X7827228Y21420905D01*
X7827321Y21434771D01*
X7826982Y21456974D01*
X7826465Y21470856D01*
X7825080Y21493886D01*
X7823935Y21507671D01*
X7823934Y21507672D01*
X7823933Y21507695D01*
X7822788Y21518334D01*
X7821306Y21532110D01*
X7819510Y21545689D01*
X7815355Y21571818D01*
X7812889Y21585080D01*
X7806766Y21613452D01*
X7803608Y21626286D01*
X7794939Y21657239D01*
X7791070Y21669534D01*
X7779007Y21703572D01*
X7774405Y21715218D01*
X7757869Y21752572D01*
X7752514Y21763458D01*
X7734405Y21797014D01*
X7731462Y21802007D01*
X7730469Y21803575D01*
X7714326Y21829079D01*
X7711110Y21833820D01*
X7704203Y21843344D01*
X7692486Y21859501D01*
X7690252Y21862387D01*
X7689041Y21863951D01*
X7669132Y21888081D01*
X7665480Y21892238D01*
X7665442Y21892282D01*
X7661035Y21897007D01*
X7644877Y21914331D01*
X7640977Y21918270D01*
X7619960Y21938311D01*
X7619954Y21938317D01*
X7615817Y21942041D01*
X7594845Y21959909D01*
X7594493Y21960193D01*
X7590506Y21963407D01*
X7584679Y21967864D01*
X7570063Y21979043D01*
X7565494Y21982357D01*
X7554271Y21990099D01*
X7545814Y21995933D01*
X7540988Y21999096D01*
X7522374Y22010725D01*
X7517414Y22013676D01*
X7500030Y22023558D01*
X7500001Y22023574D01*
X7494829Y22026380D01*
X7492016Y22027842D01*
X7478838Y22034691D01*
X7473473Y22037358D01*
X7468874Y22039514D01*
X7452270Y22047295D01*
X7448745Y22048849D01*
X7441030Y22052249D01*
X7441006Y22052259D01*
X7417760Y22061821D01*
X7414886Y22062921D01*
X7405825Y22066387D01*
X7388295Y22072725D01*
X7375693Y22077020D01*
X7363645Y22080957D01*
X7356959Y22083049D01*
X7350492Y22085073D01*
X7345545Y22086573D01*
X7341810Y22087706D01*
X7315742Y22095357D01*
X7315112Y22095543D01*
X7293882Y22101897D01*
X7291238Y22102721D01*
X7289910Y22103151D01*
X7287078Y22104106D01*
X7279760Y22106672D01*
X7279454Y22106780D01*
X7233698Y22122959D01*
X7231926Y22123564D01*
X7222931Y22126631D01*
X7182425Y22139941D01*
X7180172Y22140657D01*
X7173075Y22142913D01*
X7102155Y22164701D01*
X7101615Y22164868D01*
X7072578Y22173934D01*
X7070414Y22174633D01*
X7044528Y22183255D01*
X7041649Y22184253D01*
X7012732Y22194689D01*
X7009754Y22195808D01*
X6978140Y22208143D01*
X6973576Y22210029D01*
X6971326Y22211012D01*
X6968293Y22212337D01*
X6962094Y22215252D01*
X6960744Y22215933D01*
X6955165Y22218929D01*
X6952546Y22220423D01*
X6947426Y22223512D01*
X6943309Y22226134D01*
X6938679Y22229231D01*
X6936938Y22230453D01*
X6932953Y22233251D01*
X6928906Y22236216D01*
X6925402Y22238894D01*
X6920326Y22242990D01*
X6895216Y22264369D01*
X6890109Y22268968D01*
X6863116Y22294663D01*
X6859811Y22297929D01*
X6839156Y22319121D01*
X6826258Y22332356D01*
X6824647Y22334041D01*
X6740133Y22424219D01*
X6739372Y22425016D01*
X6733605Y22431056D01*
X6689611Y22476287D01*
X6675392Y22490337D01*
X6675367Y22490362D01*
X6630534Y22532945D01*
X6607163Y22553804D01*
X6560825Y22592651D01*
X6536448Y22611846D01*
X6523468Y22621436D01*
X6512499Y22629540D01*
X6492686Y22643441D01*
X6492254Y22643744D01*
X6492250Y22643747D01*
X6492241Y22643753D01*
X6467656Y22660121D01*
X6467647Y22660127D01*
X6444115Y22674878D01*
X6430999Y22682606D01*
X6418766Y22689814D01*
X6391975Y22704526D01*
X6391976Y22704526D01*
X6391966Y22704531D01*
X6365791Y22717891D01*
X6364618Y22718442D01*
X6335725Y22732013D01*
X6308636Y22743665D01*
X6275674Y22756496D01*
X6271142Y22758080D01*
X6247566Y22766320D01*
X6226934Y22772694D01*
X6212206Y22777244D01*
X6212197Y22777247D01*
X6212192Y22777248D01*
X6183011Y22785104D01*
X6182963Y22785117D01*
X6145916Y22793609D01*
X6115502Y22799386D01*
X6077595Y22805105D01*
X6077588Y22805106D01*
X6077580Y22805107D01*
X6064324Y22806596D01*
X6045895Y22808665D01*
X6012014Y22811184D01*
X6008005Y22811482D01*
X6001394Y22811725D01*
X5974955Y22812693D01*
X5970793Y22812769D01*
X5956242Y22813032D01*
X5956228Y22813032D01*
X5679581Y22812924D01*
X5679485Y22812924D01*
X5402836Y22813032D01*
X5402835Y22813032D01*
X5402825Y22813032D01*
X5384101Y22812693D01*
X5351048Y22811481D01*
X5341997Y22810808D01*
X5313163Y22808664D01*
X5281509Y22805111D01*
X5243570Y22799386D01*
X5243561Y22799385D01*
X5243559Y22799384D01*
X5213161Y22793610D01*
X5179260Y22785839D01*
X5176056Y22785104D01*
X5146892Y22777252D01*
X5146876Y22777248D01*
X5146872Y22777246D01*
X5111507Y22766322D01*
X5100264Y22762393D01*
X5083392Y22756496D01*
X5050401Y22743653D01*
X5023323Y22732004D01*
X4993301Y22717903D01*
X4967124Y22704544D01*
X4946687Y22693320D01*
X4940303Y22689814D01*
X4940272Y22689797D01*
X4914943Y22674872D01*
X4914932Y22674865D01*
X4891440Y22660139D01*
X4875779Y22649713D01*
X4866799Y22643735D01*
X4846588Y22629555D01*
X4822623Y22611851D01*
X4805464Y22598595D01*
X4782060Y22579699D01*
X4767776Y22567726D01*
X4744874Y22547801D01*
X4728530Y22532943D01*
X4683728Y22490390D01*
X4669424Y22476255D01*
X4625461Y22431053D01*
X4618939Y22424222D01*
X4534480Y22334106D01*
X4532807Y22332356D01*
X4499264Y22297939D01*
X4495958Y22294672D01*
X4465290Y22265478D01*
X4461696Y22262188D01*
X4453467Y22254949D01*
X4450425Y22252359D01*
X4441210Y22244765D01*
X4437659Y22241946D01*
X4430195Y22236240D01*
X4426118Y22233253D01*
X4420387Y22229231D01*
X4415765Y22226140D01*
X4411648Y22223518D01*
X4406519Y22220423D01*
X4403932Y22218946D01*
X4398244Y22215892D01*
X4396936Y22215233D01*
X4390796Y22212347D01*
X4385503Y22210034D01*
X4380926Y22208142D01*
X4349282Y22195794D01*
X4346294Y22194672D01*
X4317445Y22184262D01*
X4314536Y22183253D01*
X4288703Y22174650D01*
X4286484Y22173934D01*
X4257367Y22164842D01*
X4256822Y22164673D01*
X4185964Y22142905D01*
X4176665Y22139950D01*
X4136072Y22126611D01*
X4125506Y22123008D01*
X4102299Y22114803D01*
X4079805Y22106849D01*
X4076889Y22105827D01*
X4071985Y22104107D01*
X4069200Y22103167D01*
X4067831Y22102724D01*
X4065149Y22101888D01*
X4044045Y22095574D01*
X4043430Y22095392D01*
X4017188Y22087689D01*
X4008657Y22085102D01*
X4001439Y22082843D01*
X3995436Y22080964D01*
X3995427Y22080961D01*
X3995373Y22080944D01*
X3983384Y22077026D01*
X3970772Y22072728D01*
X3953187Y22066370D01*
X3941276Y22061812D01*
X3918074Y22052267D01*
X3906783Y22047291D01*
X3877648Y22033320D01*
X3877640Y22033317D01*
X3877634Y22033313D01*
X3872368Y22030578D01*
X3867088Y22027835D01*
X3842301Y22013684D01*
X3832315Y22007983D01*
X3826764Y22004516D01*
X3822563Y22001892D01*
X3783291Y21974698D01*
X3783281Y21974691D01*
X3774355Y21967864D01*
X3743296Y21942083D01*
X3739165Y21938365D01*
X3718104Y21918284D01*
X3714176Y21914317D01*
X3693593Y21892246D01*
X3689905Y21888048D01*
X3669967Y21863875D01*
X3666546Y21859454D01*
X3647952Y21833811D01*
X3644747Y21829085D01*
X3627648Y21802077D01*
X3624698Y21797076D01*
X3606561Y21763474D01*
X3601211Y21752599D01*
X3584666Y21715227D01*
X3580053Y21703555D01*
X3568004Y21669554D01*
X3564125Y21657230D01*
X3555462Y21626294D01*
X3552302Y21613455D01*
X3546175Y21585064D01*
X3543714Y21571828D01*
X3539555Y21545672D01*
X3537765Y21532141D01*
X3537762Y21532111D01*
X3535133Y21507669D01*
X3533989Y21493886D01*
X3533987Y21493867D01*
X3532603Y21470870D01*
X3532086Y21456989D01*
X3531747Y21434745D01*
X500500Y21434745D01*
X500500Y25031812D01*
X9311037Y25031812D01*
X9311037Y22965558D01*
X9316181Y22893620D01*
X9342183Y22805069D01*
X9356445Y22756497D01*
X9356719Y22755566D01*
X9434504Y22634530D01*
X9434508Y22634526D01*
X9542283Y22541138D01*
X9543243Y22540306D01*
X9576384Y22525171D01*
X9674117Y22480537D01*
X9674120Y22480537D01*
X9674121Y22480536D01*
X9816537Y22460060D01*
X9816540Y22460060D01*
X10337872Y22460060D01*
X10409812Y22465205D01*
X10530144Y22500539D01*
X10600011Y22500539D01*
X10616589Y22494355D01*
X10646846Y22480537D01*
X10646847Y22480537D01*
X10646849Y22480536D01*
X10789265Y22460060D01*
X10789268Y22460060D01*
X11342384Y22460060D01*
X11414324Y22465205D01*
X11552376Y22505741D01*
X11673416Y22583529D01*
X11673417Y22583531D01*
X11675917Y22585137D01*
X11742956Y22604822D01*
X11805009Y22588179D01*
X11807743Y22586599D01*
X11808968Y22585891D01*
X11825431Y22576679D01*
X11831716Y22573274D01*
X11837532Y22570123D01*
X11854418Y22561269D01*
X11866461Y22555158D01*
X11883743Y22546677D01*
X11895682Y22541011D01*
X11913360Y22532902D01*
X11925211Y22527648D01*
X11943285Y22519912D01*
X11964934Y22511231D01*
X11983439Y22504302D01*
X11987064Y22503004D01*
X11997117Y22499403D01*
X12016010Y22492942D01*
X12016063Y22492924D01*
X12029489Y22488540D01*
X12048888Y22482505D01*
X12048905Y22482500D01*
X12048921Y22482495D01*
X12062003Y22478619D01*
X12062033Y22478611D01*
X12062045Y22478607D01*
X12081891Y22473019D01*
X12094778Y22469574D01*
X12115071Y22464434D01*
X12127598Y22461430D01*
X12148337Y22456736D01*
X12148342Y22456735D01*
X12160530Y22454134D01*
X12162267Y22453786D01*
X12181757Y22449879D01*
X12193677Y22447638D01*
X12215309Y22443839D01*
X12226849Y22441949D01*
X12248928Y22438596D01*
X12260145Y22437021D01*
X12282670Y22434115D01*
X12298864Y22432291D01*
X12298895Y22432289D01*
X12298904Y22432287D01*
X12345219Y22427824D01*
X12345227Y22427824D01*
X12345252Y22427821D01*
X12365638Y22426272D01*
X12413811Y22423590D01*
X12432866Y22422889D01*
X12482822Y22421995D01*
X12491867Y22421914D01*
X12491868Y22421914D01*
X12496362Y22421934D01*
X12521560Y22422158D01*
X12530759Y22422323D01*
X12555484Y22422993D01*
X12565069Y22423344D01*
X12589322Y22424462D01*
X12599219Y22425016D01*
X12622999Y22426580D01*
X12623052Y22426584D01*
X12633312Y22427364D01*
X12638638Y22427824D01*
X12656606Y22429375D01*
X12667232Y22430405D01*
X12690067Y22432863D01*
X12701107Y22434175D01*
X12723470Y22437081D01*
X12731836Y22438266D01*
X12734791Y22438683D01*
X12734811Y22438687D01*
X12734860Y22438693D01*
X12756752Y22442046D01*
X12768503Y22443987D01*
X12779520Y22445941D01*
X12789861Y22447775D01*
X12789875Y22447778D01*
X12789922Y22447786D01*
X12802087Y22450098D01*
X12823034Y22454345D01*
X12835546Y22457047D01*
X12835594Y22457058D01*
X12856022Y22461741D01*
X12863270Y22463504D01*
X12868887Y22464869D01*
X12879249Y22467533D01*
X12888861Y22470002D01*
X12888880Y22470008D01*
X12888891Y22470010D01*
X12902116Y22473600D01*
X12921647Y22479188D01*
X12932657Y22482505D01*
X12935164Y22483260D01*
X12942403Y22485553D01*
X12954226Y22489295D01*
X12968098Y22493909D01*
X12983854Y22499403D01*
X12986651Y22500378D01*
X12992006Y22502335D01*
X13000823Y22505557D01*
X13000845Y22505566D01*
X13000863Y22505572D01*
X13018919Y22512478D01*
X13018917Y22512478D01*
X13018940Y22512486D01*
X13037310Y22519928D01*
X13055380Y22527664D01*
X13067186Y22532902D01*
X13067484Y22533034D01*
X13070920Y22534613D01*
X13085138Y22541146D01*
X13097374Y22546969D01*
X13099042Y22547790D01*
X13102066Y22549279D01*
X13114599Y22555450D01*
X13126968Y22561752D01*
X13126999Y22561769D01*
X13127016Y22561777D01*
X13143752Y22570596D01*
X13145484Y22571541D01*
X13156186Y22577372D01*
X13172566Y22586598D01*
X13185042Y22593862D01*
X13195615Y22600222D01*
X13201001Y22603461D01*
X13205012Y22605955D01*
X13213493Y22611225D01*
X13229028Y22621196D01*
X13241508Y22629469D01*
X13256620Y22639813D01*
X13269002Y22648564D01*
X13283692Y22659280D01*
X13295994Y22668545D01*
X13310260Y22679633D01*
X13310328Y22679688D01*
X13311011Y22680217D01*
X13311157Y22680029D01*
X13374903Y22706339D01*
X13443647Y22693847D01*
X13453825Y22688122D01*
X13469157Y22678518D01*
X13479236Y22672367D01*
X13503140Y22658161D01*
X13513450Y22652197D01*
X13534648Y22640266D01*
X13537659Y22638571D01*
X13545042Y22634530D01*
X13548073Y22632871D01*
X13572525Y22619857D01*
X13578908Y22616556D01*
X13583144Y22614365D01*
X13589396Y22611225D01*
X13607885Y22601940D01*
X13616202Y22597886D01*
X13618690Y22596673D01*
X13634441Y22589225D01*
X13643642Y22584874D01*
X13654544Y22579876D01*
X13676501Y22570123D01*
X13679840Y22568640D01*
X13681924Y22567744D01*
X13690818Y22563919D01*
X13716362Y22553290D01*
X13727456Y22548827D01*
X13753273Y22538794D01*
X13764431Y22534608D01*
X13782411Y22528104D01*
X13790533Y22525166D01*
X13802179Y22521182D01*
X13807181Y22519471D01*
X13860266Y22502335D01*
X13878663Y22496780D01*
X13931455Y22481929D01*
X13950672Y22476928D01*
X13979574Y22470010D01*
X14003144Y22464368D01*
X14003154Y22464366D01*
X14003170Y22464362D01*
X14023156Y22460004D01*
X14039845Y22456717D01*
X14075316Y22449730D01*
X14075345Y22449725D01*
X14075359Y22449722D01*
X14090836Y22446923D01*
X14116827Y22442639D01*
X14127346Y22441019D01*
X14143581Y22438693D01*
X14153197Y22437315D01*
X14153225Y22437312D01*
X14153262Y22437306D01*
X14163943Y22435891D01*
X14189786Y22432749D01*
X14200630Y22431549D01*
X14226399Y22428979D01*
X14226434Y22428976D01*
X14226463Y22428973D01*
X14237323Y22428009D01*
X14237336Y22428008D01*
X14263030Y22426008D01*
X14263053Y22426007D01*
X14263059Y22426006D01*
X14274075Y22425270D01*
X14274117Y22425268D01*
X14274127Y22425267D01*
X14299747Y22423839D01*
X14310930Y22423340D01*
X14321274Y22422993D01*
X14336474Y22422483D01*
X14338213Y22422445D01*
X14347769Y22422231D01*
X14353528Y22422167D01*
X14377842Y22421894D01*
X14377841Y22421813D01*
X14379971Y22421816D01*
X14379971Y22421896D01*
X14384397Y22421945D01*
X14384400Y22421944D01*
X14417455Y22422304D01*
X14428786Y22422554D01*
X14461194Y22423634D01*
X14472974Y22424165D01*
X14504737Y22425966D01*
X14513716Y22426584D01*
X14516900Y22426803D01*
X14516914Y22426805D01*
X14516941Y22426806D01*
X14548058Y22429327D01*
X14560703Y22430511D01*
X14591174Y22433752D01*
X14595858Y22434313D01*
X14604225Y22435313D01*
X14604238Y22435315D01*
X14604257Y22435317D01*
X14634083Y22439278D01*
X14647605Y22441260D01*
X14676784Y22445941D01*
X14690744Y22448381D01*
X14719278Y22453783D01*
X14733631Y22456717D01*
X14761520Y22462839D01*
X14776268Y22466309D01*
X14803511Y22473151D01*
X14818619Y22477194D01*
X14845217Y22484756D01*
X14860672Y22489418D01*
X14886625Y22497701D01*
X14902344Y22503004D01*
X14927651Y22512006D01*
X14943636Y22517998D01*
X14968299Y22527721D01*
X14984470Y22534422D01*
X15008487Y22544865D01*
X15024758Y22552285D01*
X15048131Y22563447D01*
X15062674Y22570681D01*
X15085367Y22582428D01*
X15098051Y22589225D01*
X15120050Y22601419D01*
X15132912Y22608796D01*
X15154217Y22621436D01*
X15167264Y22629447D01*
X15187875Y22642535D01*
X15201024Y22651174D01*
X15220941Y22664709D01*
X15231854Y22672383D01*
X15234172Y22674013D01*
X15238172Y22676924D01*
X15253392Y22687994D01*
X15266655Y22697978D01*
X15285182Y22712408D01*
X15298373Y22723043D01*
X15316206Y22737919D01*
X15329328Y22749252D01*
X15346466Y22764575D01*
X15359434Y22776584D01*
X15375877Y22792354D01*
X15388649Y22805048D01*
X15404396Y22821266D01*
X15416852Y22834565D01*
X15431904Y22851229D01*
X15444023Y22865149D01*
X15458380Y22882260D01*
X15470100Y22896763D01*
X15483761Y22914321D01*
X15495011Y22929349D01*
X15507976Y22947354D01*
X15518703Y22962851D01*
X15530972Y22981303D01*
X15542983Y23000269D01*
X15554530Y23019429D01*
X15562872Y23033799D01*
X15573674Y23053133D01*
X15581681Y23068045D01*
X15591738Y23087552D01*
X15599366Y23102987D01*
X15608679Y23122669D01*
X15615887Y23138611D01*
X15624454Y23158466D01*
X15631174Y23174821D01*
X15638997Y23194850D01*
X15645216Y23211643D01*
X15652293Y23231846D01*
X15657940Y23248936D01*
X15664273Y23269313D01*
X15669344Y23286728D01*
X15674931Y23307279D01*
X15679374Y23324860D01*
X15684217Y23345584D01*
X15688032Y23363346D01*
X15692130Y23384245D01*
X15695297Y23402078D01*
X15698650Y23423150D01*
X15701167Y23441020D01*
X15703774Y23462266D01*
X15705636Y23480032D01*
X15707499Y23501452D01*
X15708725Y23519140D01*
X15709842Y23540735D01*
X15710443Y23558186D01*
X15710816Y23579954D01*
X15710858Y23594284D01*
X15710659Y23612028D01*
X15710396Y23623622D01*
X15709799Y23641093D01*
X15709250Y23653027D01*
X15708255Y23670225D01*
X15707396Y23682493D01*
X15706003Y23699418D01*
X15704810Y23711983D01*
X15703020Y23728634D01*
X15701465Y23741537D01*
X15699277Y23757916D01*
X15697340Y23771095D01*
X15694755Y23787200D01*
X15692408Y23800655D01*
X15689426Y23816487D01*
X15686646Y23830200D01*
X15683267Y23845759D01*
X15680031Y23859705D01*
X15676255Y23874991D01*
X15672548Y23889119D01*
X15668376Y23904131D01*
X15664170Y23918443D01*
X15659601Y23933183D01*
X15654888Y23947618D01*
X15649923Y23962084D01*
X15644690Y23976604D01*
X15644684Y23976622D01*
X15639342Y23990763D01*
X15635727Y23999901D01*
X15633565Y24005369D01*
X15627808Y24019289D01*
X15621521Y24033840D01*
X15615369Y24047487D01*
X15608620Y24061853D01*
X15602072Y24075240D01*
X15595234Y24088705D01*
X15588314Y24101843D01*
X15581030Y24115182D01*
X15573738Y24128071D01*
X15566030Y24141228D01*
X15566010Y24141261D01*
X15558383Y24153842D01*
X15550241Y24166825D01*
X15550228Y24166846D01*
X15542191Y24179239D01*
X15533661Y24191964D01*
X15525252Y24204108D01*
X15516362Y24216541D01*
X15511430Y24223223D01*
X15507584Y24228434D01*
X15498319Y24240595D01*
X15489195Y24252205D01*
X15489180Y24252224D01*
X15488479Y24253089D01*
X15461552Y24317560D01*
X15473755Y24386355D01*
X15487794Y24408413D01*
X15543611Y24478507D01*
X15566144Y24509096D01*
X15629310Y24638369D01*
X15629491Y24639425D01*
X15653496Y24780197D01*
X15653497Y24780202D01*
X15636745Y24923104D01*
X15636743Y24923108D01*
X15636743Y24923110D01*
X15596948Y25016634D01*
X15580412Y25055497D01*
X15580409Y25055501D01*
X15580408Y25055503D01*
X15489066Y25166651D01*
X15489065Y25166652D01*
X15489061Y25166657D01*
X15470230Y25183855D01*
X15460968Y25192108D01*
X15441840Y25208735D01*
X15432252Y25216862D01*
X15412827Y25232917D01*
X15402968Y25240860D01*
X15383247Y25256345D01*
X15383237Y25256353D01*
X15383206Y25256377D01*
X15373054Y25264142D01*
X15353075Y25279024D01*
X15353031Y25279057D01*
X15342576Y25286640D01*
X15322260Y25300982D01*
X15311539Y25308345D01*
X15290926Y25322116D01*
X15290886Y25322143D01*
X15279970Y25329233D01*
X15259031Y25342451D01*
X15247849Y25349308D01*
X15226648Y25361932D01*
X15224487Y25363181D01*
X15215201Y25368549D01*
X15193695Y25380606D01*
X15193655Y25380628D01*
X15182115Y25386901D01*
X15160375Y25398355D01*
X15160351Y25398368D01*
X15160323Y25398382D01*
X15148532Y25404399D01*
X15148493Y25404419D01*
X15148470Y25404430D01*
X15126445Y25415308D01*
X15114512Y25421008D01*
X15092103Y25431356D01*
X15080162Y25436684D01*
X15057384Y25446492D01*
X15045328Y25451500D01*
X15022307Y25460711D01*
X15010091Y25465417D01*
X14986880Y25474017D01*
X14986846Y25474029D01*
X14985547Y25474509D01*
X14962497Y25482978D01*
X14962472Y25482987D01*
X14962420Y25483006D01*
X14952517Y25486526D01*
X14929467Y25494450D01*
X14922111Y25496890D01*
X14919176Y25497864D01*
X14919155Y25497871D01*
X14919121Y25497882D01*
X14896144Y25505235D01*
X14885687Y25508457D01*
X14862586Y25515302D01*
X14851997Y25518314D01*
X14851957Y25518325D01*
X14828908Y25524608D01*
X14828885Y25524614D01*
X14828874Y25524617D01*
X14818114Y25527422D01*
X14818085Y25527430D01*
X14818059Y25527436D01*
X14804869Y25530719D01*
X14794955Y25533187D01*
X14783994Y25535784D01*
X14760872Y25540991D01*
X14749726Y25543369D01*
X14726728Y25548004D01*
X14715314Y25550168D01*
X14710191Y25551079D01*
X14692266Y25554266D01*
X14680748Y25556177D01*
X14676211Y25556876D01*
X14657694Y25559730D01*
X14647333Y25561203D01*
X14646084Y25561380D01*
X14646073Y25561382D01*
X14646055Y25561384D01*
X14623046Y25564384D01*
X14611334Y25565772D01*
X14603312Y25566628D01*
X14588271Y25568233D01*
X14580742Y25568948D01*
X14576361Y25569363D01*
X14553457Y25571263D01*
X14553402Y25571267D01*
X14553389Y25571268D01*
X14545395Y25571837D01*
X14541477Y25572115D01*
X14518478Y25573478D01*
X14518477Y25573479D01*
X14518461Y25573479D01*
X14514758Y25573655D01*
X14506491Y25574047D01*
X14483436Y25574866D01*
X14471471Y25575151D01*
X14448481Y25575422D01*
X14436437Y25575422D01*
X14407278Y25575075D01*
X14394921Y25574777D01*
X14366197Y25573734D01*
X14353526Y25573116D01*
X14325247Y25571377D01*
X14312265Y25570412D01*
X14289521Y25568424D01*
X14284401Y25567976D01*
X14276504Y25567180D01*
X14271027Y25566628D01*
X14243682Y25563505D01*
X14238721Y25562870D01*
X14229970Y25561749D01*
X14223564Y25560840D01*
X14202974Y25557918D01*
X14189087Y25555748D01*
X14162645Y25551239D01*
X14148300Y25548580D01*
X14122236Y25543361D01*
X14107842Y25540260D01*
X14082239Y25534350D01*
X14082215Y25534344D01*
X14067519Y25530719D01*
X14060395Y25528849D01*
X14042330Y25524105D01*
X14027478Y25519962D01*
X14002809Y25512672D01*
X13987766Y25507970D01*
X13963537Y25499983D01*
X13948517Y25494768D01*
X13948465Y25494749D01*
X13924651Y25486057D01*
X13924624Y25486047D01*
X13924603Y25486039D01*
X13909522Y25480259D01*
X13886146Y25470867D01*
X13871024Y25464505D01*
X13848174Y25454452D01*
X13833042Y25447497D01*
X13810564Y25436715D01*
X13803328Y25433172D01*
X13781383Y25422210D01*
X13768362Y25415468D01*
X13747050Y25404039D01*
X13733939Y25396756D01*
X13728443Y25393595D01*
X13660515Y25377240D01*
X13594527Y25400205D01*
X13585425Y25407377D01*
X13528087Y25457061D01*
X13528085Y25457063D01*
X13528082Y25457065D01*
X13527546Y25457310D01*
X13397207Y25516835D01*
X13397202Y25516836D01*
X13254788Y25537311D01*
X12727099Y25537311D01*
X12727096Y25537311D01*
X12655156Y25532166D01*
X12527085Y25494561D01*
X12457215Y25494561D01*
X12440639Y25500743D01*
X12405402Y25516835D01*
X12405400Y25516836D01*
X12262986Y25537311D01*
X11716225Y25537311D01*
X11716222Y25537311D01*
X11644282Y25532166D01*
X11571155Y25510694D01*
X11501286Y25510694D01*
X11484889Y25516809D01*
X11484800Y25516836D01*
X11342384Y25537311D01*
X10821053Y25537311D01*
X10821050Y25537311D01*
X10749109Y25532166D01*
X10628779Y25496834D01*
X10558910Y25496834D01*
X10542336Y25503016D01*
X10512079Y25516834D01*
X10512071Y25516836D01*
X10369657Y25537311D01*
X9816537Y25537311D01*
X9816534Y25537311D01*
X9744596Y25532167D01*
X9624268Y25496834D01*
X9616187Y25494461D01*
X9606542Y25491629D01*
X9485506Y25413844D01*
X9485502Y25413840D01*
X9391287Y25305111D01*
X9391281Y25305102D01*
X9331513Y25174231D01*
X9331512Y25174226D01*
X9311037Y25031812D01*
X500500Y25031812D01*
X500500Y35187865D01*
X8809500Y35187865D01*
X8809500Y33392130D01*
X8809501Y33392124D01*
X8815908Y33332517D01*
X8866202Y33197672D01*
X8866206Y33197665D01*
X8952452Y33082456D01*
X8952455Y33082453D01*
X9067664Y32996207D01*
X9067671Y32996203D01*
X9202517Y32945909D01*
X9202516Y32945909D01*
X9209444Y32945165D01*
X9262127Y32939500D01*
X11057872Y32939501D01*
X11117483Y32945909D01*
X11252331Y32996204D01*
X11367546Y33082454D01*
X11453796Y33197669D01*
X11502810Y33329084D01*
X11544681Y33385016D01*
X11610145Y33409434D01*
X11678418Y33394583D01*
X11706673Y33373431D01*
X11820213Y33259891D01*
X11992179Y33134952D01*
X11992181Y33134951D01*
X11992184Y33134949D01*
X12181588Y33038443D01*
X12383757Y32972754D01*
X12593713Y32939500D01*
X12593714Y32939500D01*
X12806286Y32939500D01*
X12806287Y32939500D01*
X13016243Y32972754D01*
X13218412Y33038443D01*
X13407816Y33134949D01*
X13494138Y33197665D01*
X13579786Y33259891D01*
X13579788Y33259894D01*
X13579792Y33259896D01*
X13730104Y33410208D01*
X13730106Y33410212D01*
X13730109Y33410214D01*
X13815890Y33528283D01*
X13855051Y33582184D01*
X13859793Y33591492D01*
X13907763Y33642289D01*
X13975583Y33659089D01*
X14041719Y33636555D01*
X14080763Y33591500D01*
X14085373Y33582453D01*
X14124728Y33528284D01*
X14757037Y34160592D01*
X14774075Y34097007D01*
X14839901Y33982993D01*
X14932993Y33889901D01*
X15047007Y33824075D01*
X15110590Y33807038D01*
X14478282Y33174731D01*
X14478282Y33174730D01*
X14532449Y33135376D01*
X14721782Y33038905D01*
X14923870Y32973243D01*
X15133754Y32940000D01*
X15346246Y32940000D01*
X15556127Y32973243D01*
X15556130Y32973243D01*
X15758217Y33038905D01*
X15947554Y33135378D01*
X16001716Y33174730D01*
X16001717Y33174730D01*
X15369408Y33807038D01*
X15432993Y33824075D01*
X15547007Y33889901D01*
X15640099Y33982993D01*
X15705925Y34097007D01*
X15722962Y34160591D01*
X16355270Y33528283D01*
X16355270Y33528284D01*
X16394622Y33582445D01*
X16399232Y33591493D01*
X16447205Y33642291D01*
X16515025Y33659088D01*
X16581161Y33636553D01*
X16620204Y33591496D01*
X16624949Y33582183D01*
X16749890Y33410214D01*
X16900213Y33259891D01*
X17072179Y33134952D01*
X17072181Y33134951D01*
X17072184Y33134949D01*
X17161256Y33089565D01*
X17261587Y33038443D01*
X17261593Y33038441D01*
X17359258Y33006708D01*
X17408622Y32976458D01*
X24163181Y26221898D01*
X24196666Y26160575D01*
X24199500Y26134218D01*
X24199500Y26000000D01*
X24199501Y25999981D01*
X24210000Y25897204D01*
X24210001Y25897201D01*
X24265185Y25730669D01*
X24265187Y25730664D01*
X24357289Y25581343D01*
X24450951Y25487681D01*
X24484436Y25426358D01*
X24479452Y25356666D01*
X24450951Y25312319D01*
X24357289Y25218658D01*
X24265187Y25069337D01*
X24265186Y25069334D01*
X24210001Y24902797D01*
X24210001Y24902796D01*
X24210000Y24902796D01*
X24199500Y24800017D01*
X24199500Y23999999D01*
X24199501Y23999981D01*
X24210000Y23897204D01*
X24210001Y23897201D01*
X24265185Y23730669D01*
X24265187Y23730664D01*
X24276710Y23711983D01*
X24357288Y23581344D01*
X24481344Y23457288D01*
X24630666Y23365186D01*
X24797203Y23310001D01*
X24899991Y23299500D01*
X25034216Y23299501D01*
X25101256Y23279817D01*
X25121897Y23263183D01*
X32242860Y16142219D01*
X32242861Y16142218D01*
X32335832Y16049247D01*
X32382219Y16002860D01*
X32546079Y15893372D01*
X32546092Y15893365D01*
X32649578Y15850500D01*
X32649579Y15850500D01*
X32728164Y15817949D01*
X32921454Y15779501D01*
X32921457Y15779500D01*
X32921459Y15779500D01*
X33118540Y15779500D01*
X35679800Y15779500D01*
X35746839Y15759815D01*
X35759365Y15750507D01*
X35932179Y15624952D01*
X35932181Y15624951D01*
X35932184Y15624949D01*
X36121588Y15528443D01*
X36323757Y15462754D01*
X36533713Y15429500D01*
X36533714Y15429500D01*
X36746286Y15429500D01*
X36746287Y15429500D01*
X36956243Y15462754D01*
X37158412Y15528443D01*
X37347816Y15624949D01*
X37417876Y15675850D01*
X37523734Y15752759D01*
X37524364Y15751892D01*
X37583419Y15778359D01*
X37600200Y15779500D01*
X43457441Y15779500D01*
X43524480Y15759815D01*
X43570235Y15707011D01*
X43580179Y15637853D01*
X43577216Y15623407D01*
X43533730Y15461115D01*
X43499500Y15201128D01*
X43499500Y14938873D01*
X43517064Y14805473D01*
X43533730Y14678884D01*
X43601602Y14425582D01*
X43601605Y14425572D01*
X43701953Y14183310D01*
X43701958Y14183300D01*
X43833075Y13956197D01*
X43992718Y13748149D01*
X43992726Y13748140D01*
X44178140Y13562726D01*
X44178148Y13562719D01*
X44386196Y13403076D01*
X44613299Y13271959D01*
X44613309Y13271954D01*
X44855571Y13171606D01*
X44855581Y13171602D01*
X45108884Y13103730D01*
X45368880Y13069500D01*
X45368887Y13069500D01*
X45631113Y13069500D01*
X45631120Y13069500D01*
X45891116Y13103730D01*
X46144419Y13171602D01*
X46386697Y13271957D01*
X46613803Y13403076D01*
X46821851Y13562718D01*
X46821855Y13562723D01*
X46821860Y13562726D01*
X47007274Y13748140D01*
X47007277Y13748145D01*
X47007282Y13748149D01*
X47166924Y13956197D01*
X47298043Y14183303D01*
X47398398Y14425581D01*
X47466270Y14678884D01*
X47500500Y14938880D01*
X47500500Y15201120D01*
X47466270Y15461116D01*
X47398398Y15714419D01*
X47383555Y15750253D01*
X47298046Y15956691D01*
X47298041Y15956701D01*
X47166924Y16183804D01*
X47044424Y16343446D01*
X47007282Y16391851D01*
X47007281Y16391852D01*
X47007274Y16391860D01*
X46821860Y16577274D01*
X46821851Y16577282D01*
X46613803Y16736925D01*
X46386700Y16868042D01*
X46386690Y16868047D01*
X46144428Y16968395D01*
X46144421Y16968397D01*
X46144419Y16968398D01*
X45891116Y17036270D01*
X45833339Y17043877D01*
X45631127Y17070500D01*
X45631120Y17070500D01*
X45454781Y17070500D01*
X45387742Y17090185D01*
X45341987Y17142989D01*
X45332043Y17212147D01*
X45361068Y17275703D01*
X45367100Y17282181D01*
X51099970Y23015051D01*
X56744906Y28659987D01*
X80970000Y28659987D01*
X80970000Y27360000D01*
X82970000Y27360000D01*
X83470000Y27360000D01*
X85469999Y27360000D01*
X85469999Y28659972D01*
X85469998Y28659987D01*
X85459505Y28762698D01*
X85404358Y28929120D01*
X85404356Y28929125D01*
X85312315Y29078346D01*
X85188345Y29202316D01*
X85039124Y29294357D01*
X85039119Y29294359D01*
X84872697Y29349506D01*
X84872690Y29349507D01*
X84769986Y29360000D01*
X83470000Y29360000D01*
X83470000Y27360000D01*
X82970000Y27360000D01*
X82970000Y29360000D01*
X81670028Y29360000D01*
X81670012Y29359999D01*
X81567302Y29349506D01*
X81400880Y29294359D01*
X81400875Y29294357D01*
X81251654Y29202316D01*
X81127684Y29078346D01*
X81035643Y28929125D01*
X81035641Y28929120D01*
X80980494Y28762698D01*
X80980493Y28762691D01*
X80970000Y28659987D01*
X56744906Y28659987D01*
X57787778Y29702859D01*
X57787782Y29702861D01*
X57927139Y29842218D01*
X58036632Y30006086D01*
X58089961Y30134835D01*
X58112051Y30188164D01*
X58150500Y30381460D01*
X58150500Y30570552D01*
X86169500Y30570552D01*
X86169500Y30389449D01*
X86197829Y30210590D01*
X86253787Y30038364D01*
X86253788Y30038361D01*
X86336006Y29877003D01*
X86442441Y29730506D01*
X86442445Y29730501D01*
X86570500Y29602446D01*
X86570505Y29602442D01*
X86698287Y29509604D01*
X86717006Y29496004D01*
X86822484Y29442260D01*
X86878360Y29413789D01*
X86878363Y29413788D01*
X86955000Y29388888D01*
X87050591Y29357829D01*
X87123639Y29346260D01*
X87210678Y29332473D01*
X87273813Y29302544D01*
X87310744Y29243232D01*
X87309746Y29173369D01*
X87271136Y29115137D01*
X87210678Y29087527D01*
X87050589Y29062171D01*
X86878363Y29006213D01*
X86878360Y29006212D01*
X86717002Y28923994D01*
X86570505Y28817559D01*
X86570500Y28817555D01*
X86442445Y28689500D01*
X86442441Y28689495D01*
X86336006Y28542998D01*
X86253788Y28381640D01*
X86253787Y28381637D01*
X86197829Y28209411D01*
X86169500Y28030552D01*
X86169500Y27849449D01*
X86197829Y27670590D01*
X86253787Y27498364D01*
X86253788Y27498361D01*
X86336006Y27337003D01*
X86442441Y27190506D01*
X86442445Y27190501D01*
X86570500Y27062446D01*
X86570505Y27062442D01*
X86614180Y27030711D01*
X86717006Y26956004D01*
X86822484Y26902260D01*
X86878360Y26873789D01*
X86878363Y26873788D01*
X86964476Y26845809D01*
X87050591Y26817829D01*
X87133429Y26804709D01*
X87229449Y26789500D01*
X87229454Y26789500D01*
X87410551Y26789500D01*
X87497259Y26803235D01*
X87589409Y26817829D01*
X87761639Y26873789D01*
X87922994Y26956004D01*
X88069501Y27062447D01*
X88197553Y27190499D01*
X88303996Y27337006D01*
X88386211Y27498361D01*
X88442171Y27670591D01*
X88456422Y27760575D01*
X88467527Y27830679D01*
X88497456Y27893814D01*
X88556768Y27930745D01*
X88626630Y27929747D01*
X88684863Y27891137D01*
X88712473Y27830679D01*
X88737829Y27670590D01*
X88793787Y27498364D01*
X88793788Y27498361D01*
X88876006Y27337003D01*
X88982441Y27190506D01*
X88982445Y27190501D01*
X89110500Y27062446D01*
X89110505Y27062442D01*
X89154180Y27030711D01*
X89257006Y26956004D01*
X89362484Y26902260D01*
X89418360Y26873789D01*
X89418363Y26873788D01*
X89504476Y26845809D01*
X89590591Y26817829D01*
X89673429Y26804709D01*
X89769449Y26789500D01*
X89769454Y26789500D01*
X89950551Y26789500D01*
X90037259Y26803235D01*
X90129409Y26817829D01*
X90301639Y26873789D01*
X90462994Y26956004D01*
X90609501Y27062447D01*
X90737553Y27190499D01*
X90843996Y27337006D01*
X90926211Y27498361D01*
X90982171Y27670591D01*
X90993578Y27742616D01*
X91008275Y27835399D01*
X91022865Y27866176D01*
X91037035Y27897203D01*
X91037810Y27897702D01*
X91038205Y27898533D01*
X91067126Y27916542D01*
X91095813Y27934977D01*
X91097010Y27935150D01*
X91097516Y27935464D01*
X91130748Y27940000D01*
X91169252Y27940000D01*
X91236291Y27920315D01*
X91282046Y27867511D01*
X91291725Y27835399D01*
X91317829Y27670590D01*
X91373787Y27498364D01*
X91373788Y27498361D01*
X91456006Y27337003D01*
X91562441Y27190506D01*
X91562445Y27190501D01*
X91690500Y27062446D01*
X91690505Y27062442D01*
X91734180Y27030711D01*
X91837006Y26956004D01*
X91942484Y26902260D01*
X91998360Y26873789D01*
X91998363Y26873788D01*
X92084476Y26845809D01*
X92170591Y26817829D01*
X92253429Y26804709D01*
X92349449Y26789500D01*
X92349454Y26789500D01*
X92530551Y26789500D01*
X92617259Y26803235D01*
X92709409Y26817829D01*
X92881639Y26873789D01*
X93042994Y26956004D01*
X93189501Y27062447D01*
X93317553Y27190499D01*
X93423996Y27337006D01*
X93506211Y27498361D01*
X93562171Y27670591D01*
X93576765Y27762741D01*
X93590500Y27849449D01*
X93590500Y28030552D01*
X93574019Y28134603D01*
X93562171Y28209409D01*
X93506211Y28381639D01*
X93506211Y28381640D01*
X93477740Y28437516D01*
X93423996Y28542994D01*
X93339007Y28659972D01*
X93317558Y28689495D01*
X93317554Y28689500D01*
X93189499Y28817555D01*
X93189494Y28817559D01*
X93042997Y28923994D01*
X93042996Y28923995D01*
X93042994Y28923996D01*
X92991300Y28950336D01*
X92881639Y29006212D01*
X92881636Y29006213D01*
X92709410Y29062171D01*
X92549321Y29087527D01*
X92486186Y29117456D01*
X92449255Y29176768D01*
X92450253Y29246630D01*
X92488863Y29304863D01*
X92549321Y29332473D01*
X92619425Y29343578D01*
X92709409Y29357829D01*
X92881639Y29413789D01*
X93042994Y29496004D01*
X93189501Y29602447D01*
X93317553Y29730499D01*
X93423996Y29877006D01*
X93506211Y30038361D01*
X93562171Y30210591D01*
X93576765Y30302741D01*
X93590500Y30389449D01*
X93590500Y30570552D01*
X93574019Y30674603D01*
X93562171Y30749409D01*
X93527596Y30855823D01*
X93506212Y30921637D01*
X93506211Y30921640D01*
X93477740Y30977516D01*
X93423996Y31082994D01*
X93408696Y31104053D01*
X93317558Y31229495D01*
X93317554Y31229500D01*
X93189499Y31357555D01*
X93189494Y31357559D01*
X93042997Y31463994D01*
X93042996Y31463995D01*
X93042994Y31463996D01*
X92991300Y31490336D01*
X92881639Y31546212D01*
X92881636Y31546213D01*
X92709410Y31602171D01*
X92530551Y31630500D01*
X92530546Y31630500D01*
X92349454Y31630500D01*
X92349449Y31630500D01*
X92170589Y31602171D01*
X91998363Y31546213D01*
X91998360Y31546212D01*
X91837002Y31463994D01*
X91690505Y31357559D01*
X91690500Y31357555D01*
X91562445Y31229500D01*
X91562441Y31229495D01*
X91456006Y31082998D01*
X91373788Y30921640D01*
X91373787Y30921637D01*
X91317829Y30749411D01*
X91291725Y30584601D01*
X91277134Y30553825D01*
X91262965Y30522797D01*
X91262189Y30522299D01*
X91261795Y30521467D01*
X91232873Y30503459D01*
X91204187Y30485023D01*
X91202989Y30484851D01*
X91202484Y30484536D01*
X91169252Y30480000D01*
X91130748Y30480000D01*
X91063709Y30499685D01*
X91017954Y30552489D01*
X91008275Y30584601D01*
X90992261Y30685701D01*
X90982171Y30749409D01*
X90947596Y30855823D01*
X90926212Y30921637D01*
X90926211Y30921640D01*
X90897740Y30977516D01*
X90843996Y31082994D01*
X90828696Y31104053D01*
X90737558Y31229495D01*
X90737554Y31229500D01*
X90609499Y31357555D01*
X90609494Y31357559D01*
X90462997Y31463994D01*
X90462996Y31463995D01*
X90462994Y31463996D01*
X90411300Y31490336D01*
X90301639Y31546212D01*
X90301636Y31546213D01*
X90129410Y31602171D01*
X89950551Y31630500D01*
X89950546Y31630500D01*
X89769454Y31630500D01*
X89769449Y31630500D01*
X89590589Y31602171D01*
X89418363Y31546213D01*
X89418360Y31546212D01*
X89257002Y31463994D01*
X89110505Y31357559D01*
X89110500Y31357555D01*
X88982445Y31229500D01*
X88982441Y31229495D01*
X88876006Y31082998D01*
X88793788Y30921640D01*
X88793787Y30921637D01*
X88737829Y30749411D01*
X88712473Y30589322D01*
X88682544Y30526187D01*
X88623232Y30489256D01*
X88553369Y30490254D01*
X88495137Y30528864D01*
X88467527Y30589322D01*
X88453740Y30676361D01*
X88442171Y30749409D01*
X88407596Y30855823D01*
X88386212Y30921637D01*
X88386211Y30921640D01*
X88357740Y30977516D01*
X88303996Y31082994D01*
X88288696Y31104053D01*
X88197558Y31229495D01*
X88197554Y31229500D01*
X88069499Y31357555D01*
X88069494Y31357559D01*
X87922997Y31463994D01*
X87922996Y31463995D01*
X87922994Y31463996D01*
X87871300Y31490336D01*
X87761639Y31546212D01*
X87761636Y31546213D01*
X87589410Y31602171D01*
X87410551Y31630500D01*
X87410546Y31630500D01*
X87229454Y31630500D01*
X87229449Y31630500D01*
X87050589Y31602171D01*
X86878363Y31546213D01*
X86878360Y31546212D01*
X86717002Y31463994D01*
X86570505Y31357559D01*
X86570500Y31357555D01*
X86442445Y31229500D01*
X86442441Y31229495D01*
X86336006Y31082998D01*
X86253788Y30921640D01*
X86253787Y30921637D01*
X86197829Y30749411D01*
X86169500Y30570552D01*
X58150500Y30570552D01*
X58150500Y30578540D01*
X58150500Y37634218D01*
X58159144Y37663659D01*
X58165668Y37693645D01*
X58169422Y37698661D01*
X58170185Y37701257D01*
X58186819Y37721899D01*
X58332319Y37867399D01*
X58393642Y37900884D01*
X58463334Y37895900D01*
X58507681Y37867399D01*
X62719735Y33655345D01*
X62719764Y33655314D01*
X62862217Y33512861D01*
X62941330Y33460000D01*
X63026086Y33403368D01*
X63026088Y33403367D01*
X63026092Y33403365D01*
X63070392Y33385016D01*
X63144053Y33354505D01*
X63208164Y33327949D01*
X63241179Y33321382D01*
X63347210Y33300291D01*
X63401456Y33289500D01*
X63401459Y33289500D01*
X76298543Y33289500D01*
X76334706Y33296694D01*
X76458821Y33321382D01*
X76491836Y33327949D01*
X76555947Y33354505D01*
X76673914Y33403368D01*
X76837782Y33512861D01*
X76977139Y33652218D01*
X76977139Y33652220D01*
X76987347Y33662427D01*
X76987348Y33662430D01*
X78768499Y35443579D01*
X78829820Y35477062D01*
X78845291Y35479343D01*
X78846282Y35479500D01*
X78846287Y35479500D01*
X79056243Y35512754D01*
X79258412Y35578443D01*
X79447816Y35674949D01*
X79552405Y35750938D01*
X79591173Y35769833D01*
X79613049Y35776091D01*
X79793407Y35870302D01*
X79931640Y35983017D01*
X79996035Y36010125D01*
X80064865Y35998116D01*
X80088357Y35983019D01*
X80226593Y35870302D01*
X80406951Y35776091D01*
X80428824Y35769833D01*
X80467597Y35750935D01*
X80572184Y35674949D01*
X80761588Y35578443D01*
X80963757Y35512754D01*
X81173713Y35479500D01*
X81173714Y35479500D01*
X81386286Y35479500D01*
X81386287Y35479500D01*
X81596243Y35512754D01*
X81798412Y35578443D01*
X81987816Y35674949D01*
X82092405Y35750938D01*
X82131173Y35769833D01*
X82153049Y35776091D01*
X82333407Y35870302D01*
X82471640Y35983017D01*
X82536035Y36010125D01*
X82604865Y35998116D01*
X82628357Y35983019D01*
X82766593Y35870302D01*
X82946951Y35776091D01*
X82968824Y35769833D01*
X83007597Y35750935D01*
X83112184Y35674949D01*
X83301588Y35578443D01*
X83478321Y35521019D01*
X83535997Y35481581D01*
X83563195Y35417223D01*
X83551280Y35348376D01*
X83505100Y35297549D01*
X83351342Y35202711D01*
X83227289Y35078658D01*
X83135187Y34929337D01*
X83135185Y34929332D01*
X83107349Y34845330D01*
X83080001Y34762797D01*
X83080001Y34762796D01*
X83080000Y34762796D01*
X83069500Y34660017D01*
X83069500Y32759999D01*
X83069501Y32759982D01*
X83080000Y32657204D01*
X83080001Y32657201D01*
X83135115Y32490881D01*
X83135186Y32490666D01*
X83227288Y32341344D01*
X83351344Y32217288D01*
X83500666Y32125186D01*
X83667203Y32070001D01*
X83769991Y32059500D01*
X84670008Y32059501D01*
X84670016Y32059502D01*
X84670019Y32059502D01*
X84726302Y32065252D01*
X84772797Y32070001D01*
X84939334Y32125186D01*
X85088656Y32217288D01*
X85088661Y32217294D01*
X85093497Y32221116D01*
X85158293Y32247255D01*
X85226935Y32234213D01*
X85247317Y32221114D01*
X85251653Y32217686D01*
X85400875Y32125644D01*
X85400880Y32125642D01*
X85567302Y32070495D01*
X85567309Y32070494D01*
X85670019Y32060001D01*
X85869999Y32060001D01*
X86370000Y32060001D01*
X86569972Y32060001D01*
X86569986Y32060002D01*
X86672697Y32070495D01*
X86839119Y32125642D01*
X86839124Y32125644D01*
X86988345Y32217685D01*
X87112315Y32341655D01*
X87204356Y32490876D01*
X87204358Y32490881D01*
X87259505Y32657303D01*
X87259506Y32657310D01*
X87269999Y32760014D01*
X87270000Y32760027D01*
X87270000Y33460000D01*
X86370000Y33460000D01*
X86370000Y32060001D01*
X85869999Y32060001D01*
X85870000Y32060002D01*
X85870000Y33586000D01*
X85882761Y33629462D01*
X85908060Y33568386D01*
X85978386Y33498060D01*
X86070272Y33460000D01*
X86169728Y33460000D01*
X86261614Y33498060D01*
X86331940Y33568386D01*
X86370000Y33660272D01*
X86370000Y33759728D01*
X86331940Y33851614D01*
X86261614Y33921940D01*
X86195303Y33949407D01*
X86244000Y33960000D01*
X87269999Y33960000D01*
X87269999Y34659972D01*
X87269998Y34659987D01*
X87259505Y34762698D01*
X87204358Y34929120D01*
X87204356Y34929125D01*
X87112315Y35078346D01*
X86988345Y35202316D01*
X86839124Y35294357D01*
X86839119Y35294359D01*
X86784411Y35312487D01*
X86726966Y35352260D01*
X86700143Y35416775D01*
X86712458Y35485551D01*
X86760001Y35536751D01*
X86785092Y35548122D01*
X86878412Y35578443D01*
X87067816Y35674949D01*
X87172405Y35750938D01*
X87211173Y35769833D01*
X87233049Y35776091D01*
X87413407Y35870302D01*
X87551640Y35983017D01*
X87616035Y36010125D01*
X87684865Y35998116D01*
X87708357Y35983019D01*
X87846593Y35870302D01*
X88026951Y35776091D01*
X88048824Y35769833D01*
X88087597Y35750935D01*
X88192184Y35674949D01*
X88381588Y35578443D01*
X88583757Y35512754D01*
X88793713Y35479500D01*
X88793714Y35479500D01*
X89006286Y35479500D01*
X89006287Y35479500D01*
X89216243Y35512754D01*
X89418412Y35578443D01*
X89607816Y35674949D01*
X89712405Y35750938D01*
X89751173Y35769833D01*
X89773049Y35776091D01*
X89953407Y35870302D01*
X90091640Y35983017D01*
X90156035Y36010125D01*
X90224865Y35998116D01*
X90248357Y35983019D01*
X90386593Y35870302D01*
X90566951Y35776091D01*
X90588824Y35769833D01*
X90627597Y35750935D01*
X90732184Y35674949D01*
X90921588Y35578443D01*
X91123757Y35512754D01*
X91333713Y35479500D01*
X91333714Y35479500D01*
X91546286Y35479500D01*
X91546287Y35479500D01*
X91756243Y35512754D01*
X91958412Y35578443D01*
X92147816Y35674949D01*
X92252405Y35750938D01*
X92291173Y35769833D01*
X92313049Y35776091D01*
X92493407Y35870302D01*
X92651109Y35998891D01*
X92779698Y36156593D01*
X92873909Y36336951D01*
X92929886Y36532582D01*
X92940500Y36651963D01*
X92940499Y38768036D01*
X92929886Y38887418D01*
X92884237Y39046954D01*
X92873910Y39083046D01*
X92873909Y39083047D01*
X92873909Y39083049D01*
X92779698Y39263407D01*
X92705327Y39354616D01*
X92651109Y39421110D01*
X92493409Y39549696D01*
X92493410Y39549696D01*
X92493407Y39549698D01*
X92313049Y39643909D01*
X92313048Y39643910D01*
X92313045Y39643911D01*
X92195829Y39677450D01*
X92117418Y39699886D01*
X92117415Y39699887D01*
X92117413Y39699887D01*
X92051102Y39705783D01*
X91998037Y39710500D01*
X91998032Y39710500D01*
X90881971Y39710500D01*
X90881965Y39710500D01*
X90881964Y39710499D01*
X90870316Y39709464D01*
X90762584Y39699887D01*
X90566954Y39643911D01*
X90521179Y39620000D01*
X90386593Y39549698D01*
X90386591Y39549697D01*
X90386590Y39549696D01*
X90248361Y39436985D01*
X90183964Y39409876D01*
X90115135Y39421885D01*
X90091639Y39436985D01*
X89953409Y39549696D01*
X89953410Y39549696D01*
X89953407Y39549698D01*
X89773049Y39643909D01*
X89773048Y39643910D01*
X89773045Y39643911D01*
X89655829Y39677450D01*
X89577418Y39699886D01*
X89577415Y39699887D01*
X89577413Y39699887D01*
X89511102Y39705783D01*
X89458037Y39710500D01*
X89458032Y39710500D01*
X88341971Y39710500D01*
X88341965Y39710500D01*
X88341964Y39710499D01*
X88330316Y39709464D01*
X88222584Y39699887D01*
X88026954Y39643911D01*
X87981179Y39620000D01*
X87846593Y39549698D01*
X87846591Y39549697D01*
X87846590Y39549696D01*
X87708361Y39436985D01*
X87643964Y39409876D01*
X87575135Y39421885D01*
X87551639Y39436985D01*
X87413409Y39549696D01*
X87413410Y39549696D01*
X87413407Y39549698D01*
X87233049Y39643909D01*
X87233048Y39643910D01*
X87233045Y39643911D01*
X87115829Y39677450D01*
X87037418Y39699886D01*
X87037415Y39699887D01*
X87037413Y39699887D01*
X86971102Y39705783D01*
X86918037Y39710500D01*
X86918032Y39710500D01*
X85801971Y39710500D01*
X85801965Y39710500D01*
X85801964Y39710499D01*
X85790316Y39709464D01*
X85682584Y39699887D01*
X85486954Y39643911D01*
X85441179Y39620000D01*
X85306593Y39549698D01*
X85306591Y39549697D01*
X85306590Y39549696D01*
X85168361Y39436985D01*
X85103964Y39409876D01*
X85035135Y39421885D01*
X85011639Y39436985D01*
X84873409Y39549696D01*
X84873410Y39549696D01*
X84873407Y39549698D01*
X84693049Y39643909D01*
X84693048Y39643910D01*
X84693045Y39643911D01*
X84575829Y39677450D01*
X84497418Y39699886D01*
X84497415Y39699887D01*
X84497413Y39699887D01*
X84431102Y39705783D01*
X84378037Y39710500D01*
X84378032Y39710500D01*
X83261971Y39710500D01*
X83261965Y39710500D01*
X83261964Y39710499D01*
X83250316Y39709464D01*
X83142584Y39699887D01*
X82946954Y39643911D01*
X82901179Y39620000D01*
X82766593Y39549698D01*
X82766591Y39549697D01*
X82766590Y39549696D01*
X82628361Y39436985D01*
X82563964Y39409876D01*
X82495135Y39421885D01*
X82471639Y39436985D01*
X82333409Y39549696D01*
X82333410Y39549696D01*
X82333407Y39549698D01*
X82153049Y39643909D01*
X82153048Y39643910D01*
X82153045Y39643911D01*
X82035829Y39677450D01*
X81957418Y39699886D01*
X81957415Y39699887D01*
X81957413Y39699887D01*
X81891102Y39705783D01*
X81838037Y39710500D01*
X81838032Y39710500D01*
X80721971Y39710500D01*
X80721965Y39710500D01*
X80721964Y39710499D01*
X80710316Y39709464D01*
X80602584Y39699887D01*
X80406954Y39643911D01*
X80361179Y39620000D01*
X80226593Y39549698D01*
X80226591Y39549697D01*
X80226590Y39549696D01*
X80088361Y39436985D01*
X80023964Y39409876D01*
X79955135Y39421885D01*
X79931639Y39436985D01*
X79793409Y39549696D01*
X79793410Y39549696D01*
X79793407Y39549698D01*
X79613049Y39643909D01*
X79613048Y39643910D01*
X79613045Y39643911D01*
X79495829Y39677450D01*
X79417418Y39699886D01*
X79417415Y39699887D01*
X79417413Y39699887D01*
X79351102Y39705783D01*
X79298037Y39710500D01*
X79298032Y39710500D01*
X78181971Y39710500D01*
X78181965Y39710500D01*
X78181964Y39710499D01*
X78170316Y39709464D01*
X78062584Y39699887D01*
X77866954Y39643911D01*
X77821179Y39620000D01*
X77686593Y39549698D01*
X77686591Y39549697D01*
X77686590Y39549696D01*
X77548361Y39436985D01*
X77483964Y39409876D01*
X77415135Y39421885D01*
X77391639Y39436985D01*
X77253409Y39549696D01*
X77253410Y39549696D01*
X77253407Y39549698D01*
X77073049Y39643909D01*
X77073048Y39643910D01*
X77073045Y39643911D01*
X76955829Y39677450D01*
X76877418Y39699886D01*
X76877415Y39699887D01*
X76877413Y39699887D01*
X76811102Y39705783D01*
X76758037Y39710500D01*
X76758032Y39710500D01*
X75641971Y39710500D01*
X75641965Y39710500D01*
X75641964Y39710499D01*
X75630316Y39709464D01*
X75522584Y39699887D01*
X75326954Y39643911D01*
X75281179Y39620000D01*
X75146593Y39549698D01*
X75146591Y39549697D01*
X75146590Y39549696D01*
X74988890Y39421110D01*
X74860304Y39263410D01*
X74860302Y39263407D01*
X74859105Y39261115D01*
X74766089Y39083046D01*
X74710114Y38887417D01*
X74710113Y38887414D01*
X74699500Y38768034D01*
X74699500Y36651972D01*
X74699501Y36651966D01*
X74710113Y36532585D01*
X74766089Y36336955D01*
X74766090Y36336952D01*
X74766091Y36336951D01*
X74860302Y36156593D01*
X74860304Y36156591D01*
X74988890Y35998891D01*
X75117479Y35894042D01*
X75146593Y35870302D01*
X75326951Y35776091D01*
X75348824Y35769833D01*
X75387597Y35750935D01*
X75492184Y35674949D01*
X75681588Y35578443D01*
X75784958Y35544856D01*
X75787225Y35543306D01*
X75789964Y35543110D01*
X75815891Y35523705D01*
X75842634Y35505418D01*
X75843703Y35502888D01*
X75845901Y35501243D01*
X75857218Y35470908D01*
X75869832Y35441060D01*
X75869363Y35438353D01*
X75870323Y35435781D01*
X75863441Y35404134D01*
X75857917Y35372213D01*
X75855881Y35369370D01*
X75855477Y35367507D01*
X75834328Y35339251D01*
X75821905Y35326826D01*
X75760585Y35293336D01*
X75734217Y35290500D01*
X63965782Y35290500D01*
X63898743Y35310185D01*
X63878101Y35326819D01*
X61325676Y37879244D01*
X61292191Y37940567D01*
X61297175Y38010259D01*
X61339047Y38066192D01*
X61375033Y38084854D01*
X61478412Y38118443D01*
X61667816Y38214949D01*
X61689789Y38230914D01*
X61839786Y38339891D01*
X61839788Y38339894D01*
X61839792Y38339896D01*
X61990104Y38490208D01*
X61990106Y38490212D01*
X61990109Y38490214D01*
X62115048Y38662180D01*
X62115047Y38662180D01*
X62115051Y38662184D01*
X62211557Y38851588D01*
X62260146Y39001128D01*
X66799500Y39001128D01*
X66799500Y38738873D01*
X66819365Y38587993D01*
X66833730Y38478884D01*
X66901602Y38225582D01*
X66901605Y38225572D01*
X67001953Y37983310D01*
X67001958Y37983300D01*
X67133075Y37756197D01*
X67292718Y37548149D01*
X67292726Y37548140D01*
X67478140Y37362726D01*
X67478148Y37362719D01*
X67686196Y37203076D01*
X67913299Y37071959D01*
X67913309Y37071954D01*
X68155571Y36971606D01*
X68155581Y36971602D01*
X68408884Y36903730D01*
X68668880Y36869500D01*
X68668887Y36869500D01*
X68931113Y36869500D01*
X68931120Y36869500D01*
X69191116Y36903730D01*
X69444419Y36971602D01*
X69686697Y37071957D01*
X69913803Y37203076D01*
X70121851Y37362718D01*
X70121855Y37362723D01*
X70121860Y37362726D01*
X70307274Y37548140D01*
X70307277Y37548145D01*
X70307282Y37548149D01*
X70466924Y37756197D01*
X70598043Y37983303D01*
X70606216Y38003033D01*
X70672397Y38162810D01*
X70698398Y38225581D01*
X70766270Y38478884D01*
X70800500Y38738880D01*
X70800500Y39001120D01*
X70766270Y39261116D01*
X70698398Y39514419D01*
X70654665Y39620000D01*
X70598046Y39756691D01*
X70598041Y39756701D01*
X70466924Y39983804D01*
X70307281Y40191852D01*
X70307274Y40191860D01*
X70121860Y40377274D01*
X70121851Y40377282D01*
X69913803Y40536925D01*
X69686700Y40668042D01*
X69686690Y40668047D01*
X69444428Y40768395D01*
X69444421Y40768397D01*
X69444419Y40768398D01*
X69191116Y40836270D01*
X69133339Y40843877D01*
X68931127Y40870500D01*
X68931120Y40870500D01*
X68668880Y40870500D01*
X68668872Y40870500D01*
X68437772Y40840074D01*
X68408884Y40836270D01*
X68155581Y40768398D01*
X68155571Y40768395D01*
X67913309Y40668047D01*
X67913299Y40668042D01*
X67686196Y40536925D01*
X67478148Y40377282D01*
X67292718Y40191852D01*
X67133075Y39983804D01*
X67001958Y39756701D01*
X67001953Y39756691D01*
X66901605Y39514429D01*
X66901602Y39514419D01*
X66845268Y39304174D01*
X66833730Y39261115D01*
X66799500Y39001128D01*
X62260146Y39001128D01*
X62277246Y39053757D01*
X62310500Y39263713D01*
X62310500Y39476287D01*
X62277246Y39686243D01*
X62211557Y39888412D01*
X62115051Y40077816D01*
X62115049Y40077819D01*
X62115048Y40077821D01*
X61990109Y40249787D01*
X61839786Y40400110D01*
X61667820Y40525049D01*
X61478414Y40621556D01*
X61478413Y40621557D01*
X61478412Y40621557D01*
X61276243Y40687246D01*
X61276241Y40687247D01*
X61276240Y40687247D01*
X61114957Y40712792D01*
X61066287Y40720500D01*
X60853713Y40720500D01*
X60805042Y40712792D01*
X60643760Y40687247D01*
X60441585Y40621556D01*
X60252179Y40525049D01*
X60080213Y40400110D01*
X59929890Y40249787D01*
X59804949Y40077818D01*
X59800484Y40069054D01*
X59752509Y40018258D01*
X59684688Y40001464D01*
X59618553Y40024002D01*
X59579516Y40069054D01*
X59575050Y40077818D01*
X59450109Y40249787D01*
X59299786Y40400110D01*
X59127820Y40525049D01*
X58938414Y40621556D01*
X58938413Y40621557D01*
X58938412Y40621557D01*
X58736243Y40687246D01*
X58736241Y40687247D01*
X58736240Y40687247D01*
X58574957Y40712792D01*
X58526287Y40720500D01*
X58313713Y40720500D01*
X58265042Y40712792D01*
X58103760Y40687247D01*
X57901585Y40621556D01*
X57712179Y40525049D01*
X57540213Y40400110D01*
X57389890Y40249787D01*
X57264949Y40077818D01*
X57260484Y40069054D01*
X57212509Y40018258D01*
X57144688Y40001464D01*
X57078553Y40024002D01*
X57039516Y40069054D01*
X57035050Y40077818D01*
X56910109Y40249787D01*
X56759786Y40400110D01*
X56587820Y40525049D01*
X56398414Y40621556D01*
X56398413Y40621557D01*
X56398412Y40621557D01*
X56196243Y40687246D01*
X56196241Y40687247D01*
X56196240Y40687247D01*
X56034957Y40712792D01*
X55986287Y40720500D01*
X55773713Y40720500D01*
X55725042Y40712792D01*
X55563760Y40687247D01*
X55361585Y40621556D01*
X55172179Y40525049D01*
X55000215Y40400111D01*
X54886285Y40286181D01*
X54824962Y40252697D01*
X54755270Y40257681D01*
X54699337Y40299553D01*
X54682422Y40330530D01*
X54633354Y40462087D01*
X54633350Y40462094D01*
X54547190Y40577188D01*
X54547187Y40577191D01*
X54432093Y40663351D01*
X54432086Y40663355D01*
X54297379Y40713597D01*
X54297372Y40713599D01*
X54237844Y40720000D01*
X53590000Y40720000D01*
X53590000Y39803012D01*
X53532993Y39835925D01*
X53405826Y39870000D01*
X53274174Y39870000D01*
X53147007Y39835925D01*
X53090000Y39803012D01*
X53090000Y40720000D01*
X52442155Y40720000D01*
X52382627Y40713599D01*
X52382620Y40713597D01*
X52247913Y40663355D01*
X52247906Y40663351D01*
X52132812Y40577191D01*
X52132809Y40577188D01*
X52046649Y40462094D01*
X52046645Y40462087D01*
X51996403Y40327380D01*
X51996401Y40327373D01*
X51990000Y40267845D01*
X51990000Y39620000D01*
X52906988Y39620000D01*
X52874075Y39562993D01*
X52840000Y39435826D01*
X52840000Y39304174D01*
X52874075Y39177007D01*
X52906988Y39120000D01*
X51990000Y39120000D01*
X51990000Y38472156D01*
X51996401Y38412628D01*
X51996403Y38412621D01*
X52046645Y38277914D01*
X52046649Y38277907D01*
X52132809Y38162813D01*
X52132812Y38162810D01*
X52247906Y38076650D01*
X52247913Y38076646D01*
X52382620Y38026404D01*
X52382627Y38026402D01*
X52442155Y38020001D01*
X52442172Y38020000D01*
X53090000Y38020000D01*
X53090000Y38936988D01*
X53147007Y38904075D01*
X53274174Y38870000D01*
X53405826Y38870000D01*
X53532993Y38904075D01*
X53590000Y38936988D01*
X53590000Y38020000D01*
X54237828Y38020000D01*
X54237844Y38020001D01*
X54297372Y38026402D01*
X54297379Y38026404D01*
X54432086Y38076646D01*
X54432093Y38076650D01*
X54547187Y38162810D01*
X54547190Y38162813D01*
X54633350Y38277907D01*
X54633354Y38277914D01*
X54639318Y38293903D01*
X54681189Y38349837D01*
X54746653Y38374254D01*
X54814926Y38359403D01*
X54864332Y38309998D01*
X54879500Y38250570D01*
X54879500Y34755783D01*
X54859815Y34688744D01*
X54843181Y34668102D01*
X43071899Y22896819D01*
X43010576Y22863334D01*
X42984218Y22860500D01*
X37600200Y22860500D01*
X37533161Y22880185D01*
X37520634Y22889494D01*
X37347817Y23015051D01*
X37338504Y23019796D01*
X37287707Y23067770D01*
X37270912Y23135591D01*
X37293449Y23201726D01*
X37338507Y23240768D01*
X37347555Y23245378D01*
X37401716Y23284730D01*
X37401717Y23284730D01*
X36769408Y23917038D01*
X36832993Y23934075D01*
X36947007Y23999901D01*
X37040099Y24092993D01*
X37105925Y24207007D01*
X37122962Y24270591D01*
X37755270Y23638283D01*
X37755270Y23638284D01*
X37794622Y23692446D01*
X37891095Y23881783D01*
X37956757Y24083870D01*
X37956757Y24083873D01*
X37990000Y24293754D01*
X37990000Y24506247D01*
X37956757Y24716128D01*
X37956757Y24716131D01*
X37891095Y24918218D01*
X37794624Y25107551D01*
X37755270Y25161718D01*
X37755269Y25161718D01*
X37122962Y24529410D01*
X37105925Y24592993D01*
X37040099Y24707007D01*
X36947007Y24800099D01*
X36832993Y24865925D01*
X36769409Y24882963D01*
X37401716Y25515272D01*
X37347550Y25554625D01*
X37158217Y25651096D01*
X36956129Y25716758D01*
X36746246Y25750000D01*
X36533754Y25750000D01*
X36323872Y25716758D01*
X36323869Y25716758D01*
X36121782Y25651096D01*
X35932439Y25554620D01*
X35878282Y25515273D01*
X35878282Y25515272D01*
X36510591Y24882963D01*
X36447007Y24865925D01*
X36332993Y24800099D01*
X36239901Y24707007D01*
X36174075Y24592993D01*
X36157037Y24529409D01*
X35524728Y25161718D01*
X35524727Y25161718D01*
X35485380Y25107561D01*
X35388905Y24918219D01*
X35355251Y24814644D01*
X35315813Y24756969D01*
X35251454Y24729771D01*
X35182608Y24741686D01*
X35149639Y24765282D01*
X34534589Y25380332D01*
X32884209Y27030711D01*
X32884206Y27030715D01*
X32884206Y27030714D01*
X32877139Y27037781D01*
X32877139Y27037782D01*
X32737782Y27177139D01*
X32737781Y27177140D01*
X32737780Y27177141D01*
X32573920Y27286629D01*
X32573907Y27286636D01*
X32445719Y27339732D01*
X32445717Y27339733D01*
X32438524Y27342712D01*
X32391836Y27362051D01*
X32295188Y27381276D01*
X32290870Y27382135D01*
X32290866Y27382136D01*
X32198544Y27400500D01*
X32198541Y27400500D01*
X30070132Y27400500D01*
X30005036Y27418961D01*
X29979334Y27434814D01*
X29812797Y27489999D01*
X29812795Y27490000D01*
X29710010Y27500500D01*
X28709998Y27500500D01*
X28709980Y27500499D01*
X28607203Y27490000D01*
X28607200Y27489999D01*
X28440668Y27434815D01*
X28440663Y27434813D01*
X28424933Y27425111D01*
X28414963Y27418961D01*
X28349868Y27400500D01*
X26260132Y27400500D01*
X26195036Y27418961D01*
X26169334Y27434814D01*
X26002797Y27489999D01*
X26002795Y27490000D01*
X25900016Y27500500D01*
X25900009Y27500500D01*
X25765783Y27500500D01*
X25698744Y27520185D01*
X25678102Y27536819D01*
X23080086Y30134835D01*
X20468130Y32746790D01*
X20434646Y32808112D01*
X20439630Y32877804D01*
X20481502Y32933737D01*
X20536413Y32956943D01*
X20596478Y32966456D01*
X20636238Y32972753D01*
X20636238Y32972754D01*
X20636243Y32972754D01*
X20838412Y33038443D01*
X21027816Y33134949D01*
X21114138Y33197665D01*
X21199786Y33259891D01*
X21199788Y33259894D01*
X21199792Y33259896D01*
X21350104Y33410208D01*
X21350106Y33410212D01*
X21350109Y33410214D01*
X21475048Y33582180D01*
X21475047Y33582180D01*
X21475051Y33582184D01*
X21479514Y33590946D01*
X21527488Y33641741D01*
X21595308Y33658537D01*
X21661444Y33636001D01*
X21700486Y33590944D01*
X21704951Y33582180D01*
X21829890Y33410214D01*
X21980213Y33259891D01*
X22152179Y33134952D01*
X22152181Y33134951D01*
X22152184Y33134949D01*
X22341588Y33038443D01*
X22543757Y32972754D01*
X22753713Y32939500D01*
X22753714Y32939500D01*
X22966286Y32939500D01*
X22966287Y32939500D01*
X23176243Y32972754D01*
X23378412Y33038443D01*
X23567816Y33134949D01*
X23654138Y33197665D01*
X23739786Y33259891D01*
X23739788Y33259894D01*
X23739792Y33259896D01*
X23890104Y33410208D01*
X23890106Y33410212D01*
X23890109Y33410214D01*
X24015048Y33582180D01*
X24015047Y33582180D01*
X24015051Y33582184D01*
X24019514Y33590946D01*
X24067488Y33641741D01*
X24135308Y33658537D01*
X24201444Y33636001D01*
X24240486Y33590944D01*
X24244951Y33582180D01*
X24369890Y33410214D01*
X24520213Y33259891D01*
X24692179Y33134952D01*
X24692181Y33134951D01*
X24692184Y33134949D01*
X24881588Y33038443D01*
X25083757Y32972754D01*
X25293713Y32939500D01*
X25293714Y32939500D01*
X25506286Y32939500D01*
X25506287Y32939500D01*
X25716243Y32972754D01*
X25918412Y33038443D01*
X26107816Y33134949D01*
X26194138Y33197665D01*
X26279786Y33259891D01*
X26279788Y33259894D01*
X26279792Y33259896D01*
X26430104Y33410208D01*
X26430106Y33410212D01*
X26430109Y33410214D01*
X26555048Y33582180D01*
X26555047Y33582180D01*
X26555051Y33582184D01*
X26559514Y33590946D01*
X26607488Y33641741D01*
X26675308Y33658537D01*
X26741444Y33636001D01*
X26780486Y33590944D01*
X26784951Y33582180D01*
X26909890Y33410214D01*
X27060213Y33259891D01*
X27232179Y33134952D01*
X27232181Y33134951D01*
X27232184Y33134949D01*
X27421588Y33038443D01*
X27623757Y32972754D01*
X27833713Y32939500D01*
X27833714Y32939500D01*
X28046286Y32939500D01*
X28046287Y32939500D01*
X28256243Y32972754D01*
X28458412Y33038443D01*
X28647816Y33134949D01*
X28734138Y33197665D01*
X28819786Y33259891D01*
X28819788Y33259894D01*
X28819792Y33259896D01*
X28925425Y33365529D01*
X32464500Y33365529D01*
X32464500Y33014472D01*
X32503803Y32665647D01*
X32503805Y32665631D01*
X32581919Y32323388D01*
X32581923Y32323376D01*
X32697861Y31992045D01*
X32697867Y31992031D01*
X32850177Y31675757D01*
X32850179Y31675754D01*
X33036948Y31378513D01*
X33255823Y31104052D01*
X33504052Y30855823D01*
X33778513Y30636948D01*
X34075754Y30450179D01*
X34392038Y30297864D01*
X34392044Y30297862D01*
X34723375Y30181924D01*
X34723387Y30181920D01*
X35065634Y30103805D01*
X35414472Y30064501D01*
X35414473Y30064500D01*
X35414476Y30064500D01*
X35765527Y30064500D01*
X35765527Y30064501D01*
X36114366Y30103805D01*
X36456613Y30181920D01*
X36787962Y30297864D01*
X37104246Y30450179D01*
X37401487Y30636948D01*
X37675948Y30855823D01*
X37924177Y31104052D01*
X38143052Y31378513D01*
X38329821Y31675754D01*
X38482136Y31992038D01*
X38598080Y32323387D01*
X38676195Y32665634D01*
X38715500Y33014476D01*
X38715500Y33365524D01*
X38676195Y33714366D01*
X38598080Y34056613D01*
X38553605Y34183714D01*
X38482138Y34387956D01*
X38482136Y34387962D01*
X38329821Y34704246D01*
X38143052Y35001487D01*
X37924177Y35275948D01*
X37675948Y35524177D01*
X37654155Y35541556D01*
X37601188Y35583796D01*
X37401487Y35743052D01*
X37104246Y35929821D01*
X37104243Y35929823D01*
X36787969Y36082133D01*
X36787955Y36082139D01*
X36456624Y36198077D01*
X36456612Y36198081D01*
X36114369Y36276195D01*
X36114353Y36276197D01*
X35765528Y36315500D01*
X35765524Y36315500D01*
X35414476Y36315500D01*
X35414471Y36315500D01*
X35065646Y36276197D01*
X35065630Y36276195D01*
X34723387Y36198081D01*
X34723375Y36198077D01*
X34392044Y36082139D01*
X34392030Y36082133D01*
X34075756Y35929823D01*
X33778514Y35743053D01*
X33504052Y35524178D01*
X33255822Y35275948D01*
X33036947Y35001486D01*
X32850177Y34704244D01*
X32697867Y34387970D01*
X32697861Y34387956D01*
X32581923Y34056625D01*
X32581919Y34056613D01*
X32503805Y33714370D01*
X32503803Y33714354D01*
X32464500Y33365529D01*
X28925425Y33365529D01*
X28970104Y33410208D01*
X28980319Y33424269D01*
X28993122Y33441889D01*
X29055890Y33528283D01*
X29095051Y33582184D01*
X29191557Y33771588D01*
X29257246Y33973757D01*
X29290500Y34183713D01*
X29290500Y34396287D01*
X29257246Y34606243D01*
X29191557Y34808412D01*
X29095051Y34997816D01*
X29095049Y34997819D01*
X29095048Y34997821D01*
X28970109Y35169787D01*
X28819786Y35320110D01*
X28647820Y35445049D01*
X28458414Y35541556D01*
X28458413Y35541557D01*
X28458412Y35541557D01*
X28256243Y35607246D01*
X28256241Y35607247D01*
X28256240Y35607247D01*
X28094957Y35632792D01*
X28046287Y35640500D01*
X27833713Y35640500D01*
X27785042Y35632792D01*
X27623760Y35607247D01*
X27421585Y35541556D01*
X27232179Y35445049D01*
X27060213Y35320110D01*
X26909890Y35169787D01*
X26784949Y34997818D01*
X26780484Y34989054D01*
X26732509Y34938258D01*
X26664688Y34921464D01*
X26598553Y34944002D01*
X26559516Y34989054D01*
X26555050Y34997818D01*
X26430109Y35169787D01*
X26279786Y35320110D01*
X26107820Y35445049D01*
X25918414Y35541556D01*
X25918413Y35541557D01*
X25918412Y35541557D01*
X25716243Y35607246D01*
X25716241Y35607247D01*
X25716240Y35607247D01*
X25554957Y35632792D01*
X25506287Y35640500D01*
X25293713Y35640500D01*
X25245042Y35632792D01*
X25083760Y35607247D01*
X24881585Y35541556D01*
X24692179Y35445049D01*
X24520213Y35320110D01*
X24369890Y35169787D01*
X24244949Y34997818D01*
X24240484Y34989054D01*
X24192509Y34938258D01*
X24124688Y34921464D01*
X24058553Y34944002D01*
X24019516Y34989054D01*
X24015050Y34997818D01*
X23890109Y35169787D01*
X23739786Y35320110D01*
X23567820Y35445049D01*
X23378414Y35541556D01*
X23378413Y35541557D01*
X23378412Y35541557D01*
X23176243Y35607246D01*
X23176241Y35607247D01*
X23176240Y35607247D01*
X23014957Y35632792D01*
X22966287Y35640500D01*
X22753713Y35640500D01*
X22705042Y35632792D01*
X22543760Y35607247D01*
X22341585Y35541556D01*
X22152179Y35445049D01*
X21980213Y35320110D01*
X21829890Y35169787D01*
X21704949Y34997818D01*
X21700484Y34989054D01*
X21652509Y34938258D01*
X21584688Y34921464D01*
X21518553Y34944002D01*
X21479516Y34989054D01*
X21475050Y34997818D01*
X21350109Y35169787D01*
X21199786Y35320110D01*
X21027820Y35445049D01*
X20838414Y35541556D01*
X20838413Y35541557D01*
X20838412Y35541557D01*
X20636243Y35607246D01*
X20636241Y35607247D01*
X20636240Y35607247D01*
X20474957Y35632792D01*
X20426287Y35640500D01*
X20213713Y35640500D01*
X20165042Y35632792D01*
X20003760Y35607247D01*
X19801585Y35541556D01*
X19612179Y35445049D01*
X19440213Y35320110D01*
X19289890Y35169787D01*
X19164949Y34997818D01*
X19160484Y34989054D01*
X19112509Y34938258D01*
X19044688Y34921464D01*
X18978553Y34944002D01*
X18939516Y34989054D01*
X18935050Y34997818D01*
X18810109Y35169787D01*
X18659786Y35320110D01*
X18487820Y35445049D01*
X18298414Y35541556D01*
X18298413Y35541557D01*
X18298412Y35541557D01*
X18096243Y35607246D01*
X18096241Y35607247D01*
X18096240Y35607247D01*
X17934957Y35632792D01*
X17886287Y35640500D01*
X17673713Y35640500D01*
X17625042Y35632792D01*
X17463760Y35607247D01*
X17261585Y35541556D01*
X17072179Y35445049D01*
X16900213Y35320110D01*
X16749890Y35169787D01*
X16624949Y34997818D01*
X16620202Y34988501D01*
X16572227Y34937707D01*
X16504405Y34920913D01*
X16438271Y34943452D01*
X16399234Y34988505D01*
X16394626Y34997548D01*
X16355270Y35051718D01*
X16355269Y35051718D01*
X15722962Y34419410D01*
X15705925Y34482993D01*
X15640099Y34597007D01*
X15547007Y34690099D01*
X15432993Y34755925D01*
X15369409Y34772963D01*
X16001716Y35405272D01*
X15947550Y35444625D01*
X15758217Y35541096D01*
X15556129Y35606758D01*
X15346246Y35640000D01*
X15133754Y35640000D01*
X14923872Y35606758D01*
X14923869Y35606758D01*
X14721782Y35541096D01*
X14532439Y35444620D01*
X14478282Y35405273D01*
X14478282Y35405272D01*
X15110591Y34772963D01*
X15047007Y34755925D01*
X14932993Y34690099D01*
X14839901Y34597007D01*
X14774075Y34482993D01*
X14757037Y34419409D01*
X14124728Y35051718D01*
X14124727Y35051718D01*
X14085380Y34997560D01*
X14085376Y34997554D01*
X14080760Y34988495D01*
X14032781Y34937703D01*
X13964959Y34920913D01*
X13898826Y34943457D01*
X13859794Y34988507D01*
X13855051Y34997816D01*
X13855049Y34997819D01*
X13855048Y34997821D01*
X13730109Y35169787D01*
X13579786Y35320110D01*
X13407820Y35445049D01*
X13218414Y35541556D01*
X13218413Y35541557D01*
X13218412Y35541557D01*
X13016243Y35607246D01*
X13016241Y35607247D01*
X13016240Y35607247D01*
X12854957Y35632792D01*
X12806287Y35640500D01*
X12593713Y35640500D01*
X12545042Y35632792D01*
X12383760Y35607247D01*
X12181585Y35541556D01*
X11992179Y35445049D01*
X11820215Y35320111D01*
X11706673Y35206569D01*
X11645350Y35173085D01*
X11575658Y35178069D01*
X11519725Y35219941D01*
X11502810Y35250918D01*
X11453797Y35382329D01*
X11453793Y35382336D01*
X11367547Y35497545D01*
X11367544Y35497548D01*
X11252335Y35583794D01*
X11252328Y35583798D01*
X11117482Y35634092D01*
X11117483Y35634092D01*
X11057883Y35640499D01*
X11057881Y35640500D01*
X11057873Y35640500D01*
X11057864Y35640500D01*
X9262129Y35640500D01*
X9262123Y35640499D01*
X9202516Y35634092D01*
X9067671Y35583798D01*
X9067664Y35583794D01*
X8952455Y35497548D01*
X8952452Y35497545D01*
X8866206Y35382336D01*
X8866202Y35382329D01*
X8815908Y35247483D01*
X8809501Y35187884D01*
X8809500Y35187865D01*
X500500Y35187865D01*
X500500Y37996949D01*
X500649Y38003033D01*
X517052Y38336928D01*
X518245Y38349038D01*
X518364Y38349837D01*
X566849Y38676704D01*
X569218Y38688615D01*
X647498Y39001128D01*
X43499500Y39001128D01*
X43499500Y38738873D01*
X43519365Y38587993D01*
X43533730Y38478884D01*
X43601602Y38225582D01*
X43601605Y38225572D01*
X43701953Y37983310D01*
X43701958Y37983300D01*
X43833075Y37756197D01*
X43992718Y37548149D01*
X43992726Y37548140D01*
X44178140Y37362726D01*
X44178148Y37362719D01*
X44386196Y37203076D01*
X44613299Y37071959D01*
X44613309Y37071954D01*
X44855571Y36971606D01*
X44855581Y36971602D01*
X45108884Y36903730D01*
X45368880Y36869500D01*
X45368887Y36869500D01*
X45631113Y36869500D01*
X45631120Y36869500D01*
X45891116Y36903730D01*
X46144419Y36971602D01*
X46386697Y37071957D01*
X46613803Y37203076D01*
X46821851Y37362718D01*
X46821855Y37362723D01*
X46821860Y37362726D01*
X47007274Y37548140D01*
X47007277Y37548145D01*
X47007282Y37548149D01*
X47166924Y37756197D01*
X47298043Y37983303D01*
X47306216Y38003033D01*
X47372397Y38162810D01*
X47398398Y38225581D01*
X47466270Y38478884D01*
X47500500Y38738880D01*
X47500500Y39001120D01*
X47484849Y39120000D01*
X47480218Y39155177D01*
X47475892Y39188027D01*
X47466270Y39261116D01*
X47398398Y39514419D01*
X47354665Y39620000D01*
X47298046Y39756691D01*
X47298041Y39756701D01*
X47166924Y39983804D01*
X47090554Y40083329D01*
X47007282Y40191851D01*
X47007273Y40191860D01*
X47007268Y40191866D01*
X46821860Y40377274D01*
X46821851Y40377282D01*
X46613803Y40536925D01*
X46386700Y40668042D01*
X46386690Y40668047D01*
X46144428Y40768395D01*
X46144421Y40768397D01*
X46144419Y40768398D01*
X45891116Y40836270D01*
X45833339Y40843877D01*
X45631127Y40870500D01*
X45631120Y40870500D01*
X45368880Y40870500D01*
X45368872Y40870500D01*
X45137772Y40840074D01*
X45108884Y40836270D01*
X44855581Y40768398D01*
X44855571Y40768395D01*
X44613309Y40668047D01*
X44613299Y40668042D01*
X44386196Y40536925D01*
X44178148Y40377282D01*
X43992718Y40191852D01*
X43833075Y39983804D01*
X43701958Y39756701D01*
X43701953Y39756691D01*
X43601605Y39514429D01*
X43601602Y39514419D01*
X43545268Y39304174D01*
X43533730Y39261115D01*
X43499500Y39001128D01*
X647498Y39001128D01*
X649710Y39009957D01*
X653234Y39021575D01*
X764835Y39333475D01*
X769476Y39344682D01*
X911124Y39644172D01*
X916840Y39654864D01*
X1087145Y39939002D01*
X1093888Y39949095D01*
X1291232Y40215182D01*
X1298935Y40224567D01*
X1521405Y40470025D01*
X1529975Y40478595D01*
X1775433Y40701065D01*
X1784818Y40708768D01*
X2050905Y40906112D01*
X2060998Y40912855D01*
X2345136Y41083160D01*
X2355828Y41088876D01*
X2655318Y41230524D01*
X2666525Y41235165D01*
X2978412Y41346761D01*
X2990043Y41350290D01*
X3311385Y41430782D01*
X3323296Y41433151D01*
X3650962Y41481756D01*
X3663068Y41482948D01*
X3996967Y41499352D01*
X4003051Y41499500D01*
X4065892Y41499500D01*
X90934108Y41499500D01*
X90996949Y41499500D01*
X91003032Y41499352D01*
G37*
%TD.AperFunction*%
%TD*%
M02*
