%TF.GenerationSoftware,KiCad,Pcbnew,9.0.6*%
%TF.CreationDate,2025-12-26T01:47:04+08:00*%
%TF.ProjectId,hnr26-controller,686e7232-362d-4636-9f6e-74726f6c6c65,v0.0.6*%
%TF.SameCoordinates,Original*%
%TF.FileFunction,Soldermask,Bot*%
%TF.FilePolarity,Negative*%
%FSLAX46Y46*%
G04 Gerber Fmt 4.6, Leading zero omitted, Abs format (unit mm)*
G04 Created by KiCad (PCBNEW 9.0.6) date 2025-12-26 01:47:04*
%MOMM*%
%LPD*%
G01*
G04 APERTURE LIST*
G04 APERTURE END LIST*
G36*
X79001256Y4671246D02*
G01*
X79164257Y4603729D01*
X79310954Y4505709D01*
X79435709Y4380954D01*
X79533729Y4234257D01*
X79601246Y4071256D01*
X79635666Y3898215D01*
X79635666Y3721785D01*
X79601246Y3548744D01*
X79533729Y3385743D01*
X79435709Y3239046D01*
X79310954Y3114291D01*
X79164257Y3016271D01*
X79001256Y2948754D01*
X78828215Y2914334D01*
X78651785Y2914334D01*
X78478744Y2948754D01*
X78315743Y3016271D01*
X78169046Y3114291D01*
X78044291Y3239046D01*
X77946271Y3385743D01*
X77878754Y3548744D01*
X77844334Y3721785D01*
X77844334Y3898215D01*
X77878754Y4071256D01*
X77946271Y4234257D01*
X78044291Y4380954D01*
X78169046Y4505709D01*
X78315743Y4603729D01*
X78478744Y4671246D01*
X78651785Y4705666D01*
X78828215Y4705666D01*
X79001256Y4671246D01*
G37*
G36*
X84081256Y4671246D02*
G01*
X84244257Y4603729D01*
X84390954Y4505709D01*
X84515709Y4380954D01*
X84613729Y4234257D01*
X84681246Y4071256D01*
X84715666Y3898215D01*
X84715666Y3721785D01*
X84681246Y3548744D01*
X84613729Y3385743D01*
X84515709Y3239046D01*
X84390954Y3114291D01*
X84244257Y3016271D01*
X84081256Y2948754D01*
X83908215Y2914334D01*
X83731785Y2914334D01*
X83558744Y2948754D01*
X83395743Y3016271D01*
X83249046Y3114291D01*
X83124291Y3239046D01*
X83026271Y3385743D01*
X82958754Y3548744D01*
X82924334Y3721785D01*
X82924334Y3898215D01*
X82958754Y4071256D01*
X83026271Y4234257D01*
X83124291Y4380954D01*
X83249046Y4505709D01*
X83395743Y4603729D01*
X83558744Y4671246D01*
X83731785Y4705666D01*
X83908215Y4705666D01*
X84081256Y4671246D01*
G37*
G36*
X45266790Y5169607D02*
G01*
X45430952Y5116267D01*
X45584748Y5037904D01*
X45724393Y4936447D01*
X45846447Y4814393D01*
X45947904Y4674748D01*
X46026267Y4520952D01*
X46079607Y4356790D01*
X46106609Y4186305D01*
X46106609Y4013695D01*
X46079607Y3843210D01*
X46026267Y3679048D01*
X45947904Y3525252D01*
X45846447Y3385607D01*
X45724393Y3263553D01*
X45584748Y3162096D01*
X45430952Y3083733D01*
X45266790Y3030393D01*
X45096305Y3003391D01*
X44923695Y3003391D01*
X44753210Y3030393D01*
X44589048Y3083733D01*
X44435252Y3162096D01*
X44295607Y3263553D01*
X44173553Y3385607D01*
X44072096Y3525252D01*
X43993733Y3679048D01*
X43940393Y3843210D01*
X43913391Y4013695D01*
X43913391Y4186305D01*
X43940393Y4356790D01*
X43993733Y4520952D01*
X44072096Y4674748D01*
X44173553Y4814393D01*
X44295607Y4936447D01*
X44435252Y5037904D01*
X44589048Y5116267D01*
X44753210Y5169607D01*
X44923695Y5196609D01*
X45096305Y5196609D01*
X45266790Y5169607D01*
G37*
G36*
X51766790Y5169607D02*
G01*
X51930952Y5116267D01*
X52084748Y5037904D01*
X52224393Y4936447D01*
X52346447Y4814393D01*
X52447904Y4674748D01*
X52526267Y4520952D01*
X52579607Y4356790D01*
X52606609Y4186305D01*
X52606609Y4013695D01*
X52579607Y3843210D01*
X52526267Y3679048D01*
X52447904Y3525252D01*
X52346447Y3385607D01*
X52224393Y3263553D01*
X52084748Y3162096D01*
X51930952Y3083733D01*
X51766790Y3030393D01*
X51596305Y3003391D01*
X51423695Y3003391D01*
X51253210Y3030393D01*
X51089048Y3083733D01*
X50935252Y3162096D01*
X50795607Y3263553D01*
X50673553Y3385607D01*
X50572096Y3525252D01*
X50493733Y3679048D01*
X50440393Y3843210D01*
X50413391Y4013695D01*
X50413391Y4186305D01*
X50440393Y4356790D01*
X50493733Y4520952D01*
X50572096Y4674748D01*
X50673553Y4814393D01*
X50795607Y4936447D01*
X50935252Y5037904D01*
X51089048Y5116267D01*
X51253210Y5169607D01*
X51423695Y5196609D01*
X51596305Y5196609D01*
X51766790Y5169607D01*
G37*
G36*
X55426790Y5169607D02*
G01*
X55590952Y5116267D01*
X55744748Y5037904D01*
X55884393Y4936447D01*
X56006447Y4814393D01*
X56107904Y4674748D01*
X56186267Y4520952D01*
X56239607Y4356790D01*
X56266609Y4186305D01*
X56266609Y4013695D01*
X56239607Y3843210D01*
X56186267Y3679048D01*
X56107904Y3525252D01*
X56006447Y3385607D01*
X55884393Y3263553D01*
X55744748Y3162096D01*
X55590952Y3083733D01*
X55426790Y3030393D01*
X55256305Y3003391D01*
X55083695Y3003391D01*
X54913210Y3030393D01*
X54749048Y3083733D01*
X54595252Y3162096D01*
X54455607Y3263553D01*
X54333553Y3385607D01*
X54232096Y3525252D01*
X54153733Y3679048D01*
X54100393Y3843210D01*
X54073391Y4013695D01*
X54073391Y4186305D01*
X54100393Y4356790D01*
X54153733Y4520952D01*
X54232096Y4674748D01*
X54333553Y4814393D01*
X54455607Y4936447D01*
X54595252Y5037904D01*
X54749048Y5116267D01*
X54913210Y5169607D01*
X55083695Y5196609D01*
X55256305Y5196609D01*
X55426790Y5169607D01*
G37*
G36*
X61926790Y5169607D02*
G01*
X62090952Y5116267D01*
X62244748Y5037904D01*
X62384393Y4936447D01*
X62506447Y4814393D01*
X62607904Y4674748D01*
X62686267Y4520952D01*
X62739607Y4356790D01*
X62766609Y4186305D01*
X62766609Y4013695D01*
X62739607Y3843210D01*
X62686267Y3679048D01*
X62607904Y3525252D01*
X62506447Y3385607D01*
X62384393Y3263553D01*
X62244748Y3162096D01*
X62090952Y3083733D01*
X61926790Y3030393D01*
X61756305Y3003391D01*
X61583695Y3003391D01*
X61413210Y3030393D01*
X61249048Y3083733D01*
X61095252Y3162096D01*
X60955607Y3263553D01*
X60833553Y3385607D01*
X60732096Y3525252D01*
X60653733Y3679048D01*
X60600393Y3843210D01*
X60573391Y4013695D01*
X60573391Y4186305D01*
X60600393Y4356790D01*
X60653733Y4520952D01*
X60732096Y4674748D01*
X60833553Y4814393D01*
X60955607Y4936447D01*
X61095252Y5037904D01*
X61249048Y5116267D01*
X61413210Y5169607D01*
X61583695Y5196609D01*
X61756305Y5196609D01*
X61926790Y5169607D01*
G37*
G36*
X65586790Y5169607D02*
G01*
X65750952Y5116267D01*
X65904748Y5037904D01*
X66044393Y4936447D01*
X66166447Y4814393D01*
X66267904Y4674748D01*
X66346267Y4520952D01*
X66399607Y4356790D01*
X66426609Y4186305D01*
X66426609Y4013695D01*
X66399607Y3843210D01*
X66346267Y3679048D01*
X66267904Y3525252D01*
X66166447Y3385607D01*
X66044393Y3263553D01*
X65904748Y3162096D01*
X65750952Y3083733D01*
X65586790Y3030393D01*
X65416305Y3003391D01*
X65243695Y3003391D01*
X65073210Y3030393D01*
X64909048Y3083733D01*
X64755252Y3162096D01*
X64615607Y3263553D01*
X64493553Y3385607D01*
X64392096Y3525252D01*
X64313733Y3679048D01*
X64260393Y3843210D01*
X64233391Y4013695D01*
X64233391Y4186305D01*
X64260393Y4356790D01*
X64313733Y4520952D01*
X64392096Y4674748D01*
X64493553Y4814393D01*
X64615607Y4936447D01*
X64755252Y5037904D01*
X64909048Y5116267D01*
X65073210Y5169607D01*
X65243695Y5196609D01*
X65416305Y5196609D01*
X65586790Y5169607D01*
G37*
G36*
X72086790Y5169607D02*
G01*
X72250952Y5116267D01*
X72404748Y5037904D01*
X72544393Y4936447D01*
X72666447Y4814393D01*
X72767904Y4674748D01*
X72846267Y4520952D01*
X72899607Y4356790D01*
X72926609Y4186305D01*
X72926609Y4013695D01*
X72899607Y3843210D01*
X72846267Y3679048D01*
X72767904Y3525252D01*
X72666447Y3385607D01*
X72544393Y3263553D01*
X72404748Y3162096D01*
X72250952Y3083733D01*
X72086790Y3030393D01*
X71916305Y3003391D01*
X71743695Y3003391D01*
X71573210Y3030393D01*
X71409048Y3083733D01*
X71255252Y3162096D01*
X71115607Y3263553D01*
X70993553Y3385607D01*
X70892096Y3525252D01*
X70813733Y3679048D01*
X70760393Y3843210D01*
X70733391Y4013695D01*
X70733391Y4186305D01*
X70760393Y4356790D01*
X70813733Y4520952D01*
X70892096Y4674748D01*
X70993553Y4814393D01*
X71115607Y4936447D01*
X71255252Y5037904D01*
X71409048Y5116267D01*
X71573210Y5169607D01*
X71743695Y5196609D01*
X71916305Y5196609D01*
X72086790Y5169607D01*
G37*
G36*
X8246454Y10676499D02*
G01*
X8544377Y10608500D01*
X8832812Y10507572D01*
X9108134Y10374984D01*
X9366879Y10212403D01*
X9605794Y10021875D01*
X9821875Y9805794D01*
X10012403Y9566879D01*
X10174984Y9308134D01*
X10307572Y9032812D01*
X10408500Y8744377D01*
X10476499Y8446454D01*
X10510713Y8142792D01*
X10510713Y7837208D01*
X10476499Y7533546D01*
X10408500Y7235623D01*
X10307572Y6947188D01*
X10174984Y6671866D01*
X10012403Y6413121D01*
X9821875Y6174206D01*
X9605794Y5958125D01*
X9366879Y5767597D01*
X9108134Y5605016D01*
X8832812Y5472428D01*
X8544377Y5371500D01*
X8246454Y5303501D01*
X7942792Y5269287D01*
X7637208Y5269287D01*
X7333546Y5303501D01*
X7035623Y5371500D01*
X6747188Y5472428D01*
X6471866Y5605016D01*
X6213121Y5767597D01*
X5974206Y5958125D01*
X5758125Y6174206D01*
X5567597Y6413121D01*
X5405016Y6671866D01*
X5272428Y6947188D01*
X5171500Y7235623D01*
X5103501Y7533546D01*
X5069287Y7837208D01*
X5069287Y8142792D01*
X5103501Y8446454D01*
X5171500Y8744377D01*
X5272428Y9032812D01*
X5405016Y9308134D01*
X5567597Y9566879D01*
X5758125Y9805794D01*
X5974206Y10021875D01*
X6213121Y10212403D01*
X6471866Y10374984D01*
X6747188Y10507572D01*
X7035623Y10608500D01*
X7333546Y10676499D01*
X7637208Y10710713D01*
X7942792Y10710713D01*
X8246454Y10676499D01*
G37*
G36*
X45266790Y9669607D02*
G01*
X45430952Y9616267D01*
X45584748Y9537904D01*
X45724393Y9436447D01*
X45846447Y9314393D01*
X45947904Y9174748D01*
X46026267Y9020952D01*
X46079607Y8856790D01*
X46106609Y8686305D01*
X46106609Y8513695D01*
X46079607Y8343210D01*
X46026267Y8179048D01*
X45947904Y8025252D01*
X45846447Y7885607D01*
X45724393Y7763553D01*
X45584748Y7662096D01*
X45430952Y7583733D01*
X45266790Y7530393D01*
X45096305Y7503391D01*
X44923695Y7503391D01*
X44753210Y7530393D01*
X44589048Y7583733D01*
X44435252Y7662096D01*
X44295607Y7763553D01*
X44173553Y7885607D01*
X44072096Y8025252D01*
X43993733Y8179048D01*
X43940393Y8343210D01*
X43913391Y8513695D01*
X43913391Y8686305D01*
X43940393Y8856790D01*
X43993733Y9020952D01*
X44072096Y9174748D01*
X44173553Y9314393D01*
X44295607Y9436447D01*
X44435252Y9537904D01*
X44589048Y9616267D01*
X44753210Y9669607D01*
X44923695Y9696609D01*
X45096305Y9696609D01*
X45266790Y9669607D01*
G37*
G36*
X51766790Y9669607D02*
G01*
X51930952Y9616267D01*
X52084748Y9537904D01*
X52224393Y9436447D01*
X52346447Y9314393D01*
X52447904Y9174748D01*
X52526267Y9020952D01*
X52579607Y8856790D01*
X52606609Y8686305D01*
X52606609Y8513695D01*
X52579607Y8343210D01*
X52526267Y8179048D01*
X52447904Y8025252D01*
X52346447Y7885607D01*
X52224393Y7763553D01*
X52084748Y7662096D01*
X51930952Y7583733D01*
X51766790Y7530393D01*
X51596305Y7503391D01*
X51423695Y7503391D01*
X51253210Y7530393D01*
X51089048Y7583733D01*
X50935252Y7662096D01*
X50795607Y7763553D01*
X50673553Y7885607D01*
X50572096Y8025252D01*
X50493733Y8179048D01*
X50440393Y8343210D01*
X50413391Y8513695D01*
X50413391Y8686305D01*
X50440393Y8856790D01*
X50493733Y9020952D01*
X50572096Y9174748D01*
X50673553Y9314393D01*
X50795607Y9436447D01*
X50935252Y9537904D01*
X51089048Y9616267D01*
X51253210Y9669607D01*
X51423695Y9696609D01*
X51596305Y9696609D01*
X51766790Y9669607D01*
G37*
G36*
X55426790Y9669607D02*
G01*
X55590952Y9616267D01*
X55744748Y9537904D01*
X55884393Y9436447D01*
X56006447Y9314393D01*
X56107904Y9174748D01*
X56186267Y9020952D01*
X56239607Y8856790D01*
X56266609Y8686305D01*
X56266609Y8513695D01*
X56239607Y8343210D01*
X56186267Y8179048D01*
X56107904Y8025252D01*
X56006447Y7885607D01*
X55884393Y7763553D01*
X55744748Y7662096D01*
X55590952Y7583733D01*
X55426790Y7530393D01*
X55256305Y7503391D01*
X55083695Y7503391D01*
X54913210Y7530393D01*
X54749048Y7583733D01*
X54595252Y7662096D01*
X54455607Y7763553D01*
X54333553Y7885607D01*
X54232096Y8025252D01*
X54153733Y8179048D01*
X54100393Y8343210D01*
X54073391Y8513695D01*
X54073391Y8686305D01*
X54100393Y8856790D01*
X54153733Y9020952D01*
X54232096Y9174748D01*
X54333553Y9314393D01*
X54455607Y9436447D01*
X54595252Y9537904D01*
X54749048Y9616267D01*
X54913210Y9669607D01*
X55083695Y9696609D01*
X55256305Y9696609D01*
X55426790Y9669607D01*
G37*
G36*
X61926790Y9669607D02*
G01*
X62090952Y9616267D01*
X62244748Y9537904D01*
X62384393Y9436447D01*
X62506447Y9314393D01*
X62607904Y9174748D01*
X62686267Y9020952D01*
X62739607Y8856790D01*
X62766609Y8686305D01*
X62766609Y8513695D01*
X62739607Y8343210D01*
X62686267Y8179048D01*
X62607904Y8025252D01*
X62506447Y7885607D01*
X62384393Y7763553D01*
X62244748Y7662096D01*
X62090952Y7583733D01*
X61926790Y7530393D01*
X61756305Y7503391D01*
X61583695Y7503391D01*
X61413210Y7530393D01*
X61249048Y7583733D01*
X61095252Y7662096D01*
X60955607Y7763553D01*
X60833553Y7885607D01*
X60732096Y8025252D01*
X60653733Y8179048D01*
X60600393Y8343210D01*
X60573391Y8513695D01*
X60573391Y8686305D01*
X60600393Y8856790D01*
X60653733Y9020952D01*
X60732096Y9174748D01*
X60833553Y9314393D01*
X60955607Y9436447D01*
X61095252Y9537904D01*
X61249048Y9616267D01*
X61413210Y9669607D01*
X61583695Y9696609D01*
X61756305Y9696609D01*
X61926790Y9669607D01*
G37*
G36*
X65586790Y9669607D02*
G01*
X65750952Y9616267D01*
X65904748Y9537904D01*
X66044393Y9436447D01*
X66166447Y9314393D01*
X66267904Y9174748D01*
X66346267Y9020952D01*
X66399607Y8856790D01*
X66426609Y8686305D01*
X66426609Y8513695D01*
X66399607Y8343210D01*
X66346267Y8179048D01*
X66267904Y8025252D01*
X66166447Y7885607D01*
X66044393Y7763553D01*
X65904748Y7662096D01*
X65750952Y7583733D01*
X65586790Y7530393D01*
X65416305Y7503391D01*
X65243695Y7503391D01*
X65073210Y7530393D01*
X64909048Y7583733D01*
X64755252Y7662096D01*
X64615607Y7763553D01*
X64493553Y7885607D01*
X64392096Y8025252D01*
X64313733Y8179048D01*
X64260393Y8343210D01*
X64233391Y8513695D01*
X64233391Y8686305D01*
X64260393Y8856790D01*
X64313733Y9020952D01*
X64392096Y9174748D01*
X64493553Y9314393D01*
X64615607Y9436447D01*
X64755252Y9537904D01*
X64909048Y9616267D01*
X65073210Y9669607D01*
X65243695Y9696609D01*
X65416305Y9696609D01*
X65586790Y9669607D01*
G37*
G36*
X72086790Y9669607D02*
G01*
X72250952Y9616267D01*
X72404748Y9537904D01*
X72544393Y9436447D01*
X72666447Y9314393D01*
X72767904Y9174748D01*
X72846267Y9020952D01*
X72899607Y8856790D01*
X72926609Y8686305D01*
X72926609Y8513695D01*
X72899607Y8343210D01*
X72846267Y8179048D01*
X72767904Y8025252D01*
X72666447Y7885607D01*
X72544393Y7763553D01*
X72404748Y7662096D01*
X72250952Y7583733D01*
X72086790Y7530393D01*
X71916305Y7503391D01*
X71743695Y7503391D01*
X71573210Y7530393D01*
X71409048Y7583733D01*
X71255252Y7662096D01*
X71115607Y7763553D01*
X70993553Y7885607D01*
X70892096Y8025252D01*
X70813733Y8179048D01*
X70760393Y8343210D01*
X70733391Y8513695D01*
X70733391Y8686305D01*
X70760393Y8856790D01*
X70813733Y9020952D01*
X70892096Y9174748D01*
X70993553Y9314393D01*
X71115607Y9436447D01*
X71255252Y9537904D01*
X71409048Y9616267D01*
X71573210Y9669607D01*
X71743695Y9696609D01*
X71916305Y9696609D01*
X72086790Y9669607D01*
G37*
G36*
X89384211Y15964282D02*
G01*
X89701835Y15901103D01*
X90011737Y15807095D01*
X90310932Y15683165D01*
X90596539Y15530504D01*
X90865808Y15350585D01*
X91116145Y15145139D01*
X91345139Y14916145D01*
X91550585Y14665808D01*
X91730504Y14396539D01*
X91883165Y14110932D01*
X92007095Y13811737D01*
X92101103Y13501835D01*
X92164282Y13184211D01*
X92196025Y12861923D01*
X92196025Y12538077D01*
X92164282Y12215789D01*
X92101103Y11898165D01*
X92007095Y11588263D01*
X91883165Y11289068D01*
X91730504Y11003461D01*
X91550585Y10734192D01*
X91345139Y10483855D01*
X91116145Y10254861D01*
X90865808Y10049415D01*
X90596539Y9869496D01*
X90310932Y9716835D01*
X90011737Y9592905D01*
X89701835Y9498897D01*
X89384211Y9435718D01*
X89061923Y9403975D01*
X88738077Y9403975D01*
X88415789Y9435718D01*
X88098165Y9498897D01*
X87788263Y9592905D01*
X87489068Y9716835D01*
X87203461Y9869496D01*
X86934192Y10049415D01*
X86683855Y10254861D01*
X86454861Y10483855D01*
X86249415Y10734192D01*
X86069496Y11003461D01*
X85916835Y11289068D01*
X85792905Y11588263D01*
X85698897Y11898165D01*
X85635718Y12215789D01*
X85603975Y12538077D01*
X85603975Y12861923D01*
X85635718Y13184211D01*
X85698897Y13501835D01*
X85792905Y13811737D01*
X85916835Y14110932D01*
X86069496Y14396539D01*
X86249415Y14665808D01*
X86454861Y14916145D01*
X86683855Y15145139D01*
X86934192Y15350585D01*
X87203461Y15530504D01*
X87489068Y15683165D01*
X87788263Y15807095D01*
X88098165Y15901103D01*
X88415789Y15964282D01*
X88738077Y15996025D01*
X89061923Y15996025D01*
X89384211Y15964282D01*
G37*
G36*
X13728858Y10684867D02*
G01*
X13738316Y10684867D01*
X13765563Y10677567D01*
X13834099Y10663934D01*
X13866448Y10650535D01*
X13889610Y10644328D01*
X13910377Y10632338D01*
X13942722Y10618940D01*
X14000816Y10580123D01*
X14025257Y10566012D01*
X14031946Y10559323D01*
X14040481Y10553620D01*
X14123619Y10470482D01*
X14129321Y10461948D01*
X14136012Y10455257D01*
X14150124Y10430814D01*
X14188939Y10372723D01*
X14202335Y10340382D01*
X14214328Y10319610D01*
X14220535Y10296445D01*
X14233933Y10264100D01*
X14247564Y10195569D01*
X14254867Y10168316D01*
X14254867Y10163382D01*
X14335133Y10163382D01*
X14335133Y10168316D01*
X14342434Y10195564D01*
X14356066Y10264100D01*
X14369466Y10296452D01*
X14375672Y10319610D01*
X14387660Y10340376D01*
X14401060Y10372723D01*
X14439881Y10430825D01*
X14453988Y10455257D01*
X14460675Y10461945D01*
X14466380Y10470482D01*
X14549518Y10553620D01*
X14558055Y10559325D01*
X14564743Y10566012D01*
X14589175Y10580119D01*
X14647277Y10618940D01*
X14679624Y10632340D01*
X14700390Y10644328D01*
X14723548Y10650534D01*
X14755900Y10663934D01*
X14824437Y10677567D01*
X14851684Y10684867D01*
X14861142Y10684867D01*
X14871212Y10686870D01*
X14988788Y10686870D01*
X14998858Y10684867D01*
X15008316Y10684867D01*
X15035563Y10677567D01*
X15104099Y10663934D01*
X15136448Y10650535D01*
X15159610Y10644328D01*
X15180377Y10632338D01*
X15212722Y10618940D01*
X15270816Y10580123D01*
X15295257Y10566012D01*
X15301946Y10559323D01*
X15310481Y10553620D01*
X15393619Y10470482D01*
X15399321Y10461948D01*
X15406012Y10455257D01*
X15420124Y10430814D01*
X15458939Y10372723D01*
X15472335Y10340382D01*
X15484328Y10319610D01*
X15490535Y10296445D01*
X15503933Y10264100D01*
X15517564Y10195569D01*
X15524867Y10168316D01*
X15524867Y10163382D01*
X15605133Y10163382D01*
X15605133Y10168316D01*
X15612434Y10195564D01*
X15626066Y10264100D01*
X15639466Y10296452D01*
X15645672Y10319610D01*
X15657660Y10340376D01*
X15671060Y10372723D01*
X15709881Y10430825D01*
X15723988Y10455257D01*
X15730675Y10461945D01*
X15736380Y10470482D01*
X15819518Y10553620D01*
X15828055Y10559325D01*
X15834743Y10566012D01*
X15859175Y10580119D01*
X15917277Y10618940D01*
X15949624Y10632340D01*
X15970390Y10644328D01*
X15993548Y10650534D01*
X16025900Y10663934D01*
X16094437Y10677567D01*
X16121684Y10684867D01*
X16131142Y10684867D01*
X16141212Y10686870D01*
X16258788Y10686870D01*
X16268858Y10684867D01*
X16278316Y10684867D01*
X16305563Y10677567D01*
X16374099Y10663934D01*
X16406448Y10650535D01*
X16429610Y10644328D01*
X16450377Y10632338D01*
X16482722Y10618940D01*
X16540816Y10580123D01*
X16565257Y10566012D01*
X16571946Y10559323D01*
X16580481Y10553620D01*
X16663619Y10470482D01*
X16669321Y10461948D01*
X16676012Y10455257D01*
X16690124Y10430814D01*
X16728939Y10372723D01*
X16742335Y10340382D01*
X16754328Y10319610D01*
X16760535Y10296445D01*
X16773933Y10264100D01*
X16787564Y10195569D01*
X16794867Y10168316D01*
X16794867Y10163382D01*
X16875133Y10163382D01*
X16875133Y10168316D01*
X16882434Y10195564D01*
X16896066Y10264100D01*
X16909466Y10296452D01*
X16915672Y10319610D01*
X16927660Y10340376D01*
X16941060Y10372723D01*
X16979881Y10430825D01*
X16993988Y10455257D01*
X17000675Y10461945D01*
X17006380Y10470482D01*
X17089518Y10553620D01*
X17098055Y10559325D01*
X17104743Y10566012D01*
X17129175Y10580119D01*
X17187277Y10618940D01*
X17219624Y10632340D01*
X17240390Y10644328D01*
X17263548Y10650534D01*
X17295900Y10663934D01*
X17364437Y10677567D01*
X17391684Y10684867D01*
X17401142Y10684867D01*
X17411212Y10686870D01*
X17528788Y10686870D01*
X17538858Y10684867D01*
X17548316Y10684867D01*
X17575563Y10677567D01*
X17644099Y10663934D01*
X17676448Y10650535D01*
X17699610Y10644328D01*
X17720377Y10632338D01*
X17752722Y10618940D01*
X17810816Y10580123D01*
X17835257Y10566012D01*
X17841946Y10559323D01*
X17850481Y10553620D01*
X17933619Y10470482D01*
X17939321Y10461948D01*
X17946012Y10455257D01*
X17960124Y10430814D01*
X17998939Y10372723D01*
X18012335Y10340382D01*
X18024328Y10319610D01*
X18030535Y10296445D01*
X18043933Y10264100D01*
X18057564Y10195569D01*
X18064867Y10168316D01*
X18064867Y10163382D01*
X18145133Y10163382D01*
X18145133Y10168316D01*
X18152434Y10195564D01*
X18166066Y10264100D01*
X18179466Y10296452D01*
X18185672Y10319610D01*
X18197660Y10340376D01*
X18211060Y10372723D01*
X18249881Y10430825D01*
X18263988Y10455257D01*
X18270675Y10461945D01*
X18276380Y10470482D01*
X18359518Y10553620D01*
X18368055Y10559325D01*
X18374743Y10566012D01*
X18399175Y10580119D01*
X18457277Y10618940D01*
X18489624Y10632340D01*
X18510390Y10644328D01*
X18533548Y10650534D01*
X18565900Y10663934D01*
X18634437Y10677567D01*
X18661684Y10684867D01*
X18671142Y10684867D01*
X18681212Y10686870D01*
X18798788Y10686870D01*
X18808858Y10684867D01*
X18818316Y10684867D01*
X18845563Y10677567D01*
X18914099Y10663934D01*
X18946448Y10650535D01*
X18969610Y10644328D01*
X18990377Y10632338D01*
X19022722Y10618940D01*
X19080816Y10580123D01*
X19105257Y10566012D01*
X19111946Y10559323D01*
X19120481Y10553620D01*
X19203619Y10470482D01*
X19209321Y10461948D01*
X19216012Y10455257D01*
X19230124Y10430814D01*
X19268939Y10372723D01*
X19282335Y10340382D01*
X19294328Y10319610D01*
X19300535Y10296445D01*
X19313933Y10264100D01*
X19327564Y10195569D01*
X19334867Y10168316D01*
X19334867Y10163382D01*
X19415133Y10163382D01*
X19415133Y10168316D01*
X19422434Y10195564D01*
X19436066Y10264100D01*
X19449466Y10296452D01*
X19455672Y10319610D01*
X19467660Y10340376D01*
X19481060Y10372723D01*
X19519881Y10430825D01*
X19533988Y10455257D01*
X19540675Y10461945D01*
X19546380Y10470482D01*
X19629518Y10553620D01*
X19638055Y10559325D01*
X19644743Y10566012D01*
X19669175Y10580119D01*
X19727277Y10618940D01*
X19759624Y10632340D01*
X19780390Y10644328D01*
X19803548Y10650534D01*
X19835900Y10663934D01*
X19904437Y10677567D01*
X19931684Y10684867D01*
X19941142Y10684867D01*
X19951212Y10686870D01*
X20068788Y10686870D01*
X20078858Y10684867D01*
X20088316Y10684867D01*
X20115563Y10677567D01*
X20184099Y10663934D01*
X20216448Y10650535D01*
X20239610Y10644328D01*
X20260377Y10632338D01*
X20292722Y10618940D01*
X20350816Y10580123D01*
X20375257Y10566012D01*
X20381946Y10559323D01*
X20390481Y10553620D01*
X20473619Y10470482D01*
X20479321Y10461948D01*
X20486012Y10455257D01*
X20500124Y10430814D01*
X20538939Y10372723D01*
X20552335Y10340382D01*
X20564328Y10319610D01*
X20570535Y10296445D01*
X20583933Y10264100D01*
X20597564Y10195569D01*
X20604867Y10168316D01*
X20604867Y10163382D01*
X20685133Y10163382D01*
X20685133Y10168316D01*
X20692434Y10195564D01*
X20706066Y10264100D01*
X20719466Y10296452D01*
X20725672Y10319610D01*
X20737660Y10340376D01*
X20751060Y10372723D01*
X20789881Y10430825D01*
X20803988Y10455257D01*
X20810675Y10461945D01*
X20816380Y10470482D01*
X20899518Y10553620D01*
X20908055Y10559325D01*
X20914743Y10566012D01*
X20939175Y10580119D01*
X20997277Y10618940D01*
X21029624Y10632340D01*
X21050390Y10644328D01*
X21073548Y10650534D01*
X21105900Y10663934D01*
X21174437Y10677567D01*
X21201684Y10684867D01*
X21211142Y10684867D01*
X21221212Y10686870D01*
X21338788Y10686870D01*
X21348858Y10684867D01*
X21358316Y10684867D01*
X21385563Y10677567D01*
X21454099Y10663934D01*
X21486448Y10650535D01*
X21509610Y10644328D01*
X21530377Y10632338D01*
X21562722Y10618940D01*
X21620816Y10580123D01*
X21645257Y10566012D01*
X21651946Y10559323D01*
X21660481Y10553620D01*
X21743619Y10470482D01*
X21749321Y10461948D01*
X21756012Y10455257D01*
X21770124Y10430814D01*
X21808939Y10372723D01*
X21822335Y10340382D01*
X21834328Y10319610D01*
X21840535Y10296445D01*
X21853933Y10264100D01*
X21867564Y10195569D01*
X21874867Y10168316D01*
X21874867Y10163382D01*
X21955133Y10163382D01*
X21955133Y10168316D01*
X21962434Y10195564D01*
X21976066Y10264100D01*
X21989466Y10296452D01*
X21995672Y10319610D01*
X22007660Y10340376D01*
X22021060Y10372723D01*
X22059881Y10430825D01*
X22073988Y10455257D01*
X22080675Y10461945D01*
X22086380Y10470482D01*
X22169518Y10553620D01*
X22178055Y10559325D01*
X22184743Y10566012D01*
X22209175Y10580119D01*
X22267277Y10618940D01*
X22299624Y10632340D01*
X22320390Y10644328D01*
X22343548Y10650534D01*
X22375900Y10663934D01*
X22444437Y10677567D01*
X22471684Y10684867D01*
X22481142Y10684867D01*
X22491212Y10686870D01*
X22608788Y10686870D01*
X22618858Y10684867D01*
X22628316Y10684867D01*
X22655563Y10677567D01*
X22724099Y10663934D01*
X22756448Y10650535D01*
X22779610Y10644328D01*
X22800377Y10632338D01*
X22832722Y10618940D01*
X22890816Y10580123D01*
X22915257Y10566012D01*
X22921946Y10559323D01*
X22930481Y10553620D01*
X23013619Y10470482D01*
X23019321Y10461948D01*
X23026012Y10455257D01*
X23040124Y10430814D01*
X23078939Y10372723D01*
X23092335Y10340382D01*
X23104328Y10319610D01*
X23110535Y10296445D01*
X23123933Y10264100D01*
X23137564Y10195569D01*
X23144867Y10168316D01*
X23144867Y10163382D01*
X23225133Y10163382D01*
X23225133Y10168316D01*
X23232434Y10195564D01*
X23246066Y10264100D01*
X23259466Y10296452D01*
X23265672Y10319610D01*
X23277660Y10340376D01*
X23291060Y10372723D01*
X23329881Y10430825D01*
X23343988Y10455257D01*
X23350675Y10461945D01*
X23356380Y10470482D01*
X23439518Y10553620D01*
X23448055Y10559325D01*
X23454743Y10566012D01*
X23479175Y10580119D01*
X23537277Y10618940D01*
X23569624Y10632340D01*
X23590390Y10644328D01*
X23613548Y10650534D01*
X23645900Y10663934D01*
X23714437Y10677567D01*
X23741684Y10684867D01*
X23751142Y10684867D01*
X23761212Y10686870D01*
X23878788Y10686870D01*
X23888858Y10684867D01*
X23898316Y10684867D01*
X23925563Y10677567D01*
X23994099Y10663934D01*
X24026448Y10650535D01*
X24049610Y10644328D01*
X24070377Y10632338D01*
X24102722Y10618940D01*
X24160816Y10580123D01*
X24185257Y10566012D01*
X24191946Y10559323D01*
X24200481Y10553620D01*
X24283619Y10470482D01*
X24289321Y10461948D01*
X24296012Y10455257D01*
X24310124Y10430814D01*
X24348939Y10372723D01*
X24362335Y10340382D01*
X24374328Y10319610D01*
X24380535Y10296445D01*
X24393933Y10264100D01*
X24407564Y10195569D01*
X24414867Y10168316D01*
X24414867Y10163382D01*
X24495133Y10163382D01*
X24495133Y10168316D01*
X24502434Y10195564D01*
X24516066Y10264100D01*
X24529466Y10296452D01*
X24535672Y10319610D01*
X24547660Y10340376D01*
X24561060Y10372723D01*
X24599881Y10430825D01*
X24613988Y10455257D01*
X24620675Y10461945D01*
X24626380Y10470482D01*
X24709518Y10553620D01*
X24718055Y10559325D01*
X24724743Y10566012D01*
X24749175Y10580119D01*
X24807277Y10618940D01*
X24839624Y10632340D01*
X24860390Y10644328D01*
X24883548Y10650534D01*
X24915900Y10663934D01*
X24984437Y10677567D01*
X25011684Y10684867D01*
X25021142Y10684867D01*
X25031212Y10686870D01*
X25148788Y10686870D01*
X25158858Y10684867D01*
X25168316Y10684867D01*
X25195563Y10677567D01*
X25264099Y10663934D01*
X25296448Y10650535D01*
X25319610Y10644328D01*
X25340377Y10632338D01*
X25372722Y10618940D01*
X25430816Y10580123D01*
X25455257Y10566012D01*
X25461946Y10559323D01*
X25470481Y10553620D01*
X25553619Y10470482D01*
X25559321Y10461948D01*
X25566012Y10455257D01*
X25580124Y10430814D01*
X25618939Y10372723D01*
X25632335Y10340382D01*
X25644328Y10319610D01*
X25650535Y10296445D01*
X25663933Y10264100D01*
X25677565Y10195567D01*
X25684867Y10168316D01*
X25684867Y10158859D01*
X25686870Y10148789D01*
X25686870Y10031212D01*
X25684867Y10021143D01*
X25684867Y10011684D01*
X25677564Y9984431D01*
X25663933Y9915901D01*
X25650535Y9883559D01*
X25644328Y9860390D01*
X25632334Y9839617D01*
X25618939Y9807278D01*
X25580128Y9749195D01*
X25566012Y9724743D01*
X25559319Y9718051D01*
X25553619Y9709519D01*
X25470481Y9626381D01*
X25461949Y9620681D01*
X25455257Y9613988D01*
X25430805Y9599872D01*
X25372722Y9561061D01*
X25340383Y9547666D01*
X25319610Y9535672D01*
X25296441Y9529465D01*
X25264099Y9516067D01*
X25195569Y9502436D01*
X25168316Y9495133D01*
X25158858Y9495133D01*
X25148788Y9493130D01*
X25031212Y9493130D01*
X25021142Y9495133D01*
X25011684Y9495133D01*
X24984432Y9502436D01*
X24915900Y9516067D01*
X24883555Y9529465D01*
X24860390Y9535672D01*
X24839618Y9547665D01*
X24807277Y9561061D01*
X24749186Y9599876D01*
X24724743Y9613988D01*
X24718052Y9620679D01*
X24709518Y9626381D01*
X24626380Y9709519D01*
X24620677Y9718054D01*
X24613988Y9724743D01*
X24599877Y9749184D01*
X24561060Y9807278D01*
X24547662Y9839623D01*
X24535672Y9860390D01*
X24529465Y9883552D01*
X24516066Y9915901D01*
X24502434Y9984434D01*
X24495133Y10011684D01*
X24495133Y10016619D01*
X24414867Y10016619D01*
X24414867Y10011684D01*
X24407563Y9984429D01*
X24393933Y9915901D01*
X24380535Y9883559D01*
X24374328Y9860390D01*
X24362334Y9839617D01*
X24348939Y9807278D01*
X24310128Y9749195D01*
X24296012Y9724743D01*
X24289319Y9718051D01*
X24283619Y9709519D01*
X24200481Y9626381D01*
X24191949Y9620681D01*
X24185257Y9613988D01*
X24160805Y9599872D01*
X24102722Y9561061D01*
X24070383Y9547666D01*
X24049610Y9535672D01*
X24026441Y9529465D01*
X23994099Y9516067D01*
X23925569Y9502436D01*
X23898316Y9495133D01*
X23888858Y9495133D01*
X23878788Y9493130D01*
X23761212Y9493130D01*
X23751142Y9495133D01*
X23741684Y9495133D01*
X23714432Y9502436D01*
X23645900Y9516067D01*
X23613555Y9529465D01*
X23590390Y9535672D01*
X23569618Y9547665D01*
X23537277Y9561061D01*
X23479186Y9599876D01*
X23454743Y9613988D01*
X23448052Y9620679D01*
X23439518Y9626381D01*
X23356380Y9709519D01*
X23350677Y9718054D01*
X23343988Y9724743D01*
X23329877Y9749184D01*
X23291060Y9807278D01*
X23277662Y9839623D01*
X23265672Y9860390D01*
X23259465Y9883552D01*
X23246066Y9915901D01*
X23232434Y9984434D01*
X23225133Y10011684D01*
X23225133Y10016619D01*
X23144867Y10016619D01*
X23144867Y10011684D01*
X23137563Y9984429D01*
X23123933Y9915901D01*
X23110535Y9883559D01*
X23104328Y9860390D01*
X23092334Y9839617D01*
X23078939Y9807278D01*
X23040128Y9749195D01*
X23026012Y9724743D01*
X23019319Y9718051D01*
X23013619Y9709519D01*
X22930481Y9626381D01*
X22921949Y9620681D01*
X22915257Y9613988D01*
X22890805Y9599872D01*
X22832722Y9561061D01*
X22800383Y9547666D01*
X22779610Y9535672D01*
X22756441Y9529465D01*
X22724099Y9516067D01*
X22655569Y9502436D01*
X22628316Y9495133D01*
X22618858Y9495133D01*
X22608788Y9493130D01*
X22491212Y9493130D01*
X22481142Y9495133D01*
X22471684Y9495133D01*
X22444432Y9502436D01*
X22375900Y9516067D01*
X22343555Y9529465D01*
X22320390Y9535672D01*
X22299618Y9547665D01*
X22267277Y9561061D01*
X22209186Y9599876D01*
X22184743Y9613988D01*
X22178052Y9620679D01*
X22169518Y9626381D01*
X22086380Y9709519D01*
X22080677Y9718054D01*
X22073988Y9724743D01*
X22059877Y9749184D01*
X22021060Y9807278D01*
X22007662Y9839623D01*
X21995672Y9860390D01*
X21989465Y9883552D01*
X21976066Y9915901D01*
X21962434Y9984434D01*
X21955133Y10011684D01*
X21955133Y10016619D01*
X21874867Y10016619D01*
X21874867Y10011684D01*
X21867563Y9984429D01*
X21853933Y9915901D01*
X21840535Y9883559D01*
X21834328Y9860390D01*
X21822334Y9839617D01*
X21808939Y9807278D01*
X21770128Y9749195D01*
X21756012Y9724743D01*
X21749319Y9718051D01*
X21743619Y9709519D01*
X21660481Y9626381D01*
X21651949Y9620681D01*
X21645257Y9613988D01*
X21620805Y9599872D01*
X21562722Y9561061D01*
X21530383Y9547666D01*
X21509610Y9535672D01*
X21486441Y9529465D01*
X21454099Y9516067D01*
X21385569Y9502436D01*
X21358316Y9495133D01*
X21348858Y9495133D01*
X21338788Y9493130D01*
X21221212Y9493130D01*
X21211142Y9495133D01*
X21201684Y9495133D01*
X21174432Y9502436D01*
X21105900Y9516067D01*
X21073555Y9529465D01*
X21050390Y9535672D01*
X21029618Y9547665D01*
X20997277Y9561061D01*
X20939186Y9599876D01*
X20914743Y9613988D01*
X20908052Y9620679D01*
X20899518Y9626381D01*
X20816380Y9709519D01*
X20810677Y9718054D01*
X20803988Y9724743D01*
X20789877Y9749184D01*
X20751060Y9807278D01*
X20737662Y9839623D01*
X20725672Y9860390D01*
X20719465Y9883552D01*
X20706066Y9915901D01*
X20692434Y9984434D01*
X20685133Y10011684D01*
X20685133Y10016619D01*
X20604867Y10016619D01*
X20604867Y10011684D01*
X20597563Y9984429D01*
X20583933Y9915901D01*
X20570535Y9883559D01*
X20564328Y9860390D01*
X20552334Y9839617D01*
X20538939Y9807278D01*
X20500128Y9749195D01*
X20486012Y9724743D01*
X20479319Y9718051D01*
X20473619Y9709519D01*
X20390481Y9626381D01*
X20381949Y9620681D01*
X20375257Y9613988D01*
X20350805Y9599872D01*
X20292722Y9561061D01*
X20260383Y9547666D01*
X20239610Y9535672D01*
X20216441Y9529465D01*
X20184099Y9516067D01*
X20115569Y9502436D01*
X20088316Y9495133D01*
X20078858Y9495133D01*
X20068788Y9493130D01*
X19951212Y9493130D01*
X19941142Y9495133D01*
X19931684Y9495133D01*
X19904432Y9502436D01*
X19835900Y9516067D01*
X19803555Y9529465D01*
X19780390Y9535672D01*
X19759618Y9547665D01*
X19727277Y9561061D01*
X19669186Y9599876D01*
X19644743Y9613988D01*
X19638052Y9620679D01*
X19629518Y9626381D01*
X19546380Y9709519D01*
X19540677Y9718054D01*
X19533988Y9724743D01*
X19519877Y9749184D01*
X19481060Y9807278D01*
X19467662Y9839623D01*
X19455672Y9860390D01*
X19449465Y9883552D01*
X19436066Y9915901D01*
X19422434Y9984434D01*
X19415133Y10011684D01*
X19415133Y10016619D01*
X19334867Y10016619D01*
X19334867Y10011684D01*
X19327563Y9984429D01*
X19313933Y9915901D01*
X19300535Y9883559D01*
X19294328Y9860390D01*
X19282334Y9839617D01*
X19268939Y9807278D01*
X19230128Y9749195D01*
X19216012Y9724743D01*
X19209319Y9718051D01*
X19203619Y9709519D01*
X19120481Y9626381D01*
X19111949Y9620681D01*
X19105257Y9613988D01*
X19080805Y9599872D01*
X19022722Y9561061D01*
X18990383Y9547666D01*
X18969610Y9535672D01*
X18946441Y9529465D01*
X18914099Y9516067D01*
X18845569Y9502436D01*
X18818316Y9495133D01*
X18808858Y9495133D01*
X18798788Y9493130D01*
X18681212Y9493130D01*
X18671142Y9495133D01*
X18661684Y9495133D01*
X18634432Y9502436D01*
X18565900Y9516067D01*
X18533555Y9529465D01*
X18510390Y9535672D01*
X18489618Y9547665D01*
X18457277Y9561061D01*
X18399186Y9599876D01*
X18374743Y9613988D01*
X18368052Y9620679D01*
X18359518Y9626381D01*
X18276380Y9709519D01*
X18270677Y9718054D01*
X18263988Y9724743D01*
X18249877Y9749184D01*
X18211060Y9807278D01*
X18197662Y9839623D01*
X18185672Y9860390D01*
X18179465Y9883552D01*
X18166066Y9915901D01*
X18152434Y9984434D01*
X18145133Y10011684D01*
X18145133Y10016619D01*
X18064867Y10016619D01*
X18064867Y10011684D01*
X18057563Y9984429D01*
X18043933Y9915901D01*
X18030535Y9883559D01*
X18024328Y9860390D01*
X18012334Y9839617D01*
X17998939Y9807278D01*
X17960128Y9749195D01*
X17946012Y9724743D01*
X17939319Y9718051D01*
X17933619Y9709519D01*
X17850481Y9626381D01*
X17841949Y9620681D01*
X17835257Y9613988D01*
X17810805Y9599872D01*
X17752722Y9561061D01*
X17720383Y9547666D01*
X17699610Y9535672D01*
X17676441Y9529465D01*
X17644099Y9516067D01*
X17575569Y9502436D01*
X17548316Y9495133D01*
X17538858Y9495133D01*
X17528788Y9493130D01*
X17411212Y9493130D01*
X17401142Y9495133D01*
X17391684Y9495133D01*
X17364432Y9502436D01*
X17295900Y9516067D01*
X17263555Y9529465D01*
X17240390Y9535672D01*
X17219618Y9547665D01*
X17187277Y9561061D01*
X17129186Y9599876D01*
X17104743Y9613988D01*
X17098052Y9620679D01*
X17089518Y9626381D01*
X17006380Y9709519D01*
X17000677Y9718054D01*
X16993988Y9724743D01*
X16979877Y9749184D01*
X16941060Y9807278D01*
X16927662Y9839623D01*
X16915672Y9860390D01*
X16909465Y9883552D01*
X16896066Y9915901D01*
X16882434Y9984434D01*
X16875133Y10011684D01*
X16875133Y10016619D01*
X16794867Y10016619D01*
X16794867Y10011684D01*
X16787563Y9984429D01*
X16773933Y9915901D01*
X16760535Y9883559D01*
X16754328Y9860390D01*
X16742334Y9839617D01*
X16728939Y9807278D01*
X16690128Y9749195D01*
X16676012Y9724743D01*
X16669319Y9718051D01*
X16663619Y9709519D01*
X16580481Y9626381D01*
X16571949Y9620681D01*
X16565257Y9613988D01*
X16540805Y9599872D01*
X16482722Y9561061D01*
X16450383Y9547666D01*
X16429610Y9535672D01*
X16406441Y9529465D01*
X16374099Y9516067D01*
X16305569Y9502436D01*
X16278316Y9495133D01*
X16268858Y9495133D01*
X16258788Y9493130D01*
X16141212Y9493130D01*
X16131142Y9495133D01*
X16121684Y9495133D01*
X16094432Y9502436D01*
X16025900Y9516067D01*
X15993555Y9529465D01*
X15970390Y9535672D01*
X15949618Y9547665D01*
X15917277Y9561061D01*
X15859186Y9599876D01*
X15834743Y9613988D01*
X15828052Y9620679D01*
X15819518Y9626381D01*
X15736380Y9709519D01*
X15730677Y9718054D01*
X15723988Y9724743D01*
X15709877Y9749184D01*
X15671060Y9807278D01*
X15657662Y9839623D01*
X15645672Y9860390D01*
X15639465Y9883552D01*
X15626066Y9915901D01*
X15612434Y9984434D01*
X15605133Y10011684D01*
X15605133Y10016619D01*
X15524867Y10016619D01*
X15524867Y10011684D01*
X15517563Y9984429D01*
X15503933Y9915901D01*
X15490535Y9883559D01*
X15484328Y9860390D01*
X15472334Y9839617D01*
X15458939Y9807278D01*
X15420128Y9749195D01*
X15406012Y9724743D01*
X15399319Y9718051D01*
X15393619Y9709519D01*
X15310481Y9626381D01*
X15301949Y9620681D01*
X15295257Y9613988D01*
X15270805Y9599872D01*
X15212722Y9561061D01*
X15180383Y9547666D01*
X15159610Y9535672D01*
X15136441Y9529465D01*
X15104099Y9516067D01*
X15035569Y9502436D01*
X15008316Y9495133D01*
X14998858Y9495133D01*
X14988788Y9493130D01*
X14871212Y9493130D01*
X14861142Y9495133D01*
X14851684Y9495133D01*
X14824432Y9502436D01*
X14755900Y9516067D01*
X14723555Y9529465D01*
X14700390Y9535672D01*
X14679618Y9547665D01*
X14647277Y9561061D01*
X14589186Y9599876D01*
X14564743Y9613988D01*
X14558052Y9620679D01*
X14549518Y9626381D01*
X14466380Y9709519D01*
X14460677Y9718054D01*
X14453988Y9724743D01*
X14439877Y9749184D01*
X14401060Y9807278D01*
X14387662Y9839623D01*
X14375672Y9860390D01*
X14369465Y9883552D01*
X14356066Y9915901D01*
X14342434Y9984434D01*
X14335133Y10011684D01*
X14335133Y10016619D01*
X14254867Y10016619D01*
X14254867Y10011684D01*
X14247563Y9984429D01*
X14233933Y9915901D01*
X14220535Y9883559D01*
X14214328Y9860390D01*
X14202334Y9839617D01*
X14188939Y9807278D01*
X14150128Y9749195D01*
X14136012Y9724743D01*
X14129319Y9718051D01*
X14123619Y9709519D01*
X14040481Y9626381D01*
X14031949Y9620681D01*
X14025257Y9613988D01*
X14000805Y9599872D01*
X13942722Y9561061D01*
X13910383Y9547666D01*
X13889610Y9535672D01*
X13866441Y9529465D01*
X13834099Y9516067D01*
X13765569Y9502436D01*
X13738316Y9495133D01*
X13728858Y9495133D01*
X13718788Y9493130D01*
X13601212Y9493130D01*
X13591142Y9495133D01*
X13581684Y9495133D01*
X13554432Y9502436D01*
X13485900Y9516067D01*
X13453555Y9529465D01*
X13430390Y9535672D01*
X13409618Y9547665D01*
X13377277Y9561061D01*
X13319186Y9599876D01*
X13294743Y9613988D01*
X13288052Y9620679D01*
X13279518Y9626381D01*
X13196380Y9709519D01*
X13190677Y9718054D01*
X13183988Y9724743D01*
X13169877Y9749184D01*
X13131060Y9807278D01*
X13117662Y9839623D01*
X13105672Y9860390D01*
X13099465Y9883552D01*
X13086066Y9915901D01*
X13072433Y9984437D01*
X13065133Y10011684D01*
X13065133Y10021142D01*
X13063130Y10031212D01*
X13063130Y10148789D01*
X13065133Y10158860D01*
X13065133Y10168316D01*
X13072433Y10195561D01*
X13086066Y10264100D01*
X13099466Y10296452D01*
X13105672Y10319610D01*
X13117660Y10340376D01*
X13131060Y10372723D01*
X13169881Y10430825D01*
X13183988Y10455257D01*
X13190675Y10461945D01*
X13196380Y10470482D01*
X13279518Y10553620D01*
X13288055Y10559325D01*
X13294743Y10566012D01*
X13319175Y10580119D01*
X13377277Y10618940D01*
X13409624Y10632340D01*
X13430390Y10644328D01*
X13453548Y10650534D01*
X13485900Y10663934D01*
X13554437Y10677567D01*
X13581684Y10684867D01*
X13591142Y10684867D01*
X13601212Y10686870D01*
X13718788Y10686870D01*
X13728858Y10684867D01*
G37*
G36*
X79001256Y14831246D02*
G01*
X79164257Y14763729D01*
X79310954Y14665709D01*
X79435709Y14540954D01*
X79533729Y14394257D01*
X79601246Y14231256D01*
X79635666Y14058215D01*
X79635666Y13881785D01*
X79601246Y13708744D01*
X79533729Y13545743D01*
X79435709Y13399046D01*
X79310954Y13274291D01*
X79164257Y13176271D01*
X79001256Y13108754D01*
X78828215Y13074334D01*
X78651785Y13074334D01*
X78478744Y13108754D01*
X78315743Y13176271D01*
X78169046Y13274291D01*
X78044291Y13399046D01*
X77946271Y13545743D01*
X77878754Y13708744D01*
X77844334Y13881785D01*
X77844334Y14058215D01*
X77878754Y14231256D01*
X77946271Y14394257D01*
X78044291Y14540954D01*
X78169046Y14665709D01*
X78315743Y14763729D01*
X78478744Y14831246D01*
X78651785Y14865666D01*
X78828215Y14865666D01*
X79001256Y14831246D01*
G37*
G36*
X84081256Y14831246D02*
G01*
X84244257Y14763729D01*
X84390954Y14665709D01*
X84515709Y14540954D01*
X84613729Y14394257D01*
X84681246Y14231256D01*
X84715666Y14058215D01*
X84715666Y13881785D01*
X84681246Y13708744D01*
X84613729Y13545743D01*
X84515709Y13399046D01*
X84390954Y13274291D01*
X84244257Y13176271D01*
X84081256Y13108754D01*
X83908215Y13074334D01*
X83731785Y13074334D01*
X83558744Y13108754D01*
X83395743Y13176271D01*
X83249046Y13274291D01*
X83124291Y13399046D01*
X83026271Y13545743D01*
X82958754Y13708744D01*
X82924334Y13881785D01*
X82924334Y14058215D01*
X82958754Y14231256D01*
X83026271Y14394257D01*
X83124291Y14540954D01*
X83249046Y14665709D01*
X83395743Y14763729D01*
X83558744Y14831246D01*
X83731785Y14865666D01*
X83908215Y14865666D01*
X84081256Y14831246D01*
G37*
G36*
X45873513Y16625792D02*
G01*
X46112293Y16548207D01*
X46335998Y16434224D01*
X46539117Y16286650D01*
X46716650Y16109117D01*
X46864224Y15905998D01*
X46978207Y15682293D01*
X47055792Y15443513D01*
X47095068Y15195535D01*
X47095068Y14944465D01*
X47055792Y14696487D01*
X46978207Y14457707D01*
X46864224Y14234002D01*
X46716650Y14030883D01*
X46539117Y13853350D01*
X46335998Y13705776D01*
X46112293Y13591793D01*
X45873513Y13514208D01*
X45625535Y13474932D01*
X45374465Y13474932D01*
X45126487Y13514208D01*
X44887707Y13591793D01*
X44664002Y13705776D01*
X44460883Y13853350D01*
X44283350Y14030883D01*
X44135776Y14234002D01*
X44021793Y14457707D01*
X43944208Y14696487D01*
X43904932Y14944465D01*
X43904932Y15195535D01*
X43944208Y15443513D01*
X44021793Y15682293D01*
X44135776Y15905998D01*
X44283350Y16109117D01*
X44460883Y16286650D01*
X44664002Y16434224D01*
X44887707Y16548207D01*
X45126487Y16625792D01*
X45374465Y16665068D01*
X45625535Y16665068D01*
X45873513Y16625792D01*
G37*
G36*
X69173513Y16625792D02*
G01*
X69412293Y16548207D01*
X69635998Y16434224D01*
X69839117Y16286650D01*
X70016650Y16109117D01*
X70164224Y15905998D01*
X70278207Y15682293D01*
X70355792Y15443513D01*
X70395068Y15195535D01*
X70395068Y14944465D01*
X70355792Y14696487D01*
X70278207Y14457707D01*
X70164224Y14234002D01*
X70016650Y14030883D01*
X69839117Y13853350D01*
X69635998Y13705776D01*
X69412293Y13591793D01*
X69173513Y13514208D01*
X68925535Y13474932D01*
X68674465Y13474932D01*
X68426487Y13514208D01*
X68187707Y13591793D01*
X67964002Y13705776D01*
X67760883Y13853350D01*
X67583350Y14030883D01*
X67435776Y14234002D01*
X67321793Y14457707D01*
X67244208Y14696487D01*
X67204932Y14944465D01*
X67204932Y15195535D01*
X67244208Y15443513D01*
X67321793Y15682293D01*
X67435776Y15905998D01*
X67583350Y16109117D01*
X67760883Y16286650D01*
X67964002Y16434224D01*
X68187707Y16548207D01*
X68426487Y16625792D01*
X68674465Y16665068D01*
X68925535Y16665068D01*
X69173513Y16625792D01*
G37*
G36*
X36915770Y17689093D02*
G01*
X37087827Y17617825D01*
X37242674Y17514360D01*
X37374360Y17382674D01*
X37477825Y17227827D01*
X37549093Y17055770D01*
X37585425Y16873116D01*
X37585425Y16686884D01*
X37549093Y16504230D01*
X37477825Y16332173D01*
X37374360Y16177326D01*
X37242674Y16045640D01*
X37087827Y15942175D01*
X36915770Y15870907D01*
X36733116Y15834575D01*
X36546884Y15834575D01*
X36364230Y15870907D01*
X36192173Y15942175D01*
X36037326Y16045640D01*
X35905640Y16177326D01*
X35802175Y16332173D01*
X35730907Y16504230D01*
X35694575Y16686884D01*
X35694575Y16873116D01*
X35730907Y17055770D01*
X35802175Y17227827D01*
X35905640Y17382674D01*
X36037326Y17514360D01*
X36192173Y17617825D01*
X36364230Y17689093D01*
X36546884Y17725425D01*
X36733116Y17725425D01*
X36915770Y17689093D01*
G37*
G36*
X36915770Y20229093D02*
G01*
X37087827Y20157825D01*
X37242674Y20054360D01*
X37374360Y19922674D01*
X37477825Y19767827D01*
X37549093Y19595770D01*
X37585425Y19413116D01*
X37585425Y19226884D01*
X37549093Y19044230D01*
X37477825Y18872173D01*
X37374360Y18717326D01*
X37242674Y18585640D01*
X37087827Y18482175D01*
X36915770Y18410907D01*
X36733116Y18374575D01*
X36546884Y18374575D01*
X36364230Y18410907D01*
X36192173Y18482175D01*
X36037326Y18585640D01*
X35905640Y18717326D01*
X35802175Y18872173D01*
X35730907Y19044230D01*
X35694575Y19226884D01*
X35694575Y19413116D01*
X35730907Y19595770D01*
X35802175Y19767827D01*
X35905640Y19922674D01*
X36037326Y20054360D01*
X36192173Y20157825D01*
X36364230Y20229093D01*
X36546884Y20265425D01*
X36733116Y20265425D01*
X36915770Y20229093D01*
G37*
G36*
X76475770Y22499093D02*
G01*
X76647827Y22427825D01*
X76802674Y22324360D01*
X76934360Y22192674D01*
X77037825Y22037827D01*
X77109093Y21865770D01*
X77145425Y21683116D01*
X77145425Y21496884D01*
X77109093Y21314230D01*
X77037825Y21142173D01*
X76934360Y20987326D01*
X76802674Y20855640D01*
X76647827Y20752175D01*
X76475770Y20680907D01*
X76293116Y20644575D01*
X76106884Y20644575D01*
X75924230Y20680907D01*
X75752173Y20752175D01*
X75597326Y20855640D01*
X75465640Y20987326D01*
X75362175Y21142173D01*
X75290907Y21314230D01*
X75254575Y21496884D01*
X75254575Y21683116D01*
X75290907Y21865770D01*
X75362175Y22037827D01*
X75465640Y22192674D01*
X75597326Y22324360D01*
X75752173Y22427825D01*
X75924230Y22499093D01*
X76106884Y22535425D01*
X76293116Y22535425D01*
X76475770Y22499093D01*
G37*
G36*
X79015770Y22499093D02*
G01*
X79187827Y22427825D01*
X79342674Y22324360D01*
X79474360Y22192674D01*
X79577825Y22037827D01*
X79649093Y21865770D01*
X79685425Y21683116D01*
X79685425Y21496884D01*
X79649093Y21314230D01*
X79577825Y21142173D01*
X79474360Y20987326D01*
X79342674Y20855640D01*
X79187827Y20752175D01*
X79015770Y20680907D01*
X78833116Y20644575D01*
X78646884Y20644575D01*
X78464230Y20680907D01*
X78292173Y20752175D01*
X78137326Y20855640D01*
X78005640Y20987326D01*
X77902175Y21142173D01*
X77830907Y21314230D01*
X77794575Y21496884D01*
X77794575Y21683116D01*
X77830907Y21865770D01*
X77902175Y22037827D01*
X78005640Y22192674D01*
X78137326Y22324360D01*
X78292173Y22427825D01*
X78464230Y22499093D01*
X78646884Y22535425D01*
X78833116Y22535425D01*
X79015770Y22499093D01*
G37*
G36*
X81555770Y22499093D02*
G01*
X81727827Y22427825D01*
X81882674Y22324360D01*
X82014360Y22192674D01*
X82117825Y22037827D01*
X82189093Y21865770D01*
X82225425Y21683116D01*
X82225425Y21496884D01*
X82189093Y21314230D01*
X82117825Y21142173D01*
X82014360Y20987326D01*
X81882674Y20855640D01*
X81727827Y20752175D01*
X81555770Y20680907D01*
X81373116Y20644575D01*
X81186884Y20644575D01*
X81004230Y20680907D01*
X80832173Y20752175D01*
X80677326Y20855640D01*
X80545640Y20987326D01*
X80442175Y21142173D01*
X80370907Y21314230D01*
X80334575Y21496884D01*
X80334575Y21683116D01*
X80370907Y21865770D01*
X80442175Y22037827D01*
X80545640Y22192674D01*
X80677326Y22324360D01*
X80832173Y22427825D01*
X81004230Y22499093D01*
X81186884Y22535425D01*
X81373116Y22535425D01*
X81555770Y22499093D01*
G37*
G36*
X84095770Y22499093D02*
G01*
X84267827Y22427825D01*
X84422674Y22324360D01*
X84554360Y22192674D01*
X84657825Y22037827D01*
X84729093Y21865770D01*
X84765425Y21683116D01*
X84765425Y21496884D01*
X84729093Y21314230D01*
X84657825Y21142173D01*
X84554360Y20987326D01*
X84422674Y20855640D01*
X84267827Y20752175D01*
X84095770Y20680907D01*
X83913116Y20644575D01*
X83726884Y20644575D01*
X83544230Y20680907D01*
X83372173Y20752175D01*
X83217326Y20855640D01*
X83085640Y20987326D01*
X82982175Y21142173D01*
X82910907Y21314230D01*
X82874575Y21496884D01*
X82874575Y21683116D01*
X82910907Y21865770D01*
X82982175Y22037827D01*
X83085640Y22192674D01*
X83217326Y22324360D01*
X83372173Y22427825D01*
X83544230Y22499093D01*
X83726884Y22535425D01*
X83913116Y22535425D01*
X84095770Y22499093D01*
G37*
G36*
X86635770Y22499093D02*
G01*
X86807827Y22427825D01*
X86962674Y22324360D01*
X87094360Y22192674D01*
X87197825Y22037827D01*
X87269093Y21865770D01*
X87305425Y21683116D01*
X87305425Y21496884D01*
X87269093Y21314230D01*
X87197825Y21142173D01*
X87094360Y20987326D01*
X86962674Y20855640D01*
X86807827Y20752175D01*
X86635770Y20680907D01*
X86453116Y20644575D01*
X86266884Y20644575D01*
X86084230Y20680907D01*
X85912173Y20752175D01*
X85757326Y20855640D01*
X85625640Y20987326D01*
X85522175Y21142173D01*
X85450907Y21314230D01*
X85414575Y21496884D01*
X85414575Y21683116D01*
X85450907Y21865770D01*
X85522175Y22037827D01*
X85625640Y22192674D01*
X85757326Y22324360D01*
X85912173Y22427825D01*
X86084230Y22499093D01*
X86266884Y22535425D01*
X86453116Y22535425D01*
X86635770Y22499093D01*
G37*
G36*
X89175770Y22499093D02*
G01*
X89347827Y22427825D01*
X89502674Y22324360D01*
X89634360Y22192674D01*
X89737825Y22037827D01*
X89809093Y21865770D01*
X89845425Y21683116D01*
X89845425Y21496884D01*
X89809093Y21314230D01*
X89737825Y21142173D01*
X89634360Y20987326D01*
X89502674Y20855640D01*
X89347827Y20752175D01*
X89175770Y20680907D01*
X88993116Y20644575D01*
X88806884Y20644575D01*
X88624230Y20680907D01*
X88452173Y20752175D01*
X88297326Y20855640D01*
X88165640Y20987326D01*
X88062175Y21142173D01*
X87990907Y21314230D01*
X87954575Y21496884D01*
X87954575Y21683116D01*
X87990907Y21865770D01*
X88062175Y22037827D01*
X88165640Y22192674D01*
X88297326Y22324360D01*
X88452173Y22427825D01*
X88624230Y22499093D01*
X88806884Y22535425D01*
X88993116Y22535425D01*
X89175770Y22499093D01*
G37*
G36*
X91715770Y22499093D02*
G01*
X91887827Y22427825D01*
X92042674Y22324360D01*
X92174360Y22192674D01*
X92277825Y22037827D01*
X92349093Y21865770D01*
X92385425Y21683116D01*
X92385425Y21496884D01*
X92349093Y21314230D01*
X92277825Y21142173D01*
X92174360Y20987326D01*
X92042674Y20855640D01*
X91887827Y20752175D01*
X91715770Y20680907D01*
X91533116Y20644575D01*
X91346884Y20644575D01*
X91164230Y20680907D01*
X90992173Y20752175D01*
X90837326Y20855640D01*
X90705640Y20987326D01*
X90602175Y21142173D01*
X90530907Y21314230D01*
X90494575Y21496884D01*
X90494575Y21683116D01*
X90530907Y21865770D01*
X90602175Y22037827D01*
X90705640Y22192674D01*
X90837326Y22324360D01*
X90992173Y22427825D01*
X91164230Y22499093D01*
X91346884Y22535425D01*
X91533116Y22535425D01*
X91715770Y22499093D01*
G37*
G36*
X36915770Y22769093D02*
G01*
X37087827Y22697825D01*
X37242674Y22594360D01*
X37374360Y22462674D01*
X37477825Y22307827D01*
X37549093Y22135770D01*
X37585425Y21953116D01*
X37585425Y21766884D01*
X37549093Y21584230D01*
X37477825Y21412173D01*
X37374360Y21257326D01*
X37242674Y21125640D01*
X37087827Y21022175D01*
X36915770Y20950907D01*
X36733116Y20914575D01*
X36546884Y20914575D01*
X36364230Y20950907D01*
X36192173Y21022175D01*
X36037326Y21125640D01*
X35905640Y21257326D01*
X35802175Y21412173D01*
X35730907Y21584230D01*
X35694575Y21766884D01*
X35694575Y21953116D01*
X35730907Y22135770D01*
X35802175Y22307827D01*
X35905640Y22462674D01*
X36037326Y22594360D01*
X36192173Y22697825D01*
X36364230Y22769093D01*
X36546884Y22805425D01*
X36733116Y22805425D01*
X36915770Y22769093D01*
G37*
G36*
X36915770Y25309093D02*
G01*
X37087827Y25237825D01*
X37242674Y25134360D01*
X37374360Y25002674D01*
X37477825Y24847827D01*
X37549093Y24675770D01*
X37585425Y24493116D01*
X37585425Y24306884D01*
X37549093Y24124230D01*
X37477825Y23952173D01*
X37374360Y23797326D01*
X37242674Y23665640D01*
X37087827Y23562175D01*
X36915770Y23490907D01*
X36733116Y23454575D01*
X36546884Y23454575D01*
X36364230Y23490907D01*
X36192173Y23562175D01*
X36037326Y23665640D01*
X35905640Y23797326D01*
X35802175Y23952173D01*
X35730907Y24124230D01*
X35694575Y24306884D01*
X35694575Y24493116D01*
X35730907Y24675770D01*
X35802175Y24847827D01*
X35905640Y25002674D01*
X36037326Y25134360D01*
X36192173Y25237825D01*
X36364230Y25309093D01*
X36546884Y25345425D01*
X36733116Y25345425D01*
X36915770Y25309093D01*
G37*
G36*
X87537714Y28657705D02*
G01*
X87673548Y28601441D01*
X87795795Y28519758D01*
X87899758Y28415795D01*
X87981441Y28293548D01*
X88037705Y28157714D01*
X88066389Y28013513D01*
X88066389Y27866487D01*
X88037705Y27722286D01*
X87981441Y27586452D01*
X87899758Y27464205D01*
X87795795Y27360242D01*
X87673548Y27278559D01*
X87537714Y27222295D01*
X87393513Y27193611D01*
X87246487Y27193611D01*
X87102286Y27222295D01*
X86966452Y27278559D01*
X86844205Y27360242D01*
X86740242Y27464205D01*
X86658559Y27586452D01*
X86602295Y27722286D01*
X86573611Y27866487D01*
X86573611Y28013513D01*
X86602295Y28157714D01*
X86658559Y28293548D01*
X86740242Y28415795D01*
X86844205Y28519758D01*
X86966452Y28601441D01*
X87102286Y28657705D01*
X87246487Y28686389D01*
X87393513Y28686389D01*
X87537714Y28657705D01*
G37*
G36*
X90077714Y28657705D02*
G01*
X90213548Y28601441D01*
X90335795Y28519758D01*
X90439758Y28415795D01*
X90521441Y28293548D01*
X90577705Y28157714D01*
X90606389Y28013513D01*
X90606389Y27866487D01*
X90577705Y27722286D01*
X90521441Y27586452D01*
X90439758Y27464205D01*
X90335795Y27360242D01*
X90213548Y27278559D01*
X90077714Y27222295D01*
X89933513Y27193611D01*
X89786487Y27193611D01*
X89642286Y27222295D01*
X89506452Y27278559D01*
X89384205Y27360242D01*
X89280242Y27464205D01*
X89198559Y27586452D01*
X89142295Y27722286D01*
X89113611Y27866487D01*
X89113611Y28013513D01*
X89142295Y28157714D01*
X89198559Y28293548D01*
X89280242Y28415795D01*
X89384205Y28519758D01*
X89506452Y28601441D01*
X89642286Y28657705D01*
X89786487Y28686389D01*
X89933513Y28686389D01*
X90077714Y28657705D01*
G37*
G36*
X92657714Y28657705D02*
G01*
X92793548Y28601441D01*
X92915795Y28519758D01*
X93019758Y28415795D01*
X93101441Y28293548D01*
X93157705Y28157714D01*
X93186389Y28013513D01*
X93186389Y27866487D01*
X93157705Y27722286D01*
X93101441Y27586452D01*
X93019758Y27464205D01*
X92915795Y27360242D01*
X92793548Y27278559D01*
X92657714Y27222295D01*
X92513513Y27193611D01*
X92366487Y27193611D01*
X92222286Y27222295D01*
X92086452Y27278559D01*
X91964205Y27360242D01*
X91860242Y27464205D01*
X91778559Y27586452D01*
X91722295Y27722286D01*
X91693611Y27866487D01*
X91693611Y28013513D01*
X91722295Y28157714D01*
X91778559Y28293548D01*
X91860242Y28415795D01*
X91964205Y28519758D01*
X92086452Y28601441D01*
X92222286Y28657705D01*
X92366487Y28686389D01*
X92513513Y28686389D01*
X92657714Y28657705D01*
G37*
G36*
X87537714Y31197705D02*
G01*
X87673548Y31141441D01*
X87795795Y31059758D01*
X87899758Y30955795D01*
X87981441Y30833548D01*
X88037705Y30697714D01*
X88066389Y30553513D01*
X88066389Y30406487D01*
X88037705Y30262286D01*
X87981441Y30126452D01*
X87899758Y30004205D01*
X87795795Y29900242D01*
X87673548Y29818559D01*
X87537714Y29762295D01*
X87393513Y29733611D01*
X87246487Y29733611D01*
X87102286Y29762295D01*
X86966452Y29818559D01*
X86844205Y29900242D01*
X86740242Y30004205D01*
X86658559Y30126452D01*
X86602295Y30262286D01*
X86573611Y30406487D01*
X86573611Y30553513D01*
X86602295Y30697714D01*
X86658559Y30833548D01*
X86740242Y30955795D01*
X86844205Y31059758D01*
X86966452Y31141441D01*
X87102286Y31197705D01*
X87246487Y31226389D01*
X87393513Y31226389D01*
X87537714Y31197705D01*
G37*
G36*
X90077714Y31197705D02*
G01*
X90213548Y31141441D01*
X90335795Y31059758D01*
X90439758Y30955795D01*
X90521441Y30833548D01*
X90577705Y30697714D01*
X90606389Y30553513D01*
X90606389Y30406487D01*
X90577705Y30262286D01*
X90521441Y30126452D01*
X90439758Y30004205D01*
X90335795Y29900242D01*
X90213548Y29818559D01*
X90077714Y29762295D01*
X89933513Y29733611D01*
X89786487Y29733611D01*
X89642286Y29762295D01*
X89506452Y29818559D01*
X89384205Y29900242D01*
X89280242Y30004205D01*
X89198559Y30126452D01*
X89142295Y30262286D01*
X89113611Y30406487D01*
X89113611Y30553513D01*
X89142295Y30697714D01*
X89198559Y30833548D01*
X89280242Y30955795D01*
X89384205Y31059758D01*
X89506452Y31141441D01*
X89642286Y31197705D01*
X89786487Y31226389D01*
X89933513Y31226389D01*
X90077714Y31197705D01*
G37*
G36*
X92657714Y31197705D02*
G01*
X92793548Y31141441D01*
X92915795Y31059758D01*
X93019758Y30955795D01*
X93101441Y30833548D01*
X93157705Y30697714D01*
X93186389Y30553513D01*
X93186389Y30406487D01*
X93157705Y30262286D01*
X93101441Y30126452D01*
X93019758Y30004205D01*
X92915795Y29900242D01*
X92793548Y29818559D01*
X92657714Y29762295D01*
X92513513Y29733611D01*
X92366487Y29733611D01*
X92222286Y29762295D01*
X92086452Y29818559D01*
X91964205Y29900242D01*
X91860242Y30004205D01*
X91778559Y30126452D01*
X91722295Y30262286D01*
X91693611Y30406487D01*
X91693611Y30553513D01*
X91722295Y30697714D01*
X91778559Y30833548D01*
X91860242Y30955795D01*
X91964205Y31059758D01*
X92086452Y31141441D01*
X92222286Y31197705D01*
X92366487Y31226389D01*
X92513513Y31226389D01*
X92657714Y31197705D01*
G37*
G36*
X36046454Y35876499D02*
G01*
X36344377Y35808500D01*
X36632812Y35707572D01*
X36908134Y35574984D01*
X37166879Y35412403D01*
X37405794Y35221875D01*
X37621875Y35005794D01*
X37812403Y34766879D01*
X37974984Y34508134D01*
X38107572Y34232812D01*
X38208500Y33944377D01*
X38276499Y33646454D01*
X38310713Y33342792D01*
X38310713Y33037208D01*
X38276499Y32733546D01*
X38208500Y32435623D01*
X38107572Y32147188D01*
X37974984Y31871866D01*
X37812403Y31613121D01*
X37621875Y31374206D01*
X37405794Y31158125D01*
X37166879Y30967597D01*
X36908134Y30805016D01*
X36632812Y30672428D01*
X36344377Y30571500D01*
X36046454Y30503501D01*
X35742792Y30469287D01*
X35437208Y30469287D01*
X35133546Y30503501D01*
X34835623Y30571500D01*
X34547188Y30672428D01*
X34271866Y30805016D01*
X34013121Y30967597D01*
X33774206Y31158125D01*
X33558125Y31374206D01*
X33367597Y31613121D01*
X33205016Y31871866D01*
X33072428Y32147188D01*
X32971500Y32435623D01*
X32903501Y32733546D01*
X32869287Y33037208D01*
X32869287Y33342792D01*
X32903501Y33646454D01*
X32971500Y33944377D01*
X33072428Y34232812D01*
X33205016Y34508134D01*
X33367597Y34766879D01*
X33558125Y35005794D01*
X33774206Y35221875D01*
X34013121Y35412403D01*
X34271866Y35574984D01*
X34547188Y35707572D01*
X34835623Y35808500D01*
X35133546Y35876499D01*
X35437208Y35910713D01*
X35742792Y35910713D01*
X36046454Y35876499D01*
G37*
G36*
X84719868Y34945450D02*
G01*
X84725586Y34942655D01*
X84727962Y34942278D01*
X84765987Y34922904D01*
X84823377Y34894847D01*
X84904847Y34813377D01*
X84932907Y34755980D01*
X84952276Y34717966D01*
X84952652Y34715592D01*
X84955450Y34709868D01*
X84970000Y34610000D01*
X84970000Y32810000D01*
X84955450Y32710132D01*
X84952652Y32704411D01*
X84952277Y32702038D01*
X84932926Y32664061D01*
X84904847Y32606623D01*
X84823377Y32525153D01*
X84765955Y32497081D01*
X84727965Y32477724D01*
X84725591Y32477349D01*
X84719868Y32474550D01*
X84620000Y32460000D01*
X83820000Y32460000D01*
X83720132Y32474550D01*
X83714410Y32477348D01*
X83712037Y32477723D01*
X83674035Y32497086D01*
X83616623Y32525153D01*
X83535153Y32606623D01*
X83507104Y32663997D01*
X83487723Y32702035D01*
X83487346Y32704412D01*
X83484550Y32710132D01*
X83470000Y32810000D01*
X83470000Y34610000D01*
X83484550Y34709868D01*
X83487345Y34715587D01*
X83487722Y34717963D01*
X83507108Y34756013D01*
X83535153Y34813377D01*
X83616623Y34894847D01*
X83673971Y34922884D01*
X83712034Y34942277D01*
X83714411Y34942654D01*
X83720132Y34945450D01*
X83820000Y34960000D01*
X84620000Y34960000D01*
X84719868Y34945450D01*
G37*
G36*
X86619868Y34945450D02*
G01*
X86625586Y34942655D01*
X86627962Y34942278D01*
X86665987Y34922904D01*
X86723377Y34894847D01*
X86804847Y34813377D01*
X86832907Y34755980D01*
X86852276Y34717966D01*
X86852652Y34715592D01*
X86855450Y34709868D01*
X86870000Y34610000D01*
X86870000Y32810000D01*
X86855450Y32710132D01*
X86852652Y32704411D01*
X86852277Y32702038D01*
X86832926Y32664061D01*
X86804847Y32606623D01*
X86723377Y32525153D01*
X86665955Y32497081D01*
X86627965Y32477724D01*
X86625591Y32477349D01*
X86619868Y32474550D01*
X86520000Y32460000D01*
X85720000Y32460000D01*
X85620132Y32474550D01*
X85614410Y32477348D01*
X85612037Y32477723D01*
X85574035Y32497086D01*
X85516623Y32525153D01*
X85435153Y32606623D01*
X85407104Y32663997D01*
X85387723Y32702035D01*
X85387346Y32704412D01*
X85384550Y32710132D01*
X85370000Y32810000D01*
X85370000Y34610000D01*
X85384550Y34709868D01*
X85387345Y34715587D01*
X85387722Y34717963D01*
X85407108Y34756013D01*
X85435153Y34813377D01*
X85516623Y34894847D01*
X85573971Y34922884D01*
X85612034Y34942277D01*
X85614411Y34942654D01*
X85620132Y34945450D01*
X85720000Y34960000D01*
X86520000Y34960000D01*
X86619868Y34945450D01*
G37*
G36*
X11048268Y35232388D02*
G01*
X11080711Y35210711D01*
X11102388Y35178268D01*
X11110000Y35140000D01*
X11110000Y33440000D01*
X11102388Y33401732D01*
X11080711Y33369289D01*
X11048268Y33347612D01*
X11010000Y33340000D01*
X9310000Y33340000D01*
X9271732Y33347612D01*
X9239289Y33369289D01*
X9217612Y33401732D01*
X9210000Y33440000D01*
X9210000Y35140000D01*
X9217612Y35178268D01*
X9239289Y35210711D01*
X9271732Y35232388D01*
X9310000Y35240000D01*
X11010000Y35240000D01*
X11048268Y35232388D01*
G37*
G36*
X12975770Y35199093D02*
G01*
X13147827Y35127825D01*
X13302674Y35024360D01*
X13434360Y34892674D01*
X13537825Y34737827D01*
X13609093Y34565770D01*
X13645425Y34383116D01*
X13645425Y34196884D01*
X13609093Y34014230D01*
X13537825Y33842173D01*
X13434360Y33687326D01*
X13302674Y33555640D01*
X13147827Y33452175D01*
X12975770Y33380907D01*
X12793116Y33344575D01*
X12606884Y33344575D01*
X12424230Y33380907D01*
X12252173Y33452175D01*
X12097326Y33555640D01*
X11965640Y33687326D01*
X11862175Y33842173D01*
X11790907Y34014230D01*
X11754575Y34196884D01*
X11754575Y34383116D01*
X11790907Y34565770D01*
X11862175Y34737827D01*
X11965640Y34892674D01*
X12097326Y35024360D01*
X12252173Y35127825D01*
X12424230Y35199093D01*
X12606884Y35235425D01*
X12793116Y35235425D01*
X12975770Y35199093D01*
G37*
G36*
X15515770Y35199093D02*
G01*
X15687827Y35127825D01*
X15842674Y35024360D01*
X15974360Y34892674D01*
X16077825Y34737827D01*
X16149093Y34565770D01*
X16185425Y34383116D01*
X16185425Y34196884D01*
X16149093Y34014230D01*
X16077825Y33842173D01*
X15974360Y33687326D01*
X15842674Y33555640D01*
X15687827Y33452175D01*
X15515770Y33380907D01*
X15333116Y33344575D01*
X15146884Y33344575D01*
X14964230Y33380907D01*
X14792173Y33452175D01*
X14637326Y33555640D01*
X14505640Y33687326D01*
X14402175Y33842173D01*
X14330907Y34014230D01*
X14294575Y34196884D01*
X14294575Y34383116D01*
X14330907Y34565770D01*
X14402175Y34737827D01*
X14505640Y34892674D01*
X14637326Y35024360D01*
X14792173Y35127825D01*
X14964230Y35199093D01*
X15146884Y35235425D01*
X15333116Y35235425D01*
X15515770Y35199093D01*
G37*
G36*
X18055770Y35199093D02*
G01*
X18227827Y35127825D01*
X18382674Y35024360D01*
X18514360Y34892674D01*
X18617825Y34737827D01*
X18689093Y34565770D01*
X18725425Y34383116D01*
X18725425Y34196884D01*
X18689093Y34014230D01*
X18617825Y33842173D01*
X18514360Y33687326D01*
X18382674Y33555640D01*
X18227827Y33452175D01*
X18055770Y33380907D01*
X17873116Y33344575D01*
X17686884Y33344575D01*
X17504230Y33380907D01*
X17332173Y33452175D01*
X17177326Y33555640D01*
X17045640Y33687326D01*
X16942175Y33842173D01*
X16870907Y34014230D01*
X16834575Y34196884D01*
X16834575Y34383116D01*
X16870907Y34565770D01*
X16942175Y34737827D01*
X17045640Y34892674D01*
X17177326Y35024360D01*
X17332173Y35127825D01*
X17504230Y35199093D01*
X17686884Y35235425D01*
X17873116Y35235425D01*
X18055770Y35199093D01*
G37*
G36*
X20595770Y35199093D02*
G01*
X20767827Y35127825D01*
X20922674Y35024360D01*
X21054360Y34892674D01*
X21157825Y34737827D01*
X21229093Y34565770D01*
X21265425Y34383116D01*
X21265425Y34196884D01*
X21229093Y34014230D01*
X21157825Y33842173D01*
X21054360Y33687326D01*
X20922674Y33555640D01*
X20767827Y33452175D01*
X20595770Y33380907D01*
X20413116Y33344575D01*
X20226884Y33344575D01*
X20044230Y33380907D01*
X19872173Y33452175D01*
X19717326Y33555640D01*
X19585640Y33687326D01*
X19482175Y33842173D01*
X19410907Y34014230D01*
X19374575Y34196884D01*
X19374575Y34383116D01*
X19410907Y34565770D01*
X19482175Y34737827D01*
X19585640Y34892674D01*
X19717326Y35024360D01*
X19872173Y35127825D01*
X20044230Y35199093D01*
X20226884Y35235425D01*
X20413116Y35235425D01*
X20595770Y35199093D01*
G37*
G36*
X23135770Y35199093D02*
G01*
X23307827Y35127825D01*
X23462674Y35024360D01*
X23594360Y34892674D01*
X23697825Y34737827D01*
X23769093Y34565770D01*
X23805425Y34383116D01*
X23805425Y34196884D01*
X23769093Y34014230D01*
X23697825Y33842173D01*
X23594360Y33687326D01*
X23462674Y33555640D01*
X23307827Y33452175D01*
X23135770Y33380907D01*
X22953116Y33344575D01*
X22766884Y33344575D01*
X22584230Y33380907D01*
X22412173Y33452175D01*
X22257326Y33555640D01*
X22125640Y33687326D01*
X22022175Y33842173D01*
X21950907Y34014230D01*
X21914575Y34196884D01*
X21914575Y34383116D01*
X21950907Y34565770D01*
X22022175Y34737827D01*
X22125640Y34892674D01*
X22257326Y35024360D01*
X22412173Y35127825D01*
X22584230Y35199093D01*
X22766884Y35235425D01*
X22953116Y35235425D01*
X23135770Y35199093D01*
G37*
G36*
X25675770Y35199093D02*
G01*
X25847827Y35127825D01*
X26002674Y35024360D01*
X26134360Y34892674D01*
X26237825Y34737827D01*
X26309093Y34565770D01*
X26345425Y34383116D01*
X26345425Y34196884D01*
X26309093Y34014230D01*
X26237825Y33842173D01*
X26134360Y33687326D01*
X26002674Y33555640D01*
X25847827Y33452175D01*
X25675770Y33380907D01*
X25493116Y33344575D01*
X25306884Y33344575D01*
X25124230Y33380907D01*
X24952173Y33452175D01*
X24797326Y33555640D01*
X24665640Y33687326D01*
X24562175Y33842173D01*
X24490907Y34014230D01*
X24454575Y34196884D01*
X24454575Y34383116D01*
X24490907Y34565770D01*
X24562175Y34737827D01*
X24665640Y34892674D01*
X24797326Y35024360D01*
X24952173Y35127825D01*
X25124230Y35199093D01*
X25306884Y35235425D01*
X25493116Y35235425D01*
X25675770Y35199093D01*
G37*
G36*
X28215770Y35199093D02*
G01*
X28387827Y35127825D01*
X28542674Y35024360D01*
X28674360Y34892674D01*
X28777825Y34737827D01*
X28849093Y34565770D01*
X28885425Y34383116D01*
X28885425Y34196884D01*
X28849093Y34014230D01*
X28777825Y33842173D01*
X28674360Y33687326D01*
X28542674Y33555640D01*
X28387827Y33452175D01*
X28215770Y33380907D01*
X28033116Y33344575D01*
X27846884Y33344575D01*
X27664230Y33380907D01*
X27492173Y33452175D01*
X27337326Y33555640D01*
X27205640Y33687326D01*
X27102175Y33842173D01*
X27030907Y34014230D01*
X26994575Y34196884D01*
X26994575Y34383116D01*
X27030907Y34565770D01*
X27102175Y34737827D01*
X27205640Y34892674D01*
X27337326Y35024360D01*
X27492173Y35127825D01*
X27664230Y35199093D01*
X27846884Y35235425D01*
X28033116Y35235425D01*
X28215770Y35199093D01*
G37*
G36*
X76475770Y37739093D02*
G01*
X76647827Y37667825D01*
X76802674Y37564360D01*
X76934360Y37432674D01*
X77037825Y37277827D01*
X77109093Y37105770D01*
X77145425Y36923116D01*
X77145425Y36736884D01*
X77109093Y36554230D01*
X77037825Y36382173D01*
X76934360Y36227326D01*
X76802674Y36095640D01*
X76647827Y35992175D01*
X76475770Y35920907D01*
X76293116Y35884575D01*
X76106884Y35884575D01*
X75924230Y35920907D01*
X75752173Y35992175D01*
X75597326Y36095640D01*
X75465640Y36227326D01*
X75362175Y36382173D01*
X75290907Y36554230D01*
X75254575Y36736884D01*
X75254575Y36923116D01*
X75290907Y37105770D01*
X75362175Y37277827D01*
X75465640Y37432674D01*
X75597326Y37564360D01*
X75752173Y37667825D01*
X75924230Y37739093D01*
X76106884Y37775425D01*
X76293116Y37775425D01*
X76475770Y37739093D01*
G37*
G36*
X79015770Y37739093D02*
G01*
X79187827Y37667825D01*
X79342674Y37564360D01*
X79474360Y37432674D01*
X79577825Y37277827D01*
X79649093Y37105770D01*
X79685425Y36923116D01*
X79685425Y36736884D01*
X79649093Y36554230D01*
X79577825Y36382173D01*
X79474360Y36227326D01*
X79342674Y36095640D01*
X79187827Y35992175D01*
X79015770Y35920907D01*
X78833116Y35884575D01*
X78646884Y35884575D01*
X78464230Y35920907D01*
X78292173Y35992175D01*
X78137326Y36095640D01*
X78005640Y36227326D01*
X77902175Y36382173D01*
X77830907Y36554230D01*
X77794575Y36736884D01*
X77794575Y36923116D01*
X77830907Y37105770D01*
X77902175Y37277827D01*
X78005640Y37432674D01*
X78137326Y37564360D01*
X78292173Y37667825D01*
X78464230Y37739093D01*
X78646884Y37775425D01*
X78833116Y37775425D01*
X79015770Y37739093D01*
G37*
G36*
X81555770Y37739093D02*
G01*
X81727827Y37667825D01*
X81882674Y37564360D01*
X82014360Y37432674D01*
X82117825Y37277827D01*
X82189093Y37105770D01*
X82225425Y36923116D01*
X82225425Y36736884D01*
X82189093Y36554230D01*
X82117825Y36382173D01*
X82014360Y36227326D01*
X81882674Y36095640D01*
X81727827Y35992175D01*
X81555770Y35920907D01*
X81373116Y35884575D01*
X81186884Y35884575D01*
X81004230Y35920907D01*
X80832173Y35992175D01*
X80677326Y36095640D01*
X80545640Y36227326D01*
X80442175Y36382173D01*
X80370907Y36554230D01*
X80334575Y36736884D01*
X80334575Y36923116D01*
X80370907Y37105770D01*
X80442175Y37277827D01*
X80545640Y37432674D01*
X80677326Y37564360D01*
X80832173Y37667825D01*
X81004230Y37739093D01*
X81186884Y37775425D01*
X81373116Y37775425D01*
X81555770Y37739093D01*
G37*
G36*
X84095770Y37739093D02*
G01*
X84267827Y37667825D01*
X84422674Y37564360D01*
X84554360Y37432674D01*
X84657825Y37277827D01*
X84729093Y37105770D01*
X84765425Y36923116D01*
X84765425Y36736884D01*
X84729093Y36554230D01*
X84657825Y36382173D01*
X84554360Y36227326D01*
X84422674Y36095640D01*
X84267827Y35992175D01*
X84095770Y35920907D01*
X83913116Y35884575D01*
X83726884Y35884575D01*
X83544230Y35920907D01*
X83372173Y35992175D01*
X83217326Y36095640D01*
X83085640Y36227326D01*
X82982175Y36382173D01*
X82910907Y36554230D01*
X82874575Y36736884D01*
X82874575Y36923116D01*
X82910907Y37105770D01*
X82982175Y37277827D01*
X83085640Y37432674D01*
X83217326Y37564360D01*
X83372173Y37667825D01*
X83544230Y37739093D01*
X83726884Y37775425D01*
X83913116Y37775425D01*
X84095770Y37739093D01*
G37*
G36*
X86635770Y37739093D02*
G01*
X86807827Y37667825D01*
X86962674Y37564360D01*
X87094360Y37432674D01*
X87197825Y37277827D01*
X87269093Y37105770D01*
X87305425Y36923116D01*
X87305425Y36736884D01*
X87269093Y36554230D01*
X87197825Y36382173D01*
X87094360Y36227326D01*
X86962674Y36095640D01*
X86807827Y35992175D01*
X86635770Y35920907D01*
X86453116Y35884575D01*
X86266884Y35884575D01*
X86084230Y35920907D01*
X85912173Y35992175D01*
X85757326Y36095640D01*
X85625640Y36227326D01*
X85522175Y36382173D01*
X85450907Y36554230D01*
X85414575Y36736884D01*
X85414575Y36923116D01*
X85450907Y37105770D01*
X85522175Y37277827D01*
X85625640Y37432674D01*
X85757326Y37564360D01*
X85912173Y37667825D01*
X86084230Y37739093D01*
X86266884Y37775425D01*
X86453116Y37775425D01*
X86635770Y37739093D01*
G37*
G36*
X89175770Y37739093D02*
G01*
X89347827Y37667825D01*
X89502674Y37564360D01*
X89634360Y37432674D01*
X89737825Y37277827D01*
X89809093Y37105770D01*
X89845425Y36923116D01*
X89845425Y36736884D01*
X89809093Y36554230D01*
X89737825Y36382173D01*
X89634360Y36227326D01*
X89502674Y36095640D01*
X89347827Y35992175D01*
X89175770Y35920907D01*
X88993116Y35884575D01*
X88806884Y35884575D01*
X88624230Y35920907D01*
X88452173Y35992175D01*
X88297326Y36095640D01*
X88165640Y36227326D01*
X88062175Y36382173D01*
X87990907Y36554230D01*
X87954575Y36736884D01*
X87954575Y36923116D01*
X87990907Y37105770D01*
X88062175Y37277827D01*
X88165640Y37432674D01*
X88297326Y37564360D01*
X88452173Y37667825D01*
X88624230Y37739093D01*
X88806884Y37775425D01*
X88993116Y37775425D01*
X89175770Y37739093D01*
G37*
G36*
X91715770Y37739093D02*
G01*
X91887827Y37667825D01*
X92042674Y37564360D01*
X92174360Y37432674D01*
X92277825Y37277827D01*
X92349093Y37105770D01*
X92385425Y36923116D01*
X92385425Y36736884D01*
X92349093Y36554230D01*
X92277825Y36382173D01*
X92174360Y36227326D01*
X92042674Y36095640D01*
X91887827Y35992175D01*
X91715770Y35920907D01*
X91533116Y35884575D01*
X91346884Y35884575D01*
X91164230Y35920907D01*
X90992173Y35992175D01*
X90837326Y36095640D01*
X90705640Y36227326D01*
X90602175Y36382173D01*
X90530907Y36554230D01*
X90494575Y36736884D01*
X90494575Y36923116D01*
X90530907Y37105770D01*
X90602175Y37277827D01*
X90705640Y37432674D01*
X90837326Y37564360D01*
X90992173Y37667825D01*
X91164230Y37739093D01*
X91346884Y37775425D01*
X91533116Y37775425D01*
X91715770Y37739093D01*
G37*
G36*
X45873513Y40425792D02*
G01*
X46112293Y40348207D01*
X46335998Y40234224D01*
X46539117Y40086650D01*
X46716650Y39909117D01*
X46864224Y39705998D01*
X46978207Y39482293D01*
X47055792Y39243513D01*
X47095068Y38995535D01*
X47095068Y38744465D01*
X47055792Y38496487D01*
X46978207Y38257707D01*
X46864224Y38034002D01*
X46716650Y37830883D01*
X46539117Y37653350D01*
X46335998Y37505776D01*
X46112293Y37391793D01*
X45873513Y37314208D01*
X45625535Y37274932D01*
X45374465Y37274932D01*
X45126487Y37314208D01*
X44887707Y37391793D01*
X44664002Y37505776D01*
X44460883Y37653350D01*
X44283350Y37830883D01*
X44135776Y38034002D01*
X44021793Y38257707D01*
X43944208Y38496487D01*
X43904932Y38744465D01*
X43904932Y38995535D01*
X43944208Y39243513D01*
X44021793Y39482293D01*
X44135776Y39705998D01*
X44283350Y39909117D01*
X44460883Y40086650D01*
X44664002Y40234224D01*
X44887707Y40348207D01*
X45126487Y40425792D01*
X45374465Y40465068D01*
X45625535Y40465068D01*
X45873513Y40425792D01*
G37*
G36*
X69173513Y40425792D02*
G01*
X69412293Y40348207D01*
X69635998Y40234224D01*
X69839117Y40086650D01*
X70016650Y39909117D01*
X70164224Y39705998D01*
X70278207Y39482293D01*
X70355792Y39243513D01*
X70395068Y38995535D01*
X70395068Y38744465D01*
X70355792Y38496487D01*
X70278207Y38257707D01*
X70164224Y38034002D01*
X70016650Y37830883D01*
X69839117Y37653350D01*
X69635998Y37505776D01*
X69412293Y37391793D01*
X69173513Y37314208D01*
X68925535Y37274932D01*
X68674465Y37274932D01*
X68426487Y37314208D01*
X68187707Y37391793D01*
X67964002Y37505776D01*
X67760883Y37653350D01*
X67583350Y37830883D01*
X67435776Y38034002D01*
X67321793Y38257707D01*
X67244208Y38496487D01*
X67204932Y38744465D01*
X67204932Y38995535D01*
X67244208Y39243513D01*
X67321793Y39482293D01*
X67435776Y39705998D01*
X67583350Y39909117D01*
X67760883Y40086650D01*
X67964002Y40234224D01*
X68187707Y40348207D01*
X68426487Y40425792D01*
X68674465Y40465068D01*
X68925535Y40465068D01*
X69173513Y40425792D01*
G37*
G36*
X54228268Y40312388D02*
G01*
X54260711Y40290711D01*
X54282388Y40258268D01*
X54290000Y40220000D01*
X54290000Y38520000D01*
X54282388Y38481732D01*
X54260711Y38449289D01*
X54228268Y38427612D01*
X54190000Y38420000D01*
X52490000Y38420000D01*
X52451732Y38427612D01*
X52419289Y38449289D01*
X52397612Y38481732D01*
X52390000Y38520000D01*
X52390000Y40220000D01*
X52397612Y40258268D01*
X52419289Y40290711D01*
X52451732Y40312388D01*
X52490000Y40320000D01*
X54190000Y40320000D01*
X54228268Y40312388D01*
G37*
G36*
X56155770Y40279093D02*
G01*
X56327827Y40207825D01*
X56482674Y40104360D01*
X56614360Y39972674D01*
X56717825Y39817827D01*
X56789093Y39645770D01*
X56825425Y39463116D01*
X56825425Y39276884D01*
X56789093Y39094230D01*
X56717825Y38922173D01*
X56614360Y38767326D01*
X56482674Y38635640D01*
X56327827Y38532175D01*
X56155770Y38460907D01*
X55973116Y38424575D01*
X55786884Y38424575D01*
X55604230Y38460907D01*
X55432173Y38532175D01*
X55277326Y38635640D01*
X55145640Y38767326D01*
X55042175Y38922173D01*
X54970907Y39094230D01*
X54934575Y39276884D01*
X54934575Y39463116D01*
X54970907Y39645770D01*
X55042175Y39817827D01*
X55145640Y39972674D01*
X55277326Y40104360D01*
X55432173Y40207825D01*
X55604230Y40279093D01*
X55786884Y40315425D01*
X55973116Y40315425D01*
X56155770Y40279093D01*
G37*
G36*
X58695770Y40279093D02*
G01*
X58867827Y40207825D01*
X59022674Y40104360D01*
X59154360Y39972674D01*
X59257825Y39817827D01*
X59329093Y39645770D01*
X59365425Y39463116D01*
X59365425Y39276884D01*
X59329093Y39094230D01*
X59257825Y38922173D01*
X59154360Y38767326D01*
X59022674Y38635640D01*
X58867827Y38532175D01*
X58695770Y38460907D01*
X58513116Y38424575D01*
X58326884Y38424575D01*
X58144230Y38460907D01*
X57972173Y38532175D01*
X57817326Y38635640D01*
X57685640Y38767326D01*
X57582175Y38922173D01*
X57510907Y39094230D01*
X57474575Y39276884D01*
X57474575Y39463116D01*
X57510907Y39645770D01*
X57582175Y39817827D01*
X57685640Y39972674D01*
X57817326Y40104360D01*
X57972173Y40207825D01*
X58144230Y40279093D01*
X58326884Y40315425D01*
X58513116Y40315425D01*
X58695770Y40279093D01*
G37*
G36*
X61235770Y40279093D02*
G01*
X61407827Y40207825D01*
X61562674Y40104360D01*
X61694360Y39972674D01*
X61797825Y39817827D01*
X61869093Y39645770D01*
X61905425Y39463116D01*
X61905425Y39276884D01*
X61869093Y39094230D01*
X61797825Y38922173D01*
X61694360Y38767326D01*
X61562674Y38635640D01*
X61407827Y38532175D01*
X61235770Y38460907D01*
X61053116Y38424575D01*
X60866884Y38424575D01*
X60684230Y38460907D01*
X60512173Y38532175D01*
X60357326Y38635640D01*
X60225640Y38767326D01*
X60122175Y38922173D01*
X60050907Y39094230D01*
X60014575Y39276884D01*
X60014575Y39463116D01*
X60050907Y39645770D01*
X60122175Y39817827D01*
X60225640Y39972674D01*
X60357326Y40104360D01*
X60512173Y40207825D01*
X60684230Y40279093D01*
X60866884Y40315425D01*
X61053116Y40315425D01*
X61235770Y40279093D01*
G37*
M02*
