%TF.GenerationSoftware,KiCad,Pcbnew,9.0.6*%
%TF.CreationDate,2025-12-26T01:47:04+08:00*%
%TF.ProjectId,hnr26-controller,686e7232-362d-4636-9f6e-74726f6c6c65,v0.0.6*%
%TF.SameCoordinates,Original*%
%TF.FileFunction,Soldermask,Top*%
%TF.FilePolarity,Negative*%
%FSLAX46Y46*%
G04 Gerber Fmt 4.6, Leading zero omitted, Abs format (unit mm)*
G04 Created by KiCad (PCBNEW 9.0.6) date 2025-12-26 01:47:04*
%MOMM*%
%LPD*%
G01*
G04 APERTURE LIST*
G04 APERTURE END LIST*
G36*
X79001256Y4671246D02*
G01*
X79164257Y4603729D01*
X79310954Y4505709D01*
X79435709Y4380954D01*
X79533729Y4234257D01*
X79601246Y4071256D01*
X79635666Y3898215D01*
X79635666Y3721785D01*
X79601246Y3548744D01*
X79533729Y3385743D01*
X79435709Y3239046D01*
X79310954Y3114291D01*
X79164257Y3016271D01*
X79001256Y2948754D01*
X78828215Y2914334D01*
X78651785Y2914334D01*
X78478744Y2948754D01*
X78315743Y3016271D01*
X78169046Y3114291D01*
X78044291Y3239046D01*
X77946271Y3385743D01*
X77878754Y3548744D01*
X77844334Y3721785D01*
X77844334Y3898215D01*
X77878754Y4071256D01*
X77946271Y4234257D01*
X78044291Y4380954D01*
X78169046Y4505709D01*
X78315743Y4603729D01*
X78478744Y4671246D01*
X78651785Y4705666D01*
X78828215Y4705666D01*
X79001256Y4671246D01*
G37*
G36*
X84081256Y4671246D02*
G01*
X84244257Y4603729D01*
X84390954Y4505709D01*
X84515709Y4380954D01*
X84613729Y4234257D01*
X84681246Y4071256D01*
X84715666Y3898215D01*
X84715666Y3721785D01*
X84681246Y3548744D01*
X84613729Y3385743D01*
X84515709Y3239046D01*
X84390954Y3114291D01*
X84244257Y3016271D01*
X84081256Y2948754D01*
X83908215Y2914334D01*
X83731785Y2914334D01*
X83558744Y2948754D01*
X83395743Y3016271D01*
X83249046Y3114291D01*
X83124291Y3239046D01*
X83026271Y3385743D01*
X82958754Y3548744D01*
X82924334Y3721785D01*
X82924334Y3898215D01*
X82958754Y4071256D01*
X83026271Y4234257D01*
X83124291Y4380954D01*
X83249046Y4505709D01*
X83395743Y4603729D01*
X83558744Y4671246D01*
X83731785Y4705666D01*
X83908215Y4705666D01*
X84081256Y4671246D01*
G37*
G36*
X45266790Y5169607D02*
G01*
X45430952Y5116267D01*
X45584748Y5037904D01*
X45724393Y4936447D01*
X45846447Y4814393D01*
X45947904Y4674748D01*
X46026267Y4520952D01*
X46079607Y4356790D01*
X46106609Y4186305D01*
X46106609Y4013695D01*
X46079607Y3843210D01*
X46026267Y3679048D01*
X45947904Y3525252D01*
X45846447Y3385607D01*
X45724393Y3263553D01*
X45584748Y3162096D01*
X45430952Y3083733D01*
X45266790Y3030393D01*
X45096305Y3003391D01*
X44923695Y3003391D01*
X44753210Y3030393D01*
X44589048Y3083733D01*
X44435252Y3162096D01*
X44295607Y3263553D01*
X44173553Y3385607D01*
X44072096Y3525252D01*
X43993733Y3679048D01*
X43940393Y3843210D01*
X43913391Y4013695D01*
X43913391Y4186305D01*
X43940393Y4356790D01*
X43993733Y4520952D01*
X44072096Y4674748D01*
X44173553Y4814393D01*
X44295607Y4936447D01*
X44435252Y5037904D01*
X44589048Y5116267D01*
X44753210Y5169607D01*
X44923695Y5196609D01*
X45096305Y5196609D01*
X45266790Y5169607D01*
G37*
G36*
X51766790Y5169607D02*
G01*
X51930952Y5116267D01*
X52084748Y5037904D01*
X52224393Y4936447D01*
X52346447Y4814393D01*
X52447904Y4674748D01*
X52526267Y4520952D01*
X52579607Y4356790D01*
X52606609Y4186305D01*
X52606609Y4013695D01*
X52579607Y3843210D01*
X52526267Y3679048D01*
X52447904Y3525252D01*
X52346447Y3385607D01*
X52224393Y3263553D01*
X52084748Y3162096D01*
X51930952Y3083733D01*
X51766790Y3030393D01*
X51596305Y3003391D01*
X51423695Y3003391D01*
X51253210Y3030393D01*
X51089048Y3083733D01*
X50935252Y3162096D01*
X50795607Y3263553D01*
X50673553Y3385607D01*
X50572096Y3525252D01*
X50493733Y3679048D01*
X50440393Y3843210D01*
X50413391Y4013695D01*
X50413391Y4186305D01*
X50440393Y4356790D01*
X50493733Y4520952D01*
X50572096Y4674748D01*
X50673553Y4814393D01*
X50795607Y4936447D01*
X50935252Y5037904D01*
X51089048Y5116267D01*
X51253210Y5169607D01*
X51423695Y5196609D01*
X51596305Y5196609D01*
X51766790Y5169607D01*
G37*
G36*
X55426790Y5169607D02*
G01*
X55590952Y5116267D01*
X55744748Y5037904D01*
X55884393Y4936447D01*
X56006447Y4814393D01*
X56107904Y4674748D01*
X56186267Y4520952D01*
X56239607Y4356790D01*
X56266609Y4186305D01*
X56266609Y4013695D01*
X56239607Y3843210D01*
X56186267Y3679048D01*
X56107904Y3525252D01*
X56006447Y3385607D01*
X55884393Y3263553D01*
X55744748Y3162096D01*
X55590952Y3083733D01*
X55426790Y3030393D01*
X55256305Y3003391D01*
X55083695Y3003391D01*
X54913210Y3030393D01*
X54749048Y3083733D01*
X54595252Y3162096D01*
X54455607Y3263553D01*
X54333553Y3385607D01*
X54232096Y3525252D01*
X54153733Y3679048D01*
X54100393Y3843210D01*
X54073391Y4013695D01*
X54073391Y4186305D01*
X54100393Y4356790D01*
X54153733Y4520952D01*
X54232096Y4674748D01*
X54333553Y4814393D01*
X54455607Y4936447D01*
X54595252Y5037904D01*
X54749048Y5116267D01*
X54913210Y5169607D01*
X55083695Y5196609D01*
X55256305Y5196609D01*
X55426790Y5169607D01*
G37*
G36*
X61926790Y5169607D02*
G01*
X62090952Y5116267D01*
X62244748Y5037904D01*
X62384393Y4936447D01*
X62506447Y4814393D01*
X62607904Y4674748D01*
X62686267Y4520952D01*
X62739607Y4356790D01*
X62766609Y4186305D01*
X62766609Y4013695D01*
X62739607Y3843210D01*
X62686267Y3679048D01*
X62607904Y3525252D01*
X62506447Y3385607D01*
X62384393Y3263553D01*
X62244748Y3162096D01*
X62090952Y3083733D01*
X61926790Y3030393D01*
X61756305Y3003391D01*
X61583695Y3003391D01*
X61413210Y3030393D01*
X61249048Y3083733D01*
X61095252Y3162096D01*
X60955607Y3263553D01*
X60833553Y3385607D01*
X60732096Y3525252D01*
X60653733Y3679048D01*
X60600393Y3843210D01*
X60573391Y4013695D01*
X60573391Y4186305D01*
X60600393Y4356790D01*
X60653733Y4520952D01*
X60732096Y4674748D01*
X60833553Y4814393D01*
X60955607Y4936447D01*
X61095252Y5037904D01*
X61249048Y5116267D01*
X61413210Y5169607D01*
X61583695Y5196609D01*
X61756305Y5196609D01*
X61926790Y5169607D01*
G37*
G36*
X65586790Y5169607D02*
G01*
X65750952Y5116267D01*
X65904748Y5037904D01*
X66044393Y4936447D01*
X66166447Y4814393D01*
X66267904Y4674748D01*
X66346267Y4520952D01*
X66399607Y4356790D01*
X66426609Y4186305D01*
X66426609Y4013695D01*
X66399607Y3843210D01*
X66346267Y3679048D01*
X66267904Y3525252D01*
X66166447Y3385607D01*
X66044393Y3263553D01*
X65904748Y3162096D01*
X65750952Y3083733D01*
X65586790Y3030393D01*
X65416305Y3003391D01*
X65243695Y3003391D01*
X65073210Y3030393D01*
X64909048Y3083733D01*
X64755252Y3162096D01*
X64615607Y3263553D01*
X64493553Y3385607D01*
X64392096Y3525252D01*
X64313733Y3679048D01*
X64260393Y3843210D01*
X64233391Y4013695D01*
X64233391Y4186305D01*
X64260393Y4356790D01*
X64313733Y4520952D01*
X64392096Y4674748D01*
X64493553Y4814393D01*
X64615607Y4936447D01*
X64755252Y5037904D01*
X64909048Y5116267D01*
X65073210Y5169607D01*
X65243695Y5196609D01*
X65416305Y5196609D01*
X65586790Y5169607D01*
G37*
G36*
X72086790Y5169607D02*
G01*
X72250952Y5116267D01*
X72404748Y5037904D01*
X72544393Y4936447D01*
X72666447Y4814393D01*
X72767904Y4674748D01*
X72846267Y4520952D01*
X72899607Y4356790D01*
X72926609Y4186305D01*
X72926609Y4013695D01*
X72899607Y3843210D01*
X72846267Y3679048D01*
X72767904Y3525252D01*
X72666447Y3385607D01*
X72544393Y3263553D01*
X72404748Y3162096D01*
X72250952Y3083733D01*
X72086790Y3030393D01*
X71916305Y3003391D01*
X71743695Y3003391D01*
X71573210Y3030393D01*
X71409048Y3083733D01*
X71255252Y3162096D01*
X71115607Y3263553D01*
X70993553Y3385607D01*
X70892096Y3525252D01*
X70813733Y3679048D01*
X70760393Y3843210D01*
X70733391Y4013695D01*
X70733391Y4186305D01*
X70760393Y4356790D01*
X70813733Y4520952D01*
X70892096Y4674748D01*
X70993553Y4814393D01*
X71115607Y4936447D01*
X71255252Y5037904D01*
X71409048Y5116267D01*
X71573210Y5169607D01*
X71743695Y5196609D01*
X71916305Y5196609D01*
X72086790Y5169607D01*
G37*
G36*
X8246454Y10676499D02*
G01*
X8544377Y10608500D01*
X8832812Y10507572D01*
X9108134Y10374984D01*
X9366879Y10212403D01*
X9605794Y10021875D01*
X9821875Y9805794D01*
X10012403Y9566879D01*
X10174984Y9308134D01*
X10307572Y9032812D01*
X10408500Y8744377D01*
X10476499Y8446454D01*
X10510713Y8142792D01*
X10510713Y7837208D01*
X10476499Y7533546D01*
X10408500Y7235623D01*
X10307572Y6947188D01*
X10174984Y6671866D01*
X10012403Y6413121D01*
X9821875Y6174206D01*
X9605794Y5958125D01*
X9366879Y5767597D01*
X9108134Y5605016D01*
X8832812Y5472428D01*
X8544377Y5371500D01*
X8246454Y5303501D01*
X7942792Y5269287D01*
X7637208Y5269287D01*
X7333546Y5303501D01*
X7035623Y5371500D01*
X6747188Y5472428D01*
X6471866Y5605016D01*
X6213121Y5767597D01*
X5974206Y5958125D01*
X5758125Y6174206D01*
X5567597Y6413121D01*
X5405016Y6671866D01*
X5272428Y6947188D01*
X5171500Y7235623D01*
X5103501Y7533546D01*
X5069287Y7837208D01*
X5069287Y8142792D01*
X5103501Y8446454D01*
X5171500Y8744377D01*
X5272428Y9032812D01*
X5405016Y9308134D01*
X5567597Y9566879D01*
X5758125Y9805794D01*
X5974206Y10021875D01*
X6213121Y10212403D01*
X6471866Y10374984D01*
X6747188Y10507572D01*
X7035623Y10608500D01*
X7333546Y10676499D01*
X7637208Y10710713D01*
X7942792Y10710713D01*
X8246454Y10676499D01*
G37*
G36*
X45266790Y9669607D02*
G01*
X45430952Y9616267D01*
X45584748Y9537904D01*
X45724393Y9436447D01*
X45846447Y9314393D01*
X45947904Y9174748D01*
X46026267Y9020952D01*
X46079607Y8856790D01*
X46106609Y8686305D01*
X46106609Y8513695D01*
X46079607Y8343210D01*
X46026267Y8179048D01*
X45947904Y8025252D01*
X45846447Y7885607D01*
X45724393Y7763553D01*
X45584748Y7662096D01*
X45430952Y7583733D01*
X45266790Y7530393D01*
X45096305Y7503391D01*
X44923695Y7503391D01*
X44753210Y7530393D01*
X44589048Y7583733D01*
X44435252Y7662096D01*
X44295607Y7763553D01*
X44173553Y7885607D01*
X44072096Y8025252D01*
X43993733Y8179048D01*
X43940393Y8343210D01*
X43913391Y8513695D01*
X43913391Y8686305D01*
X43940393Y8856790D01*
X43993733Y9020952D01*
X44072096Y9174748D01*
X44173553Y9314393D01*
X44295607Y9436447D01*
X44435252Y9537904D01*
X44589048Y9616267D01*
X44753210Y9669607D01*
X44923695Y9696609D01*
X45096305Y9696609D01*
X45266790Y9669607D01*
G37*
G36*
X51766790Y9669607D02*
G01*
X51930952Y9616267D01*
X52084748Y9537904D01*
X52224393Y9436447D01*
X52346447Y9314393D01*
X52447904Y9174748D01*
X52526267Y9020952D01*
X52579607Y8856790D01*
X52606609Y8686305D01*
X52606609Y8513695D01*
X52579607Y8343210D01*
X52526267Y8179048D01*
X52447904Y8025252D01*
X52346447Y7885607D01*
X52224393Y7763553D01*
X52084748Y7662096D01*
X51930952Y7583733D01*
X51766790Y7530393D01*
X51596305Y7503391D01*
X51423695Y7503391D01*
X51253210Y7530393D01*
X51089048Y7583733D01*
X50935252Y7662096D01*
X50795607Y7763553D01*
X50673553Y7885607D01*
X50572096Y8025252D01*
X50493733Y8179048D01*
X50440393Y8343210D01*
X50413391Y8513695D01*
X50413391Y8686305D01*
X50440393Y8856790D01*
X50493733Y9020952D01*
X50572096Y9174748D01*
X50673553Y9314393D01*
X50795607Y9436447D01*
X50935252Y9537904D01*
X51089048Y9616267D01*
X51253210Y9669607D01*
X51423695Y9696609D01*
X51596305Y9696609D01*
X51766790Y9669607D01*
G37*
G36*
X55426790Y9669607D02*
G01*
X55590952Y9616267D01*
X55744748Y9537904D01*
X55884393Y9436447D01*
X56006447Y9314393D01*
X56107904Y9174748D01*
X56186267Y9020952D01*
X56239607Y8856790D01*
X56266609Y8686305D01*
X56266609Y8513695D01*
X56239607Y8343210D01*
X56186267Y8179048D01*
X56107904Y8025252D01*
X56006447Y7885607D01*
X55884393Y7763553D01*
X55744748Y7662096D01*
X55590952Y7583733D01*
X55426790Y7530393D01*
X55256305Y7503391D01*
X55083695Y7503391D01*
X54913210Y7530393D01*
X54749048Y7583733D01*
X54595252Y7662096D01*
X54455607Y7763553D01*
X54333553Y7885607D01*
X54232096Y8025252D01*
X54153733Y8179048D01*
X54100393Y8343210D01*
X54073391Y8513695D01*
X54073391Y8686305D01*
X54100393Y8856790D01*
X54153733Y9020952D01*
X54232096Y9174748D01*
X54333553Y9314393D01*
X54455607Y9436447D01*
X54595252Y9537904D01*
X54749048Y9616267D01*
X54913210Y9669607D01*
X55083695Y9696609D01*
X55256305Y9696609D01*
X55426790Y9669607D01*
G37*
G36*
X61926790Y9669607D02*
G01*
X62090952Y9616267D01*
X62244748Y9537904D01*
X62384393Y9436447D01*
X62506447Y9314393D01*
X62607904Y9174748D01*
X62686267Y9020952D01*
X62739607Y8856790D01*
X62766609Y8686305D01*
X62766609Y8513695D01*
X62739607Y8343210D01*
X62686267Y8179048D01*
X62607904Y8025252D01*
X62506447Y7885607D01*
X62384393Y7763553D01*
X62244748Y7662096D01*
X62090952Y7583733D01*
X61926790Y7530393D01*
X61756305Y7503391D01*
X61583695Y7503391D01*
X61413210Y7530393D01*
X61249048Y7583733D01*
X61095252Y7662096D01*
X60955607Y7763553D01*
X60833553Y7885607D01*
X60732096Y8025252D01*
X60653733Y8179048D01*
X60600393Y8343210D01*
X60573391Y8513695D01*
X60573391Y8686305D01*
X60600393Y8856790D01*
X60653733Y9020952D01*
X60732096Y9174748D01*
X60833553Y9314393D01*
X60955607Y9436447D01*
X61095252Y9537904D01*
X61249048Y9616267D01*
X61413210Y9669607D01*
X61583695Y9696609D01*
X61756305Y9696609D01*
X61926790Y9669607D01*
G37*
G36*
X65586790Y9669607D02*
G01*
X65750952Y9616267D01*
X65904748Y9537904D01*
X66044393Y9436447D01*
X66166447Y9314393D01*
X66267904Y9174748D01*
X66346267Y9020952D01*
X66399607Y8856790D01*
X66426609Y8686305D01*
X66426609Y8513695D01*
X66399607Y8343210D01*
X66346267Y8179048D01*
X66267904Y8025252D01*
X66166447Y7885607D01*
X66044393Y7763553D01*
X65904748Y7662096D01*
X65750952Y7583733D01*
X65586790Y7530393D01*
X65416305Y7503391D01*
X65243695Y7503391D01*
X65073210Y7530393D01*
X64909048Y7583733D01*
X64755252Y7662096D01*
X64615607Y7763553D01*
X64493553Y7885607D01*
X64392096Y8025252D01*
X64313733Y8179048D01*
X64260393Y8343210D01*
X64233391Y8513695D01*
X64233391Y8686305D01*
X64260393Y8856790D01*
X64313733Y9020952D01*
X64392096Y9174748D01*
X64493553Y9314393D01*
X64615607Y9436447D01*
X64755252Y9537904D01*
X64909048Y9616267D01*
X65073210Y9669607D01*
X65243695Y9696609D01*
X65416305Y9696609D01*
X65586790Y9669607D01*
G37*
G36*
X72086790Y9669607D02*
G01*
X72250952Y9616267D01*
X72404748Y9537904D01*
X72544393Y9436447D01*
X72666447Y9314393D01*
X72767904Y9174748D01*
X72846267Y9020952D01*
X72899607Y8856790D01*
X72926609Y8686305D01*
X72926609Y8513695D01*
X72899607Y8343210D01*
X72846267Y8179048D01*
X72767904Y8025252D01*
X72666447Y7885607D01*
X72544393Y7763553D01*
X72404748Y7662096D01*
X72250952Y7583733D01*
X72086790Y7530393D01*
X71916305Y7503391D01*
X71743695Y7503391D01*
X71573210Y7530393D01*
X71409048Y7583733D01*
X71255252Y7662096D01*
X71115607Y7763553D01*
X70993553Y7885607D01*
X70892096Y8025252D01*
X70813733Y8179048D01*
X70760393Y8343210D01*
X70733391Y8513695D01*
X70733391Y8686305D01*
X70760393Y8856790D01*
X70813733Y9020952D01*
X70892096Y9174748D01*
X70993553Y9314393D01*
X71115607Y9436447D01*
X71255252Y9537904D01*
X71409048Y9616267D01*
X71573210Y9669607D01*
X71743695Y9696609D01*
X71916305Y9696609D01*
X72086790Y9669607D01*
G37*
G36*
X89384211Y15964282D02*
G01*
X89701835Y15901103D01*
X90011737Y15807095D01*
X90310932Y15683165D01*
X90596539Y15530504D01*
X90865808Y15350585D01*
X91116145Y15145139D01*
X91345139Y14916145D01*
X91550585Y14665808D01*
X91730504Y14396539D01*
X91883165Y14110932D01*
X92007095Y13811737D01*
X92101103Y13501835D01*
X92164282Y13184211D01*
X92196025Y12861923D01*
X92196025Y12538077D01*
X92164282Y12215789D01*
X92101103Y11898165D01*
X92007095Y11588263D01*
X91883165Y11289068D01*
X91730504Y11003461D01*
X91550585Y10734192D01*
X91345139Y10483855D01*
X91116145Y10254861D01*
X90865808Y10049415D01*
X90596539Y9869496D01*
X90310932Y9716835D01*
X90011737Y9592905D01*
X89701835Y9498897D01*
X89384211Y9435718D01*
X89061923Y9403975D01*
X88738077Y9403975D01*
X88415789Y9435718D01*
X88098165Y9498897D01*
X87788263Y9592905D01*
X87489068Y9716835D01*
X87203461Y9869496D01*
X86934192Y10049415D01*
X86683855Y10254861D01*
X86454861Y10483855D01*
X86249415Y10734192D01*
X86069496Y11003461D01*
X85916835Y11289068D01*
X85792905Y11588263D01*
X85698897Y11898165D01*
X85635718Y12215789D01*
X85603975Y12538077D01*
X85603975Y12861923D01*
X85635718Y13184211D01*
X85698897Y13501835D01*
X85792905Y13811737D01*
X85916835Y14110932D01*
X86069496Y14396539D01*
X86249415Y14665808D01*
X86454861Y14916145D01*
X86683855Y15145139D01*
X86934192Y15350585D01*
X87203461Y15530504D01*
X87489068Y15683165D01*
X87788263Y15807095D01*
X88098165Y15901103D01*
X88415789Y15964282D01*
X88738077Y15996025D01*
X89061923Y15996025D01*
X89384211Y15964282D01*
G37*
G36*
X13728858Y10684867D02*
G01*
X13738316Y10684867D01*
X13765563Y10677567D01*
X13834099Y10663934D01*
X13866448Y10650535D01*
X13889610Y10644328D01*
X13910377Y10632338D01*
X13942722Y10618940D01*
X14000816Y10580123D01*
X14025257Y10566012D01*
X14031946Y10559323D01*
X14040481Y10553620D01*
X14123619Y10470482D01*
X14129321Y10461948D01*
X14136012Y10455257D01*
X14150124Y10430814D01*
X14188939Y10372723D01*
X14202335Y10340382D01*
X14214328Y10319610D01*
X14220535Y10296445D01*
X14233933Y10264100D01*
X14247564Y10195569D01*
X14254867Y10168316D01*
X14254867Y10163382D01*
X14335133Y10163382D01*
X14335133Y10168316D01*
X14342434Y10195564D01*
X14356066Y10264100D01*
X14369466Y10296452D01*
X14375672Y10319610D01*
X14387660Y10340376D01*
X14401060Y10372723D01*
X14439881Y10430825D01*
X14453988Y10455257D01*
X14460675Y10461945D01*
X14466380Y10470482D01*
X14549518Y10553620D01*
X14558055Y10559325D01*
X14564743Y10566012D01*
X14589175Y10580119D01*
X14647277Y10618940D01*
X14679624Y10632340D01*
X14700390Y10644328D01*
X14723548Y10650534D01*
X14755900Y10663934D01*
X14824437Y10677567D01*
X14851684Y10684867D01*
X14861142Y10684867D01*
X14871212Y10686870D01*
X14988788Y10686870D01*
X14998858Y10684867D01*
X15008316Y10684867D01*
X15035563Y10677567D01*
X15104099Y10663934D01*
X15136448Y10650535D01*
X15159610Y10644328D01*
X15180377Y10632338D01*
X15212722Y10618940D01*
X15270816Y10580123D01*
X15295257Y10566012D01*
X15301946Y10559323D01*
X15310481Y10553620D01*
X15393619Y10470482D01*
X15399321Y10461948D01*
X15406012Y10455257D01*
X15420124Y10430814D01*
X15458939Y10372723D01*
X15472335Y10340382D01*
X15484328Y10319610D01*
X15490535Y10296445D01*
X15503933Y10264100D01*
X15517564Y10195569D01*
X15524867Y10168316D01*
X15524867Y10163382D01*
X15605133Y10163382D01*
X15605133Y10168316D01*
X15612434Y10195564D01*
X15626066Y10264100D01*
X15639466Y10296452D01*
X15645672Y10319610D01*
X15657660Y10340376D01*
X15671060Y10372723D01*
X15709881Y10430825D01*
X15723988Y10455257D01*
X15730675Y10461945D01*
X15736380Y10470482D01*
X15819518Y10553620D01*
X15828055Y10559325D01*
X15834743Y10566012D01*
X15859175Y10580119D01*
X15917277Y10618940D01*
X15949624Y10632340D01*
X15970390Y10644328D01*
X15993548Y10650534D01*
X16025900Y10663934D01*
X16094437Y10677567D01*
X16121684Y10684867D01*
X16131142Y10684867D01*
X16141212Y10686870D01*
X16258788Y10686870D01*
X16268858Y10684867D01*
X16278316Y10684867D01*
X16305563Y10677567D01*
X16374099Y10663934D01*
X16406448Y10650535D01*
X16429610Y10644328D01*
X16450377Y10632338D01*
X16482722Y10618940D01*
X16540816Y10580123D01*
X16565257Y10566012D01*
X16571946Y10559323D01*
X16580481Y10553620D01*
X16663619Y10470482D01*
X16669321Y10461948D01*
X16676012Y10455257D01*
X16690124Y10430814D01*
X16728939Y10372723D01*
X16742335Y10340382D01*
X16754328Y10319610D01*
X16760535Y10296445D01*
X16773933Y10264100D01*
X16787564Y10195569D01*
X16794867Y10168316D01*
X16794867Y10163382D01*
X16875133Y10163382D01*
X16875133Y10168316D01*
X16882434Y10195564D01*
X16896066Y10264100D01*
X16909466Y10296452D01*
X16915672Y10319610D01*
X16927660Y10340376D01*
X16941060Y10372723D01*
X16979881Y10430825D01*
X16993988Y10455257D01*
X17000675Y10461945D01*
X17006380Y10470482D01*
X17089518Y10553620D01*
X17098055Y10559325D01*
X17104743Y10566012D01*
X17129175Y10580119D01*
X17187277Y10618940D01*
X17219624Y10632340D01*
X17240390Y10644328D01*
X17263548Y10650534D01*
X17295900Y10663934D01*
X17364437Y10677567D01*
X17391684Y10684867D01*
X17401142Y10684867D01*
X17411212Y10686870D01*
X17528788Y10686870D01*
X17538858Y10684867D01*
X17548316Y10684867D01*
X17575563Y10677567D01*
X17644099Y10663934D01*
X17676448Y10650535D01*
X17699610Y10644328D01*
X17720377Y10632338D01*
X17752722Y10618940D01*
X17810816Y10580123D01*
X17835257Y10566012D01*
X17841946Y10559323D01*
X17850481Y10553620D01*
X17933619Y10470482D01*
X17939321Y10461948D01*
X17946012Y10455257D01*
X17960124Y10430814D01*
X17998939Y10372723D01*
X18012335Y10340382D01*
X18024328Y10319610D01*
X18030535Y10296445D01*
X18043933Y10264100D01*
X18057564Y10195569D01*
X18064867Y10168316D01*
X18064867Y10163382D01*
X18145133Y10163382D01*
X18145133Y10168316D01*
X18152434Y10195564D01*
X18166066Y10264100D01*
X18179466Y10296452D01*
X18185672Y10319610D01*
X18197660Y10340376D01*
X18211060Y10372723D01*
X18249881Y10430825D01*
X18263988Y10455257D01*
X18270675Y10461945D01*
X18276380Y10470482D01*
X18359518Y10553620D01*
X18368055Y10559325D01*
X18374743Y10566012D01*
X18399175Y10580119D01*
X18457277Y10618940D01*
X18489624Y10632340D01*
X18510390Y10644328D01*
X18533548Y10650534D01*
X18565900Y10663934D01*
X18634437Y10677567D01*
X18661684Y10684867D01*
X18671142Y10684867D01*
X18681212Y10686870D01*
X18798788Y10686870D01*
X18808858Y10684867D01*
X18818316Y10684867D01*
X18845563Y10677567D01*
X18914099Y10663934D01*
X18946448Y10650535D01*
X18969610Y10644328D01*
X18990377Y10632338D01*
X19022722Y10618940D01*
X19080816Y10580123D01*
X19105257Y10566012D01*
X19111946Y10559323D01*
X19120481Y10553620D01*
X19203619Y10470482D01*
X19209321Y10461948D01*
X19216012Y10455257D01*
X19230124Y10430814D01*
X19268939Y10372723D01*
X19282335Y10340382D01*
X19294328Y10319610D01*
X19300535Y10296445D01*
X19313933Y10264100D01*
X19327564Y10195569D01*
X19334867Y10168316D01*
X19334867Y10163382D01*
X19415133Y10163382D01*
X19415133Y10168316D01*
X19422434Y10195564D01*
X19436066Y10264100D01*
X19449466Y10296452D01*
X19455672Y10319610D01*
X19467660Y10340376D01*
X19481060Y10372723D01*
X19519881Y10430825D01*
X19533988Y10455257D01*
X19540675Y10461945D01*
X19546380Y10470482D01*
X19629518Y10553620D01*
X19638055Y10559325D01*
X19644743Y10566012D01*
X19669175Y10580119D01*
X19727277Y10618940D01*
X19759624Y10632340D01*
X19780390Y10644328D01*
X19803548Y10650534D01*
X19835900Y10663934D01*
X19904437Y10677567D01*
X19931684Y10684867D01*
X19941142Y10684867D01*
X19951212Y10686870D01*
X20068788Y10686870D01*
X20078858Y10684867D01*
X20088316Y10684867D01*
X20115563Y10677567D01*
X20184099Y10663934D01*
X20216448Y10650535D01*
X20239610Y10644328D01*
X20260377Y10632338D01*
X20292722Y10618940D01*
X20350816Y10580123D01*
X20375257Y10566012D01*
X20381946Y10559323D01*
X20390481Y10553620D01*
X20473619Y10470482D01*
X20479321Y10461948D01*
X20486012Y10455257D01*
X20500124Y10430814D01*
X20538939Y10372723D01*
X20552335Y10340382D01*
X20564328Y10319610D01*
X20570535Y10296445D01*
X20583933Y10264100D01*
X20597564Y10195569D01*
X20604867Y10168316D01*
X20604867Y10163382D01*
X20685133Y10163382D01*
X20685133Y10168316D01*
X20692434Y10195564D01*
X20706066Y10264100D01*
X20719466Y10296452D01*
X20725672Y10319610D01*
X20737660Y10340376D01*
X20751060Y10372723D01*
X20789881Y10430825D01*
X20803988Y10455257D01*
X20810675Y10461945D01*
X20816380Y10470482D01*
X20899518Y10553620D01*
X20908055Y10559325D01*
X20914743Y10566012D01*
X20939175Y10580119D01*
X20997277Y10618940D01*
X21029624Y10632340D01*
X21050390Y10644328D01*
X21073548Y10650534D01*
X21105900Y10663934D01*
X21174437Y10677567D01*
X21201684Y10684867D01*
X21211142Y10684867D01*
X21221212Y10686870D01*
X21338788Y10686870D01*
X21348858Y10684867D01*
X21358316Y10684867D01*
X21385563Y10677567D01*
X21454099Y10663934D01*
X21486448Y10650535D01*
X21509610Y10644328D01*
X21530377Y10632338D01*
X21562722Y10618940D01*
X21620816Y10580123D01*
X21645257Y10566012D01*
X21651946Y10559323D01*
X21660481Y10553620D01*
X21743619Y10470482D01*
X21749321Y10461948D01*
X21756012Y10455257D01*
X21770124Y10430814D01*
X21808939Y10372723D01*
X21822335Y10340382D01*
X21834328Y10319610D01*
X21840535Y10296445D01*
X21853933Y10264100D01*
X21867564Y10195569D01*
X21874867Y10168316D01*
X21874867Y10163382D01*
X21955133Y10163382D01*
X21955133Y10168316D01*
X21962434Y10195564D01*
X21976066Y10264100D01*
X21989466Y10296452D01*
X21995672Y10319610D01*
X22007660Y10340376D01*
X22021060Y10372723D01*
X22059881Y10430825D01*
X22073988Y10455257D01*
X22080675Y10461945D01*
X22086380Y10470482D01*
X22169518Y10553620D01*
X22178055Y10559325D01*
X22184743Y10566012D01*
X22209175Y10580119D01*
X22267277Y10618940D01*
X22299624Y10632340D01*
X22320390Y10644328D01*
X22343548Y10650534D01*
X22375900Y10663934D01*
X22444437Y10677567D01*
X22471684Y10684867D01*
X22481142Y10684867D01*
X22491212Y10686870D01*
X22608788Y10686870D01*
X22618858Y10684867D01*
X22628316Y10684867D01*
X22655563Y10677567D01*
X22724099Y10663934D01*
X22756448Y10650535D01*
X22779610Y10644328D01*
X22800377Y10632338D01*
X22832722Y10618940D01*
X22890816Y10580123D01*
X22915257Y10566012D01*
X22921946Y10559323D01*
X22930481Y10553620D01*
X23013619Y10470482D01*
X23019321Y10461948D01*
X23026012Y10455257D01*
X23040124Y10430814D01*
X23078939Y10372723D01*
X23092335Y10340382D01*
X23104328Y10319610D01*
X23110535Y10296445D01*
X23123933Y10264100D01*
X23137564Y10195569D01*
X23144867Y10168316D01*
X23144867Y10163382D01*
X23225133Y10163382D01*
X23225133Y10168316D01*
X23232434Y10195564D01*
X23246066Y10264100D01*
X23259466Y10296452D01*
X23265672Y10319610D01*
X23277660Y10340376D01*
X23291060Y10372723D01*
X23329881Y10430825D01*
X23343988Y10455257D01*
X23350675Y10461945D01*
X23356380Y10470482D01*
X23439518Y10553620D01*
X23448055Y10559325D01*
X23454743Y10566012D01*
X23479175Y10580119D01*
X23537277Y10618940D01*
X23569624Y10632340D01*
X23590390Y10644328D01*
X23613548Y10650534D01*
X23645900Y10663934D01*
X23714437Y10677567D01*
X23741684Y10684867D01*
X23751142Y10684867D01*
X23761212Y10686870D01*
X23878788Y10686870D01*
X23888858Y10684867D01*
X23898316Y10684867D01*
X23925563Y10677567D01*
X23994099Y10663934D01*
X24026448Y10650535D01*
X24049610Y10644328D01*
X24070377Y10632338D01*
X24102722Y10618940D01*
X24160816Y10580123D01*
X24185257Y10566012D01*
X24191946Y10559323D01*
X24200481Y10553620D01*
X24283619Y10470482D01*
X24289321Y10461948D01*
X24296012Y10455257D01*
X24310124Y10430814D01*
X24348939Y10372723D01*
X24362335Y10340382D01*
X24374328Y10319610D01*
X24380535Y10296445D01*
X24393933Y10264100D01*
X24407564Y10195569D01*
X24414867Y10168316D01*
X24414867Y10163382D01*
X24495133Y10163382D01*
X24495133Y10168316D01*
X24502434Y10195564D01*
X24516066Y10264100D01*
X24529466Y10296452D01*
X24535672Y10319610D01*
X24547660Y10340376D01*
X24561060Y10372723D01*
X24599881Y10430825D01*
X24613988Y10455257D01*
X24620675Y10461945D01*
X24626380Y10470482D01*
X24709518Y10553620D01*
X24718055Y10559325D01*
X24724743Y10566012D01*
X24749175Y10580119D01*
X24807277Y10618940D01*
X24839624Y10632340D01*
X24860390Y10644328D01*
X24883548Y10650534D01*
X24915900Y10663934D01*
X24984437Y10677567D01*
X25011684Y10684867D01*
X25021142Y10684867D01*
X25031212Y10686870D01*
X25148788Y10686870D01*
X25158858Y10684867D01*
X25168316Y10684867D01*
X25195563Y10677567D01*
X25264099Y10663934D01*
X25296448Y10650535D01*
X25319610Y10644328D01*
X25340377Y10632338D01*
X25372722Y10618940D01*
X25430816Y10580123D01*
X25455257Y10566012D01*
X25461946Y10559323D01*
X25470481Y10553620D01*
X25553619Y10470482D01*
X25559321Y10461948D01*
X25566012Y10455257D01*
X25580124Y10430814D01*
X25618939Y10372723D01*
X25632335Y10340382D01*
X25644328Y10319610D01*
X25650535Y10296445D01*
X25663933Y10264100D01*
X25677565Y10195567D01*
X25684867Y10168316D01*
X25684867Y10158859D01*
X25686870Y10148789D01*
X25686870Y10031212D01*
X25684867Y10021143D01*
X25684867Y10011684D01*
X25677564Y9984431D01*
X25663933Y9915901D01*
X25650535Y9883559D01*
X25644328Y9860390D01*
X25632334Y9839617D01*
X25618939Y9807278D01*
X25580128Y9749195D01*
X25566012Y9724743D01*
X25559319Y9718051D01*
X25553619Y9709519D01*
X25470481Y9626381D01*
X25461949Y9620681D01*
X25455257Y9613988D01*
X25430805Y9599872D01*
X25372722Y9561061D01*
X25340383Y9547666D01*
X25319610Y9535672D01*
X25296441Y9529465D01*
X25264099Y9516067D01*
X25195569Y9502436D01*
X25168316Y9495133D01*
X25158858Y9495133D01*
X25148788Y9493130D01*
X25031212Y9493130D01*
X25021142Y9495133D01*
X25011684Y9495133D01*
X24984432Y9502436D01*
X24915900Y9516067D01*
X24883555Y9529465D01*
X24860390Y9535672D01*
X24839618Y9547665D01*
X24807277Y9561061D01*
X24749186Y9599876D01*
X24724743Y9613988D01*
X24718052Y9620679D01*
X24709518Y9626381D01*
X24626380Y9709519D01*
X24620677Y9718054D01*
X24613988Y9724743D01*
X24599877Y9749184D01*
X24561060Y9807278D01*
X24547662Y9839623D01*
X24535672Y9860390D01*
X24529465Y9883552D01*
X24516066Y9915901D01*
X24502434Y9984434D01*
X24495133Y10011684D01*
X24495133Y10016619D01*
X24414867Y10016619D01*
X24414867Y10011684D01*
X24407563Y9984429D01*
X24393933Y9915901D01*
X24380535Y9883559D01*
X24374328Y9860390D01*
X24362334Y9839617D01*
X24348939Y9807278D01*
X24310128Y9749195D01*
X24296012Y9724743D01*
X24289319Y9718051D01*
X24283619Y9709519D01*
X24200481Y9626381D01*
X24191949Y9620681D01*
X24185257Y9613988D01*
X24160805Y9599872D01*
X24102722Y9561061D01*
X24070383Y9547666D01*
X24049610Y9535672D01*
X24026441Y9529465D01*
X23994099Y9516067D01*
X23925569Y9502436D01*
X23898316Y9495133D01*
X23888858Y9495133D01*
X23878788Y9493130D01*
X23761212Y9493130D01*
X23751142Y9495133D01*
X23741684Y9495133D01*
X23714432Y9502436D01*
X23645900Y9516067D01*
X23613555Y9529465D01*
X23590390Y9535672D01*
X23569618Y9547665D01*
X23537277Y9561061D01*
X23479186Y9599876D01*
X23454743Y9613988D01*
X23448052Y9620679D01*
X23439518Y9626381D01*
X23356380Y9709519D01*
X23350677Y9718054D01*
X23343988Y9724743D01*
X23329877Y9749184D01*
X23291060Y9807278D01*
X23277662Y9839623D01*
X23265672Y9860390D01*
X23259465Y9883552D01*
X23246066Y9915901D01*
X23232434Y9984434D01*
X23225133Y10011684D01*
X23225133Y10016619D01*
X23144867Y10016619D01*
X23144867Y10011684D01*
X23137563Y9984429D01*
X23123933Y9915901D01*
X23110535Y9883559D01*
X23104328Y9860390D01*
X23092334Y9839617D01*
X23078939Y9807278D01*
X23040128Y9749195D01*
X23026012Y9724743D01*
X23019319Y9718051D01*
X23013619Y9709519D01*
X22930481Y9626381D01*
X22921949Y9620681D01*
X22915257Y9613988D01*
X22890805Y9599872D01*
X22832722Y9561061D01*
X22800383Y9547666D01*
X22779610Y9535672D01*
X22756441Y9529465D01*
X22724099Y9516067D01*
X22655569Y9502436D01*
X22628316Y9495133D01*
X22618858Y9495133D01*
X22608788Y9493130D01*
X22491212Y9493130D01*
X22481142Y9495133D01*
X22471684Y9495133D01*
X22444432Y9502436D01*
X22375900Y9516067D01*
X22343555Y9529465D01*
X22320390Y9535672D01*
X22299618Y9547665D01*
X22267277Y9561061D01*
X22209186Y9599876D01*
X22184743Y9613988D01*
X22178052Y9620679D01*
X22169518Y9626381D01*
X22086380Y9709519D01*
X22080677Y9718054D01*
X22073988Y9724743D01*
X22059877Y9749184D01*
X22021060Y9807278D01*
X22007662Y9839623D01*
X21995672Y9860390D01*
X21989465Y9883552D01*
X21976066Y9915901D01*
X21962434Y9984434D01*
X21955133Y10011684D01*
X21955133Y10016619D01*
X21874867Y10016619D01*
X21874867Y10011684D01*
X21867563Y9984429D01*
X21853933Y9915901D01*
X21840535Y9883559D01*
X21834328Y9860390D01*
X21822334Y9839617D01*
X21808939Y9807278D01*
X21770128Y9749195D01*
X21756012Y9724743D01*
X21749319Y9718051D01*
X21743619Y9709519D01*
X21660481Y9626381D01*
X21651949Y9620681D01*
X21645257Y9613988D01*
X21620805Y9599872D01*
X21562722Y9561061D01*
X21530383Y9547666D01*
X21509610Y9535672D01*
X21486441Y9529465D01*
X21454099Y9516067D01*
X21385569Y9502436D01*
X21358316Y9495133D01*
X21348858Y9495133D01*
X21338788Y9493130D01*
X21221212Y9493130D01*
X21211142Y9495133D01*
X21201684Y9495133D01*
X21174432Y9502436D01*
X21105900Y9516067D01*
X21073555Y9529465D01*
X21050390Y9535672D01*
X21029618Y9547665D01*
X20997277Y9561061D01*
X20939186Y9599876D01*
X20914743Y9613988D01*
X20908052Y9620679D01*
X20899518Y9626381D01*
X20816380Y9709519D01*
X20810677Y9718054D01*
X20803988Y9724743D01*
X20789877Y9749184D01*
X20751060Y9807278D01*
X20737662Y9839623D01*
X20725672Y9860390D01*
X20719465Y9883552D01*
X20706066Y9915901D01*
X20692434Y9984434D01*
X20685133Y10011684D01*
X20685133Y10016619D01*
X20604867Y10016619D01*
X20604867Y10011684D01*
X20597563Y9984429D01*
X20583933Y9915901D01*
X20570535Y9883559D01*
X20564328Y9860390D01*
X20552334Y9839617D01*
X20538939Y9807278D01*
X20500128Y9749195D01*
X20486012Y9724743D01*
X20479319Y9718051D01*
X20473619Y9709519D01*
X20390481Y9626381D01*
X20381949Y9620681D01*
X20375257Y9613988D01*
X20350805Y9599872D01*
X20292722Y9561061D01*
X20260383Y9547666D01*
X20239610Y9535672D01*
X20216441Y9529465D01*
X20184099Y9516067D01*
X20115569Y9502436D01*
X20088316Y9495133D01*
X20078858Y9495133D01*
X20068788Y9493130D01*
X19951212Y9493130D01*
X19941142Y9495133D01*
X19931684Y9495133D01*
X19904432Y9502436D01*
X19835900Y9516067D01*
X19803555Y9529465D01*
X19780390Y9535672D01*
X19759618Y9547665D01*
X19727277Y9561061D01*
X19669186Y9599876D01*
X19644743Y9613988D01*
X19638052Y9620679D01*
X19629518Y9626381D01*
X19546380Y9709519D01*
X19540677Y9718054D01*
X19533988Y9724743D01*
X19519877Y9749184D01*
X19481060Y9807278D01*
X19467662Y9839623D01*
X19455672Y9860390D01*
X19449465Y9883552D01*
X19436066Y9915901D01*
X19422434Y9984434D01*
X19415133Y10011684D01*
X19415133Y10016619D01*
X19334867Y10016619D01*
X19334867Y10011684D01*
X19327563Y9984429D01*
X19313933Y9915901D01*
X19300535Y9883559D01*
X19294328Y9860390D01*
X19282334Y9839617D01*
X19268939Y9807278D01*
X19230128Y9749195D01*
X19216012Y9724743D01*
X19209319Y9718051D01*
X19203619Y9709519D01*
X19120481Y9626381D01*
X19111949Y9620681D01*
X19105257Y9613988D01*
X19080805Y9599872D01*
X19022722Y9561061D01*
X18990383Y9547666D01*
X18969610Y9535672D01*
X18946441Y9529465D01*
X18914099Y9516067D01*
X18845569Y9502436D01*
X18818316Y9495133D01*
X18808858Y9495133D01*
X18798788Y9493130D01*
X18681212Y9493130D01*
X18671142Y9495133D01*
X18661684Y9495133D01*
X18634432Y9502436D01*
X18565900Y9516067D01*
X18533555Y9529465D01*
X18510390Y9535672D01*
X18489618Y9547665D01*
X18457277Y9561061D01*
X18399186Y9599876D01*
X18374743Y9613988D01*
X18368052Y9620679D01*
X18359518Y9626381D01*
X18276380Y9709519D01*
X18270677Y9718054D01*
X18263988Y9724743D01*
X18249877Y9749184D01*
X18211060Y9807278D01*
X18197662Y9839623D01*
X18185672Y9860390D01*
X18179465Y9883552D01*
X18166066Y9915901D01*
X18152434Y9984434D01*
X18145133Y10011684D01*
X18145133Y10016619D01*
X18064867Y10016619D01*
X18064867Y10011684D01*
X18057563Y9984429D01*
X18043933Y9915901D01*
X18030535Y9883559D01*
X18024328Y9860390D01*
X18012334Y9839617D01*
X17998939Y9807278D01*
X17960128Y9749195D01*
X17946012Y9724743D01*
X17939319Y9718051D01*
X17933619Y9709519D01*
X17850481Y9626381D01*
X17841949Y9620681D01*
X17835257Y9613988D01*
X17810805Y9599872D01*
X17752722Y9561061D01*
X17720383Y9547666D01*
X17699610Y9535672D01*
X17676441Y9529465D01*
X17644099Y9516067D01*
X17575569Y9502436D01*
X17548316Y9495133D01*
X17538858Y9495133D01*
X17528788Y9493130D01*
X17411212Y9493130D01*
X17401142Y9495133D01*
X17391684Y9495133D01*
X17364432Y9502436D01*
X17295900Y9516067D01*
X17263555Y9529465D01*
X17240390Y9535672D01*
X17219618Y9547665D01*
X17187277Y9561061D01*
X17129186Y9599876D01*
X17104743Y9613988D01*
X17098052Y9620679D01*
X17089518Y9626381D01*
X17006380Y9709519D01*
X17000677Y9718054D01*
X16993988Y9724743D01*
X16979877Y9749184D01*
X16941060Y9807278D01*
X16927662Y9839623D01*
X16915672Y9860390D01*
X16909465Y9883552D01*
X16896066Y9915901D01*
X16882434Y9984434D01*
X16875133Y10011684D01*
X16875133Y10016619D01*
X16794867Y10016619D01*
X16794867Y10011684D01*
X16787563Y9984429D01*
X16773933Y9915901D01*
X16760535Y9883559D01*
X16754328Y9860390D01*
X16742334Y9839617D01*
X16728939Y9807278D01*
X16690128Y9749195D01*
X16676012Y9724743D01*
X16669319Y9718051D01*
X16663619Y9709519D01*
X16580481Y9626381D01*
X16571949Y9620681D01*
X16565257Y9613988D01*
X16540805Y9599872D01*
X16482722Y9561061D01*
X16450383Y9547666D01*
X16429610Y9535672D01*
X16406441Y9529465D01*
X16374099Y9516067D01*
X16305569Y9502436D01*
X16278316Y9495133D01*
X16268858Y9495133D01*
X16258788Y9493130D01*
X16141212Y9493130D01*
X16131142Y9495133D01*
X16121684Y9495133D01*
X16094432Y9502436D01*
X16025900Y9516067D01*
X15993555Y9529465D01*
X15970390Y9535672D01*
X15949618Y9547665D01*
X15917277Y9561061D01*
X15859186Y9599876D01*
X15834743Y9613988D01*
X15828052Y9620679D01*
X15819518Y9626381D01*
X15736380Y9709519D01*
X15730677Y9718054D01*
X15723988Y9724743D01*
X15709877Y9749184D01*
X15671060Y9807278D01*
X15657662Y9839623D01*
X15645672Y9860390D01*
X15639465Y9883552D01*
X15626066Y9915901D01*
X15612434Y9984434D01*
X15605133Y10011684D01*
X15605133Y10016619D01*
X15524867Y10016619D01*
X15524867Y10011684D01*
X15517563Y9984429D01*
X15503933Y9915901D01*
X15490535Y9883559D01*
X15484328Y9860390D01*
X15472334Y9839617D01*
X15458939Y9807278D01*
X15420128Y9749195D01*
X15406012Y9724743D01*
X15399319Y9718051D01*
X15393619Y9709519D01*
X15310481Y9626381D01*
X15301949Y9620681D01*
X15295257Y9613988D01*
X15270805Y9599872D01*
X15212722Y9561061D01*
X15180383Y9547666D01*
X15159610Y9535672D01*
X15136441Y9529465D01*
X15104099Y9516067D01*
X15035569Y9502436D01*
X15008316Y9495133D01*
X14998858Y9495133D01*
X14988788Y9493130D01*
X14871212Y9493130D01*
X14861142Y9495133D01*
X14851684Y9495133D01*
X14824432Y9502436D01*
X14755900Y9516067D01*
X14723555Y9529465D01*
X14700390Y9535672D01*
X14679618Y9547665D01*
X14647277Y9561061D01*
X14589186Y9599876D01*
X14564743Y9613988D01*
X14558052Y9620679D01*
X14549518Y9626381D01*
X14466380Y9709519D01*
X14460677Y9718054D01*
X14453988Y9724743D01*
X14439877Y9749184D01*
X14401060Y9807278D01*
X14387662Y9839623D01*
X14375672Y9860390D01*
X14369465Y9883552D01*
X14356066Y9915901D01*
X14342434Y9984434D01*
X14335133Y10011684D01*
X14335133Y10016619D01*
X14254867Y10016619D01*
X14254867Y10011684D01*
X14247563Y9984429D01*
X14233933Y9915901D01*
X14220535Y9883559D01*
X14214328Y9860390D01*
X14202334Y9839617D01*
X14188939Y9807278D01*
X14150128Y9749195D01*
X14136012Y9724743D01*
X14129319Y9718051D01*
X14123619Y9709519D01*
X14040481Y9626381D01*
X14031949Y9620681D01*
X14025257Y9613988D01*
X14000805Y9599872D01*
X13942722Y9561061D01*
X13910383Y9547666D01*
X13889610Y9535672D01*
X13866441Y9529465D01*
X13834099Y9516067D01*
X13765569Y9502436D01*
X13738316Y9495133D01*
X13728858Y9495133D01*
X13718788Y9493130D01*
X13601212Y9493130D01*
X13591142Y9495133D01*
X13581684Y9495133D01*
X13554432Y9502436D01*
X13485900Y9516067D01*
X13453555Y9529465D01*
X13430390Y9535672D01*
X13409618Y9547665D01*
X13377277Y9561061D01*
X13319186Y9599876D01*
X13294743Y9613988D01*
X13288052Y9620679D01*
X13279518Y9626381D01*
X13196380Y9709519D01*
X13190677Y9718054D01*
X13183988Y9724743D01*
X13169877Y9749184D01*
X13131060Y9807278D01*
X13117662Y9839623D01*
X13105672Y9860390D01*
X13099465Y9883552D01*
X13086066Y9915901D01*
X13072433Y9984437D01*
X13065133Y10011684D01*
X13065133Y10021142D01*
X13063130Y10031212D01*
X13063130Y10148789D01*
X13065133Y10158860D01*
X13065133Y10168316D01*
X13072433Y10195561D01*
X13086066Y10264100D01*
X13099466Y10296452D01*
X13105672Y10319610D01*
X13117660Y10340376D01*
X13131060Y10372723D01*
X13169881Y10430825D01*
X13183988Y10455257D01*
X13190675Y10461945D01*
X13196380Y10470482D01*
X13279518Y10553620D01*
X13288055Y10559325D01*
X13294743Y10566012D01*
X13319175Y10580119D01*
X13377277Y10618940D01*
X13409624Y10632340D01*
X13430390Y10644328D01*
X13453548Y10650534D01*
X13485900Y10663934D01*
X13554437Y10677567D01*
X13581684Y10684867D01*
X13591142Y10684867D01*
X13601212Y10686870D01*
X13718788Y10686870D01*
X13728858Y10684867D01*
G37*
G36*
X79001256Y14831246D02*
G01*
X79164257Y14763729D01*
X79310954Y14665709D01*
X79435709Y14540954D01*
X79533729Y14394257D01*
X79601246Y14231256D01*
X79635666Y14058215D01*
X79635666Y13881785D01*
X79601246Y13708744D01*
X79533729Y13545743D01*
X79435709Y13399046D01*
X79310954Y13274291D01*
X79164257Y13176271D01*
X79001256Y13108754D01*
X78828215Y13074334D01*
X78651785Y13074334D01*
X78478744Y13108754D01*
X78315743Y13176271D01*
X78169046Y13274291D01*
X78044291Y13399046D01*
X77946271Y13545743D01*
X77878754Y13708744D01*
X77844334Y13881785D01*
X77844334Y14058215D01*
X77878754Y14231256D01*
X77946271Y14394257D01*
X78044291Y14540954D01*
X78169046Y14665709D01*
X78315743Y14763729D01*
X78478744Y14831246D01*
X78651785Y14865666D01*
X78828215Y14865666D01*
X79001256Y14831246D01*
G37*
G36*
X84081256Y14831246D02*
G01*
X84244257Y14763729D01*
X84390954Y14665709D01*
X84515709Y14540954D01*
X84613729Y14394257D01*
X84681246Y14231256D01*
X84715666Y14058215D01*
X84715666Y13881785D01*
X84681246Y13708744D01*
X84613729Y13545743D01*
X84515709Y13399046D01*
X84390954Y13274291D01*
X84244257Y13176271D01*
X84081256Y13108754D01*
X83908215Y13074334D01*
X83731785Y13074334D01*
X83558744Y13108754D01*
X83395743Y13176271D01*
X83249046Y13274291D01*
X83124291Y13399046D01*
X83026271Y13545743D01*
X82958754Y13708744D01*
X82924334Y13881785D01*
X82924334Y14058215D01*
X82958754Y14231256D01*
X83026271Y14394257D01*
X83124291Y14540954D01*
X83249046Y14665709D01*
X83395743Y14763729D01*
X83558744Y14831246D01*
X83731785Y14865666D01*
X83908215Y14865666D01*
X84081256Y14831246D01*
G37*
G36*
X45873513Y16625792D02*
G01*
X46112293Y16548207D01*
X46335998Y16434224D01*
X46539117Y16286650D01*
X46716650Y16109117D01*
X46864224Y15905998D01*
X46978207Y15682293D01*
X47055792Y15443513D01*
X47095068Y15195535D01*
X47095068Y14944465D01*
X47055792Y14696487D01*
X46978207Y14457707D01*
X46864224Y14234002D01*
X46716650Y14030883D01*
X46539117Y13853350D01*
X46335998Y13705776D01*
X46112293Y13591793D01*
X45873513Y13514208D01*
X45625535Y13474932D01*
X45374465Y13474932D01*
X45126487Y13514208D01*
X44887707Y13591793D01*
X44664002Y13705776D01*
X44460883Y13853350D01*
X44283350Y14030883D01*
X44135776Y14234002D01*
X44021793Y14457707D01*
X43944208Y14696487D01*
X43904932Y14944465D01*
X43904932Y15195535D01*
X43944208Y15443513D01*
X44021793Y15682293D01*
X44135776Y15905998D01*
X44283350Y16109117D01*
X44460883Y16286650D01*
X44664002Y16434224D01*
X44887707Y16548207D01*
X45126487Y16625792D01*
X45374465Y16665068D01*
X45625535Y16665068D01*
X45873513Y16625792D01*
G37*
G36*
X69173513Y16625792D02*
G01*
X69412293Y16548207D01*
X69635998Y16434224D01*
X69839117Y16286650D01*
X70016650Y16109117D01*
X70164224Y15905998D01*
X70278207Y15682293D01*
X70355792Y15443513D01*
X70395068Y15195535D01*
X70395068Y14944465D01*
X70355792Y14696487D01*
X70278207Y14457707D01*
X70164224Y14234002D01*
X70016650Y14030883D01*
X69839117Y13853350D01*
X69635998Y13705776D01*
X69412293Y13591793D01*
X69173513Y13514208D01*
X68925535Y13474932D01*
X68674465Y13474932D01*
X68426487Y13514208D01*
X68187707Y13591793D01*
X67964002Y13705776D01*
X67760883Y13853350D01*
X67583350Y14030883D01*
X67435776Y14234002D01*
X67321793Y14457707D01*
X67244208Y14696487D01*
X67204932Y14944465D01*
X67204932Y15195535D01*
X67244208Y15443513D01*
X67321793Y15682293D01*
X67435776Y15905998D01*
X67583350Y16109117D01*
X67760883Y16286650D01*
X67964002Y16434224D01*
X68187707Y16548207D01*
X68426487Y16625792D01*
X68674465Y16665068D01*
X68925535Y16665068D01*
X69173513Y16625792D01*
G37*
G36*
X36915770Y17689093D02*
G01*
X37087827Y17617825D01*
X37242674Y17514360D01*
X37374360Y17382674D01*
X37477825Y17227827D01*
X37549093Y17055770D01*
X37585425Y16873116D01*
X37585425Y16686884D01*
X37549093Y16504230D01*
X37477825Y16332173D01*
X37374360Y16177326D01*
X37242674Y16045640D01*
X37087827Y15942175D01*
X36915770Y15870907D01*
X36733116Y15834575D01*
X36546884Y15834575D01*
X36364230Y15870907D01*
X36192173Y15942175D01*
X36037326Y16045640D01*
X35905640Y16177326D01*
X35802175Y16332173D01*
X35730907Y16504230D01*
X35694575Y16686884D01*
X35694575Y16873116D01*
X35730907Y17055770D01*
X35802175Y17227827D01*
X35905640Y17382674D01*
X36037326Y17514360D01*
X36192173Y17617825D01*
X36364230Y17689093D01*
X36546884Y17725425D01*
X36733116Y17725425D01*
X36915770Y17689093D01*
G37*
G36*
X36915770Y20229093D02*
G01*
X37087827Y20157825D01*
X37242674Y20054360D01*
X37374360Y19922674D01*
X37477825Y19767827D01*
X37549093Y19595770D01*
X37585425Y19413116D01*
X37585425Y19226884D01*
X37549093Y19044230D01*
X37477825Y18872173D01*
X37374360Y18717326D01*
X37242674Y18585640D01*
X37087827Y18482175D01*
X36915770Y18410907D01*
X36733116Y18374575D01*
X36546884Y18374575D01*
X36364230Y18410907D01*
X36192173Y18482175D01*
X36037326Y18585640D01*
X35905640Y18717326D01*
X35802175Y18872173D01*
X35730907Y19044230D01*
X35694575Y19226884D01*
X35694575Y19413116D01*
X35730907Y19595770D01*
X35802175Y19767827D01*
X35905640Y19922674D01*
X36037326Y20054360D01*
X36192173Y20157825D01*
X36364230Y20229093D01*
X36546884Y20265425D01*
X36733116Y20265425D01*
X36915770Y20229093D01*
G37*
G36*
X76475770Y22499093D02*
G01*
X76647827Y22427825D01*
X76802674Y22324360D01*
X76833255Y22293779D01*
X76836131Y22292078D01*
X76855291Y22289555D01*
X76897327Y22272144D01*
X76938131Y22260289D01*
X76966615Y22243444D01*
X77000000Y22229615D01*
X77033625Y22203814D01*
X77067498Y22183781D01*
X77093108Y22158171D01*
X77124264Y22134264D01*
X77148170Y22103109D01*
X77173780Y22077499D01*
X77193811Y22043628D01*
X77219615Y22010000D01*
X77233444Y21976614D01*
X77250288Y21948132D01*
X77262140Y21907333D01*
X77279555Y21865291D01*
X77283864Y21832556D01*
X77292552Y21802653D01*
X77299612Y21712943D01*
X77300000Y21710000D01*
X77300000Y19710000D01*
X77299612Y19707058D01*
X77292552Y19617349D01*
X77283865Y19587448D01*
X77279555Y19554709D01*
X77262139Y19512665D01*
X77250288Y19471869D01*
X77233445Y19443391D01*
X77219615Y19410000D01*
X77193808Y19376369D01*
X77173780Y19342502D01*
X77148173Y19316896D01*
X77124264Y19285736D01*
X77093104Y19261827D01*
X77067498Y19236220D01*
X77033631Y19216192D01*
X77000000Y19190385D01*
X76966609Y19176555D01*
X76938131Y19159712D01*
X76897335Y19147861D01*
X76855291Y19130445D01*
X76822553Y19126135D01*
X76792652Y19117448D01*
X76702944Y19110388D01*
X76700000Y19110000D01*
X75700000Y19110000D01*
X75697058Y19110388D01*
X75607348Y19117448D01*
X75577445Y19126135D01*
X75544709Y19130445D01*
X75502666Y19147860D01*
X75461868Y19159712D01*
X75433386Y19176556D01*
X75400000Y19190385D01*
X75366372Y19216189D01*
X75332501Y19236220D01*
X75306891Y19261830D01*
X75275736Y19285736D01*
X75251829Y19316892D01*
X75226219Y19342502D01*
X75206186Y19376375D01*
X75180385Y19410000D01*
X75166556Y19443385D01*
X75149711Y19471869D01*
X75137856Y19512673D01*
X75120445Y19554709D01*
X75116135Y19587440D01*
X75107447Y19617348D01*
X75100385Y19707075D01*
X75100000Y19710000D01*
X75100000Y21710000D01*
X75100384Y21712923D01*
X75107447Y21802652D01*
X75116135Y21832561D01*
X75120445Y21865291D01*
X75137856Y21907326D01*
X75149711Y21948132D01*
X75166558Y21976619D01*
X75180385Y22010000D01*
X75206184Y22043623D01*
X75226219Y22077499D01*
X75251833Y22103114D01*
X75275736Y22134264D01*
X75306886Y22158167D01*
X75332501Y22183781D01*
X75366377Y22203816D01*
X75400000Y22229615D01*
X75433381Y22243442D01*
X75461868Y22260289D01*
X75502674Y22272144D01*
X75544709Y22289555D01*
X75563867Y22292078D01*
X75566746Y22293781D01*
X75597326Y22324360D01*
X75752173Y22427825D01*
X75924230Y22499093D01*
X76106884Y22535425D01*
X76293116Y22535425D01*
X76475770Y22499093D01*
G37*
G36*
X79015770Y22499093D02*
G01*
X79187827Y22427825D01*
X79342674Y22324360D01*
X79373255Y22293779D01*
X79376131Y22292078D01*
X79395291Y22289555D01*
X79437327Y22272144D01*
X79478131Y22260289D01*
X79506615Y22243444D01*
X79540000Y22229615D01*
X79573625Y22203814D01*
X79607498Y22183781D01*
X79633108Y22158171D01*
X79664264Y22134264D01*
X79688170Y22103109D01*
X79713780Y22077499D01*
X79733811Y22043628D01*
X79759615Y22010000D01*
X79773444Y21976614D01*
X79790288Y21948132D01*
X79802140Y21907333D01*
X79819555Y21865291D01*
X79823864Y21832556D01*
X79832552Y21802653D01*
X79839612Y21712943D01*
X79840000Y21710000D01*
X79840000Y19710000D01*
X79839612Y19707058D01*
X79832552Y19617349D01*
X79823865Y19587448D01*
X79819555Y19554709D01*
X79802139Y19512665D01*
X79790288Y19471869D01*
X79773445Y19443391D01*
X79759615Y19410000D01*
X79733808Y19376369D01*
X79713780Y19342502D01*
X79688173Y19316896D01*
X79664264Y19285736D01*
X79633104Y19261827D01*
X79607498Y19236220D01*
X79573631Y19216192D01*
X79540000Y19190385D01*
X79506609Y19176555D01*
X79478131Y19159712D01*
X79437335Y19147861D01*
X79395291Y19130445D01*
X79362553Y19126135D01*
X79332652Y19117448D01*
X79242944Y19110388D01*
X79240000Y19110000D01*
X78240000Y19110000D01*
X78237058Y19110388D01*
X78147348Y19117448D01*
X78117445Y19126135D01*
X78084709Y19130445D01*
X78042666Y19147860D01*
X78001868Y19159712D01*
X77973386Y19176556D01*
X77940000Y19190385D01*
X77906372Y19216189D01*
X77872501Y19236220D01*
X77846891Y19261830D01*
X77815736Y19285736D01*
X77791829Y19316892D01*
X77766219Y19342502D01*
X77746186Y19376375D01*
X77720385Y19410000D01*
X77706556Y19443385D01*
X77689711Y19471869D01*
X77677856Y19512673D01*
X77660445Y19554709D01*
X77656135Y19587440D01*
X77647447Y19617348D01*
X77640385Y19707075D01*
X77640000Y19710000D01*
X77640000Y21710000D01*
X77640384Y21712923D01*
X77647447Y21802652D01*
X77656135Y21832561D01*
X77660445Y21865291D01*
X77677856Y21907326D01*
X77689711Y21948132D01*
X77706558Y21976619D01*
X77720385Y22010000D01*
X77746184Y22043623D01*
X77766219Y22077499D01*
X77791833Y22103114D01*
X77815736Y22134264D01*
X77846886Y22158167D01*
X77872501Y22183781D01*
X77906377Y22203816D01*
X77940000Y22229615D01*
X77973381Y22243442D01*
X78001868Y22260289D01*
X78042674Y22272144D01*
X78084709Y22289555D01*
X78103867Y22292078D01*
X78106746Y22293781D01*
X78137326Y22324360D01*
X78292173Y22427825D01*
X78464230Y22499093D01*
X78646884Y22535425D01*
X78833116Y22535425D01*
X79015770Y22499093D01*
G37*
G36*
X81555770Y22499093D02*
G01*
X81727827Y22427825D01*
X81882674Y22324360D01*
X81913255Y22293779D01*
X81916131Y22292078D01*
X81935291Y22289555D01*
X81977327Y22272144D01*
X82018131Y22260289D01*
X82046615Y22243444D01*
X82080000Y22229615D01*
X82113625Y22203814D01*
X82147498Y22183781D01*
X82173108Y22158171D01*
X82204264Y22134264D01*
X82228170Y22103109D01*
X82253780Y22077499D01*
X82273811Y22043628D01*
X82299615Y22010000D01*
X82313444Y21976614D01*
X82330288Y21948132D01*
X82342140Y21907333D01*
X82359555Y21865291D01*
X82363864Y21832556D01*
X82372552Y21802653D01*
X82379612Y21712943D01*
X82380000Y21710000D01*
X82380000Y19710000D01*
X82379612Y19707058D01*
X82372552Y19617349D01*
X82363865Y19587448D01*
X82359555Y19554709D01*
X82342139Y19512665D01*
X82330288Y19471869D01*
X82313445Y19443391D01*
X82299615Y19410000D01*
X82273808Y19376369D01*
X82253780Y19342502D01*
X82228173Y19316896D01*
X82204264Y19285736D01*
X82173104Y19261827D01*
X82147498Y19236220D01*
X82113631Y19216192D01*
X82080000Y19190385D01*
X82046609Y19176555D01*
X82018131Y19159712D01*
X81977335Y19147861D01*
X81935291Y19130445D01*
X81902553Y19126135D01*
X81872652Y19117448D01*
X81782944Y19110388D01*
X81780000Y19110000D01*
X80780000Y19110000D01*
X80777058Y19110388D01*
X80687348Y19117448D01*
X80657445Y19126135D01*
X80624709Y19130445D01*
X80582666Y19147860D01*
X80541868Y19159712D01*
X80513386Y19176556D01*
X80480000Y19190385D01*
X80446372Y19216189D01*
X80412501Y19236220D01*
X80386891Y19261830D01*
X80355736Y19285736D01*
X80331829Y19316892D01*
X80306219Y19342502D01*
X80286186Y19376375D01*
X80260385Y19410000D01*
X80246556Y19443385D01*
X80229711Y19471869D01*
X80217856Y19512673D01*
X80200445Y19554709D01*
X80196135Y19587440D01*
X80187447Y19617348D01*
X80180385Y19707075D01*
X80180000Y19710000D01*
X80180000Y21710000D01*
X80180384Y21712923D01*
X80187447Y21802652D01*
X80196135Y21832561D01*
X80200445Y21865291D01*
X80217856Y21907326D01*
X80229711Y21948132D01*
X80246558Y21976619D01*
X80260385Y22010000D01*
X80286184Y22043623D01*
X80306219Y22077499D01*
X80331833Y22103114D01*
X80355736Y22134264D01*
X80386886Y22158167D01*
X80412501Y22183781D01*
X80446377Y22203816D01*
X80480000Y22229615D01*
X80513381Y22243442D01*
X80541868Y22260289D01*
X80582674Y22272144D01*
X80624709Y22289555D01*
X80643867Y22292078D01*
X80646746Y22293781D01*
X80677326Y22324360D01*
X80832173Y22427825D01*
X81004230Y22499093D01*
X81186884Y22535425D01*
X81373116Y22535425D01*
X81555770Y22499093D01*
G37*
G36*
X84095770Y22499093D02*
G01*
X84267827Y22427825D01*
X84422674Y22324360D01*
X84453255Y22293779D01*
X84456131Y22292078D01*
X84475291Y22289555D01*
X84517327Y22272144D01*
X84558131Y22260289D01*
X84586615Y22243444D01*
X84620000Y22229615D01*
X84653625Y22203814D01*
X84687498Y22183781D01*
X84713108Y22158171D01*
X84744264Y22134264D01*
X84768170Y22103109D01*
X84793780Y22077499D01*
X84813811Y22043628D01*
X84839615Y22010000D01*
X84853444Y21976614D01*
X84870288Y21948132D01*
X84882140Y21907333D01*
X84899555Y21865291D01*
X84903864Y21832556D01*
X84912552Y21802653D01*
X84919612Y21712943D01*
X84920000Y21710000D01*
X84920000Y19710000D01*
X84919612Y19707058D01*
X84912552Y19617349D01*
X84903865Y19587448D01*
X84899555Y19554709D01*
X84882139Y19512665D01*
X84870288Y19471869D01*
X84853445Y19443391D01*
X84839615Y19410000D01*
X84813808Y19376369D01*
X84793780Y19342502D01*
X84768173Y19316896D01*
X84744264Y19285736D01*
X84713104Y19261827D01*
X84687498Y19236220D01*
X84653631Y19216192D01*
X84620000Y19190385D01*
X84586609Y19176555D01*
X84558131Y19159712D01*
X84517335Y19147861D01*
X84475291Y19130445D01*
X84442553Y19126135D01*
X84412652Y19117448D01*
X84322944Y19110388D01*
X84320000Y19110000D01*
X83320000Y19110000D01*
X83317058Y19110388D01*
X83227348Y19117448D01*
X83197445Y19126135D01*
X83164709Y19130445D01*
X83122666Y19147860D01*
X83081868Y19159712D01*
X83053386Y19176556D01*
X83020000Y19190385D01*
X82986372Y19216189D01*
X82952501Y19236220D01*
X82926891Y19261830D01*
X82895736Y19285736D01*
X82871829Y19316892D01*
X82846219Y19342502D01*
X82826186Y19376375D01*
X82800385Y19410000D01*
X82786556Y19443385D01*
X82769711Y19471869D01*
X82757856Y19512673D01*
X82740445Y19554709D01*
X82736135Y19587440D01*
X82727447Y19617348D01*
X82720385Y19707075D01*
X82720000Y19710000D01*
X82720000Y21710000D01*
X82720384Y21712923D01*
X82727447Y21802652D01*
X82736135Y21832561D01*
X82740445Y21865291D01*
X82757856Y21907326D01*
X82769711Y21948132D01*
X82786558Y21976619D01*
X82800385Y22010000D01*
X82826184Y22043623D01*
X82846219Y22077499D01*
X82871833Y22103114D01*
X82895736Y22134264D01*
X82926886Y22158167D01*
X82952501Y22183781D01*
X82986377Y22203816D01*
X83020000Y22229615D01*
X83053381Y22243442D01*
X83081868Y22260289D01*
X83122674Y22272144D01*
X83164709Y22289555D01*
X83183867Y22292078D01*
X83186746Y22293781D01*
X83217326Y22324360D01*
X83372173Y22427825D01*
X83544230Y22499093D01*
X83726884Y22535425D01*
X83913116Y22535425D01*
X84095770Y22499093D01*
G37*
G36*
X86635770Y22499093D02*
G01*
X86807827Y22427825D01*
X86962674Y22324360D01*
X86993255Y22293779D01*
X86996131Y22292078D01*
X87015291Y22289555D01*
X87057327Y22272144D01*
X87098131Y22260289D01*
X87126615Y22243444D01*
X87160000Y22229615D01*
X87193625Y22203814D01*
X87227498Y22183781D01*
X87253108Y22158171D01*
X87284264Y22134264D01*
X87308170Y22103109D01*
X87333780Y22077499D01*
X87353811Y22043628D01*
X87379615Y22010000D01*
X87393444Y21976614D01*
X87410288Y21948132D01*
X87422140Y21907333D01*
X87439555Y21865291D01*
X87443864Y21832556D01*
X87452552Y21802653D01*
X87459612Y21712943D01*
X87460000Y21710000D01*
X87460000Y19710000D01*
X87459612Y19707058D01*
X87452552Y19617349D01*
X87443865Y19587448D01*
X87439555Y19554709D01*
X87422139Y19512665D01*
X87410288Y19471869D01*
X87393445Y19443391D01*
X87379615Y19410000D01*
X87353808Y19376369D01*
X87333780Y19342502D01*
X87308173Y19316896D01*
X87284264Y19285736D01*
X87253104Y19261827D01*
X87227498Y19236220D01*
X87193631Y19216192D01*
X87160000Y19190385D01*
X87126609Y19176555D01*
X87098131Y19159712D01*
X87057335Y19147861D01*
X87015291Y19130445D01*
X86982553Y19126135D01*
X86952652Y19117448D01*
X86862944Y19110388D01*
X86860000Y19110000D01*
X85860000Y19110000D01*
X85857058Y19110388D01*
X85767348Y19117448D01*
X85737445Y19126135D01*
X85704709Y19130445D01*
X85662666Y19147860D01*
X85621868Y19159712D01*
X85593386Y19176556D01*
X85560000Y19190385D01*
X85526372Y19216189D01*
X85492501Y19236220D01*
X85466891Y19261830D01*
X85435736Y19285736D01*
X85411829Y19316892D01*
X85386219Y19342502D01*
X85366186Y19376375D01*
X85340385Y19410000D01*
X85326556Y19443385D01*
X85309711Y19471869D01*
X85297856Y19512673D01*
X85280445Y19554709D01*
X85276135Y19587440D01*
X85267447Y19617348D01*
X85260385Y19707075D01*
X85260000Y19710000D01*
X85260000Y21710000D01*
X85260384Y21712923D01*
X85267447Y21802652D01*
X85276135Y21832561D01*
X85280445Y21865291D01*
X85297856Y21907326D01*
X85309711Y21948132D01*
X85326558Y21976619D01*
X85340385Y22010000D01*
X85366184Y22043623D01*
X85386219Y22077499D01*
X85411833Y22103114D01*
X85435736Y22134264D01*
X85466886Y22158167D01*
X85492501Y22183781D01*
X85526377Y22203816D01*
X85560000Y22229615D01*
X85593381Y22243442D01*
X85621868Y22260289D01*
X85662674Y22272144D01*
X85704709Y22289555D01*
X85723867Y22292078D01*
X85726746Y22293781D01*
X85757326Y22324360D01*
X85912173Y22427825D01*
X86084230Y22499093D01*
X86266884Y22535425D01*
X86453116Y22535425D01*
X86635770Y22499093D01*
G37*
G36*
X89175770Y22499093D02*
G01*
X89347827Y22427825D01*
X89502674Y22324360D01*
X89533255Y22293779D01*
X89536131Y22292078D01*
X89555291Y22289555D01*
X89597327Y22272144D01*
X89638131Y22260289D01*
X89666615Y22243444D01*
X89700000Y22229615D01*
X89733625Y22203814D01*
X89767498Y22183781D01*
X89793108Y22158171D01*
X89824264Y22134264D01*
X89848170Y22103109D01*
X89873780Y22077499D01*
X89893811Y22043628D01*
X89919615Y22010000D01*
X89933444Y21976614D01*
X89950288Y21948132D01*
X89962140Y21907333D01*
X89979555Y21865291D01*
X89983864Y21832556D01*
X89992552Y21802653D01*
X89999612Y21712943D01*
X90000000Y21710000D01*
X90000000Y19710000D01*
X89999612Y19707058D01*
X89992552Y19617349D01*
X89983865Y19587448D01*
X89979555Y19554709D01*
X89962139Y19512665D01*
X89950288Y19471869D01*
X89933445Y19443391D01*
X89919615Y19410000D01*
X89893808Y19376369D01*
X89873780Y19342502D01*
X89848173Y19316896D01*
X89824264Y19285736D01*
X89793104Y19261827D01*
X89767498Y19236220D01*
X89733631Y19216192D01*
X89700000Y19190385D01*
X89666609Y19176555D01*
X89638131Y19159712D01*
X89597335Y19147861D01*
X89555291Y19130445D01*
X89522553Y19126135D01*
X89492652Y19117448D01*
X89402944Y19110388D01*
X89400000Y19110000D01*
X88400000Y19110000D01*
X88397058Y19110388D01*
X88307348Y19117448D01*
X88277445Y19126135D01*
X88244709Y19130445D01*
X88202666Y19147860D01*
X88161868Y19159712D01*
X88133386Y19176556D01*
X88100000Y19190385D01*
X88066372Y19216189D01*
X88032501Y19236220D01*
X88006891Y19261830D01*
X87975736Y19285736D01*
X87951829Y19316892D01*
X87926219Y19342502D01*
X87906186Y19376375D01*
X87880385Y19410000D01*
X87866556Y19443385D01*
X87849711Y19471869D01*
X87837856Y19512673D01*
X87820445Y19554709D01*
X87816135Y19587440D01*
X87807447Y19617348D01*
X87800385Y19707075D01*
X87800000Y19710000D01*
X87800000Y21710000D01*
X87800384Y21712923D01*
X87807447Y21802652D01*
X87816135Y21832561D01*
X87820445Y21865291D01*
X87837856Y21907326D01*
X87849711Y21948132D01*
X87866558Y21976619D01*
X87880385Y22010000D01*
X87906184Y22043623D01*
X87926219Y22077499D01*
X87951833Y22103114D01*
X87975736Y22134264D01*
X88006886Y22158167D01*
X88032501Y22183781D01*
X88066377Y22203816D01*
X88100000Y22229615D01*
X88133381Y22243442D01*
X88161868Y22260289D01*
X88202674Y22272144D01*
X88244709Y22289555D01*
X88263867Y22292078D01*
X88266746Y22293781D01*
X88297326Y22324360D01*
X88452173Y22427825D01*
X88624230Y22499093D01*
X88806884Y22535425D01*
X88993116Y22535425D01*
X89175770Y22499093D01*
G37*
G36*
X91715770Y22499093D02*
G01*
X91887827Y22427825D01*
X92042674Y22324360D01*
X92073255Y22293779D01*
X92076131Y22292078D01*
X92095291Y22289555D01*
X92137327Y22272144D01*
X92178131Y22260289D01*
X92206615Y22243444D01*
X92240000Y22229615D01*
X92273625Y22203814D01*
X92307498Y22183781D01*
X92333108Y22158171D01*
X92364264Y22134264D01*
X92388170Y22103109D01*
X92413780Y22077499D01*
X92433811Y22043628D01*
X92459615Y22010000D01*
X92473444Y21976614D01*
X92490288Y21948132D01*
X92502140Y21907333D01*
X92519555Y21865291D01*
X92523864Y21832556D01*
X92532552Y21802653D01*
X92539612Y21712943D01*
X92540000Y21710000D01*
X92540000Y19710000D01*
X92539612Y19707058D01*
X92532552Y19617349D01*
X92523865Y19587448D01*
X92519555Y19554709D01*
X92502139Y19512665D01*
X92490288Y19471869D01*
X92473445Y19443391D01*
X92459615Y19410000D01*
X92433808Y19376369D01*
X92413780Y19342502D01*
X92388173Y19316896D01*
X92364264Y19285736D01*
X92333104Y19261827D01*
X92307498Y19236220D01*
X92273631Y19216192D01*
X92240000Y19190385D01*
X92206609Y19176555D01*
X92178131Y19159712D01*
X92137335Y19147861D01*
X92095291Y19130445D01*
X92062553Y19126135D01*
X92032652Y19117448D01*
X91942944Y19110388D01*
X91940000Y19110000D01*
X90940000Y19110000D01*
X90937058Y19110388D01*
X90847348Y19117448D01*
X90817445Y19126135D01*
X90784709Y19130445D01*
X90742666Y19147860D01*
X90701868Y19159712D01*
X90673386Y19176556D01*
X90640000Y19190385D01*
X90606372Y19216189D01*
X90572501Y19236220D01*
X90546891Y19261830D01*
X90515736Y19285736D01*
X90491829Y19316892D01*
X90466219Y19342502D01*
X90446186Y19376375D01*
X90420385Y19410000D01*
X90406556Y19443385D01*
X90389711Y19471869D01*
X90377856Y19512673D01*
X90360445Y19554709D01*
X90356135Y19587440D01*
X90347447Y19617348D01*
X90340385Y19707075D01*
X90340000Y19710000D01*
X90340000Y21710000D01*
X90340384Y21712923D01*
X90347447Y21802652D01*
X90356135Y21832561D01*
X90360445Y21865291D01*
X90377856Y21907326D01*
X90389711Y21948132D01*
X90406558Y21976619D01*
X90420385Y22010000D01*
X90446184Y22043623D01*
X90466219Y22077499D01*
X90491833Y22103114D01*
X90515736Y22134264D01*
X90546886Y22158167D01*
X90572501Y22183781D01*
X90606377Y22203816D01*
X90640000Y22229615D01*
X90673381Y22243442D01*
X90701868Y22260289D01*
X90742674Y22272144D01*
X90784709Y22289555D01*
X90803867Y22292078D01*
X90806746Y22293781D01*
X90837326Y22324360D01*
X90992173Y22427825D01*
X91164230Y22499093D01*
X91346884Y22535425D01*
X91533116Y22535425D01*
X91715770Y22499093D01*
G37*
G36*
X5957125Y22312511D02*
G01*
X5988727Y22311353D01*
X5990990Y22311185D01*
X6020785Y22307840D01*
X6023044Y22307499D01*
X6051585Y22302078D01*
X6053785Y22301573D01*
X6081183Y22294197D01*
X6083309Y22293541D01*
X6109701Y22284316D01*
X6111677Y22283547D01*
X6137210Y22272564D01*
X6138994Y22271726D01*
X6163738Y22259096D01*
X6165328Y22258223D01*
X6189480Y22243993D01*
X6190833Y22243145D01*
X6214399Y22227455D01*
X6215573Y22226631D01*
X6238405Y22209763D01*
X6239856Y22208620D01*
X6285037Y22170743D01*
X6286413Y22169515D01*
X6330328Y22127804D01*
X6331178Y22126964D01*
X6374716Y22082201D01*
X6375065Y22081835D01*
X6463565Y21987405D01*
X6509543Y21940229D01*
X6557065Y21894992D01*
X6558095Y21894064D01*
X6607898Y21851661D01*
X6608922Y21850835D01*
X6635018Y21830885D01*
X6662169Y21811831D01*
X6663099Y21811208D01*
X6690789Y21793572D01*
X6691827Y21792946D01*
X6720558Y21776548D01*
X6721701Y21775934D01*
X6751564Y21760886D01*
X6752802Y21760305D01*
X6784582Y21746415D01*
X6835339Y21726610D01*
X6878991Y21710858D01*
X6917810Y21697928D01*
X6953794Y21686692D01*
X7025901Y21664540D01*
X7026443Y21664368D01*
X7066384Y21651244D01*
X7067078Y21651007D01*
X7112989Y21634774D01*
X7128555Y21629314D01*
X7143680Y21624414D01*
X7173121Y21615603D01*
X7200676Y21607516D01*
X7201210Y21607355D01*
X7213846Y21603400D01*
X7214581Y21603160D01*
X7226372Y21599141D01*
X7227440Y21598755D01*
X7238360Y21594578D01*
X7239717Y21594019D01*
X7249917Y21589524D01*
X7251167Y21588939D01*
X7255572Y21586748D01*
X7256545Y21586243D01*
X7260896Y21583882D01*
X7261945Y21583286D01*
X7265993Y21580878D01*
X7267111Y21580179D01*
X7270933Y21577674D01*
X7272099Y21576870D01*
X7275691Y21574264D01*
X7276889Y21573348D01*
X7280232Y21570653D01*
X7281467Y21569601D01*
X7284573Y21566805D01*
X7285808Y21565628D01*
X7288704Y21562703D01*
X7289906Y21561414D01*
X7292584Y21558366D01*
X7293794Y21556899D01*
X7296252Y21553724D01*
X7297367Y21552187D01*
X7299669Y21548793D01*
X7300692Y21547178D01*
X7302753Y21543680D01*
X7303818Y21541708D01*
X7308321Y21532552D01*
X7309301Y21530338D01*
X7313206Y21520455D01*
X7313920Y21518444D01*
X7317280Y21507767D01*
X7317789Y21505946D01*
X7320598Y21494533D01*
X7320954Y21492882D01*
X7323170Y21480965D01*
X7323416Y21479418D01*
X7325046Y21467090D01*
X7325203Y21465633D01*
X7326251Y21453018D01*
X7326333Y21451662D01*
X7326808Y21438905D01*
X7326828Y21437589D01*
X7326742Y21424774D01*
X7326707Y21423542D01*
X7326078Y21410849D01*
X7325986Y21409549D01*
X7324839Y21397131D01*
X7324691Y21395846D01*
X7323042Y21383762D01*
X7322833Y21382451D01*
X7320715Y21370869D01*
X7320423Y21369461D01*
X7317890Y21358594D01*
X7317482Y21357031D01*
X7314561Y21346931D01*
X7314010Y21345217D01*
X7311071Y21336925D01*
X7310259Y21334124D01*
X7308514Y21326464D01*
X7308442Y21326161D01*
X7307354Y21321697D01*
X7307268Y21321352D01*
X7306097Y21316771D01*
X7306006Y21316426D01*
X7304815Y21312004D01*
X7304649Y21311405D01*
X7303348Y21306827D01*
X7303249Y21306491D01*
X7301859Y21301853D01*
X7301708Y21301366D01*
X7300546Y21297695D01*
X7299462Y21294799D01*
X7294121Y21282509D01*
X7291999Y21278492D01*
X7283898Y21265625D01*
X7281071Y21261835D01*
X7253037Y21229840D01*
X7250182Y21226993D01*
X7209209Y21191286D01*
X7207143Y21189641D01*
X7154008Y21151032D01*
X7152468Y21149988D01*
X7088483Y21109472D01*
X7087194Y21108701D01*
X7013576Y21067070D01*
X7012470Y21066475D01*
X6930373Y21024429D01*
X6929331Y21023919D01*
X6839760Y20982067D01*
X6838818Y20981646D01*
X6742924Y20940656D01*
X6741993Y20940275D01*
X6640832Y20900767D01*
X6639978Y20900449D01*
X6534595Y20863039D01*
X6533627Y20862712D01*
X6425190Y20828051D01*
X6424271Y20827774D01*
X6313680Y20796427D01*
X6312738Y20796178D01*
X6201175Y20768794D01*
X6200076Y20768547D01*
X6088743Y20745766D01*
X6087426Y20745527D01*
X5976997Y20727879D01*
X5976392Y20727789D01*
X5939691Y20722779D01*
X5939326Y20722732D01*
X5902865Y20718394D01*
X5902402Y20718343D01*
X5884369Y20716478D01*
X5884045Y20716446D01*
X5866032Y20714792D01*
X5865832Y20714775D01*
X5847863Y20713351D01*
X5847525Y20713327D01*
X5829829Y20712168D01*
X5829346Y20712139D01*
X5787993Y20709945D01*
X5787775Y20709935D01*
X5750065Y20708409D01*
X5749504Y20708391D01*
X5714431Y20707515D01*
X5713875Y20707506D01*
X5679666Y20707244D01*
X5679316Y20707244D01*
X5645180Y20707486D01*
X5644723Y20707494D01*
X5609576Y20708374D01*
X5609074Y20708390D01*
X5571249Y20709932D01*
X5570951Y20709946D01*
X5529784Y20712135D01*
X5529274Y20712166D01*
X5511490Y20713331D01*
X5511136Y20713357D01*
X5493357Y20714768D01*
X5493022Y20714797D01*
X5475038Y20716451D01*
X5474535Y20716500D01*
X5456813Y20718338D01*
X5456266Y20718399D01*
X5419789Y20722741D01*
X5419251Y20722809D01*
X5382718Y20727784D01*
X5382117Y20727873D01*
X5271596Y20745534D01*
X5270325Y20745765D01*
X5158992Y20768546D01*
X5157893Y20768793D01*
X5046348Y20796173D01*
X5045361Y20796433D01*
X4934833Y20827763D01*
X4933858Y20828056D01*
X4825429Y20862714D01*
X4824468Y20863038D01*
X4719136Y20900431D01*
X4718201Y20900780D01*
X4617074Y20940274D01*
X4616143Y20940655D01*
X4520249Y20981645D01*
X4519307Y20982066D01*
X4429736Y21023918D01*
X4428694Y21024428D01*
X4346597Y21066474D01*
X4345491Y21067069D01*
X4271873Y21108700D01*
X4270585Y21109471D01*
X4206599Y21149987D01*
X4205059Y21151032D01*
X4151657Y21189835D01*
X4150208Y21190959D01*
X4128236Y21209147D01*
X4127055Y21210178D01*
X4108116Y21227636D01*
X4106711Y21229020D01*
X4091150Y21245405D01*
X4089460Y21247344D01*
X4077422Y21262404D01*
X4075469Y21265148D01*
X4067068Y21278492D01*
X4064946Y21282509D01*
X4059605Y21294799D01*
X4058521Y21297695D01*
X4057353Y21301384D01*
X4057234Y21301770D01*
X4055816Y21306500D01*
X4055707Y21306874D01*
X4054390Y21311512D01*
X4054307Y21311813D01*
X4053060Y21316442D01*
X4052959Y21316825D01*
X4051768Y21321485D01*
X4051730Y21321637D01*
X4050628Y21326163D01*
X4050533Y21326564D01*
X4048807Y21334130D01*
X4047998Y21336919D01*
X4045046Y21345250D01*
X4044519Y21346890D01*
X4041583Y21357040D01*
X4041187Y21358557D01*
X4038636Y21369502D01*
X4038354Y21370859D01*
X4036235Y21382447D01*
X4036023Y21383777D01*
X4034379Y21395826D01*
X4034232Y21397109D01*
X4033076Y21409610D01*
X4032990Y21410812D01*
X4032360Y21423541D01*
X4032325Y21424773D01*
X4032239Y21437589D01*
X4032259Y21438905D01*
X4032734Y21451659D01*
X4032816Y21453023D01*
X4033864Y21465640D01*
X4034020Y21467083D01*
X4035651Y21479419D01*
X4035897Y21480966D01*
X4038113Y21492883D01*
X4038469Y21494534D01*
X4041278Y21505947D01*
X4041787Y21507768D01*
X4045147Y21518445D01*
X4045861Y21520456D01*
X4049768Y21530344D01*
X4050746Y21532554D01*
X4055249Y21541708D01*
X4056308Y21543671D01*
X4058383Y21547190D01*
X4059395Y21548787D01*
X4061694Y21552176D01*
X4062815Y21553721D01*
X4065306Y21556940D01*
X4066469Y21558350D01*
X4069147Y21561399D01*
X4070371Y21562712D01*
X4073262Y21565632D01*
X4074505Y21566817D01*
X4077350Y21569378D01*
X4079204Y21570916D01*
X4086409Y21576427D01*
X4088722Y21578028D01*
X4096640Y21582975D01*
X4098687Y21584143D01*
X4107627Y21588787D01*
X4109382Y21589629D01*
X4119342Y21594018D01*
X4120718Y21594584D01*
X4131607Y21598750D01*
X4132671Y21599135D01*
X4144569Y21603190D01*
X4145198Y21603396D01*
X4157924Y21607379D01*
X4158315Y21607498D01*
X4186080Y21615647D01*
X4215378Y21624413D01*
X4230513Y21629317D01*
X4246080Y21634775D01*
X4292012Y21651016D01*
X4292628Y21651226D01*
X4332603Y21664362D01*
X4333219Y21664558D01*
X4405211Y21686673D01*
X4441272Y21697934D01*
X4480064Y21710853D01*
X4523701Y21726601D01*
X4574501Y21746422D01*
X4606273Y21760309D01*
X4607510Y21760890D01*
X4637364Y21775933D01*
X4638507Y21776546D01*
X4667227Y21792938D01*
X4668265Y21793564D01*
X4695962Y21811206D01*
X4696893Y21811828D01*
X4724056Y21830891D01*
X4750702Y21851262D01*
X4776477Y21872502D01*
X4801480Y21894494D01*
X4849523Y21940229D01*
X4895477Y21987380D01*
X4983938Y22081767D01*
X4984388Y22082238D01*
X5027879Y22126955D01*
X5028736Y22127802D01*
X5072820Y22169672D01*
X5073802Y22170565D01*
X5095971Y22189852D01*
X5096806Y22190553D01*
X5119431Y22208818D01*
X5120494Y22209639D01*
X5143477Y22226620D01*
X5144688Y22227469D01*
X5168210Y22243128D01*
X5169632Y22244019D01*
X5193713Y22258210D01*
X5195323Y22259094D01*
X5220069Y22271724D01*
X5221874Y22272571D01*
X5247385Y22283545D01*
X5249370Y22284318D01*
X5275749Y22293538D01*
X5277885Y22294198D01*
X5305281Y22301573D01*
X5307481Y22302078D01*
X5336036Y22307502D01*
X5338271Y22307839D01*
X5368069Y22311184D01*
X5370344Y22311353D01*
X5401942Y22312511D01*
X5403103Y22312532D01*
X5679533Y22312423D01*
X5955963Y22312532D01*
X5957125Y22312511D01*
G37*
G36*
X36915770Y22769093D02*
G01*
X37087827Y22697825D01*
X37242674Y22594360D01*
X37374360Y22462674D01*
X37477825Y22307827D01*
X37549093Y22135770D01*
X37585425Y21953116D01*
X37585425Y21766884D01*
X37549093Y21584230D01*
X37477825Y21412173D01*
X37374360Y21257326D01*
X37242674Y21125640D01*
X37087827Y21022175D01*
X36915770Y20950907D01*
X36733116Y20914575D01*
X36546884Y20914575D01*
X36364230Y20950907D01*
X36192173Y21022175D01*
X36037326Y21125640D01*
X35905640Y21257326D01*
X35802175Y21412173D01*
X35730907Y21584230D01*
X35694575Y21766884D01*
X35694575Y21953116D01*
X35730907Y22135770D01*
X35802175Y22307827D01*
X35905640Y22462674D01*
X36037326Y22594360D01*
X36192173Y22697825D01*
X36364230Y22769093D01*
X36546884Y22805425D01*
X36733116Y22805425D01*
X36915770Y22769093D01*
G37*
G36*
X12263608Y25032434D02*
G01*
X12267986Y25021866D01*
X12267986Y23703091D01*
X12268281Y23681228D01*
X12269167Y23660015D01*
X12270640Y23639434D01*
X12272710Y23619398D01*
X12275362Y23600028D01*
X12278616Y23581202D01*
X12282451Y23563026D01*
X12286574Y23546654D01*
X12287230Y23544472D01*
X12289642Y23537608D01*
X12292714Y23529687D01*
X12295982Y23522017D01*
X12299480Y23514513D01*
X12303194Y23507211D01*
X12307112Y23500129D01*
X12311261Y23493223D01*
X12315621Y23486523D01*
X12320205Y23480003D01*
X12325003Y23473688D01*
X12330002Y23467585D01*
X12335226Y23461668D01*
X12340684Y23455929D01*
X12346339Y23450402D01*
X12352233Y23445051D01*
X12357444Y23440654D01*
X12359081Y23439385D01*
X12363957Y23435920D01*
X12364988Y23435224D01*
X12370510Y23431699D01*
X12371565Y23431061D01*
X12377339Y23427764D01*
X12378391Y23427196D01*
X12384433Y23424119D01*
X12385487Y23423613D01*
X12391823Y23420750D01*
X12392867Y23420307D01*
X12400001Y23417466D01*
X12407919Y23414711D01*
X12416121Y23412239D01*
X12424616Y23410051D01*
X12433376Y23408156D01*
X12442421Y23406549D01*
X12451763Y23405229D01*
X12461361Y23404206D01*
X12471249Y23403472D01*
X12481380Y23403033D01*
X12491876Y23402885D01*
X12502703Y23403032D01*
X12513242Y23403473D01*
X12523484Y23404207D01*
X12533393Y23405233D01*
X12543033Y23406553D01*
X12552306Y23408156D01*
X12561342Y23410059D01*
X12570034Y23412244D01*
X12578444Y23414723D01*
X12586530Y23417484D01*
X12593761Y23420314D01*
X12594818Y23420756D01*
X12601263Y23423626D01*
X12602337Y23424135D01*
X12608415Y23427195D01*
X12609498Y23427774D01*
X12615309Y23431067D01*
X12616396Y23431720D01*
X12621896Y23435216D01*
X12622964Y23435934D01*
X12627827Y23439390D01*
X12629456Y23440651D01*
X12634678Y23445050D01*
X12640597Y23450417D01*
X12646252Y23455937D01*
X12651686Y23461646D01*
X12656948Y23467599D01*
X12661939Y23473688D01*
X12666753Y23480022D01*
X12671305Y23486494D01*
X12675681Y23493222D01*
X12679824Y23500125D01*
X12683745Y23507214D01*
X12687458Y23514520D01*
X12690936Y23521992D01*
X12694214Y23529702D01*
X12697265Y23537593D01*
X12700094Y23545672D01*
X12702745Y23554335D01*
X12705239Y23563200D01*
X12707560Y23572204D01*
X12709709Y23581362D01*
X12711683Y23590657D01*
X12713490Y23600123D01*
X12716591Y23619514D01*
X12718998Y23639470D01*
X12720720Y23660072D01*
X12721754Y23681271D01*
X12722099Y23703084D01*
X12722099Y25021866D01*
X12726476Y25032434D01*
X12737045Y25036811D01*
X13244842Y25036811D01*
X13255410Y25032434D01*
X13259788Y25021866D01*
X13259788Y23766874D01*
X13259784Y23766361D01*
X13259098Y23719034D01*
X13259071Y23718132D01*
X13257026Y23672271D01*
X13256966Y23671276D01*
X13253553Y23626567D01*
X13253466Y23625633D01*
X13248690Y23582118D01*
X13248564Y23581130D01*
X13242432Y23538874D01*
X13242255Y23537792D01*
X13234776Y23496802D01*
X13234545Y23495662D01*
X13225725Y23455937D01*
X13225424Y23454698D01*
X13215188Y23415930D01*
X13215048Y23415415D01*
X13209834Y23397011D01*
X13209615Y23396270D01*
X13204034Y23378249D01*
X13203821Y23377590D01*
X13197877Y23359943D01*
X13197617Y23359202D01*
X13191272Y23341827D01*
X13190991Y23341087D01*
X13184290Y23324099D01*
X13183997Y23323383D01*
X13176902Y23306685D01*
X13176568Y23305925D01*
X13169098Y23289559D01*
X13168774Y23288874D01*
X13160914Y23272804D01*
X13160560Y23272106D01*
X13152327Y23256371D01*
X13151911Y23255603D01*
X13143343Y23240267D01*
X13142923Y23239538D01*
X13133883Y23224360D01*
X13133505Y23223746D01*
X13124106Y23208920D01*
X13123672Y23208257D01*
X13113915Y23193782D01*
X13113434Y23193088D01*
X13103333Y23178980D01*
X13102784Y23178236D01*
X13092331Y23164477D01*
X13091751Y23163736D01*
X13081018Y23150409D01*
X13080175Y23149407D01*
X13069038Y23136758D01*
X13068438Y23136098D01*
X13056791Y23123686D01*
X13056132Y23123006D01*
X13044151Y23111022D01*
X13043449Y23110343D01*
X13030988Y23098642D01*
X13030342Y23098054D01*
X13017521Y23086749D01*
X13016790Y23086126D01*
X13003497Y23075121D01*
X13002822Y23074580D01*
X12989164Y23063964D01*
X12988423Y23063406D01*
X12974329Y23053125D01*
X12973587Y23052600D01*
X12959132Y23042706D01*
X12958398Y23042220D01*
X12943428Y23032611D01*
X12942733Y23032180D01*
X12927344Y23022923D01*
X12926637Y23022511D01*
X12910873Y23013632D01*
X12910094Y23013208D01*
X12893935Y23004692D01*
X12893287Y23004362D01*
X12876590Y22996142D01*
X12875810Y22995769D01*
X12858856Y22987980D01*
X12858100Y22987644D01*
X12840764Y22980223D01*
X12839703Y22979793D01*
X12822376Y22973166D01*
X12821552Y22972865D01*
X12803664Y22966627D01*
X12802761Y22966327D01*
X12784472Y22960537D01*
X12783623Y22960281D01*
X12764810Y22954899D01*
X12763925Y22954658D01*
X12744686Y22949714D01*
X12743865Y22949515D01*
X12724002Y22944961D01*
X12723253Y22944799D01*
X12702914Y22940675D01*
X12702249Y22940549D01*
X12681346Y22936841D01*
X12680733Y22936740D01*
X12659313Y22933459D01*
X12658725Y22933376D01*
X12636855Y22930534D01*
X12636267Y22930464D01*
X12613922Y22928059D01*
X12613318Y22928000D01*
X12590498Y22926031D01*
X12589869Y22925983D01*
X12566639Y22924455D01*
X12565998Y22924419D01*
X12542274Y22923325D01*
X12541715Y22923305D01*
X12517401Y22922646D01*
X12516871Y22922636D01*
X12492125Y22922416D01*
X12491968Y22922416D01*
X12491550Y22922420D01*
X12442267Y22923302D01*
X12441197Y22923341D01*
X12393933Y22925972D01*
X12392761Y22926061D01*
X12347273Y22930445D01*
X12346317Y22930552D01*
X12324488Y22933368D01*
X12323744Y22933473D01*
X12302334Y22936724D01*
X12301542Y22936854D01*
X12280578Y22940536D01*
X12279861Y22940670D01*
X12259217Y22944809D01*
X12258566Y22944948D01*
X12238337Y22949526D01*
X12237667Y22949687D01*
X12218001Y22954668D01*
X12217260Y22954867D01*
X12198017Y22960285D01*
X12197199Y22960527D01*
X12178518Y22966339D01*
X12177676Y22966613D01*
X12159452Y22972847D01*
X12158577Y22973159D01*
X12140973Y22979751D01*
X12139727Y22980251D01*
X12122392Y22987671D01*
X12121753Y22987954D01*
X12104654Y22995797D01*
X12103928Y22996142D01*
X12087319Y23004293D01*
X12086507Y23004705D01*
X12070265Y23013221D01*
X12069512Y23013629D01*
X12053632Y23022514D01*
X12052975Y23022894D01*
X12037409Y23032177D01*
X12036703Y23032612D01*
X12021623Y23042191D01*
X12020896Y23042668D01*
X12006207Y23052599D01*
X12005456Y23053123D01*
X11991174Y23063392D01*
X11990471Y23063914D01*
X11976582Y23074531D01*
X11975802Y23075146D01*
X11962359Y23086066D01*
X11961605Y23086698D01*
X11948483Y23098023D01*
X11947802Y23098628D01*
X11935063Y23110309D01*
X11934401Y23110935D01*
X11922048Y23122964D01*
X11921350Y23123665D01*
X11909379Y23136052D01*
X11908774Y23136697D01*
X11897396Y23149205D01*
X11896249Y23150544D01*
X11885553Y23163807D01*
X11885099Y23164384D01*
X11874476Y23178283D01*
X11874021Y23178894D01*
X11863746Y23193086D01*
X11863254Y23193784D01*
X11853380Y23208194D01*
X11852948Y23208841D01*
X11843279Y23223755D01*
X11842899Y23224356D01*
X11833667Y23239422D01*
X11833245Y23240132D01*
X11824270Y23255640D01*
X11823948Y23256213D01*
X11815290Y23272066D01*
X11814957Y23272694D01*
X11806659Y23288818D01*
X11806325Y23289487D01*
X11798405Y23305841D01*
X11798101Y23306490D01*
X11790444Y23323309D01*
X11790186Y23323895D01*
X11782850Y23341071D01*
X11782601Y23341672D01*
X11775670Y23358998D01*
X11775372Y23359768D01*
X11768781Y23377394D01*
X11768523Y23378109D01*
X11762229Y23396156D01*
X11762035Y23396733D01*
X11756188Y23414759D01*
X11755718Y23416362D01*
X11745595Y23454742D01*
X11745322Y23455868D01*
X11736487Y23495684D01*
X11736260Y23496804D01*
X11728784Y23537781D01*
X11728602Y23538894D01*
X11722473Y23581101D01*
X11722340Y23582141D01*
X11717562Y23625616D01*
X11717467Y23626628D01*
X11714056Y23671238D01*
X11713995Y23672248D01*
X11711942Y23718154D01*
X11711917Y23719020D01*
X11711228Y23766365D01*
X11711225Y23766872D01*
X11711225Y25021866D01*
X11715602Y25032434D01*
X11726171Y25036811D01*
X12253040Y25036811D01*
X12263608Y25032434D01*
G37*
G36*
X14465210Y25074689D02*
G01*
X14466027Y25074669D01*
X14488413Y25073874D01*
X14489171Y25073838D01*
X14511550Y25072511D01*
X14512289Y25072459D01*
X14534789Y25070592D01*
X14535424Y25070532D01*
X14557953Y25068128D01*
X14558584Y25068053D01*
X14581074Y25065120D01*
X14581774Y25065021D01*
X14604256Y25061557D01*
X14604917Y25061447D01*
X14627415Y25057447D01*
X14628061Y25057324D01*
X14650606Y25052781D01*
X14651172Y25052660D01*
X14673812Y25047562D01*
X14674355Y25047434D01*
X14696910Y25041820D01*
X14697554Y25041652D01*
X14720069Y25035515D01*
X14720679Y25035341D01*
X14743269Y25028647D01*
X14743828Y25028475D01*
X14766308Y25021281D01*
X14767004Y25021051D01*
X14789610Y25013280D01*
X14790170Y25013081D01*
X14812880Y25004737D01*
X14812880Y25004736D01*
X14813021Y25004684D01*
X14813021Y25004685D01*
X14835959Y24996186D01*
X14836610Y24995935D01*
X14859078Y24986944D01*
X14859765Y24986659D01*
X14881836Y24977154D01*
X14882588Y24976819D01*
X14904410Y24966742D01*
X14905094Y24966415D01*
X14926649Y24955770D01*
X14927265Y24955455D01*
X14948527Y24944253D01*
X14949215Y24943879D01*
X14970189Y24932120D01*
X14970814Y24931759D01*
X14991467Y24919461D01*
X14992198Y24919012D01*
X15012458Y24906223D01*
X15013172Y24905759D01*
X15033274Y24892329D01*
X15033902Y24891898D01*
X15053631Y24877970D01*
X15054320Y24877471D01*
X15073760Y24862989D01*
X15074399Y24862500D01*
X15093647Y24847386D01*
X15094225Y24846921D01*
X15113130Y24831296D01*
X15113772Y24830752D01*
X15132331Y24814620D01*
X15132928Y24814087D01*
X15144197Y24803795D01*
X15149465Y24792547D01*
X15146430Y24783187D01*
X14884895Y24454748D01*
X14873583Y24448486D01*
X14864834Y24450520D01*
X14844440Y24463586D01*
X14817207Y24480139D01*
X14790237Y24495628D01*
X14763565Y24510028D01*
X14737237Y24523316D01*
X14711196Y24535524D01*
X14685489Y24546628D01*
X14660036Y24556663D01*
X14647275Y24561231D01*
X14634140Y24565505D01*
X14620603Y24569495D01*
X14606724Y24573182D01*
X14592458Y24576579D01*
X14577836Y24579679D01*
X14562778Y24582495D01*
X14547371Y24585011D01*
X14531651Y24587223D01*
X14515459Y24589153D01*
X14498944Y24590782D01*
X14482013Y24592117D01*
X14464791Y24593151D01*
X14447067Y24593895D01*
X14429083Y24594339D01*
X14410706Y24594488D01*
X14399787Y24594352D01*
X14389171Y24593948D01*
X14378817Y24593275D01*
X14368660Y24592328D01*
X14358840Y24591121D01*
X14349237Y24589644D01*
X14339855Y24587891D01*
X14330767Y24585881D01*
X14321938Y24583606D01*
X14313319Y24581056D01*
X14305013Y24578258D01*
X14296910Y24575180D01*
X14289070Y24571840D01*
X14281476Y24568238D01*
X14274145Y24564379D01*
X14266960Y24560197D01*
X14266958Y24560195D01*
X14263483Y24558196D01*
X14260223Y24556179D01*
X14257047Y24554070D01*
X14254003Y24551901D01*
X14251081Y24549667D01*
X14248236Y24547334D01*
X14245516Y24544936D01*
X14242935Y24542492D01*
X14240402Y24539913D01*
X14238027Y24537312D01*
X14235745Y24534623D01*
X14233568Y24531853D01*
X14231493Y24528997D01*
X14229542Y24526099D01*
X14227668Y24523073D01*
X14225927Y24520013D01*
X14224274Y24516851D01*
X14222724Y24513597D01*
X14221299Y24510308D01*
X14219959Y24506891D01*
X14218739Y24503439D01*
X14217603Y24499836D01*
X14216588Y24496202D01*
X14215683Y24492494D01*
X14214872Y24488662D01*
X14214175Y24484775D01*
X14213579Y24480778D01*
X14213099Y24476761D01*
X14212714Y24472552D01*
X14212447Y24468375D01*
X14212246Y24460237D01*
X14212246Y24458991D01*
X14212355Y24454646D01*
X14212422Y24453343D01*
X14212748Y24449131D01*
X14212887Y24447800D01*
X14213414Y24443789D01*
X14213636Y24442407D01*
X14214371Y24438517D01*
X14214672Y24437138D01*
X14215592Y24433431D01*
X14215981Y24432039D01*
X14217109Y24428404D01*
X14217583Y24427023D01*
X14218898Y24423522D01*
X14219456Y24422160D01*
X14220971Y24418753D01*
X14221604Y24417434D01*
X14223342Y24414069D01*
X14224042Y24412807D01*
X14226004Y24409492D01*
X14226766Y24408285D01*
X14228930Y24405066D01*
X14229738Y24403932D01*
X14232178Y24400705D01*
X14233030Y24399640D01*
X14235725Y24396453D01*
X14236590Y24395482D01*
X14239563Y24392317D01*
X14240453Y24391416D01*
X14243704Y24388287D01*
X14244594Y24387471D01*
X14248598Y24383974D01*
X14253366Y24380122D01*
X14258430Y24376272D01*
X14263760Y24372447D01*
X14269389Y24368623D01*
X14275289Y24364823D01*
X14281466Y24361041D01*
X14287905Y24357289D01*
X14294628Y24353553D01*
X14301665Y24349819D01*
X14308900Y24346146D01*
X14316510Y24342445D01*
X14324346Y24338793D01*
X14332449Y24335167D01*
X14340822Y24331565D01*
X14349486Y24327982D01*
X14358532Y24324377D01*
X14438560Y24293469D01*
X14532892Y24257803D01*
X14533739Y24257468D01*
X14771734Y24159097D01*
X14805509Y24146124D01*
X14806531Y24145710D01*
X14838697Y24131957D01*
X14839439Y24131627D01*
X14854859Y24124495D01*
X14855361Y24124257D01*
X14870432Y24116913D01*
X14871029Y24116614D01*
X14885835Y24109019D01*
X14886345Y24108750D01*
X14900765Y24100963D01*
X14901337Y24100646D01*
X14915384Y24092662D01*
X14915954Y24092330D01*
X14929660Y24084135D01*
X14930232Y24083784D01*
X14943605Y24075369D01*
X14944169Y24075005D01*
X14957170Y24066397D01*
X14957774Y24065988D01*
X14970412Y24057184D01*
X14970990Y24056771D01*
X14983285Y24047759D01*
X14983902Y24047296D01*
X14995790Y24038124D01*
X14996429Y24037618D01*
X15008240Y24028027D01*
X15020094Y24018583D01*
X15020741Y24018053D01*
X15031958Y24008596D01*
X15032566Y24008068D01*
X15043479Y23998331D01*
X15044076Y23997783D01*
X15054550Y23987884D01*
X15055215Y23987238D01*
X15065303Y23977136D01*
X15065948Y23976471D01*
X15075663Y23966156D01*
X15076284Y23965476D01*
X15085698Y23954869D01*
X15086283Y23954191D01*
X15095324Y23943370D01*
X15095906Y23942652D01*
X15104567Y23931632D01*
X15105128Y23930895D01*
X15113434Y23919642D01*
X15113996Y23918856D01*
X15121960Y23907354D01*
X15122474Y23906588D01*
X15130111Y23894811D01*
X15130562Y23894093D01*
X15137851Y23882070D01*
X15138311Y23881284D01*
X15145233Y23869049D01*
X15145645Y23868296D01*
X15152229Y23855795D01*
X15152650Y23854966D01*
X15158852Y23842287D01*
X15159233Y23841476D01*
X15165080Y23828506D01*
X15165468Y23827608D01*
X15170910Y23814449D01*
X15171237Y23813622D01*
X15176336Y23800123D01*
X15176664Y23799211D01*
X15181376Y23785482D01*
X15181655Y23784628D01*
X15185989Y23770647D01*
X15186261Y23769724D01*
X15190224Y23755463D01*
X15190440Y23754640D01*
X15194048Y23740034D01*
X15194247Y23739175D01*
X15197470Y23724334D01*
X15197643Y23723483D01*
X15200498Y23708326D01*
X15200630Y23707569D01*
X15203115Y23692082D01*
X15203223Y23691353D01*
X15205333Y23675555D01*
X15205415Y23674870D01*
X15207145Y23658781D01*
X15207213Y23658067D01*
X15208559Y23641716D01*
X15208604Y23641059D01*
X15209569Y23624391D01*
X15209601Y23623695D01*
X15210178Y23606813D01*
X15210194Y23606115D01*
X15210386Y23589058D01*
X15210383Y23588188D01*
X15210023Y23567184D01*
X15209986Y23566125D01*
X15208916Y23545435D01*
X15208845Y23544408D01*
X15207055Y23523834D01*
X15206946Y23522786D01*
X15204445Y23502408D01*
X15204300Y23501376D01*
X15201087Y23481184D01*
X15200899Y23480124D01*
X15196965Y23460064D01*
X15196744Y23459034D01*
X15192107Y23439190D01*
X15191848Y23438166D01*
X15186489Y23418455D01*
X15186186Y23417413D01*
X15180121Y23397901D01*
X15179804Y23396942D01*
X15172988Y23377483D01*
X15172640Y23376542D01*
X15165128Y23357308D01*
X15164734Y23356351D01*
X15156511Y23337292D01*
X15156089Y23336361D01*
X15147134Y23317435D01*
X15146671Y23316498D01*
X15137015Y23297768D01*
X15136578Y23296955D01*
X15126115Y23278228D01*
X15125633Y23277396D01*
X15114603Y23259094D01*
X15113890Y23257968D01*
X15102192Y23240374D01*
X15101554Y23239453D01*
X15089137Y23222209D01*
X15088457Y23221301D01*
X15075360Y23204468D01*
X15074661Y23203602D01*
X15060910Y23187214D01*
X15060173Y23186367D01*
X15045734Y23170382D01*
X15045013Y23169612D01*
X15029870Y23154016D01*
X15029094Y23153245D01*
X15013348Y23138143D01*
X15012525Y23137382D01*
X14996049Y23122650D01*
X14995261Y23121969D01*
X14978113Y23107665D01*
X14977290Y23107002D01*
X14959435Y23093095D01*
X14958663Y23092514D01*
X14940071Y23078990D01*
X14939311Y23078456D01*
X14920022Y23065347D01*
X14919214Y23064817D01*
X14899313Y23052180D01*
X14898532Y23051699D01*
X14877845Y23039426D01*
X14877067Y23038980D01*
X14855738Y23027158D01*
X14854975Y23026749D01*
X14832951Y23015348D01*
X14832059Y23014904D01*
X14809486Y23004125D01*
X14808484Y23003668D01*
X14785284Y22993580D01*
X14784357Y22993196D01*
X14760455Y22983773D01*
X14759497Y22983414D01*
X14735034Y22974712D01*
X14734038Y22974376D01*
X14708872Y22966344D01*
X14707957Y22966068D01*
X14682128Y22958725D01*
X14681222Y22958482D01*
X14654683Y22951817D01*
X14653849Y22951621D01*
X14626723Y22945666D01*
X14625772Y22945472D01*
X14598027Y22940219D01*
X14597146Y22940065D01*
X14568649Y22935493D01*
X14567886Y22935382D01*
X14538672Y22931502D01*
X14537922Y22931412D01*
X14508058Y22928235D01*
X14507377Y22928172D01*
X14476762Y22925692D01*
X14476124Y22925648D01*
X14444962Y22923881D01*
X14444190Y22923846D01*
X14412396Y22922787D01*
X14411716Y22922771D01*
X14388919Y22922523D01*
X14388501Y22922691D01*
X14368977Y22922635D01*
X14368713Y22922528D01*
X14353646Y22922696D01*
X14353000Y22922711D01*
X14327984Y22923550D01*
X14327351Y22923578D01*
X14302237Y22924978D01*
X14301563Y22925023D01*
X14276490Y22926975D01*
X14275773Y22927039D01*
X14250541Y22929555D01*
X14249980Y22929617D01*
X14224614Y22932701D01*
X14223981Y22932785D01*
X14198579Y22936424D01*
X14197884Y22936531D01*
X14172678Y22940686D01*
X14171701Y22940863D01*
X14120333Y22950980D01*
X14119182Y22951231D01*
X14067669Y22963562D01*
X14066537Y22963856D01*
X14014641Y22978455D01*
X14013539Y22978788D01*
X13961375Y22995626D01*
X13960388Y22995964D01*
X13934937Y23005171D01*
X13934306Y23005407D01*
X13908971Y23015253D01*
X13908389Y23015487D01*
X13883344Y23025909D01*
X13882740Y23026168D01*
X13857981Y23037166D01*
X13857373Y23037444D01*
X13832870Y23049032D01*
X13832229Y23049344D01*
X13808033Y23061496D01*
X13807413Y23061816D01*
X13783435Y23074578D01*
X13782927Y23074856D01*
X13759169Y23088228D01*
X13758612Y23088551D01*
X13735140Y23102500D01*
X13734579Y23102842D01*
X13711417Y23117350D01*
X13710888Y23117689D01*
X13687990Y23132784D01*
X13687459Y23133143D01*
X13664808Y23148838D01*
X13664241Y23149240D01*
X13641900Y23165490D01*
X13641319Y23165922D01*
X13619281Y23182729D01*
X13618715Y23183172D01*
X13596920Y23200582D01*
X13596368Y23201033D01*
X13582252Y23212832D01*
X13576929Y23223010D01*
X13580309Y23233862D01*
X13879154Y23593695D01*
X13890045Y23599435D01*
X13899705Y23596758D01*
X13921905Y23580464D01*
X13951909Y23559799D01*
X13982446Y23540102D01*
X14013444Y23521415D01*
X14044963Y23503703D01*
X14076951Y23486995D01*
X14109477Y23471254D01*
X14141773Y23456825D01*
X14143033Y23456303D01*
X14159302Y23450074D01*
X14176338Y23443982D01*
X14193363Y23438323D01*
X14210403Y23433085D01*
X14227504Y23428256D01*
X14244642Y23423844D01*
X14261728Y23419871D01*
X14278919Y23416298D01*
X14296085Y23413156D01*
X14313270Y23410434D01*
X14330522Y23408125D01*
X14347754Y23406241D01*
X14365083Y23404768D01*
X14382326Y23403724D01*
X14399700Y23403093D01*
X14417042Y23402884D01*
X14432198Y23403020D01*
X14446696Y23403427D01*
X14460630Y23404103D01*
X14474069Y23405055D01*
X14486863Y23406272D01*
X14499037Y23407753D01*
X14510707Y23409511D01*
X14521735Y23411527D01*
X14532229Y23413817D01*
X14542108Y23416362D01*
X14550835Y23418997D01*
X14551910Y23419348D01*
X14559525Y23422028D01*
X14560678Y23422466D01*
X14567579Y23425285D01*
X14568830Y23425836D01*
X14575067Y23428790D01*
X14576394Y23429468D01*
X14581965Y23432526D01*
X14583368Y23433357D01*
X14589144Y23437036D01*
X14595525Y23441360D01*
X14600989Y23445429D01*
X14601926Y23446162D01*
X14606463Y23449889D01*
X14607428Y23450724D01*
X14611550Y23454478D01*
X14612527Y23455418D01*
X14616201Y23459147D01*
X14617186Y23460207D01*
X14620441Y23463919D01*
X14621413Y23465098D01*
X14624286Y23468808D01*
X14625221Y23470100D01*
X14627698Y23473759D01*
X14628582Y23475164D01*
X14630855Y23479054D01*
X14631486Y23480202D01*
X14632524Y23482215D01*
X14633757Y23484824D01*
X14634905Y23487485D01*
X14635950Y23490180D01*
X14636892Y23492890D01*
X14637730Y23495610D01*
X14638482Y23498403D01*
X14639124Y23501189D01*
X14639668Y23504006D01*
X14640127Y23506924D01*
X14640469Y23509790D01*
X14640660Y23512029D01*
X14640737Y23513320D01*
X14640897Y23518068D01*
X14640906Y23519368D01*
X14640785Y23525960D01*
X14640388Y23532993D01*
X14639724Y23539841D01*
X14638793Y23546503D01*
X14637714Y23552349D01*
X14637478Y23553477D01*
X14636290Y23558582D01*
X14635990Y23559743D01*
X14634620Y23564567D01*
X14634254Y23565743D01*
X14632681Y23570398D01*
X14632237Y23571606D01*
X14630493Y23576005D01*
X14629980Y23577206D01*
X14628049Y23581419D01*
X14627457Y23582625D01*
X14625335Y23586667D01*
X14624664Y23587863D01*
X14622368Y23591709D01*
X14621637Y23592860D01*
X14619151Y23596551D01*
X14618344Y23597680D01*
X14615647Y23601239D01*
X14614787Y23602312D01*
X14611907Y23605707D01*
X14610993Y23606727D01*
X14607783Y23610118D01*
X14606993Y23610915D01*
X14603034Y23614737D01*
X14598414Y23618918D01*
X14593517Y23623082D01*
X14588399Y23627179D01*
X14583002Y23631256D01*
X14577389Y23635266D01*
X14571518Y23639237D01*
X14565346Y23643197D01*
X14558999Y23647064D01*
X14552337Y23650926D01*
X14545447Y23654728D01*
X14538349Y23658461D01*
X14530943Y23662178D01*
X14523277Y23665851D01*
X14515412Y23669453D01*
X14507279Y23673016D01*
X14472101Y23687922D01*
X14433356Y23704017D01*
X14391252Y23721214D01*
X14345461Y23739649D01*
X14344966Y23739853D01*
X14087724Y23847831D01*
X14059029Y23859267D01*
X14058066Y23859671D01*
X14030186Y23871942D01*
X14029196Y23872399D01*
X14001835Y23885619D01*
X14000920Y23886082D01*
X13974024Y23900277D01*
X13973064Y23900807D01*
X13946694Y23915945D01*
X13945760Y23916503D01*
X13919869Y23932608D01*
X13918971Y23933189D01*
X13893529Y23950282D01*
X13892690Y23950867D01*
X13867970Y23968755D01*
X13866490Y23969900D01*
X13855143Y23979277D01*
X13854581Y23979752D01*
X13843179Y23989650D01*
X13842651Y23990119D01*
X13831501Y24000286D01*
X13830992Y24000761D01*
X13820164Y24011133D01*
X13819603Y24011684D01*
X13809034Y24022324D01*
X13808564Y24022808D01*
X13798302Y24033664D01*
X13797836Y24034170D01*
X13787815Y24045317D01*
X13787330Y24045870D01*
X13777639Y24057206D01*
X13777185Y24057751D01*
X13767775Y24069333D01*
X13767284Y24069953D01*
X13758244Y24081666D01*
X13757736Y24082343D01*
X13748978Y24094295D01*
X13748468Y24095011D01*
X13740001Y24107194D01*
X13739547Y24107864D01*
X13731291Y24120396D01*
X13730901Y24121004D01*
X13722943Y24133757D01*
X13722582Y24134351D01*
X13714858Y24147433D01*
X13714518Y24148023D01*
X13707347Y24160870D01*
X13706488Y24162528D01*
X13700085Y24175874D01*
X13699671Y24176775D01*
X13693514Y24190748D01*
X13693113Y24191698D01*
X13687392Y24205907D01*
X13687075Y24206732D01*
X13681737Y24221311D01*
X13681417Y24222230D01*
X13676535Y24236980D01*
X13676255Y24237874D01*
X13671791Y24252906D01*
X13671533Y24253825D01*
X13667471Y24269207D01*
X13667266Y24270033D01*
X13663631Y24285679D01*
X13663438Y24286566D01*
X13660247Y24302391D01*
X13660067Y24303357D01*
X13657299Y24319462D01*
X13657156Y24320367D01*
X13654807Y24336772D01*
X13654691Y24337670D01*
X13652760Y24354426D01*
X13652680Y24355203D01*
X13651176Y24372237D01*
X13651115Y24373047D01*
X13650035Y24390446D01*
X13650000Y24391158D01*
X13649352Y24408790D01*
X13649334Y24409552D01*
X13649119Y24427370D01*
X13649122Y24428331D01*
X13649490Y24449539D01*
X13649530Y24450677D01*
X13650636Y24471589D01*
X13650714Y24472691D01*
X13652555Y24493326D01*
X13652675Y24494437D01*
X13655256Y24514845D01*
X13655412Y24515922D01*
X13658720Y24536006D01*
X13658931Y24537147D01*
X13662969Y24556933D01*
X13663229Y24558097D01*
X13668001Y24577626D01*
X13668288Y24578710D01*
X13673800Y24597999D01*
X13674157Y24599164D01*
X13680376Y24618108D01*
X13680771Y24619234D01*
X13687753Y24638003D01*
X13688170Y24639061D01*
X13695870Y24657525D01*
X13696347Y24658608D01*
X13704802Y24676858D01*
X13705318Y24677919D01*
X13714492Y24695875D01*
X13715028Y24696876D01*
X13724944Y24714587D01*
X13725527Y24715582D01*
X13736229Y24733116D01*
X13736791Y24734000D01*
X13748297Y24751369D01*
X13748765Y24752056D01*
X13760923Y24769436D01*
X13761558Y24770310D01*
X13774261Y24787163D01*
X13774913Y24787997D01*
X13788228Y24804419D01*
X13788895Y24805211D01*
X13802812Y24821183D01*
X13803552Y24822003D01*
X13818017Y24837471D01*
X13818740Y24838217D01*
X13833914Y24853345D01*
X13834607Y24854012D01*
X13850359Y24868665D01*
X13851068Y24869302D01*
X13867454Y24883530D01*
X13868239Y24884189D01*
X13885174Y24897920D01*
X13885910Y24898497D01*
X13903537Y24911846D01*
X13904284Y24912393D01*
X13922482Y24925264D01*
X13923244Y24925785D01*
X13942132Y24938257D01*
X13942854Y24938718D01*
X13962235Y24950665D01*
X13963097Y24951178D01*
X13983108Y24962688D01*
X13983946Y24963154D01*
X14004573Y24974215D01*
X14005328Y24974606D01*
X14026800Y24985332D01*
X14027251Y24985553D01*
X14049165Y24996064D01*
X14050057Y24996474D01*
X14072206Y25006219D01*
X14073150Y25006615D01*
X14095718Y25015683D01*
X14096640Y25016037D01*
X14119660Y25024439D01*
X14120588Y25024761D01*
X14144161Y25032531D01*
X14144986Y25032789D01*
X14168960Y25039874D01*
X14169879Y25040130D01*
X14194249Y25046530D01*
X14195159Y25046755D01*
X14220077Y25052506D01*
X14220864Y25052676D01*
X14246248Y25057759D01*
X14247074Y25057911D01*
X14272826Y25062303D01*
X14273708Y25062441D01*
X14299967Y25066168D01*
X14300822Y25066278D01*
X14327487Y25069324D01*
X14328319Y25069407D01*
X14355445Y25071777D01*
X14356266Y25071838D01*
X14383972Y25073541D01*
X14384668Y25073576D01*
X14412757Y25074595D01*
X14413576Y25074615D01*
X14442069Y25074953D01*
X14442863Y25074953D01*
X14465210Y25074689D01*
G37*
G36*
X10374982Y25030486D02*
G01*
X10376218Y25028568D01*
X10720724Y24111995D01*
X10720939Y24111412D01*
X10757010Y24012044D01*
X10843914Y24032969D01*
X10838005Y24080239D01*
X10837962Y24080603D01*
X10832199Y24133016D01*
X10832150Y24133498D01*
X10827276Y24185098D01*
X10827230Y24185629D01*
X10823235Y24236540D01*
X10823198Y24237058D01*
X10820102Y24286990D01*
X10820070Y24287595D01*
X10817857Y24336764D01*
X10817836Y24337322D01*
X10816508Y24385729D01*
X10816497Y24386298D01*
X10816054Y24433967D01*
X10816053Y24434384D01*
X10816053Y25021866D01*
X10820430Y25032434D01*
X10830999Y25036811D01*
X11332438Y25036811D01*
X11343006Y25032434D01*
X11347384Y25021866D01*
X11347384Y22975506D01*
X11343006Y22964938D01*
X11332438Y22960560D01*
X10799211Y22960560D01*
X10783955Y22966879D01*
X10782703Y22968825D01*
X10438157Y23888665D01*
X10438009Y23889067D01*
X10400234Y23992411D01*
X10313331Y23971220D01*
X10320899Y23912392D01*
X10320953Y23911944D01*
X10326723Y23860761D01*
X10326766Y23860344D01*
X10331654Y23809692D01*
X10331690Y23809279D01*
X10335686Y23759266D01*
X10335723Y23758744D01*
X10338818Y23709539D01*
X10338854Y23708856D01*
X10341067Y23660196D01*
X10341086Y23659692D01*
X10342416Y23611508D01*
X10342426Y23610996D01*
X10342870Y23563403D01*
X10342872Y23562988D01*
X10342872Y22975506D01*
X10338494Y22964938D01*
X10327926Y22960560D01*
X9826483Y22960560D01*
X9815914Y22964938D01*
X9811537Y22975506D01*
X9811537Y25021866D01*
X9815914Y25032434D01*
X9826483Y25036811D01*
X10359711Y25036811D01*
X10374982Y25030486D01*
G37*
G36*
X36915770Y25309093D02*
G01*
X37087827Y25237825D01*
X37242674Y25134360D01*
X37374360Y25002674D01*
X37477825Y24847827D01*
X37549093Y24675770D01*
X37585425Y24493116D01*
X37585425Y24306884D01*
X37549093Y24124230D01*
X37477825Y23952173D01*
X37374360Y23797326D01*
X37242674Y23665640D01*
X37087827Y23562175D01*
X36915770Y23490907D01*
X36733116Y23454575D01*
X36546884Y23454575D01*
X36364230Y23490907D01*
X36192173Y23562175D01*
X36037326Y23665640D01*
X35905640Y23797326D01*
X35802175Y23952173D01*
X35730907Y24124230D01*
X35694575Y24306884D01*
X35694575Y24493116D01*
X35730907Y24675770D01*
X35802175Y24847827D01*
X35905640Y25002674D01*
X36037326Y25134360D01*
X36192173Y25237825D01*
X36364230Y25309093D01*
X36546884Y25345425D01*
X36733116Y25345425D01*
X36915770Y25309093D01*
G37*
G36*
X25949868Y25085450D02*
G01*
X25955586Y25082655D01*
X25957962Y25082278D01*
X25995987Y25062904D01*
X26053377Y25034847D01*
X26134847Y24953377D01*
X26162907Y24895980D01*
X26182276Y24857966D01*
X26182652Y24855592D01*
X26185450Y24849868D01*
X26200000Y24750000D01*
X26200000Y24050000D01*
X26185450Y23950132D01*
X26182652Y23944411D01*
X26182277Y23942038D01*
X26162926Y23904061D01*
X26134847Y23846623D01*
X26053377Y23765153D01*
X25995955Y23737081D01*
X25957965Y23717724D01*
X25955591Y23717349D01*
X25949868Y23714550D01*
X25850000Y23700000D01*
X24950000Y23700000D01*
X24850132Y23714550D01*
X24844410Y23717348D01*
X24842037Y23717723D01*
X24804035Y23737086D01*
X24746623Y23765153D01*
X24665153Y23846623D01*
X24637104Y23903997D01*
X24617723Y23942035D01*
X24617346Y23944412D01*
X24614550Y23950132D01*
X24600000Y24050000D01*
X24600000Y24750000D01*
X24614550Y24849868D01*
X24617345Y24855587D01*
X24617722Y24857963D01*
X24637108Y24896013D01*
X24665153Y24953377D01*
X24746623Y25034847D01*
X24803971Y25062884D01*
X24842034Y25082277D01*
X24844411Y25082654D01*
X24850132Y25085450D01*
X24950000Y25100000D01*
X25850000Y25100000D01*
X25949868Y25085450D01*
G37*
G36*
X29759868Y25085450D02*
G01*
X29765586Y25082655D01*
X29767962Y25082278D01*
X29805987Y25062904D01*
X29863377Y25034847D01*
X29944847Y24953377D01*
X29972907Y24895980D01*
X29992276Y24857966D01*
X29992652Y24855592D01*
X29995450Y24849868D01*
X30010000Y24750000D01*
X30010000Y24050000D01*
X29995450Y23950132D01*
X29992652Y23944411D01*
X29992277Y23942038D01*
X29972926Y23904061D01*
X29944847Y23846623D01*
X29863377Y23765153D01*
X29805955Y23737081D01*
X29767965Y23717724D01*
X29765591Y23717349D01*
X29759868Y23714550D01*
X29660000Y23700000D01*
X28760000Y23700000D01*
X28660132Y23714550D01*
X28654410Y23717348D01*
X28652037Y23717723D01*
X28614035Y23737086D01*
X28556623Y23765153D01*
X28475153Y23846623D01*
X28447104Y23903997D01*
X28427723Y23942035D01*
X28427346Y23944412D01*
X28424550Y23950132D01*
X28410000Y24050000D01*
X28410000Y24750000D01*
X28424550Y24849868D01*
X28427345Y24855587D01*
X28427722Y24857963D01*
X28447108Y24896013D01*
X28475153Y24953377D01*
X28556623Y25034847D01*
X28613971Y25062884D01*
X28652034Y25082277D01*
X28654411Y25082654D01*
X28660132Y25085450D01*
X28760000Y25100000D01*
X29660000Y25100000D01*
X29759868Y25085450D01*
G37*
G36*
X84819868Y28945450D02*
G01*
X84825586Y28942655D01*
X84827962Y28942278D01*
X84865987Y28922904D01*
X84923377Y28894847D01*
X85004847Y28813377D01*
X85032907Y28755980D01*
X85052276Y28717966D01*
X85052652Y28715592D01*
X85055450Y28709868D01*
X85070000Y28610000D01*
X85070000Y25610000D01*
X85055450Y25510132D01*
X85052652Y25504411D01*
X85052277Y25502038D01*
X85032926Y25464061D01*
X85004847Y25406623D01*
X84923377Y25325153D01*
X84865955Y25297081D01*
X84827965Y25277724D01*
X84825591Y25277349D01*
X84819868Y25274550D01*
X84720000Y25260000D01*
X81720000Y25260000D01*
X81620132Y25274550D01*
X81614410Y25277348D01*
X81612037Y25277723D01*
X81574035Y25297086D01*
X81516623Y25325153D01*
X81435153Y25406623D01*
X81407104Y25463997D01*
X81387723Y25502035D01*
X81387346Y25504412D01*
X81384550Y25510132D01*
X81370000Y25610000D01*
X81370000Y28610000D01*
X81384550Y28709868D01*
X81387345Y28715587D01*
X81387722Y28717963D01*
X81407108Y28756013D01*
X81435153Y28813377D01*
X81516623Y28894847D01*
X81573971Y28922884D01*
X81612034Y28942277D01*
X81614411Y28942654D01*
X81620132Y28945450D01*
X81720000Y28960000D01*
X84720000Y28960000D01*
X84819868Y28945450D01*
G37*
G36*
X25949868Y27085450D02*
G01*
X25955586Y27082655D01*
X25957962Y27082278D01*
X25995987Y27062904D01*
X26053377Y27034847D01*
X26134847Y26953377D01*
X26162907Y26895980D01*
X26182276Y26857966D01*
X26182652Y26855592D01*
X26185450Y26849868D01*
X26200000Y26750000D01*
X26200000Y26050000D01*
X26185450Y25950132D01*
X26182652Y25944411D01*
X26182277Y25942038D01*
X26162926Y25904061D01*
X26134847Y25846623D01*
X26053377Y25765153D01*
X25995955Y25737081D01*
X25957965Y25717724D01*
X25955591Y25717349D01*
X25949868Y25714550D01*
X25850000Y25700000D01*
X24950000Y25700000D01*
X24850132Y25714550D01*
X24844410Y25717348D01*
X24842037Y25717723D01*
X24804035Y25737086D01*
X24746623Y25765153D01*
X24665153Y25846623D01*
X24637104Y25903997D01*
X24617723Y25942035D01*
X24617346Y25944412D01*
X24614550Y25950132D01*
X24600000Y26050000D01*
X24600000Y26750000D01*
X24614550Y26849868D01*
X24617345Y26855587D01*
X24617722Y26857963D01*
X24637108Y26896013D01*
X24665153Y26953377D01*
X24746623Y27034847D01*
X24803971Y27062884D01*
X24842034Y27082277D01*
X24844411Y27082654D01*
X24850132Y27085450D01*
X24950000Y27100000D01*
X25850000Y27100000D01*
X25949868Y27085450D01*
G37*
G36*
X29759868Y27085450D02*
G01*
X29765586Y27082655D01*
X29767962Y27082278D01*
X29805987Y27062904D01*
X29863377Y27034847D01*
X29944847Y26953377D01*
X29972907Y26895980D01*
X29992276Y26857966D01*
X29992652Y26855592D01*
X29995450Y26849868D01*
X30010000Y26750000D01*
X30010000Y26050000D01*
X29995450Y25950132D01*
X29992652Y25944411D01*
X29992277Y25942038D01*
X29972926Y25904061D01*
X29944847Y25846623D01*
X29863377Y25765153D01*
X29805955Y25737081D01*
X29767965Y25717724D01*
X29765591Y25717349D01*
X29759868Y25714550D01*
X29660000Y25700000D01*
X28760000Y25700000D01*
X28660132Y25714550D01*
X28654410Y25717348D01*
X28652037Y25717723D01*
X28614035Y25737086D01*
X28556623Y25765153D01*
X28475153Y25846623D01*
X28447104Y25903997D01*
X28427723Y25942035D01*
X28427346Y25944412D01*
X28424550Y25950132D01*
X28410000Y26050000D01*
X28410000Y26750000D01*
X28424550Y26849868D01*
X28427345Y26855587D01*
X28427722Y26857963D01*
X28447108Y26896013D01*
X28475153Y26953377D01*
X28556623Y27034847D01*
X28613971Y27062884D01*
X28652034Y27082277D01*
X28654411Y27082654D01*
X28660132Y27085450D01*
X28760000Y27100000D01*
X29660000Y27100000D01*
X29759868Y27085450D01*
G37*
G36*
X87537714Y28657705D02*
G01*
X87673548Y28601441D01*
X87795795Y28519758D01*
X87899758Y28415795D01*
X87981441Y28293548D01*
X88037705Y28157714D01*
X88066389Y28013513D01*
X88066389Y27866487D01*
X88037705Y27722286D01*
X87981441Y27586452D01*
X87899758Y27464205D01*
X87795795Y27360242D01*
X87673548Y27278559D01*
X87537714Y27222295D01*
X87393513Y27193611D01*
X87246487Y27193611D01*
X87102286Y27222295D01*
X86966452Y27278559D01*
X86844205Y27360242D01*
X86740242Y27464205D01*
X86658559Y27586452D01*
X86602295Y27722286D01*
X86573611Y27866487D01*
X86573611Y28013513D01*
X86602295Y28157714D01*
X86658559Y28293548D01*
X86740242Y28415795D01*
X86844205Y28519758D01*
X86966452Y28601441D01*
X87102286Y28657705D01*
X87246487Y28686389D01*
X87393513Y28686389D01*
X87537714Y28657705D01*
G37*
G36*
X90077714Y28657705D02*
G01*
X90213548Y28601441D01*
X90335795Y28519758D01*
X90439758Y28415795D01*
X90521441Y28293548D01*
X90577705Y28157714D01*
X90606389Y28013513D01*
X90606389Y27866487D01*
X90577705Y27722286D01*
X90521441Y27586452D01*
X90439758Y27464205D01*
X90335795Y27360242D01*
X90213548Y27278559D01*
X90077714Y27222295D01*
X89933513Y27193611D01*
X89786487Y27193611D01*
X89642286Y27222295D01*
X89506452Y27278559D01*
X89384205Y27360242D01*
X89280242Y27464205D01*
X89198559Y27586452D01*
X89142295Y27722286D01*
X89113611Y27866487D01*
X89113611Y28013513D01*
X89142295Y28157714D01*
X89198559Y28293548D01*
X89280242Y28415795D01*
X89384205Y28519758D01*
X89506452Y28601441D01*
X89642286Y28657705D01*
X89786487Y28686389D01*
X89933513Y28686389D01*
X90077714Y28657705D01*
G37*
G36*
X92657714Y28657705D02*
G01*
X92793548Y28601441D01*
X92915795Y28519758D01*
X93019758Y28415795D01*
X93101441Y28293548D01*
X93157705Y28157714D01*
X93186389Y28013513D01*
X93186389Y27866487D01*
X93157705Y27722286D01*
X93101441Y27586452D01*
X93019758Y27464205D01*
X92915795Y27360242D01*
X92793548Y27278559D01*
X92657714Y27222295D01*
X92513513Y27193611D01*
X92366487Y27193611D01*
X92222286Y27222295D01*
X92086452Y27278559D01*
X91964205Y27360242D01*
X91860242Y27464205D01*
X91778559Y27586452D01*
X91722295Y27722286D01*
X91693611Y27866487D01*
X91693611Y28013513D01*
X91722295Y28157714D01*
X91778559Y28293548D01*
X91860242Y28415795D01*
X91964205Y28519758D01*
X92086452Y28601441D01*
X92222286Y28657705D01*
X92366487Y28686389D01*
X92513513Y28686389D01*
X92657714Y28657705D01*
G37*
G36*
X87537714Y31197705D02*
G01*
X87673548Y31141441D01*
X87795795Y31059758D01*
X87899758Y30955795D01*
X87981441Y30833548D01*
X88037705Y30697714D01*
X88066389Y30553513D01*
X88066389Y30406487D01*
X88037705Y30262286D01*
X87981441Y30126452D01*
X87899758Y30004205D01*
X87795795Y29900242D01*
X87673548Y29818559D01*
X87537714Y29762295D01*
X87393513Y29733611D01*
X87246487Y29733611D01*
X87102286Y29762295D01*
X86966452Y29818559D01*
X86844205Y29900242D01*
X86740242Y30004205D01*
X86658559Y30126452D01*
X86602295Y30262286D01*
X86573611Y30406487D01*
X86573611Y30553513D01*
X86602295Y30697714D01*
X86658559Y30833548D01*
X86740242Y30955795D01*
X86844205Y31059758D01*
X86966452Y31141441D01*
X87102286Y31197705D01*
X87246487Y31226389D01*
X87393513Y31226389D01*
X87537714Y31197705D01*
G37*
G36*
X90077714Y31197705D02*
G01*
X90213548Y31141441D01*
X90335795Y31059758D01*
X90439758Y30955795D01*
X90521441Y30833548D01*
X90577705Y30697714D01*
X90606389Y30553513D01*
X90606389Y30406487D01*
X90577705Y30262286D01*
X90521441Y30126452D01*
X90439758Y30004205D01*
X90335795Y29900242D01*
X90213548Y29818559D01*
X90077714Y29762295D01*
X89933513Y29733611D01*
X89786487Y29733611D01*
X89642286Y29762295D01*
X89506452Y29818559D01*
X89384205Y29900242D01*
X89280242Y30004205D01*
X89198559Y30126452D01*
X89142295Y30262286D01*
X89113611Y30406487D01*
X89113611Y30553513D01*
X89142295Y30697714D01*
X89198559Y30833548D01*
X89280242Y30955795D01*
X89384205Y31059758D01*
X89506452Y31141441D01*
X89642286Y31197705D01*
X89786487Y31226389D01*
X89933513Y31226389D01*
X90077714Y31197705D01*
G37*
G36*
X92657714Y31197705D02*
G01*
X92793548Y31141441D01*
X92915795Y31059758D01*
X93019758Y30955795D01*
X93101441Y30833548D01*
X93157705Y30697714D01*
X93186389Y30553513D01*
X93186389Y30406487D01*
X93157705Y30262286D01*
X93101441Y30126452D01*
X93019758Y30004205D01*
X92915795Y29900242D01*
X92793548Y29818559D01*
X92657714Y29762295D01*
X92513513Y29733611D01*
X92366487Y29733611D01*
X92222286Y29762295D01*
X92086452Y29818559D01*
X91964205Y29900242D01*
X91860242Y30004205D01*
X91778559Y30126452D01*
X91722295Y30262286D01*
X91693611Y30406487D01*
X91693611Y30553513D01*
X91722295Y30697714D01*
X91778559Y30833548D01*
X91860242Y30955795D01*
X91964205Y31059758D01*
X92086452Y31141441D01*
X92222286Y31197705D01*
X92366487Y31226389D01*
X92513513Y31226389D01*
X92657714Y31197705D01*
G37*
G36*
X36046454Y35876499D02*
G01*
X36344377Y35808500D01*
X36632812Y35707572D01*
X36908134Y35574984D01*
X37166879Y35412403D01*
X37405794Y35221875D01*
X37621875Y35005794D01*
X37812403Y34766879D01*
X37974984Y34508134D01*
X38107572Y34232812D01*
X38208500Y33944377D01*
X38276499Y33646454D01*
X38310713Y33342792D01*
X38310713Y33037208D01*
X38276499Y32733546D01*
X38208500Y32435623D01*
X38107572Y32147188D01*
X37974984Y31871866D01*
X37812403Y31613121D01*
X37621875Y31374206D01*
X37405794Y31158125D01*
X37166879Y30967597D01*
X36908134Y30805016D01*
X36632812Y30672428D01*
X36344377Y30571500D01*
X36046454Y30503501D01*
X35742792Y30469287D01*
X35437208Y30469287D01*
X35133546Y30503501D01*
X34835623Y30571500D01*
X34547188Y30672428D01*
X34271866Y30805016D01*
X34013121Y30967597D01*
X33774206Y31158125D01*
X33558125Y31374206D01*
X33367597Y31613121D01*
X33205016Y31871866D01*
X33072428Y32147188D01*
X32971500Y32435623D01*
X32903501Y32733546D01*
X32869287Y33037208D01*
X32869287Y33342792D01*
X32903501Y33646454D01*
X32971500Y33944377D01*
X33072428Y34232812D01*
X33205016Y34508134D01*
X33367597Y34766879D01*
X33558125Y35005794D01*
X33774206Y35221875D01*
X34013121Y35412403D01*
X34271866Y35574984D01*
X34547188Y35707572D01*
X34835623Y35808500D01*
X35133546Y35876499D01*
X35437208Y35910713D01*
X35742792Y35910713D01*
X36046454Y35876499D01*
G37*
G36*
X84719868Y34945450D02*
G01*
X84725586Y34942655D01*
X84727962Y34942278D01*
X84765987Y34922904D01*
X84823377Y34894847D01*
X84904847Y34813377D01*
X84932907Y34755980D01*
X84952276Y34717966D01*
X84952652Y34715592D01*
X84955450Y34709868D01*
X84970000Y34610000D01*
X84970000Y32810000D01*
X84955450Y32710132D01*
X84952652Y32704411D01*
X84952277Y32702038D01*
X84932926Y32664061D01*
X84904847Y32606623D01*
X84823377Y32525153D01*
X84765955Y32497081D01*
X84727965Y32477724D01*
X84725591Y32477349D01*
X84719868Y32474550D01*
X84620000Y32460000D01*
X83820000Y32460000D01*
X83720132Y32474550D01*
X83714410Y32477348D01*
X83712037Y32477723D01*
X83674035Y32497086D01*
X83616623Y32525153D01*
X83535153Y32606623D01*
X83507104Y32663997D01*
X83487723Y32702035D01*
X83487346Y32704412D01*
X83484550Y32710132D01*
X83470000Y32810000D01*
X83470000Y34610000D01*
X83484550Y34709868D01*
X83487345Y34715587D01*
X83487722Y34717963D01*
X83507108Y34756013D01*
X83535153Y34813377D01*
X83616623Y34894847D01*
X83673971Y34922884D01*
X83712034Y34942277D01*
X83714411Y34942654D01*
X83720132Y34945450D01*
X83820000Y34960000D01*
X84620000Y34960000D01*
X84719868Y34945450D01*
G37*
G36*
X86619868Y34945450D02*
G01*
X86625586Y34942655D01*
X86627962Y34942278D01*
X86665987Y34922904D01*
X86723377Y34894847D01*
X86804847Y34813377D01*
X86832907Y34755980D01*
X86852276Y34717966D01*
X86852652Y34715592D01*
X86855450Y34709868D01*
X86870000Y34610000D01*
X86870000Y32810000D01*
X86855450Y32710132D01*
X86852652Y32704411D01*
X86852277Y32702038D01*
X86832926Y32664061D01*
X86804847Y32606623D01*
X86723377Y32525153D01*
X86665955Y32497081D01*
X86627965Y32477724D01*
X86625591Y32477349D01*
X86619868Y32474550D01*
X86520000Y32460000D01*
X85720000Y32460000D01*
X85620132Y32474550D01*
X85614410Y32477348D01*
X85612037Y32477723D01*
X85574035Y32497086D01*
X85516623Y32525153D01*
X85435153Y32606623D01*
X85407104Y32663997D01*
X85387723Y32702035D01*
X85387346Y32704412D01*
X85384550Y32710132D01*
X85370000Y32810000D01*
X85370000Y34610000D01*
X85384550Y34709868D01*
X85387345Y34715587D01*
X85387722Y34717963D01*
X85407108Y34756013D01*
X85435153Y34813377D01*
X85516623Y34894847D01*
X85573971Y34922884D01*
X85612034Y34942277D01*
X85614411Y34942654D01*
X85620132Y34945450D01*
X85720000Y34960000D01*
X86520000Y34960000D01*
X86619868Y34945450D01*
G37*
G36*
X11048268Y35232388D02*
G01*
X11080711Y35210711D01*
X11102388Y35178268D01*
X11110000Y35140000D01*
X11110000Y33440000D01*
X11102388Y33401732D01*
X11080711Y33369289D01*
X11048268Y33347612D01*
X11010000Y33340000D01*
X9310000Y33340000D01*
X9271732Y33347612D01*
X9239289Y33369289D01*
X9217612Y33401732D01*
X9210000Y33440000D01*
X9210000Y35140000D01*
X9217612Y35178268D01*
X9239289Y35210711D01*
X9271732Y35232388D01*
X9310000Y35240000D01*
X11010000Y35240000D01*
X11048268Y35232388D01*
G37*
G36*
X12975770Y35199093D02*
G01*
X13147827Y35127825D01*
X13302674Y35024360D01*
X13434360Y34892674D01*
X13537825Y34737827D01*
X13609093Y34565770D01*
X13645425Y34383116D01*
X13645425Y34196884D01*
X13609093Y34014230D01*
X13537825Y33842173D01*
X13434360Y33687326D01*
X13302674Y33555640D01*
X13147827Y33452175D01*
X12975770Y33380907D01*
X12793116Y33344575D01*
X12606884Y33344575D01*
X12424230Y33380907D01*
X12252173Y33452175D01*
X12097326Y33555640D01*
X11965640Y33687326D01*
X11862175Y33842173D01*
X11790907Y34014230D01*
X11754575Y34196884D01*
X11754575Y34383116D01*
X11790907Y34565770D01*
X11862175Y34737827D01*
X11965640Y34892674D01*
X12097326Y35024360D01*
X12252173Y35127825D01*
X12424230Y35199093D01*
X12606884Y35235425D01*
X12793116Y35235425D01*
X12975770Y35199093D01*
G37*
G36*
X15515770Y35199093D02*
G01*
X15687827Y35127825D01*
X15842674Y35024360D01*
X15974360Y34892674D01*
X16077825Y34737827D01*
X16149093Y34565770D01*
X16185425Y34383116D01*
X16185425Y34196884D01*
X16149093Y34014230D01*
X16077825Y33842173D01*
X15974360Y33687326D01*
X15842674Y33555640D01*
X15687827Y33452175D01*
X15515770Y33380907D01*
X15333116Y33344575D01*
X15146884Y33344575D01*
X14964230Y33380907D01*
X14792173Y33452175D01*
X14637326Y33555640D01*
X14505640Y33687326D01*
X14402175Y33842173D01*
X14330907Y34014230D01*
X14294575Y34196884D01*
X14294575Y34383116D01*
X14330907Y34565770D01*
X14402175Y34737827D01*
X14505640Y34892674D01*
X14637326Y35024360D01*
X14792173Y35127825D01*
X14964230Y35199093D01*
X15146884Y35235425D01*
X15333116Y35235425D01*
X15515770Y35199093D01*
G37*
G36*
X18055770Y35199093D02*
G01*
X18227827Y35127825D01*
X18382674Y35024360D01*
X18514360Y34892674D01*
X18617825Y34737827D01*
X18689093Y34565770D01*
X18725425Y34383116D01*
X18725425Y34196884D01*
X18689093Y34014230D01*
X18617825Y33842173D01*
X18514360Y33687326D01*
X18382674Y33555640D01*
X18227827Y33452175D01*
X18055770Y33380907D01*
X17873116Y33344575D01*
X17686884Y33344575D01*
X17504230Y33380907D01*
X17332173Y33452175D01*
X17177326Y33555640D01*
X17045640Y33687326D01*
X16942175Y33842173D01*
X16870907Y34014230D01*
X16834575Y34196884D01*
X16834575Y34383116D01*
X16870907Y34565770D01*
X16942175Y34737827D01*
X17045640Y34892674D01*
X17177326Y35024360D01*
X17332173Y35127825D01*
X17504230Y35199093D01*
X17686884Y35235425D01*
X17873116Y35235425D01*
X18055770Y35199093D01*
G37*
G36*
X20595770Y35199093D02*
G01*
X20767827Y35127825D01*
X20922674Y35024360D01*
X21054360Y34892674D01*
X21157825Y34737827D01*
X21229093Y34565770D01*
X21265425Y34383116D01*
X21265425Y34196884D01*
X21229093Y34014230D01*
X21157825Y33842173D01*
X21054360Y33687326D01*
X20922674Y33555640D01*
X20767827Y33452175D01*
X20595770Y33380907D01*
X20413116Y33344575D01*
X20226884Y33344575D01*
X20044230Y33380907D01*
X19872173Y33452175D01*
X19717326Y33555640D01*
X19585640Y33687326D01*
X19482175Y33842173D01*
X19410907Y34014230D01*
X19374575Y34196884D01*
X19374575Y34383116D01*
X19410907Y34565770D01*
X19482175Y34737827D01*
X19585640Y34892674D01*
X19717326Y35024360D01*
X19872173Y35127825D01*
X20044230Y35199093D01*
X20226884Y35235425D01*
X20413116Y35235425D01*
X20595770Y35199093D01*
G37*
G36*
X23135770Y35199093D02*
G01*
X23307827Y35127825D01*
X23462674Y35024360D01*
X23594360Y34892674D01*
X23697825Y34737827D01*
X23769093Y34565770D01*
X23805425Y34383116D01*
X23805425Y34196884D01*
X23769093Y34014230D01*
X23697825Y33842173D01*
X23594360Y33687326D01*
X23462674Y33555640D01*
X23307827Y33452175D01*
X23135770Y33380907D01*
X22953116Y33344575D01*
X22766884Y33344575D01*
X22584230Y33380907D01*
X22412173Y33452175D01*
X22257326Y33555640D01*
X22125640Y33687326D01*
X22022175Y33842173D01*
X21950907Y34014230D01*
X21914575Y34196884D01*
X21914575Y34383116D01*
X21950907Y34565770D01*
X22022175Y34737827D01*
X22125640Y34892674D01*
X22257326Y35024360D01*
X22412173Y35127825D01*
X22584230Y35199093D01*
X22766884Y35235425D01*
X22953116Y35235425D01*
X23135770Y35199093D01*
G37*
G36*
X25675770Y35199093D02*
G01*
X25847827Y35127825D01*
X26002674Y35024360D01*
X26134360Y34892674D01*
X26237825Y34737827D01*
X26309093Y34565770D01*
X26345425Y34383116D01*
X26345425Y34196884D01*
X26309093Y34014230D01*
X26237825Y33842173D01*
X26134360Y33687326D01*
X26002674Y33555640D01*
X25847827Y33452175D01*
X25675770Y33380907D01*
X25493116Y33344575D01*
X25306884Y33344575D01*
X25124230Y33380907D01*
X24952173Y33452175D01*
X24797326Y33555640D01*
X24665640Y33687326D01*
X24562175Y33842173D01*
X24490907Y34014230D01*
X24454575Y34196884D01*
X24454575Y34383116D01*
X24490907Y34565770D01*
X24562175Y34737827D01*
X24665640Y34892674D01*
X24797326Y35024360D01*
X24952173Y35127825D01*
X25124230Y35199093D01*
X25306884Y35235425D01*
X25493116Y35235425D01*
X25675770Y35199093D01*
G37*
G36*
X28215770Y35199093D02*
G01*
X28387827Y35127825D01*
X28542674Y35024360D01*
X28674360Y34892674D01*
X28777825Y34737827D01*
X28849093Y34565770D01*
X28885425Y34383116D01*
X28885425Y34196884D01*
X28849093Y34014230D01*
X28777825Y33842173D01*
X28674360Y33687326D01*
X28542674Y33555640D01*
X28387827Y33452175D01*
X28215770Y33380907D01*
X28033116Y33344575D01*
X27846884Y33344575D01*
X27664230Y33380907D01*
X27492173Y33452175D01*
X27337326Y33555640D01*
X27205640Y33687326D01*
X27102175Y33842173D01*
X27030907Y34014230D01*
X26994575Y34196884D01*
X26994575Y34383116D01*
X27030907Y34565770D01*
X27102175Y34737827D01*
X27205640Y34892674D01*
X27337326Y35024360D01*
X27492173Y35127825D01*
X27664230Y35199093D01*
X27846884Y35235425D01*
X28033116Y35235425D01*
X28215770Y35199093D01*
G37*
G36*
X76702923Y39309616D02*
G01*
X76792651Y39302553D01*
X76822558Y39293865D01*
X76855291Y39289555D01*
X76897327Y39272143D01*
X76938131Y39260289D01*
X76966615Y39243444D01*
X77000000Y39229615D01*
X77033625Y39203814D01*
X77067498Y39183781D01*
X77093108Y39158171D01*
X77124264Y39134264D01*
X77148170Y39103109D01*
X77173780Y39077499D01*
X77193811Y39043628D01*
X77219615Y39010000D01*
X77233444Y38976614D01*
X77250288Y38948132D01*
X77262140Y38907333D01*
X77279555Y38865291D01*
X77283864Y38832556D01*
X77292552Y38802653D01*
X77299612Y38712943D01*
X77300000Y38710000D01*
X77300000Y36710000D01*
X77299612Y36707058D01*
X77292552Y36617349D01*
X77283865Y36587448D01*
X77279555Y36554709D01*
X77262139Y36512665D01*
X77250288Y36471869D01*
X77233445Y36443391D01*
X77219615Y36410000D01*
X77193808Y36376369D01*
X77173780Y36342502D01*
X77148173Y36316896D01*
X77124264Y36285736D01*
X77093104Y36261827D01*
X77067498Y36236220D01*
X77033632Y36216193D01*
X77000000Y36190385D01*
X76966605Y36176553D01*
X76938131Y36159713D01*
X76897340Y36147863D01*
X76855291Y36130445D01*
X76836128Y36127923D01*
X76833259Y36126226D01*
X76802674Y36095640D01*
X76647827Y35992175D01*
X76475770Y35920907D01*
X76293116Y35884575D01*
X76106884Y35884575D01*
X75924230Y35920907D01*
X75752173Y35992175D01*
X75597326Y36095640D01*
X75566743Y36126223D01*
X75563869Y36127923D01*
X75544709Y36130445D01*
X75502662Y36147862D01*
X75461868Y36159713D01*
X75433391Y36176554D01*
X75400000Y36190385D01*
X75366370Y36216190D01*
X75332501Y36236220D01*
X75306891Y36261830D01*
X75275736Y36285736D01*
X75251829Y36316892D01*
X75226219Y36342502D01*
X75206186Y36376375D01*
X75180385Y36410000D01*
X75166556Y36443385D01*
X75149711Y36471869D01*
X75137856Y36512673D01*
X75120445Y36554709D01*
X75116135Y36587440D01*
X75107447Y36617348D01*
X75100385Y36707075D01*
X75100000Y36710000D01*
X75100000Y38710000D01*
X75100384Y38712923D01*
X75107447Y38802652D01*
X75116135Y38832561D01*
X75120445Y38865291D01*
X75137856Y38907326D01*
X75149711Y38948132D01*
X75166558Y38976619D01*
X75180385Y39010000D01*
X75206184Y39043623D01*
X75226219Y39077499D01*
X75251833Y39103114D01*
X75275736Y39134264D01*
X75306886Y39158167D01*
X75332501Y39183781D01*
X75366377Y39203816D01*
X75400000Y39229615D01*
X75433381Y39243442D01*
X75461868Y39260289D01*
X75502675Y39272145D01*
X75544709Y39289555D01*
X75577438Y39293864D01*
X75607347Y39302553D01*
X75697076Y39309616D01*
X75700000Y39310000D01*
X76700000Y39310000D01*
X76702923Y39309616D01*
G37*
G36*
X79242923Y39309616D02*
G01*
X79332651Y39302553D01*
X79362558Y39293865D01*
X79395291Y39289555D01*
X79437327Y39272143D01*
X79478131Y39260289D01*
X79506615Y39243444D01*
X79540000Y39229615D01*
X79573625Y39203814D01*
X79607498Y39183781D01*
X79633108Y39158171D01*
X79664264Y39134264D01*
X79688170Y39103109D01*
X79713780Y39077499D01*
X79733811Y39043628D01*
X79759615Y39010000D01*
X79773444Y38976614D01*
X79790288Y38948132D01*
X79802140Y38907333D01*
X79819555Y38865291D01*
X79823864Y38832556D01*
X79832552Y38802653D01*
X79839612Y38712943D01*
X79840000Y38710000D01*
X79840000Y36710000D01*
X79839612Y36707058D01*
X79832552Y36617349D01*
X79823865Y36587448D01*
X79819555Y36554709D01*
X79802139Y36512665D01*
X79790288Y36471869D01*
X79773445Y36443391D01*
X79759615Y36410000D01*
X79733808Y36376369D01*
X79713780Y36342502D01*
X79688173Y36316896D01*
X79664264Y36285736D01*
X79633104Y36261827D01*
X79607498Y36236220D01*
X79573632Y36216193D01*
X79540000Y36190385D01*
X79506605Y36176553D01*
X79478131Y36159713D01*
X79437340Y36147863D01*
X79395291Y36130445D01*
X79376128Y36127923D01*
X79373259Y36126226D01*
X79342674Y36095640D01*
X79187827Y35992175D01*
X79015770Y35920907D01*
X78833116Y35884575D01*
X78646884Y35884575D01*
X78464230Y35920907D01*
X78292173Y35992175D01*
X78137326Y36095640D01*
X78106743Y36126223D01*
X78103869Y36127923D01*
X78084709Y36130445D01*
X78042662Y36147862D01*
X78001868Y36159713D01*
X77973391Y36176554D01*
X77940000Y36190385D01*
X77906370Y36216190D01*
X77872501Y36236220D01*
X77846891Y36261830D01*
X77815736Y36285736D01*
X77791829Y36316892D01*
X77766219Y36342502D01*
X77746186Y36376375D01*
X77720385Y36410000D01*
X77706556Y36443385D01*
X77689711Y36471869D01*
X77677856Y36512673D01*
X77660445Y36554709D01*
X77656135Y36587440D01*
X77647447Y36617348D01*
X77640385Y36707075D01*
X77640000Y36710000D01*
X77640000Y38710000D01*
X77640384Y38712923D01*
X77647447Y38802652D01*
X77656135Y38832561D01*
X77660445Y38865291D01*
X77677856Y38907326D01*
X77689711Y38948132D01*
X77706558Y38976619D01*
X77720385Y39010000D01*
X77746184Y39043623D01*
X77766219Y39077499D01*
X77791833Y39103114D01*
X77815736Y39134264D01*
X77846886Y39158167D01*
X77872501Y39183781D01*
X77906377Y39203816D01*
X77940000Y39229615D01*
X77973381Y39243442D01*
X78001868Y39260289D01*
X78042675Y39272145D01*
X78084709Y39289555D01*
X78117438Y39293864D01*
X78147347Y39302553D01*
X78237076Y39309616D01*
X78240000Y39310000D01*
X79240000Y39310000D01*
X79242923Y39309616D01*
G37*
G36*
X81782923Y39309616D02*
G01*
X81872651Y39302553D01*
X81902558Y39293865D01*
X81935291Y39289555D01*
X81977327Y39272143D01*
X82018131Y39260289D01*
X82046615Y39243444D01*
X82080000Y39229615D01*
X82113625Y39203814D01*
X82147498Y39183781D01*
X82173108Y39158171D01*
X82204264Y39134264D01*
X82228170Y39103109D01*
X82253780Y39077499D01*
X82273811Y39043628D01*
X82299615Y39010000D01*
X82313444Y38976614D01*
X82330288Y38948132D01*
X82342140Y38907333D01*
X82359555Y38865291D01*
X82363864Y38832556D01*
X82372552Y38802653D01*
X82379612Y38712943D01*
X82380000Y38710000D01*
X82380000Y36710000D01*
X82379612Y36707058D01*
X82372552Y36617349D01*
X82363865Y36587448D01*
X82359555Y36554709D01*
X82342139Y36512665D01*
X82330288Y36471869D01*
X82313445Y36443391D01*
X82299615Y36410000D01*
X82273808Y36376369D01*
X82253780Y36342502D01*
X82228173Y36316896D01*
X82204264Y36285736D01*
X82173104Y36261827D01*
X82147498Y36236220D01*
X82113632Y36216193D01*
X82080000Y36190385D01*
X82046605Y36176553D01*
X82018131Y36159713D01*
X81977340Y36147863D01*
X81935291Y36130445D01*
X81916128Y36127923D01*
X81913259Y36126226D01*
X81882674Y36095640D01*
X81727827Y35992175D01*
X81555770Y35920907D01*
X81373116Y35884575D01*
X81186884Y35884575D01*
X81004230Y35920907D01*
X80832173Y35992175D01*
X80677326Y36095640D01*
X80646743Y36126223D01*
X80643869Y36127923D01*
X80624709Y36130445D01*
X80582662Y36147862D01*
X80541868Y36159713D01*
X80513391Y36176554D01*
X80480000Y36190385D01*
X80446370Y36216190D01*
X80412501Y36236220D01*
X80386891Y36261830D01*
X80355736Y36285736D01*
X80331829Y36316892D01*
X80306219Y36342502D01*
X80286186Y36376375D01*
X80260385Y36410000D01*
X80246556Y36443385D01*
X80229711Y36471869D01*
X80217856Y36512673D01*
X80200445Y36554709D01*
X80196135Y36587440D01*
X80187447Y36617348D01*
X80180385Y36707075D01*
X80180000Y36710000D01*
X80180000Y38710000D01*
X80180384Y38712923D01*
X80187447Y38802652D01*
X80196135Y38832561D01*
X80200445Y38865291D01*
X80217856Y38907326D01*
X80229711Y38948132D01*
X80246558Y38976619D01*
X80260385Y39010000D01*
X80286184Y39043623D01*
X80306219Y39077499D01*
X80331833Y39103114D01*
X80355736Y39134264D01*
X80386886Y39158167D01*
X80412501Y39183781D01*
X80446377Y39203816D01*
X80480000Y39229615D01*
X80513381Y39243442D01*
X80541868Y39260289D01*
X80582675Y39272145D01*
X80624709Y39289555D01*
X80657438Y39293864D01*
X80687347Y39302553D01*
X80777076Y39309616D01*
X80780000Y39310000D01*
X81780000Y39310000D01*
X81782923Y39309616D01*
G37*
G36*
X84322923Y39309616D02*
G01*
X84412651Y39302553D01*
X84442558Y39293865D01*
X84475291Y39289555D01*
X84517327Y39272143D01*
X84558131Y39260289D01*
X84586615Y39243444D01*
X84620000Y39229615D01*
X84653625Y39203814D01*
X84687498Y39183781D01*
X84713108Y39158171D01*
X84744264Y39134264D01*
X84768170Y39103109D01*
X84793780Y39077499D01*
X84813811Y39043628D01*
X84839615Y39010000D01*
X84853444Y38976614D01*
X84870288Y38948132D01*
X84882140Y38907333D01*
X84899555Y38865291D01*
X84903864Y38832556D01*
X84912552Y38802653D01*
X84919612Y38712943D01*
X84920000Y38710000D01*
X84920000Y36710000D01*
X84919612Y36707058D01*
X84912552Y36617349D01*
X84903865Y36587448D01*
X84899555Y36554709D01*
X84882139Y36512665D01*
X84870288Y36471869D01*
X84853445Y36443391D01*
X84839615Y36410000D01*
X84813808Y36376369D01*
X84793780Y36342502D01*
X84768173Y36316896D01*
X84744264Y36285736D01*
X84713104Y36261827D01*
X84687498Y36236220D01*
X84653632Y36216193D01*
X84620000Y36190385D01*
X84586605Y36176553D01*
X84558131Y36159713D01*
X84517340Y36147863D01*
X84475291Y36130445D01*
X84456128Y36127923D01*
X84453259Y36126226D01*
X84422674Y36095640D01*
X84267827Y35992175D01*
X84095770Y35920907D01*
X83913116Y35884575D01*
X83726884Y35884575D01*
X83544230Y35920907D01*
X83372173Y35992175D01*
X83217326Y36095640D01*
X83186743Y36126223D01*
X83183869Y36127923D01*
X83164709Y36130445D01*
X83122662Y36147862D01*
X83081868Y36159713D01*
X83053391Y36176554D01*
X83020000Y36190385D01*
X82986370Y36216190D01*
X82952501Y36236220D01*
X82926891Y36261830D01*
X82895736Y36285736D01*
X82871829Y36316892D01*
X82846219Y36342502D01*
X82826186Y36376375D01*
X82800385Y36410000D01*
X82786556Y36443385D01*
X82769711Y36471869D01*
X82757856Y36512673D01*
X82740445Y36554709D01*
X82736135Y36587440D01*
X82727447Y36617348D01*
X82720385Y36707075D01*
X82720000Y36710000D01*
X82720000Y38710000D01*
X82720384Y38712923D01*
X82727447Y38802652D01*
X82736135Y38832561D01*
X82740445Y38865291D01*
X82757856Y38907326D01*
X82769711Y38948132D01*
X82786558Y38976619D01*
X82800385Y39010000D01*
X82826184Y39043623D01*
X82846219Y39077499D01*
X82871833Y39103114D01*
X82895736Y39134264D01*
X82926886Y39158167D01*
X82952501Y39183781D01*
X82986377Y39203816D01*
X83020000Y39229615D01*
X83053381Y39243442D01*
X83081868Y39260289D01*
X83122675Y39272145D01*
X83164709Y39289555D01*
X83197438Y39293864D01*
X83227347Y39302553D01*
X83317076Y39309616D01*
X83320000Y39310000D01*
X84320000Y39310000D01*
X84322923Y39309616D01*
G37*
G36*
X86862923Y39309616D02*
G01*
X86952651Y39302553D01*
X86982558Y39293865D01*
X87015291Y39289555D01*
X87057327Y39272143D01*
X87098131Y39260289D01*
X87126615Y39243444D01*
X87160000Y39229615D01*
X87193625Y39203814D01*
X87227498Y39183781D01*
X87253108Y39158171D01*
X87284264Y39134264D01*
X87308170Y39103109D01*
X87333780Y39077499D01*
X87353811Y39043628D01*
X87379615Y39010000D01*
X87393444Y38976614D01*
X87410288Y38948132D01*
X87422140Y38907333D01*
X87439555Y38865291D01*
X87443864Y38832556D01*
X87452552Y38802653D01*
X87459612Y38712943D01*
X87460000Y38710000D01*
X87460000Y36710000D01*
X87459612Y36707058D01*
X87452552Y36617349D01*
X87443865Y36587448D01*
X87439555Y36554709D01*
X87422139Y36512665D01*
X87410288Y36471869D01*
X87393445Y36443391D01*
X87379615Y36410000D01*
X87353808Y36376369D01*
X87333780Y36342502D01*
X87308173Y36316896D01*
X87284264Y36285736D01*
X87253104Y36261827D01*
X87227498Y36236220D01*
X87193632Y36216193D01*
X87160000Y36190385D01*
X87126605Y36176553D01*
X87098131Y36159713D01*
X87057340Y36147863D01*
X87015291Y36130445D01*
X86996128Y36127923D01*
X86993259Y36126226D01*
X86962674Y36095640D01*
X86807827Y35992175D01*
X86635770Y35920907D01*
X86453116Y35884575D01*
X86266884Y35884575D01*
X86084230Y35920907D01*
X85912173Y35992175D01*
X85757326Y36095640D01*
X85726743Y36126223D01*
X85723869Y36127923D01*
X85704709Y36130445D01*
X85662662Y36147862D01*
X85621868Y36159713D01*
X85593391Y36176554D01*
X85560000Y36190385D01*
X85526370Y36216190D01*
X85492501Y36236220D01*
X85466891Y36261830D01*
X85435736Y36285736D01*
X85411829Y36316892D01*
X85386219Y36342502D01*
X85366186Y36376375D01*
X85340385Y36410000D01*
X85326556Y36443385D01*
X85309711Y36471869D01*
X85297856Y36512673D01*
X85280445Y36554709D01*
X85276135Y36587440D01*
X85267447Y36617348D01*
X85260385Y36707075D01*
X85260000Y36710000D01*
X85260000Y38710000D01*
X85260384Y38712923D01*
X85267447Y38802652D01*
X85276135Y38832561D01*
X85280445Y38865291D01*
X85297856Y38907326D01*
X85309711Y38948132D01*
X85326558Y38976619D01*
X85340385Y39010000D01*
X85366184Y39043623D01*
X85386219Y39077499D01*
X85411833Y39103114D01*
X85435736Y39134264D01*
X85466886Y39158167D01*
X85492501Y39183781D01*
X85526377Y39203816D01*
X85560000Y39229615D01*
X85593381Y39243442D01*
X85621868Y39260289D01*
X85662675Y39272145D01*
X85704709Y39289555D01*
X85737438Y39293864D01*
X85767347Y39302553D01*
X85857076Y39309616D01*
X85860000Y39310000D01*
X86860000Y39310000D01*
X86862923Y39309616D01*
G37*
G36*
X89402923Y39309616D02*
G01*
X89492651Y39302553D01*
X89522558Y39293865D01*
X89555291Y39289555D01*
X89597327Y39272143D01*
X89638131Y39260289D01*
X89666615Y39243444D01*
X89700000Y39229615D01*
X89733625Y39203814D01*
X89767498Y39183781D01*
X89793108Y39158171D01*
X89824264Y39134264D01*
X89848170Y39103109D01*
X89873780Y39077499D01*
X89893811Y39043628D01*
X89919615Y39010000D01*
X89933444Y38976614D01*
X89950288Y38948132D01*
X89962140Y38907333D01*
X89979555Y38865291D01*
X89983864Y38832556D01*
X89992552Y38802653D01*
X89999612Y38712943D01*
X90000000Y38710000D01*
X90000000Y36710000D01*
X89999612Y36707058D01*
X89992552Y36617349D01*
X89983865Y36587448D01*
X89979555Y36554709D01*
X89962139Y36512665D01*
X89950288Y36471869D01*
X89933445Y36443391D01*
X89919615Y36410000D01*
X89893808Y36376369D01*
X89873780Y36342502D01*
X89848173Y36316896D01*
X89824264Y36285736D01*
X89793104Y36261827D01*
X89767498Y36236220D01*
X89733632Y36216193D01*
X89700000Y36190385D01*
X89666605Y36176553D01*
X89638131Y36159713D01*
X89597340Y36147863D01*
X89555291Y36130445D01*
X89536128Y36127923D01*
X89533259Y36126226D01*
X89502674Y36095640D01*
X89347827Y35992175D01*
X89175770Y35920907D01*
X88993116Y35884575D01*
X88806884Y35884575D01*
X88624230Y35920907D01*
X88452173Y35992175D01*
X88297326Y36095640D01*
X88266743Y36126223D01*
X88263869Y36127923D01*
X88244709Y36130445D01*
X88202662Y36147862D01*
X88161868Y36159713D01*
X88133391Y36176554D01*
X88100000Y36190385D01*
X88066370Y36216190D01*
X88032501Y36236220D01*
X88006891Y36261830D01*
X87975736Y36285736D01*
X87951829Y36316892D01*
X87926219Y36342502D01*
X87906186Y36376375D01*
X87880385Y36410000D01*
X87866556Y36443385D01*
X87849711Y36471869D01*
X87837856Y36512673D01*
X87820445Y36554709D01*
X87816135Y36587440D01*
X87807447Y36617348D01*
X87800385Y36707075D01*
X87800000Y36710000D01*
X87800000Y38710000D01*
X87800384Y38712923D01*
X87807447Y38802652D01*
X87816135Y38832561D01*
X87820445Y38865291D01*
X87837856Y38907326D01*
X87849711Y38948132D01*
X87866558Y38976619D01*
X87880385Y39010000D01*
X87906184Y39043623D01*
X87926219Y39077499D01*
X87951833Y39103114D01*
X87975736Y39134264D01*
X88006886Y39158167D01*
X88032501Y39183781D01*
X88066377Y39203816D01*
X88100000Y39229615D01*
X88133381Y39243442D01*
X88161868Y39260289D01*
X88202675Y39272145D01*
X88244709Y39289555D01*
X88277438Y39293864D01*
X88307347Y39302553D01*
X88397076Y39309616D01*
X88400000Y39310000D01*
X89400000Y39310000D01*
X89402923Y39309616D01*
G37*
G36*
X91942923Y39309616D02*
G01*
X92032651Y39302553D01*
X92062558Y39293865D01*
X92095291Y39289555D01*
X92137327Y39272143D01*
X92178131Y39260289D01*
X92206615Y39243444D01*
X92240000Y39229615D01*
X92273625Y39203814D01*
X92307498Y39183781D01*
X92333108Y39158171D01*
X92364264Y39134264D01*
X92388170Y39103109D01*
X92413780Y39077499D01*
X92433811Y39043628D01*
X92459615Y39010000D01*
X92473444Y38976614D01*
X92490288Y38948132D01*
X92502140Y38907333D01*
X92519555Y38865291D01*
X92523864Y38832556D01*
X92532552Y38802653D01*
X92539612Y38712943D01*
X92540000Y38710000D01*
X92540000Y36710000D01*
X92539612Y36707058D01*
X92532552Y36617349D01*
X92523865Y36587448D01*
X92519555Y36554709D01*
X92502139Y36512665D01*
X92490288Y36471869D01*
X92473445Y36443391D01*
X92459615Y36410000D01*
X92433808Y36376369D01*
X92413780Y36342502D01*
X92388173Y36316896D01*
X92364264Y36285736D01*
X92333104Y36261827D01*
X92307498Y36236220D01*
X92273632Y36216193D01*
X92240000Y36190385D01*
X92206605Y36176553D01*
X92178131Y36159713D01*
X92137340Y36147863D01*
X92095291Y36130445D01*
X92076128Y36127923D01*
X92073259Y36126226D01*
X92042674Y36095640D01*
X91887827Y35992175D01*
X91715770Y35920907D01*
X91533116Y35884575D01*
X91346884Y35884575D01*
X91164230Y35920907D01*
X90992173Y35992175D01*
X90837326Y36095640D01*
X90806743Y36126223D01*
X90803869Y36127923D01*
X90784709Y36130445D01*
X90742662Y36147862D01*
X90701868Y36159713D01*
X90673391Y36176554D01*
X90640000Y36190385D01*
X90606370Y36216190D01*
X90572501Y36236220D01*
X90546891Y36261830D01*
X90515736Y36285736D01*
X90491829Y36316892D01*
X90466219Y36342502D01*
X90446186Y36376375D01*
X90420385Y36410000D01*
X90406556Y36443385D01*
X90389711Y36471869D01*
X90377856Y36512673D01*
X90360445Y36554709D01*
X90356135Y36587440D01*
X90347447Y36617348D01*
X90340385Y36707075D01*
X90340000Y36710000D01*
X90340000Y38710000D01*
X90340384Y38712923D01*
X90347447Y38802652D01*
X90356135Y38832561D01*
X90360445Y38865291D01*
X90377856Y38907326D01*
X90389711Y38948132D01*
X90406558Y38976619D01*
X90420385Y39010000D01*
X90446184Y39043623D01*
X90466219Y39077499D01*
X90491833Y39103114D01*
X90515736Y39134264D01*
X90546886Y39158167D01*
X90572501Y39183781D01*
X90606377Y39203816D01*
X90640000Y39229615D01*
X90673381Y39243442D01*
X90701868Y39260289D01*
X90742675Y39272145D01*
X90784709Y39289555D01*
X90817438Y39293864D01*
X90847347Y39302553D01*
X90937076Y39309616D01*
X90940000Y39310000D01*
X91940000Y39310000D01*
X91942923Y39309616D01*
G37*
G36*
X45873513Y40425792D02*
G01*
X46112293Y40348207D01*
X46335998Y40234224D01*
X46539117Y40086650D01*
X46716650Y39909117D01*
X46864224Y39705998D01*
X46978207Y39482293D01*
X47055792Y39243513D01*
X47095068Y38995535D01*
X47095068Y38744465D01*
X47055792Y38496487D01*
X46978207Y38257707D01*
X46864224Y38034002D01*
X46716650Y37830883D01*
X46539117Y37653350D01*
X46335998Y37505776D01*
X46112293Y37391793D01*
X45873513Y37314208D01*
X45625535Y37274932D01*
X45374465Y37274932D01*
X45126487Y37314208D01*
X44887707Y37391793D01*
X44664002Y37505776D01*
X44460883Y37653350D01*
X44283350Y37830883D01*
X44135776Y38034002D01*
X44021793Y38257707D01*
X43944208Y38496487D01*
X43904932Y38744465D01*
X43904932Y38995535D01*
X43944208Y39243513D01*
X44021793Y39482293D01*
X44135776Y39705998D01*
X44283350Y39909117D01*
X44460883Y40086650D01*
X44664002Y40234224D01*
X44887707Y40348207D01*
X45126487Y40425792D01*
X45374465Y40465068D01*
X45625535Y40465068D01*
X45873513Y40425792D01*
G37*
G36*
X69173513Y40425792D02*
G01*
X69412293Y40348207D01*
X69635998Y40234224D01*
X69839117Y40086650D01*
X70016650Y39909117D01*
X70164224Y39705998D01*
X70278207Y39482293D01*
X70355792Y39243513D01*
X70395068Y38995535D01*
X70395068Y38744465D01*
X70355792Y38496487D01*
X70278207Y38257707D01*
X70164224Y38034002D01*
X70016650Y37830883D01*
X69839117Y37653350D01*
X69635998Y37505776D01*
X69412293Y37391793D01*
X69173513Y37314208D01*
X68925535Y37274932D01*
X68674465Y37274932D01*
X68426487Y37314208D01*
X68187707Y37391793D01*
X67964002Y37505776D01*
X67760883Y37653350D01*
X67583350Y37830883D01*
X67435776Y38034002D01*
X67321793Y38257707D01*
X67244208Y38496487D01*
X67204932Y38744465D01*
X67204932Y38995535D01*
X67244208Y39243513D01*
X67321793Y39482293D01*
X67435776Y39705998D01*
X67583350Y39909117D01*
X67760883Y40086650D01*
X67964002Y40234224D01*
X68187707Y40348207D01*
X68426487Y40425792D01*
X68674465Y40465068D01*
X68925535Y40465068D01*
X69173513Y40425792D01*
G37*
G36*
X54228268Y40312388D02*
G01*
X54260711Y40290711D01*
X54282388Y40258268D01*
X54290000Y40220000D01*
X54290000Y38520000D01*
X54282388Y38481732D01*
X54260711Y38449289D01*
X54228268Y38427612D01*
X54190000Y38420000D01*
X52490000Y38420000D01*
X52451732Y38427612D01*
X52419289Y38449289D01*
X52397612Y38481732D01*
X52390000Y38520000D01*
X52390000Y40220000D01*
X52397612Y40258268D01*
X52419289Y40290711D01*
X52451732Y40312388D01*
X52490000Y40320000D01*
X54190000Y40320000D01*
X54228268Y40312388D01*
G37*
G36*
X56155770Y40279093D02*
G01*
X56327827Y40207825D01*
X56482674Y40104360D01*
X56614360Y39972674D01*
X56717825Y39817827D01*
X56789093Y39645770D01*
X56825425Y39463116D01*
X56825425Y39276884D01*
X56789093Y39094230D01*
X56717825Y38922173D01*
X56614360Y38767326D01*
X56482674Y38635640D01*
X56327827Y38532175D01*
X56155770Y38460907D01*
X55973116Y38424575D01*
X55786884Y38424575D01*
X55604230Y38460907D01*
X55432173Y38532175D01*
X55277326Y38635640D01*
X55145640Y38767326D01*
X55042175Y38922173D01*
X54970907Y39094230D01*
X54934575Y39276884D01*
X54934575Y39463116D01*
X54970907Y39645770D01*
X55042175Y39817827D01*
X55145640Y39972674D01*
X55277326Y40104360D01*
X55432173Y40207825D01*
X55604230Y40279093D01*
X55786884Y40315425D01*
X55973116Y40315425D01*
X56155770Y40279093D01*
G37*
G36*
X58695770Y40279093D02*
G01*
X58867827Y40207825D01*
X59022674Y40104360D01*
X59154360Y39972674D01*
X59257825Y39817827D01*
X59329093Y39645770D01*
X59365425Y39463116D01*
X59365425Y39276884D01*
X59329093Y39094230D01*
X59257825Y38922173D01*
X59154360Y38767326D01*
X59022674Y38635640D01*
X58867827Y38532175D01*
X58695770Y38460907D01*
X58513116Y38424575D01*
X58326884Y38424575D01*
X58144230Y38460907D01*
X57972173Y38532175D01*
X57817326Y38635640D01*
X57685640Y38767326D01*
X57582175Y38922173D01*
X57510907Y39094230D01*
X57474575Y39276884D01*
X57474575Y39463116D01*
X57510907Y39645770D01*
X57582175Y39817827D01*
X57685640Y39972674D01*
X57817326Y40104360D01*
X57972173Y40207825D01*
X58144230Y40279093D01*
X58326884Y40315425D01*
X58513116Y40315425D01*
X58695770Y40279093D01*
G37*
G36*
X61235770Y40279093D02*
G01*
X61407827Y40207825D01*
X61562674Y40104360D01*
X61694360Y39972674D01*
X61797825Y39817827D01*
X61869093Y39645770D01*
X61905425Y39463116D01*
X61905425Y39276884D01*
X61869093Y39094230D01*
X61797825Y38922173D01*
X61694360Y38767326D01*
X61562674Y38635640D01*
X61407827Y38532175D01*
X61235770Y38460907D01*
X61053116Y38424575D01*
X60866884Y38424575D01*
X60684230Y38460907D01*
X60512173Y38532175D01*
X60357326Y38635640D01*
X60225640Y38767326D01*
X60122175Y38922173D01*
X60050907Y39094230D01*
X60014575Y39276884D01*
X60014575Y39463116D01*
X60050907Y39645770D01*
X60122175Y39817827D01*
X60225640Y39972674D01*
X60357326Y40104360D01*
X60512173Y40207825D01*
X60684230Y40279093D01*
X60866884Y40315425D01*
X61053116Y40315425D01*
X61235770Y40279093D01*
G37*
M02*
