M48
; DRILL file {KiCad 9.0.6} date 2025-12-26T01:47:04+0800
; FORMAT={-:-/ absolute / inch / decimal}
; #@! TF.CreationDate,2025-12-26T01:47:04+08:00
; #@! TF.GenerationSoftware,Kicad,Pcbnew,9.0.6
; #@! TF.FileFunction,Plated,1,2,PTH
FMAT,2
INCH
; #@! TA.AperFunction,Plated,PTH,ViaDrill
T1C0.0197
; #@! TA.AperFunction,Plated,PTH,ComponentDrill
T2C0.0197
; #@! TA.AperFunction,Plated,PTH,ComponentDrill
T3C0.0256
; #@! TA.AperFunction,Plated,PTH,ComponentDrill
T4C0.0315
; #@! TA.AperFunction,Plated,PTH,ViaDrill
T5C0.0394
; #@! TA.AperFunction,Plated,PTH,ComponentDrill
T6C0.0394
; #@! TA.AperFunction,Plated,PTH,ComponentDrill
T7C0.0433
; #@! TA.AperFunction,Plated,PTH,ComponentDrill
T8C0.1260
%
G90
G05
T1
X0.3Y0.7
X0.8Y0.2
X1.0Y0.7
X1.55Y0.55
X2.15Y1.2
X2.4Y0.85
X2.45Y1.15
X2.55Y0.65
X2.85Y1.5
X3.2Y0.65
T2
X3.3157Y1.3272
X3.3906Y1.3272
X3.4055Y0.5
X3.4332Y0.5668
X3.4332Y0.4332
X3.4378Y1.2
X3.4378Y1.1
X3.5Y0.5945
X3.5Y0.4055
X3.5378Y1.2
X3.5378Y1.1
X3.5668Y0.5668
X3.5668Y0.4332
X3.5945Y0.5
X3.6394Y1.2
X3.6394Y1.1
T3
X0.5378Y0.3972
X0.5878Y0.3972
X0.6378Y0.3972
X0.6878Y0.3972
X0.7378Y0.3972
X0.7878Y0.3972
X0.8378Y0.3972
X0.8878Y0.3972
X0.9378Y0.3972
X0.9878Y0.3972
T4
X3.1Y0.55
X3.1Y0.15
X3.3Y0.55
X3.3Y0.15
T5
X2.0Y0.6
T6
X0.4Y1.35
X0.5Y1.35
X0.6Y1.35
X0.7Y1.35
X0.8Y1.35
X0.9Y1.35
X1.0Y1.35
X1.1Y1.35
X1.4425Y0.9606
X1.4425Y0.8606
X1.4425Y0.7606
X1.4425Y0.6606
X2.1Y1.55
X2.2Y1.55
X2.3Y1.55
X2.4Y1.55
X3.0Y1.45
X3.0Y0.85
X3.1Y1.45
X3.1Y0.85
X3.2Y1.45
X3.2Y0.85
X3.3Y1.45
X3.3Y0.85
X3.4Y1.45
X3.4Y0.85
X3.5Y1.45
X3.5Y0.85
X3.6Y1.45
X3.6Y0.85
T7
X1.772Y0.3386
X1.772Y0.1614
X2.028Y0.3386
X2.028Y0.1614
X2.172Y0.3386
X2.172Y0.1614
X2.428Y0.3386
X2.428Y0.1614
X2.572Y0.3386
X2.572Y0.1614
X2.828Y0.3386
X2.828Y0.1614
T8
X3.5Y0.5
M30
